<svg width="79" height="84" viewBox="0 0 79 84" fill="none" xmlns="http://www.w3.org/2000/svg">
<path d="M53.0491 51.9157C52.3636 51.8647 51.4544 51.7855 50.3615 51.664C47.7515 51.3738 44.1017 50.8433 39.9549 49.8831C31.6312 47.9558 21.4475 44.3297 13.6147 37.5696C6.36826 31.3155 7.69083 21.4546 13.4325 14.8362C16.2722 11.5628 20.0862 9.25423 24.2081 8.71397C28.2854 8.17954 32.8223 9.35249 37.2337 13.3271C46.3491 21.5399 50.2852 31.5379 51.9402 39.5257C52.7674 43.5183 53.0211 46.9939 53.0682 49.4651C53.087 50.4554 53.0727 51.2828 53.0491 51.9157Z" stroke="#FFE193" stroke-width="3"/>
<path d="M63.7086 48.9231C63.5228 48.7038 63.3114 48.446 63.0804 48.151C62.1932 47.0181 61.0228 45.3434 59.9102 43.1985C57.6855 38.9092 55.709 32.7756 56.6456 25.3245C57.0919 21.7745 58.6246 19.4018 60.5471 17.975C62.4906 16.5327 64.9431 15.9749 67.3476 16.2722C72.1172 16.8617 76.5512 20.7783 75.9964 27.6169C75.4037 34.922 72.086 40.4221 68.8809 44.1203C67.2792 45.9685 65.7152 47.3546 64.5566 48.2752C64.2407 48.5263 63.9555 48.7423 63.7086 48.9231Z" stroke="#FFE193" stroke-width="3"/>
<path d="M50.1936 61.1162C50.0779 61.3793 49.9389 61.6824 49.775 62.0193C49.1457 63.3134 48.1536 65.0994 46.7134 67.0397C43.8335 70.9196 39.1871 75.3847 32.0795 77.8093C28.6932 78.9644 25.8887 78.6269 23.7635 77.5245C21.6152 76.41 20.0388 74.4502 19.2519 72.1588C17.6909 67.6134 19.2673 61.9112 25.6571 59.412C32.4827 56.7424 38.8805 57.3132 43.6095 58.5728C45.9727 59.2022 47.9042 60.0003 49.2395 60.638C49.6037 60.8119 49.9229 60.9736 50.1936 61.1162Z" stroke="#FFE193" stroke-width="3"/>
</svg>
