<svg width="79" height="84" viewBox="0 0 79 84" fill="none" xmlns="http://www.w3.org/2000/svg">
<path d="M25.8154 51.9156C26.5009 51.8647 27.4101 51.7855 28.503 51.664C31.113 51.3738 34.7628 50.8432 38.9096 49.8831C47.2333 47.9558 57.417 44.3297 65.2498 37.5695C72.4962 31.3155 71.1737 21.4546 65.432 14.8361C62.5923 11.5627 58.7783 9.2542 54.6564 8.71394C50.5791 8.17951 46.0422 9.35246 41.6308 13.3271C32.5154 21.5399 28.5793 31.5378 26.9243 39.5257C26.0971 43.5183 25.8434 46.9938 25.7963 49.4651C25.7775 50.4554 25.7918 51.2828 25.8154 51.9156Z" stroke="#FFE193" stroke-width="3"/>
<path d="M15.1559 48.9231C15.3417 48.7038 15.5531 48.4459 15.7841 48.1509C16.6713 47.018 17.8417 45.3434 18.9543 43.1984C21.179 38.9092 23.1555 32.7756 22.2189 25.3245C21.7727 21.7745 20.2399 19.4018 18.3174 17.975C16.3739 16.5327 13.9214 15.9749 11.5169 16.2721C6.74731 16.8617 2.31329 20.7783 2.86813 27.6169C3.46081 34.922 6.77848 40.4221 9.98362 44.1203C11.5853 45.9684 13.1493 47.3546 14.3079 48.2752C14.6238 48.5263 14.909 48.7423 15.1559 48.9231Z" stroke="#FFE193" stroke-width="3"/>
<path d="M28.6709 61.1162C28.7866 61.3793 28.9256 61.6823 29.0895 62.0193C29.7188 63.3133 30.7109 65.0994 32.1511 67.0396C35.031 70.9195 39.6774 75.3847 46.785 77.8093C50.1713 78.9644 52.9758 78.6269 55.101 77.5244C57.2493 76.4099 58.8257 74.4501 59.6126 72.1587C61.1736 67.6134 59.5972 61.9112 53.2074 59.412C46.3818 56.7424 39.984 57.3132 35.255 58.5727C32.8918 59.2022 30.9603 60.0002 29.625 60.6379C29.2608 60.8119 28.9416 60.9735 28.6709 61.1162Z" stroke="#FFE193" stroke-width="3"/>
</svg>
