<svg width="79" height="84" viewBox="0 0 79 84" fill="none" xmlns="http://www.w3.org/2000/svg">
<path d="M25.8154 31.1981C26.5009 31.249 27.4101 31.3282 28.503 31.4497C31.113 31.7399 34.7628 32.2704 38.9096 33.2306C47.2333 35.1579 57.417 38.784 65.2498 45.5441C72.4962 51.7982 71.1737 61.6591 65.432 68.2775C62.5923 71.5509 58.7783 73.8595 54.6564 74.3997C50.5791 74.9342 46.0422 73.7612 41.6308 69.7866C32.5154 61.5738 28.5793 51.5759 26.9243 43.588C26.0971 39.5954 25.8434 36.1198 25.7963 33.6486C25.7775 32.6583 25.7918 31.8309 25.8154 31.1981Z" stroke="#FFE193" stroke-width="3"/>
<path d="M15.1559 34.1907C15.3417 34.41 15.5531 34.6678 15.7841 34.9628C16.6713 36.0957 17.8417 37.7704 18.9543 39.9153C21.179 44.2046 23.1555 50.3381 22.2189 57.7892C21.7727 61.3392 20.2399 63.7119 18.3174 65.1387C16.3739 66.5811 13.9214 67.1388 11.5169 66.8416C6.74731 66.252 2.31329 62.3355 2.86813 55.4969C3.46081 48.1918 6.77848 42.6916 9.98362 38.9934C11.5853 37.1453 13.1493 35.7591 14.3079 34.8385C14.6238 34.5874 14.909 34.3715 15.1559 34.1907Z" stroke="#FFE193" stroke-width="3"/>
<path d="M28.6709 21.9975C28.7866 21.7344 28.9256 21.4313 29.0895 21.0944C29.7188 19.8003 30.7109 18.0143 32.1511 16.0741C35.031 12.1941 39.6774 7.72896 46.785 5.30442C50.1713 4.14927 52.9758 4.48679 55.101 5.58925C57.2493 6.70373 58.8257 8.66353 59.6126 10.955C61.1736 15.5003 59.5972 21.2025 53.2074 23.7017C46.3818 26.3713 39.984 25.8005 35.255 24.5409C32.8918 23.9115 30.9603 23.1135 29.625 22.4757C29.2608 22.3018 28.9416 22.1401 28.6709 21.9975Z" stroke="#FFE193" stroke-width="3"/>
</svg>
