<svg width="79" height="84" viewBox="0 0 79 84" fill="none" xmlns="http://www.w3.org/2000/svg">
<path d="M53.0491 31.1981C52.3636 31.249 51.4544 31.3282 50.3615 31.4497C47.7515 31.7399 44.1017 32.2704 39.9549 33.2306C31.6312 35.1579 21.4475 38.784 13.6147 45.5441C6.36826 51.7982 7.69083 61.6591 13.4325 68.2775C16.2722 71.5509 20.0862 73.8595 24.2081 74.3997C28.2854 74.9342 32.8223 73.7612 37.2337 69.7866C46.3491 61.5738 50.2852 51.5759 51.9402 43.588C52.7674 39.5954 53.0211 36.1198 53.0682 33.6486C53.087 32.6583 53.0727 31.8309 53.0491 31.1981Z" stroke="#FFE193" stroke-width="3"/>
<path d="M63.7086 34.1907C63.5228 34.41 63.3114 34.6678 63.0804 34.9628C62.1932 36.0957 61.0228 37.7704 59.9102 39.9153C57.6855 44.2046 55.709 50.3381 56.6456 57.7892C57.0919 61.3392 58.6246 63.7119 60.5471 65.1387C62.4906 66.5811 64.9431 67.1388 67.3476 66.8416C72.1172 66.252 76.5512 62.3355 75.9964 55.4969C75.4037 48.1918 72.086 42.6916 68.8809 38.9934C67.2792 37.1453 65.7152 35.7591 64.5566 34.8385C64.2407 34.5874 63.9555 34.3715 63.7086 34.1907Z" stroke="#FFE193" stroke-width="3"/>
<path d="M50.1936 21.9975C50.0779 21.7344 49.9389 21.4313 49.775 21.0944C49.1457 19.8003 48.1536 18.0143 46.7134 16.0741C43.8335 12.1941 39.1871 7.72896 32.0795 5.30442C28.6932 4.14927 25.8887 4.48679 23.7635 5.58925C21.6152 6.70373 20.0388 8.66353 19.2519 10.955C17.6909 15.5003 19.2673 21.2025 25.6571 23.7017C32.4827 26.3713 38.8805 25.8005 43.6095 24.5409C45.9727 23.9115 47.9042 23.1135 49.2395 22.4757C49.6037 22.3018 49.9229 22.1401 50.1936 21.9975Z" stroke="#FFE193" stroke-width="3"/>
</svg>
