<svg width="18" height="322" viewBox="0 0 18 322" fill="none" xmlns="http://www.w3.org/2000/svg">
<path d="M9 321.66L0.339746 313L9 304.34L17.6603 313L9 321.66ZM7.5 313L7.5 309.99L10.5 309.99L10.5 313L7.5 313ZM7.5 303.971L7.5 297.952L10.5 297.952L10.5 303.971L7.5 303.971ZM7.5 291.933L7.5 285.913L10.5 285.913L10.5 291.933L7.5 291.933ZM7.5 279.894L7.5 273.875L10.5 273.875L10.5 279.894L7.5 279.894ZM7.5 267.856L7.5 261.837L10.5 261.837L10.5 267.856L7.5 267.856ZM7.5 255.817L7.5 249.798L10.5 249.798L10.5 255.817L7.5 255.817ZM7.5 243.779L7.5 237.76L10.5 237.76L10.5 243.779L7.5 243.779ZM7.5 231.74L7.5 225.721L10.5 225.721L10.5 231.74L7.5 231.74ZM7.5 219.702L7.5 213.683L10.5 213.683L10.5 219.702L7.5 219.702ZM7.5 207.663L7.5 201.644L10.5 201.644L10.5 207.663L7.5 207.663ZM7.49999 195.625L7.49999 189.606L10.5 189.606L10.5 195.625L7.49999 195.625ZM7.49999 183.587L7.49999 177.567L10.5 177.567L10.5 183.587L7.49999 183.587ZM7.49999 171.548L7.49999 165.529L10.5 165.529L10.5 171.548L7.49999 171.548ZM7.49999 159.51L7.49999 153.49L10.5 153.49L10.5 159.51L7.49999 159.51ZM7.49999 147.471L7.49999 141.452L10.5 141.452L10.5 147.471L7.49999 147.471ZM7.49999 135.433L7.49999 129.413L10.5 129.413L10.5 135.433L7.49999 135.433ZM7.49999 123.394L7.49999 117.375L10.5 117.375L10.5 123.394L7.49999 123.394ZM7.49999 111.356L7.49999 105.337L10.5 105.337L10.5 111.356L7.49999 111.356ZM7.49999 99.3174L7.49999 93.2981L10.5 93.2981L10.5 99.3174L7.49999 99.3174ZM7.49999 87.2789L7.49999 81.2597L10.5 81.2597L10.5 87.2789L7.49999 87.2789ZM7.49999 75.2404L7.49999 69.2212L10.5 69.2212L10.5 75.2404L7.49999 75.2404ZM7.49999 63.202L7.49999 57.1828L10.5 57.1828L10.5 63.202L7.49999 63.202ZM7.49999 51.1635L7.49999 45.1443L10.5 45.1443L10.5 51.1635L7.49999 51.1635ZM7.49999 39.1251L7.49999 33.1059L10.5 33.1059L10.5 39.1251L7.49999 39.1251ZM7.49999 27.0866L7.49999 21.0674L10.5 21.0674L10.5 27.0866L7.49999 27.0866ZM7.49999 15.0482L7.49999 9.02896L10.5 9.02896L10.5 15.0482L7.49999 15.0482ZM7.49999 3.00974L7.49999 6.55671e-08L10.5 -6.55671e-08L10.5 3.00974L7.49999 3.00974Z" fill="#FFE193"/>
</svg>
