<svg width="18" height="322" viewBox="0 0 18 322" fill="none" xmlns="http://www.w3.org/2000/svg">
<path d="M9 0.339746L0.339746 9L9 17.6603L17.6603 9L9 0.339746ZM7.5 9L7.5 12.0096L10.5 12.0096L10.5 9L7.5 9ZM7.5 18.0288L7.5 24.0481L10.5 24.0481L10.5 18.0288L7.5 18.0288ZM7.5 30.0673L7.5 36.0865L10.5 36.0865L10.5 30.0673L7.5 30.0673ZM7.5 42.1058L7.5 48.125L10.5 48.125L10.5 42.1058L7.5 42.1058ZM7.5 54.1442L7.5 60.1635L10.5 60.1635L10.5 54.1442L7.5 54.1442ZM7.5 66.1827L7.5 72.2019L10.5 72.2019L10.5 66.1827L7.5 66.1827ZM7.5 78.2212L7.5 84.2404L10.5 84.2404L10.5 78.2212L7.5 78.2212ZM7.5 90.2596L7.5 96.2789L10.5 96.2789L10.5 90.2596L7.5 90.2596ZM7.5 102.298L7.5 108.317L10.5 108.317L10.5 102.298L7.5 102.298ZM7.5 114.337L7.5 120.356L10.5 120.356L10.5 114.337L7.5 114.337ZM7.49999 126.375L7.49999 132.394L10.5 132.394L10.5 126.375L7.49999 126.375ZM7.49999 138.413L7.49999 144.433L10.5 144.433L10.5 138.413L7.49999 138.413ZM7.49999 150.452L7.49999 156.471L10.5 156.471L10.5 150.452L7.49999 150.452ZM7.49999 162.49L7.49999 168.51L10.5 168.51L10.5 162.49L7.49999 162.49ZM7.49999 174.529L7.49999 180.548L10.5 180.548L10.5 174.529L7.49999 174.529ZM7.49999 186.567L7.49999 192.587L10.5 192.587L10.5 186.567L7.49999 186.567ZM7.49999 198.606L7.49999 204.625L10.5 204.625L10.5 198.606L7.49999 198.606ZM7.49999 210.644L7.49999 216.663L10.5 216.663L10.5 210.644L7.49999 210.644ZM7.49999 222.683L7.49999 228.702L10.5 228.702L10.5 222.683L7.49999 222.683ZM7.49999 234.721L7.49999 240.74L10.5 240.74L10.5 234.721L7.49999 234.721ZM7.49999 246.76L7.49999 252.779L10.5 252.779L10.5 246.76L7.49999 246.76ZM7.49999 258.798L7.49999 264.817L10.5 264.817L10.5 258.798L7.49999 258.798ZM7.49999 270.836L7.49999 276.856L10.5 276.856L10.5 270.836L7.49999 270.836ZM7.49999 282.875L7.49999 288.894L10.5 288.894L10.5 282.875L7.49999 282.875ZM7.49999 294.913L7.49999 300.933L10.5 300.933L10.5 294.913L7.49999 294.913ZM7.49999 306.952L7.49999 312.971L10.5 312.971L10.5 306.952L7.49999 306.952ZM7.49999 318.99L7.49999 322L10.5 322L10.5 318.99L7.49999 318.99Z" fill="#FFE193"/>
</svg>
