<svg width="62" height="52" viewBox="0 0 62 52" fill="none" xmlns="http://www.w3.org/2000/svg">
<path id="Arrow 6" d="M58 29.5C59.933 29.5 61.5 27.933 61.5 26C61.5 24.067 59.933 22.5 58 22.5V29.5ZM1.52512 23.5251C0.158287 24.892 0.158287 27.108 1.52512 28.4749L23.799 50.7487C25.1658 52.1156 27.3819 52.1156 28.7487 50.7487C30.1156 49.3819 30.1156 47.1658 28.7487 45.799L8.94974 26L28.7487 6.20101C30.1156 4.83418 30.1156 2.6181 28.7487 1.25126C27.3819 -0.115572 25.1658 -0.115572 23.799 1.25126L1.52512 23.5251ZM58 22.5L4 22.5V29.5L58 29.5V22.5Z" fill="white"/>
</svg>
