<svg width="421" height="521" viewBox="0 0 421 521" fill="none" xmlns="http://www.w3.org/2000/svg">
<path d="M93.7747 78.017C111.92 83.5911 135.272 89.5102 160.029 93.2342M259.883 92.5758C260.543 92.474 261.202 92.3709 261.861 92.2665M50.1528 210.362C76.2266 220.372 108.854 230.581 143.034 236.641M145.028 236.99C166.691 240.721 188.938 242.758 210.5 242C233.177 241.202 256.61 238.032 279.327 233.544M281.312 233.148C316.83 225.998 350.483 215.688 376.607 206.272M49.9999 358.895C78.4108 369.009 115.5 379.703 154.444 385.544M156.518 385.85C174.367 388.443 192.579 390 210.5 390C230.44 390 250.739 388.073 270.498 384.935M272.572 384.601C306.33 379.087 338.41 370.099 364.298 361.235M109.213 473.02C128.311 479.54 151.882 485.851 176.59 488.981M178.737 489.244C179.451 489.329 180.165 489.411 180.881 489.49M246.209 488.045C246.934 487.94 247.658 487.832 248.381 487.723M250.556 487.385C277.026 483.188 301.845 475.994 320.801 469.245M92.6702 75.5819C69.9854 126.257 45.5 198.757 45.5 297C45.5 373.678 71.4743 415.23 92.8341 449.401M162.428 91.567C153.62 132.716 146.254 182.563 145.07 234.968M145 260.5C146.586 350.578 164.205 436.141 178.164 487.161M261.465 90.3044C269.659 130.699 276.911 179.737 279.239 231.523M280 260.5C280.63 350.026 263.291 434.756 248.98 485.608M335.942 76.9491C359.632 130.319 386.346 206.348 383 260.5C381.164 290.209 372.706 326.503 361.971 362.027M361.257 364.377C349.705 402.217 335.672 438.998 324.426 465.802M9.75228 190.432C20.2366 144.179 40.8369 103.204 68.3719 71.3819C73.7566 73.4998 80.8094 76.0171 89.1176 78.6571C74.337 112.285 59.064 155.165 50.4748 208.343C33.701 201.889 19.6741 195.527 9.75228 190.432ZM90.7487 74.9784C83.0403 72.5378 76.4087 70.1995 71.1881 68.1861C83.2333 54.7649 96.539 43.0645 110.852 33.3885C104.877 45.1599 97.9019 58.9833 90.7487 74.9784ZM54.2919 209.796C62.8214 156.452 78.14 113.51 92.96 79.8587C111.189 85.4692 134.684 91.4367 159.617 95.1945C151.184 135.577 144.247 183.894 143.078 234.618C110.637 228.84 79.5947 219.314 54.2919 209.796ZM160.445 91.2745C135.866 87.5847 112.657 81.7145 94.5957 76.177C101.99 59.6754 109.193 45.4913 115.289 33.4854C116.054 31.9781 116.802 30.5051 117.531 29.0661C138.278 16.227 160.979 7.55841 184.923 3.92613C178.024 22.3555 168.612 53.0916 160.445 91.2745ZM147.063 235.307C148.187 184.528 155.14 136.141 163.583 95.7716C179.061 97.9426 195.009 99.2199 210.528 98.9998C226.984 98.7664 243.925 97.0619 260.275 94.5388C268.147 134.169 275.019 181.757 277.254 231.912C255.162 236.206 232.433 239.227 210.43 240.001C189.576 240.735 168.065 238.834 147.063 235.307ZM259.487 90.6134C243.361 93.0954 226.67 94.7704 210.472 95.0002C195.262 95.2159 179.617 93.9706 164.413 91.8492C172.831 52.5558 182.56 21.2409 189.436 3.30313C196.363 2.44138 203.389 2 210.5 2C219.478 2 228.323 2.70373 237.001 4.06896C243.049 21.6598 251.692 52.2109 259.487 90.6134ZM281.223 231.126C278.952 181.041 272.093 133.535 264.228 93.9111C290.908 89.5575 315.76 83.1387 334.018 77.5434C342.141 95.8285 350.628 116.798 358.134 138.639C365.58 160.309 372.037 182.771 376.226 204.284C350.211 213.674 316.648 223.974 281.223 231.126ZM332.372 73.8641C314.27 79.3909 289.734 85.7047 263.441 89.9869C255.896 52.7788 247.548 22.8708 241.487 4.83609C267.51 9.64474 291.979 20.421 313.956 36.0277C319.263 46.0012 325.66 58.9612 332.372 73.8641ZM361.916 137.339C354.43 115.553 345.973 94.6317 337.863 76.3468C343.599 74.5341 348.571 72.8351 352.605 71.3553C380.135 103.162 400.735 144.115 411.228 190.346C403.237 193.921 392.604 198.272 380.03 202.897C375.784 181.291 369.312 158.86 361.916 137.339ZM349.763 68.1319C345.952 69.5028 341.395 71.0415 336.221 72.6707C330.946 60.9377 325.857 50.3863 321.325 41.5132C331.415 49.3808 340.928 58.2937 349.763 68.1319ZM380.789 206.879C393.343 202.275 404.007 197.932 412.106 194.335C416.603 215.45 419 237.627 419 260.5C419 288.828 415.324 316.087 408.533 341.586C398.293 346.388 383.237 352.586 365.002 358.878C375.227 324.475 383.211 289.505 384.996 260.623C386.008 244.243 384.304 225.926 380.789 206.879ZM363.587 363.591C381.424 357.531 396.418 351.499 407.142 346.632C394.837 389.804 373.55 427.686 346.099 456.854C341.278 459.13 334.782 461.897 326.996 464.842C336.257 442.65 347.287 413.982 357.25 383.634C359.422 377.02 361.544 370.322 363.587 363.591ZM324.867 469.902C329.883 468.063 334.439 466.273 338.449 464.602C332.677 470.173 326.664 475.374 320.434 480.178C321.843 476.971 323.326 473.538 324.867 469.902ZM319.734 471.743C317.654 476.594 315.697 481.038 313.901 485.012C291.953 500.586 267.523 511.344 241.544 516.153C244.053 509.026 246.923 500.049 249.951 489.504C276.103 485.432 300.689 478.425 319.734 471.743ZM245.601 490.152C242.478 500.911 239.541 509.943 237.021 516.928C228.337 518.295 219.485 519 210.5 519C203.407 519 196.397 518.561 189.487 517.703C187.143 510.839 184.402 502.027 181.461 491.566C191.076 492.603 200.828 493.137 210.528 493C222.254 492.833 234.057 491.793 245.601 490.152ZM177.168 491.068C180.032 501.345 182.721 510.109 185.059 517.094C161.116 513.482 138.414 504.834 117.664 492.016C115.746 486.431 113.326 480.993 110.554 475.584C129.615 481.974 152.856 488.062 177.168 491.068ZM105.029 473.684C107.694 478.6 110.071 483.476 112.055 488.419C101.844 481.623 92.1387 473.802 83.0288 465.062C89.2068 467.761 96.6414 470.725 105.029 473.684ZM102.045 468.36C90.6502 464.176 81.3083 460.081 74.918 456.872C47.459 427.702 26.1658 389.813 13.8577 346.632C23.1735 350.86 35.7106 355.966 50.5347 361.207C56.0258 384.414 64.1765 403.323 72.9604 419.757C78.9545 430.971 85.2553 441.051 91.1614 450.499C92.9859 453.417 94.7728 456.276 96.5014 459.089C98.4289 462.226 100.285 465.308 102.045 468.36ZM49.4903 356.59C34.1727 351.099 21.4616 345.804 12.4668 341.586C5.67615 316.087 2 288.828 2 260.5C2 237.676 4.3864 215.546 8.86546 194.471C18.9768 199.61 33.0692 205.961 49.8383 212.383C45.8777 238.169 43.5 266.336 43.5 297C43.5 319.667 45.7566 339.297 49.4903 356.59ZM47.5 297C47.5 266.886 49.808 239.202 53.6627 213.832C79.1723 223.384 110.378 232.907 142.997 238.665C142.874 245.915 142.871 253.21 143 260.535C143.759 303.639 148.18 345.708 154.116 383.472C117.024 377.857 81.6377 367.838 53.9352 358.162C49.9401 340.551 47.5 320.433 47.5 297ZM147 260.465C146.875 253.394 146.874 246.35 146.986 239.349C168.048 242.854 189.623 244.736 210.57 243.999C232.599 243.224 255.328 240.223 277.424 235.953C277.745 244.084 277.942 252.279 278 260.514C278.303 303.604 274.432 345.584 268.741 383.187C249.535 386.175 229.844 388 210.5 388C193.167 388 175.554 386.535 158.262 384.08C152.254 346.17 147.763 303.84 147 260.465ZM282 260.486C281.94 251.996 281.733 243.549 281.396 235.171C317.004 228.023 350.745 217.705 376.977 208.264C380.361 226.809 381.981 244.558 381.004 260.377C379.198 289.596 370.926 325.325 360.354 360.461C335.319 368.87 304.865 377.254 272.886 382.523C278.502 345.051 282.302 303.318 282 260.486ZM272.253 386.679C303.801 381.57 333.904 373.427 358.928 365.152C357.153 370.932 355.321 376.688 353.45 382.387C342.997 414.224 331.366 444.207 321.862 466.74C303.012 473.552 277.954 480.938 251.153 485.264C258.338 459.603 266.242 425.535 272.253 386.679ZM268.104 387.332C262.004 426.39 254.002 460.51 246.809 485.936C234.862 487.701 222.62 488.828 210.472 489C200.408 489.143 190.279 488.549 180.307 487.413C173.297 461.901 165.325 427.545 158.925 388.212C176 390.588 193.379 392 210.5 392C229.641 392 249.104 390.235 268.104 387.332ZM154.776 387.615C161.103 426.802 169.003 461.143 176.017 486.891C150.87 483.63 126.931 477.076 107.801 470.417C105.348 465.971 102.689 461.519 99.9094 456.995C98.1504 454.132 96.3436 451.242 94.5066 448.303C88.614 438.876 82.4119 428.954 76.4881 417.871C68.1676 402.305 60.4195 384.485 55.0308 362.776C82.8732 372.366 118.009 382.153 154.776 387.615Z" stroke="black" stroke-width="4"/>
</svg>
