<svg width="236" height="145" viewBox="0 0 236 145" fill="none" xmlns="http://www.w3.org/2000/svg">
<path d="M54.354 86V54.464H72.2581V57.488H57.906V67.904H70.002V70.88H57.906V82.976H72.7381V86H54.354ZM79.1899 86V62.72H82.0699L82.3579 66.176H82.5019C83.6219 65.024 84.8059 64.064 86.0539 63.296C87.3339 62.528 88.7579 62.144 90.3259 62.144C92.7899 62.144 94.5819 62.912 95.7019 64.448C96.8539 65.984 97.4299 68.24 97.4299 71.216V86H93.9259V71.648C93.9259 69.408 93.5579 67.776 92.8219 66.752C92.1179 65.728 90.9499 65.216 89.3179 65.216C88.1019 65.216 86.9979 65.536 86.0059 66.176C85.0139 66.784 83.8939 67.712 82.6459 68.96V86H79.1899ZM112.308 86.576C109.908 86.576 108.228 85.872 107.268 84.464C106.34 83.056 105.876 81.232 105.876 78.992V65.6H102.372V62.96L106.02 62.72L106.452 56.144H109.38V62.72H115.764V65.6H109.38V79.088C109.38 80.528 109.636 81.664 110.148 82.496C110.692 83.296 111.668 83.696 113.076 83.696C113.492 83.696 113.94 83.632 114.42 83.504C114.932 83.376 115.38 83.232 115.764 83.072L116.484 85.712C115.844 85.936 115.156 86.128 114.42 86.288C113.684 86.48 112.98 86.576 112.308 86.576ZM121.143 86V62.72H124.023L124.311 66.992H124.455C125.255 65.52 126.215 64.352 127.335 63.488C128.487 62.592 129.735 62.144 131.079 62.144C131.559 62.144 131.991 62.192 132.375 62.288C132.759 62.352 133.127 62.464 133.479 62.624L132.807 65.696C132.423 65.568 132.071 65.472 131.751 65.408C131.463 65.344 131.079 65.312 130.599 65.312C129.607 65.312 128.567 65.728 127.479 66.56C126.391 67.36 125.431 68.784 124.599 70.832V86H121.143ZM137.504 96.176C136.992 96.176 136.512 96.128 136.064 96.032C135.616 95.936 135.216 95.824 134.864 95.696L135.536 92.864C135.792 92.96 136.08 93.04 136.4 93.104C136.752 93.2 137.072 93.248 137.36 93.248C138.704 93.248 139.824 92.736 140.72 91.712C141.616 90.72 142.304 89.456 142.784 87.92L143.36 86.144L133.952 62.72H137.552L142.544 76.064C142.928 77.056 143.312 78.128 143.696 79.28C144.112 80.4 144.496 81.504 144.848 82.592H145.04C145.392 81.536 145.744 80.448 146.096 79.328C146.448 78.176 146.768 77.088 147.056 76.064L151.424 62.72H154.832L146 88.16C145.456 89.632 144.816 90.976 144.08 92.192C143.344 93.408 142.432 94.368 141.344 95.072C140.288 95.808 139.008 96.176 137.504 96.176ZM173.656 86C173.816 82.096 174.216 78.592 174.856 75.488C175.496 72.384 176.44 69.472 177.688 66.752C178.936 64 180.568 61.216 182.584 58.4H167.128V55.376H186.616V57.488C184.792 59.824 183.304 62.08 182.152 64.256C181 66.4 180.088 68.576 179.416 70.784C178.776 72.992 178.296 75.328 177.976 77.792C177.656 80.256 177.416 82.992 177.256 86H173.656Z" fill="#F0C966"/>
<path d="M126.303 40.9002L135.597 48.8761L143.573 39.5818L134.279 31.6058L126.303 40.9002ZM126.278 105.741L134.938 114.401L143.598 105.741L134.938 97.0807L126.278 105.741ZM126.303 40.9002L135.597 48.8761L143.573 39.5818L134.279 31.6058L126.303 40.9002ZM126.278 105.741L134.938 114.401L143.598 105.741L134.938 97.0807L126.278 105.741ZM135.052 41.7366C167.778 39.2384 190.378 40.5176 204.746 45.6533C211.896 48.2092 216.912 51.6874 220.148 56.0419C223.377 60.3863 224.938 65.74 224.938 72.2409H227.938C227.938 65.2418 226.249 59.2204 222.556 54.2522C218.871 49.2942 213.292 45.5223 205.755 42.8283C190.748 37.464 167.598 36.2434 134.824 38.7453L135.052 41.7366ZM224.938 72.2409C224.938 78.746 223.407 83.8649 220.238 87.946C217.054 92.0449 212.097 95.2543 204.953 97.6967C190.597 102.605 167.964 104.241 134.938 104.241V107.241C167.912 107.241 191.029 105.627 205.923 100.535C213.404 97.9777 218.947 94.4996 222.607 89.786C226.282 85.0545 227.938 79.2359 227.938 72.2409H224.938ZM135.052 41.7366C167.778 39.2384 190.378 40.5176 204.746 45.6533C211.896 48.2092 216.912 51.6874 220.148 56.0419C223.377 60.3863 224.938 65.74 224.938 72.2409H227.938C227.938 65.2418 226.249 59.2204 222.556 54.2522C218.871 49.2942 213.292 45.5223 205.755 42.8283C190.748 37.464 167.598 36.2434 134.824 38.7453L135.052 41.7366ZM224.938 72.2409C224.938 78.746 223.407 83.8649 220.238 87.946C217.054 92.0449 212.097 95.2543 204.953 97.6967C190.597 102.605 167.964 104.241 134.938 104.241V107.241C167.912 107.241 191.029 105.627 205.923 100.535C213.404 97.9777 218.947 94.4996 222.607 89.786C226.282 85.0545 227.938 79.2359 227.938 72.2409H224.938Z" fill="#EDB287"/>
<path d="M111.073 40.9002L101.779 48.8761L93.8029 39.5818L103.097 31.6058L111.073 40.9002ZM111.098 105.741L102.438 114.401L93.7778 105.741L102.438 97.0807L111.098 105.741ZM111.073 40.9002L101.779 48.8761L93.8029 39.5818L103.097 31.6058L111.073 40.9002ZM111.098 105.741L102.438 114.401L93.7778 105.741L102.438 97.0807L111.098 105.741ZM102.324 41.7366C69.5978 39.2384 46.9981 40.5176 32.6304 45.6533C25.4798 48.2092 20.4645 51.6874 17.2279 56.0419C13.9987 60.3863 12.438 65.74 12.438 72.2409H9.43805C9.43805 65.2418 11.1274 59.2204 14.8201 54.2522C18.5053 49.2942 24.0838 45.5223 31.6207 42.8283C46.628 37.464 69.7783 36.2434 102.552 38.7453L102.324 41.7366ZM12.438 72.2409C12.438 78.746 13.9691 83.8649 17.1384 87.946C20.3216 92.0449 25.2795 95.2543 32.4233 97.6967C46.7791 102.605 69.4123 104.241 102.438 104.241V107.241C69.4638 107.241 46.347 105.627 31.4528 100.535C23.9716 97.9777 18.4295 94.4996 14.769 89.786C11.0945 85.0545 9.43805 79.2359 9.43805 72.2409H12.438ZM102.324 41.7366C69.5978 39.2384 46.9981 40.5176 32.6304 45.6533C25.4798 48.2092 20.4645 51.6874 17.2279 56.0419C13.9987 60.3863 12.438 65.74 12.438 72.2409H9.43805C9.43805 65.2418 11.1274 59.2204 14.8201 54.2522C18.5053 49.2942 24.0838 45.5223 31.6207 42.8283C46.628 37.464 69.7783 36.2434 102.552 38.7453L102.324 41.7366ZM12.438 72.2409C12.438 78.746 13.9691 83.8649 17.1384 87.946C20.3216 92.0449 25.2795 95.2543 32.4233 97.6967C46.7791 102.605 69.4123 104.241 102.438 104.241V107.241C69.4638 107.241 46.347 105.627 31.4528 100.535C23.9716 97.9777 18.4295 94.4996 14.769 89.786C11.0945 85.0545 9.43805 79.2359 9.43805 72.2409H12.438Z" fill="#EDB287"/>
<path d="M197.938 72.5L207.688 78.1292L207.688 66.8708L197.938 72.5Z" fill="#EDB287"/>
<path d="M197.938 72.5L207.688 78.1292L207.688 66.8708L197.938 72.5Z" fill="#EDB287"/>
<path d="M38.938 72.5L29.188 78.1292L29.188 66.8708L38.938 72.5Z" fill="#EDB287"/>
<path d="M38.938 72.5L29.188 78.1292L29.188 66.8708L38.938 72.5Z" fill="#EDB287"/>
<path d="M104.438 13L103.538 14.2L104.438 13ZM87.7797 1.32918C87.4092 0.588212 86.5082 0.287875 85.7672 0.658359C85.0263 1.02884 84.7259 1.92985 85.0964 2.67082L87.7797 1.32918ZM31.938 27.5H34.813V24.5H31.938V27.5ZM40.563 27.5H46.313V24.5H40.563V27.5ZM52.063 27.5H57.813V24.5H52.063V27.5ZM63.5631 27.5H69.3131V24.5H63.5631V27.5ZM75.063 27.5H80.813V24.5H75.063V27.5ZM86.5631 27.5H92.313V24.5H86.5631V27.5ZM98.063 27.5H100.938V24.5H98.063V27.5ZM100.938 27.5C101.895 27.5 102.812 27.3796 103.672 27.1519L102.904 24.2519C102.302 24.4113 101.643 24.5 100.938 24.5V27.5ZM108.405 24.1092C109.61 22.5511 110.183 20.5783 109.858 18.4946L106.894 18.9565C107.086 20.1877 106.757 21.3364 106.032 22.2736L108.405 24.1092ZM107.308 13.5583C106.743 12.95 106.088 12.3621 105.338 11.8L103.538 14.2C104.157 14.664 104.677 15.1333 105.109 15.5988L107.308 13.5583ZM105.338 11.8C104.486 11.1607 103.678 10.6201 102.91 10.1616L101.373 12.7377C102.044 13.1384 102.764 13.6193 103.538 14.2L105.338 11.8ZM97.3857 7.90361C96.2426 7.64389 95.19 7.51951 94.3721 7.39354C93.5183 7.26203 92.8669 7.12342 92.2633 6.85881L91.0588 9.60638C92.0347 10.0342 93.0052 10.2184 93.9155 10.3586C94.8617 10.5043 95.7155 10.6006 96.721 10.829L97.3857 7.90361ZM89.0532 3.62841C88.6529 2.98852 88.2303 2.23031 87.7797 1.32918L85.0964 2.67082C85.5806 3.63911 86.0493 4.48316 86.5099 5.21949L89.0532 3.62841Z" fill="#EDB287"/>
<path d="M130.948 13L131.848 14.2L130.948 13ZM147.606 1.32918C147.977 0.588212 148.878 0.287875 149.619 0.658359C150.359 1.02884 150.66 1.92985 150.289 2.67082L147.606 1.32918ZM203.448 27.5H200.573V24.5H203.448V27.5ZM194.823 27.5H189.073V24.5H194.823V27.5ZM183.323 27.5H177.573V24.5H183.323V27.5ZM171.823 27.5H166.073V24.5H171.823V27.5ZM160.323 27.5H154.573V24.5H160.323V27.5ZM148.823 27.5H143.073V24.5H148.823V27.5ZM137.323 27.5H134.448V24.5H137.323V27.5ZM134.448 27.5C133.491 27.5 132.574 27.3796 131.714 27.1519L132.482 24.2519C133.084 24.4113 133.743 24.5 134.448 24.5V27.5ZM126.981 24.1092C125.776 22.5511 125.203 20.5783 125.528 18.4946L128.492 18.9565C128.3 20.1877 128.629 21.3364 129.354 22.2736L126.981 24.1092ZM128.078 13.5583C128.642 12.95 129.298 12.3621 130.048 11.8L131.848 14.2C131.229 14.664 130.709 15.1333 130.277 15.5988L128.078 13.5583ZM130.048 11.8C130.9 11.1607 131.708 10.6201 132.476 10.1616L134.013 12.7377C133.342 13.1384 132.622 13.6193 131.848 14.2L130.048 11.8ZM138 7.90361C139.143 7.64389 140.196 7.51951 141.014 7.39354C141.867 7.26203 142.519 7.12342 143.122 6.85881L144.327 9.60638C143.351 10.0342 142.381 10.2184 141.47 10.3586C140.524 10.5043 139.67 10.6006 138.665 10.829L138 7.90361ZM146.333 3.62841C146.733 2.98852 147.155 2.23031 147.606 1.32918L150.289 2.67082C149.805 3.63911 149.336 4.48316 148.876 5.21949L146.333 3.62841Z" fill="#EDB287"/>
<path d="M104.438 132L103.538 130.8L104.438 132ZM87.7797 143.671C87.4092 144.412 86.5082 144.712 85.7672 144.342C85.0263 143.971 84.7259 143.07 85.0964 142.329L87.7797 143.671ZM31.938 117.5H34.813V120.5H31.938V117.5ZM40.563 117.5H46.313V120.5H40.563V117.5ZM52.063 117.5H57.813V120.5H52.063V117.5ZM63.5631 117.5H69.3131V120.5H63.5631V117.5ZM75.063 117.5H80.813V120.5H75.063V117.5ZM86.5631 117.5H92.313V120.5H86.5631V117.5ZM98.063 117.5H100.938V120.5H98.063V117.5ZM100.938 117.5C101.895 117.5 102.812 117.62 103.672 117.848L102.904 120.748C102.302 120.589 101.643 120.5 100.938 120.5V117.5ZM108.405 120.891C109.61 122.449 110.183 124.422 109.858 126.505L106.894 126.044C107.086 124.812 106.757 123.664 106.032 122.726L108.405 120.891ZM107.308 131.442C106.743 132.05 106.088 132.638 105.338 133.2L103.538 130.8C104.157 130.336 104.677 129.867 105.109 129.401L107.308 131.442ZM105.338 133.2C104.486 133.839 103.678 134.38 102.91 134.838L101.373 132.262C102.044 131.862 102.764 131.381 103.538 130.8L105.338 133.2ZM97.3857 137.096C96.2426 137.356 95.19 137.48 94.3721 137.606C93.5183 137.738 92.8669 137.877 92.2633 138.141L91.0588 135.394C92.0347 134.966 93.0052 134.782 93.9155 134.641C94.8617 134.496 95.7155 134.399 96.721 134.171L97.3857 137.096ZM89.0532 141.372C88.6529 142.011 88.2303 142.77 87.7797 143.671L85.0964 142.329C85.5806 141.361 86.0493 140.517 86.5099 139.781L89.0532 141.372Z" fill="#EDB287"/>
<path d="M130.948 132L131.848 130.8L130.948 132ZM147.606 143.671C147.977 144.412 148.878 144.712 149.619 144.342C150.359 143.971 150.66 143.07 150.289 142.329L147.606 143.671ZM203.448 117.5H200.573V120.5H203.448V117.5ZM194.823 117.5H189.073V120.5H194.823V117.5ZM183.323 117.5H177.573V120.5H183.323V117.5ZM171.823 117.5H166.073V120.5H171.823V117.5ZM160.323 117.5H154.573V120.5H160.323V117.5ZM148.823 117.5H143.073V120.5H148.823V117.5ZM137.323 117.5H134.448V120.5H137.323V117.5ZM134.448 117.5C133.491 117.5 132.574 117.62 131.714 117.848L132.482 120.748C133.084 120.589 133.743 120.5 134.448 120.5V117.5ZM126.981 120.891C125.776 122.449 125.203 124.422 125.528 126.505L128.492 126.044C128.3 124.812 128.629 123.664 129.354 122.726L126.981 120.891ZM128.078 131.442C128.642 132.05 129.298 132.638 130.048 133.2L131.848 130.8C131.229 130.336 130.709 129.867 130.277 129.401L128.078 131.442ZM130.048 133.2C130.9 133.839 131.708 134.38 132.476 134.838L134.013 132.262C133.342 131.862 132.622 131.381 131.848 130.8L130.048 133.2ZM138 137.096C139.143 137.356 140.196 137.48 141.014 137.606C141.867 137.738 142.519 137.877 143.122 138.141L144.327 135.394C143.351 134.966 142.381 134.782 141.47 134.641C140.524 134.496 139.67 134.399 138.665 134.171L138 137.096ZM146.333 141.372C146.733 142.011 147.155 142.77 147.606 143.671L150.289 142.329C149.805 141.361 149.336 140.517 148.876 139.781L146.333 141.372Z" fill="#EDB287"/>
<path d="M19.4379 39.5C-4.06195 50.5 -3.562 93.5 19.4379 104" stroke="#EDB287" stroke-width="3" stroke-dasharray="6 6"/>
<path d="M216.938 40C240.438 51 239.938 94 216.938 104.5" stroke="#EDB287" stroke-width="3" stroke-dasharray="6 6"/>
</svg>
