<svg width="325" height="469" viewBox="0 0 325 469" fill="none" xmlns="http://www.w3.org/2000/svg">
<g filter="url(#filter0_d_156_1671)">
<rect x="4" width="316.698" height="461" rx="20" fill="#A155B9"/>
</g>
<rect x="22.2139" y="16.433" width="280.27" height="427.528" rx="23.5" stroke="#F9D1D1" stroke-width="5"/>
<path d="M32.6973 56.2891C32.6973 42.7581 43.6663 31.7891 57.1973 31.7891H269.314C282.845 31.7891 293.814 42.7581 293.814 56.2891V404.711C293.814 418.24 282.828 429.211 269.295 429.211H268.831H268.368H267.906H267.444H266.982H266.522H266.061H265.602H265.142H264.684H264.226H263.768H263.312H262.855H262.399H261.944H261.489H261.035H260.582H260.129H259.676H259.224H258.773H258.322H257.871H257.421H256.972H256.523H256.075H255.627H255.18H254.733H254.287H253.841H253.396H252.951H252.507H252.063H251.62H251.177H250.735H250.293H249.852H249.411H248.971H248.531H248.092H247.653H247.214H246.777H246.339H245.902H245.466H245.03H244.594H244.159H243.724H243.29H242.856H242.423H241.99H241.557H241.125H240.694H240.263H239.832H239.402H238.972H238.543H238.114H237.685H237.257H236.829H236.402H235.975H235.549H235.123H234.697H234.272H233.847H233.423H232.999H232.575H232.152H231.729H231.306H230.884H230.463H230.041H229.62H229.2H228.78H228.36H227.941H227.521H227.103H226.685H226.267H225.849H225.432H225.015H224.598H224.182H223.766H223.351H222.936H222.521H222.106H221.692H221.279H220.865H220.452H220.039H219.627H219.215H218.803H218.391H217.98H217.569H217.159H216.748H216.338H215.929H215.52H215.11H214.702H214.293H213.885H213.477H213.07H212.663H212.256H211.849H211.442H211.036H210.63H210.225H209.819H209.414H209.01H208.605H208.201H207.797H207.393H206.99H206.586H206.183H205.781H205.378H204.976H204.574H204.172H203.771H203.369H202.968H202.567H202.167H201.766H201.366H200.966H200.567H200.167H199.768H199.369H198.97H198.571H198.173H197.775H197.376H196.979H196.581H196.184H195.786H195.389H194.992H194.596H194.199H193.803H193.407H193.011H192.615H192.219H191.824H191.428H191.033H190.638H190.243H189.849H189.454H189.06H188.666H188.272H187.878H187.484H187.09H186.697H186.303H185.91H185.517H185.124H184.731H184.339H183.946H183.554H183.161H182.769H182.377H181.985H181.593H181.201H180.809H180.418H180.026H179.635H179.244H178.853H178.461H178.07H177.68H177.289H176.898H176.507H176.117H175.726H175.336H174.945H174.555H174.165H173.775H173.384H172.994H172.604H172.214H171.825H171.435H171.045H170.655H170.265H169.876H169.486H169.097H168.707H168.317H167.928H167.538H167.149H166.76H166.37H165.981H165.591H165.202H164.813H164.423H164.034H163.645H163.255H162.866H162.477H162.087H161.698H161.309H160.919H160.53H160.141H159.751H159.362H158.972H158.583H158.193H157.804H157.414H157.025H156.635H156.245H155.856H155.466H155.076H154.686H154.296H153.906H153.516H153.126H152.736H152.346H151.956H151.566H151.175H150.785H150.394H150.004H149.613H149.222H148.831H148.44H148.049H147.658H147.267H146.876H146.484H146.093H145.701H145.31H144.918H144.526H144.134H143.742H143.35H142.957H142.565H142.172H141.78H141.387H140.994H140.601H140.207H139.814H139.421H139.027H138.633H138.239H137.845H137.451H137.057H136.662H136.267H135.873H135.478H135.083H134.687H134.292H133.896H133.5H133.104H132.708H132.312H131.915H131.519H131.122H130.725H130.327H129.93H129.532H129.134H128.736H128.338H127.94H127.541H127.142H126.743H126.344H125.944H125.544H125.145H124.744H124.344H123.943H123.543H123.142H122.74H122.339H121.937H121.535H121.133H120.73H120.327H119.924H119.521H119.118H118.714H118.31H117.906H117.501H117.096H116.691H116.286H115.88H115.475H115.068H114.662H114.255H113.848H113.441H113.033H112.626H112.217H111.809H111.4H110.991H110.582H110.172H109.762H109.352H108.942H108.531H108.12H107.708H107.296H106.884H106.472H106.059H105.646H105.232H104.818H104.404H103.99H103.575H103.16H102.745H102.329H101.913H101.496H101.079H100.662H100.244H99.8263H99.408H98.9893H98.5703H98.1509H97.7311H97.3109H96.8904H96.4695H96.0482H95.6265H95.2044H94.782H94.3591H93.9359H93.5123H93.0882H92.6638H92.239H91.8138H91.3881H90.9621H90.5356H90.1088H89.6815H89.2538H88.8257H88.3971H87.9682H87.5388H87.109H86.6787H86.248H85.8169H85.3854H84.9534H84.5209H84.0881H83.6547H83.2209H82.7867H82.352H81.9169H81.4813H81.0453H80.6087H80.1717H79.7343H79.2964H78.858H78.4191H77.9798H77.54H77.0997H76.6589H76.2176H75.7758H75.3336H74.8909H74.4476H74.0039H73.5597H73.1149H72.6697H72.2239H71.7777H71.3309H70.8836H70.4359H69.9875H69.5387H69.0894H68.6395H68.1891H67.7382H67.2867H66.8347H66.3822H65.9291H65.4755H65.0214H64.5667H64.1114H63.6556H63.1993H62.7424H62.2849H61.8269H61.3684H60.9092H60.4495H59.9893H59.5284H59.067H58.605H58.1425H57.6793H57.2156C43.6833 429.211 32.6973 418.24 32.6973 404.711V56.2891Z" stroke="#F9D1D1" stroke-width="3"/>
<path d="M66.9385 96.1748C66.9385 89.2712 72.5349 83.6747 79.4385 83.6747H247.072C253.976 83.6747 259.572 89.2712 259.572 96.1747V365.431C259.572 372.332 253.968 377.931 247.063 377.931H246.692H246.323H245.953H245.585H245.216H244.849H244.482H244.115H243.749H243.383H243.017H242.653H242.288H241.925H241.561H241.198H240.836H240.474H240.112H239.751H239.391H239.031H238.671H238.312H237.953H237.595H237.237H236.88H236.523H236.167H235.811H235.455H235.1H234.745H234.391H234.037H233.684H233.331H232.979H232.627H232.275H231.924H231.573H231.223H230.873H230.523H230.174H229.825H229.477H229.129H228.782H228.435H228.088H227.742H227.396H227.05H226.705H226.36H226.016H225.672H225.329H224.986H224.643H224.3H223.958H223.617H223.276H222.935H222.594H222.254H221.914H221.575H221.236H220.897H220.559H220.221H219.883H219.546H219.209H218.873H218.536H218.201H217.865H217.53H217.195H216.86H216.526H216.192H215.859H215.526H215.193H214.86H214.528H214.196H213.865H213.534H213.203H212.872H212.542H212.212H211.882H211.553H211.224H210.895H210.566H210.238H209.91H209.583H209.256H208.929H208.602H208.275H207.949H207.623H207.298H206.973H206.648H206.323H205.998H205.674H205.35H205.027H204.703H204.38H204.057H203.734H203.412H203.09H202.768H202.447H202.125H201.804H201.483H201.163H200.842H200.522H200.202H199.882H199.563H199.244H198.925H198.606H198.288H197.969H197.651H197.333H197.016H196.698H196.381H196.064H195.747H195.431H195.114H194.798H194.482H194.166H193.851H193.535H193.22H192.905H192.59H192.276H191.961H191.647H191.333H191.019H190.705H190.392H190.078H189.765H189.452H189.139H188.827H188.514H188.202H187.889H187.577H187.265H186.954H186.642H186.331H186.019H185.708H185.397H185.086H184.776H184.465H184.155H183.844H183.534H183.224H182.914H182.604H182.295H181.985H181.676H181.366H181.057H180.748H180.439H180.13H179.821H179.513H179.204H178.896H178.588H178.279H177.971H177.663H177.355H177.047H176.74H176.432H176.124H175.817H175.509H175.202H174.895H174.587H174.28H173.973H173.666H173.359H173.052H172.746H172.439H172.132H171.826H171.519H171.213H170.906H170.6H170.293H169.987H169.681H169.374H169.068H168.762H168.456H168.15H167.844H167.538H167.232H166.926H166.62H166.314H166.008H165.702H165.396H165.09H164.785H164.479H164.173H163.867H163.561H163.255H162.95H162.644H162.338H162.032H161.726H161.42H161.115H160.809H160.503H160.197H159.891H159.585H159.279H158.973H158.667H158.361H158.055H157.749H157.443H157.136H156.83H156.524H156.218H155.911H155.605H155.298H154.992H154.685H154.379H154.072H153.765H153.458H153.152H152.845H152.538H152.231H151.923H151.616H151.309H151.002H150.694H150.387H150.079H149.771H149.464H149.156H148.848H148.54H148.232H147.923H147.615H147.307H146.998H146.689H146.381H146.072H145.763H145.454H145.145H144.835H144.526H144.216H143.907H143.597H143.287H142.977H142.667H142.356H142.046H141.735H141.425H141.114H140.803H140.492H140.18H139.869H139.557H139.245H138.934H138.622H138.309H137.997H137.684H137.372H137.059H136.746H136.433H136.119H135.806H135.492H135.178H134.864H134.55H134.235H133.921H133.606H133.291H132.976H132.66H132.345H132.029H131.713H131.397H131.08H130.764H130.447H130.13H129.813H129.495H129.178H128.86H128.542H128.223H127.905H127.586H127.267H126.948H126.628H126.309H125.989H125.669H125.348H125.028H124.707H124.386H124.064H123.743H123.421H123.099H122.776H122.454H122.131H121.808H121.484H121.161H120.837H120.513H120.188H119.863H119.538H119.213H118.887H118.562H118.235H117.909H117.582H117.255H116.928H116.6H116.273H115.944H115.616H115.287H114.958H114.629H114.299H113.969H113.639H113.308H112.977H112.646H112.315H111.983H111.65H111.318H110.985H110.652H110.318H109.985H109.65H109.316H108.981H108.646H108.31H107.975H107.638H107.302H106.965H106.628H106.29H105.952H105.614H105.275H104.936H104.597H104.257H103.917H103.576H103.235H102.894H102.552H102.21H101.868H101.525H101.182H100.839H100.495H100.15H99.8058H99.4607H99.1152H98.7693H98.423H98.0764H97.7293H97.3818H97.0339H96.6856H96.3369H95.9878H95.6382H95.2883H94.9379H94.5871H94.2359H93.8843H93.5322H93.1797H92.8268H92.4735H92.1197H91.7655H91.4108H91.0557H90.7001H90.3442H89.9877H89.6308H89.2735H88.9157H88.5575H88.1988H87.8397H87.48H87.12H86.7594H86.3984H86.037H85.675H85.3126H84.9497H84.5864H84.2225H83.8582H83.4934H83.1281H82.7624H82.3961H82.0294H81.6621H81.2944H80.9262H80.5575H80.1883H79.8185H79.4483C72.5426 377.931 66.9385 372.332 66.9385 365.431V96.1748Z" stroke="#F9D1D1" stroke-width="5"/>
<path d="M50.5377 460.697C50.5377 435.103 29.8374 414.355 4.30225 414.355" stroke="#F9D1D1" stroke-width="5"/>
<path d="M50.2355 -2.66135e-05C50.2355 25.5941 29.5351 46.3423 4 46.3423" stroke="#F9D1D1" stroke-width="5"/>
<path d="M58.3947 2.05636e-05C58.3947 30.1108 34.0413 54.5204 4 54.5204" stroke="#F9D1D1" stroke-width="3"/>
<path d="M266.303 2.05636e-05C266.303 30.1108 290.656 54.5204 320.698 54.5204" stroke="#F9D1D1" stroke-width="3"/>
<path d="M58.3947 461C58.3947 430.889 34.0413 406.48 4 406.48" stroke="#F9D1D1" stroke-width="3"/>
<path d="M266.303 461C266.303 430.889 290.656 406.48 320.698 406.48" stroke="#F9D1D1" stroke-width="3"/>
<path d="M274.765 -2.66135e-05C274.765 25.5941 295.465 46.3423 321 46.3423" stroke="#F9D1D1" stroke-width="5"/>
<path d="M274.765 460.697C274.765 435.103 295.465 414.355 321 414.355" stroke="#F9D1D1" stroke-width="5"/>
<line x1="151.179" y1="15.1445" x2="151.179" y2="-1.52588e-05" stroke="#F9D1D1" stroke-width="3"/>
<line x1="165.08" y1="15.1445" x2="165.08" y2="-1.52588e-05" stroke="#F9D1D1" stroke-width="3"/>
<line x1="178.98" y1="15.1445" x2="178.98" y2="-1.52588e-05" stroke="#F9D1D1" stroke-width="3"/>
<line x1="320.698" y1="246.236" x2="304.984" y2="246.236" stroke="#F9D1D1" stroke-width="3"/>
<line x1="320.698" y1="232.303" x2="304.984" y2="232.303" stroke="#F9D1D1" stroke-width="3"/>
<line x1="320.698" y1="218.37" x2="304.984" y2="218.37" stroke="#F9D1D1" stroke-width="3"/>
<line x1="320.698" y1="260.169" x2="304.984" y2="260.169" stroke="#F9D1D1" stroke-width="3"/>
<line x1="320.698" y1="274.102" x2="304.984" y2="274.102" stroke="#F9D1D1" stroke-width="3"/>
<line x1="320.698" y1="288.035" x2="304.984" y2="288.035" stroke="#F9D1D1" stroke-width="3"/>
<line x1="151.179" y1="461" x2="151.179" y2="445.855" stroke="#F9D1D1" stroke-width="3"/>
<line x1="165.08" y1="461" x2="165.08" y2="445.855" stroke="#F9D1D1" stroke-width="3"/>
<line x1="178.98" y1="461" x2="178.98" y2="445.855" stroke="#F9D1D1" stroke-width="3"/>
<rect x="22.2139" y="16.433" width="280.27" height="427.528" rx="23.5" stroke="#F9D1D1" stroke-width="5"/>
<rect x="22.2139" y="16.433" width="280.27" height="427.528" rx="23.5" stroke="#F9D1D1" stroke-width="5"/>
<line x1="320.698" y1="204.437" x2="304.984" y2="204.437" stroke="#F9D1D1" stroke-width="3"/>
<line x1="320.698" y1="190.504" x2="304.984" y2="190.504" stroke="#F9D1D1" stroke-width="3"/>
<line x1="320.698" y1="176.571" x2="304.984" y2="176.571" stroke="#F9D1D1" stroke-width="3"/>
<line x1="19.7139" y1="245.63" x2="3.99985" y2="245.63" stroke="#F9D1D1" stroke-width="3"/>
<line x1="19.7139" y1="231.697" x2="3.99985" y2="231.697" stroke="#F9D1D1" stroke-width="3"/>
<line x1="19.7139" y1="217.764" x2="3.99985" y2="217.764" stroke="#F9D1D1" stroke-width="3"/>
<line x1="19.7139" y1="259.563" x2="3.99985" y2="259.563" stroke="#F9D1D1" stroke-width="3"/>
<line x1="19.7139" y1="273.496" x2="3.99985" y2="273.496" stroke="#F9D1D1" stroke-width="3"/>
<line x1="19.7139" y1="287.429" x2="3.99985" y2="287.429" stroke="#F9D1D1" stroke-width="3"/>
<line x1="19.7139" y1="203.831" x2="3.99985" y2="203.831" stroke="#F9D1D1" stroke-width="3"/>
<line x1="19.7139" y1="189.898" x2="3.99985" y2="189.898" stroke="#F9D1D1" stroke-width="3"/>
<line x1="19.7139" y1="175.965" x2="3.99985" y2="175.965" stroke="#F9D1D1" stroke-width="3"/>
<rect x="3.53145" width="140.22" height="140.22" rx="64.5" transform="matrix(0.70629 -0.707922 0.70629 0.707922 61.2452 232.519)" stroke="#F9D1D1" stroke-width="5"/>
<rect x="102.597" y="169.696" width="120.108" height="121.003" stroke="#F9D1D1" stroke-width="5"/>
<line y1="-1.5" x2="174.14" y2="-1.5" transform="matrix(0.704549 0.709656 -0.708027 0.706185 101.306 169.013)" stroke="#F9D1D1" stroke-width="3"/>
<line y1="-1.5" x2="174.14" y2="-1.5" transform="matrix(0.704549 -0.709656 0.708027 0.706185 101.306 292.593)" stroke="#F9D1D1" stroke-width="3"/>
<line x1="161.453" y1="293.2" x2="161.453" y2="167.196" stroke="#F9D1D1" stroke-width="3"/>
<line x1="101.306" y1="228.697" x2="222.788" y2="228.697" stroke="#F9D1D1" stroke-width="3"/>
<line y1="-1.5" x2="137.567" y2="-1.5" transform="matrix(0.439338 0.898322 -0.897519 0.440977 130.921 169.013)" stroke="#F9D1D1" stroke-width="3"/>
<line y1="-1.5" x2="137.567" y2="-1.5" transform="matrix(-0.439338 0.898322 0.897519 0.440977 191.359 169.013)" stroke="#F9D1D1" stroke-width="3"/>
<line y1="-1.5" x2="133.655" y2="-1.5" transform="matrix(0.908915 0.416982 -0.415393 0.909642 101.306 202.331)" stroke="#F9D1D1" stroke-width="3"/>
<line y1="-1.5" x2="133.655" y2="-1.5" transform="matrix(0.908915 -0.416982 -0.415393 -0.909642 101.306 256.246)" stroke="#F9D1D1" stroke-width="3"/>
<path d="M173.75 229.894C173.75 238.076 172.27 245.363 169.982 250.511C168.837 253.088 167.537 255.018 166.221 256.271C164.917 257.511 163.715 257.986 162.651 257.986C161.587 257.986 160.385 257.511 159.081 256.271C157.765 255.018 156.465 253.088 155.32 250.511C153.031 245.363 151.552 238.076 151.552 229.894C151.552 221.713 153.031 214.426 155.32 209.278C156.465 206.701 157.765 204.77 159.081 203.517C160.385 202.277 161.587 201.802 162.651 201.802C163.715 201.802 164.917 202.277 166.221 203.517C167.537 204.77 168.837 206.701 169.982 209.278C172.27 214.426 173.75 221.713 173.75 229.894Z" fill="#A155B9" stroke="#F9D1D1" stroke-width="5"/>
<path d="M166.893 230.5C166.893 234.105 166.242 237.296 165.251 239.53C164.755 240.649 164.203 241.461 163.666 241.974C163.137 242.479 162.694 242.63 162.349 242.63C162.004 242.63 161.561 242.479 161.032 241.974C160.495 241.461 159.943 240.649 159.447 239.53C158.456 237.296 157.805 234.105 157.805 230.5C157.805 226.895 158.456 223.704 159.447 221.47C159.943 220.351 160.495 219.539 161.032 219.026C161.561 218.521 162.004 218.37 162.349 218.37C162.694 218.37 163.137 218.521 163.666 219.026C164.203 219.539 164.755 220.351 165.251 221.47C166.242 223.704 166.893 226.895 166.893 230.5Z" fill="#A155B9" stroke="#F9D1D1" stroke-width="3"/>
<path d="M292.8 230.803L163.256 32.7122L33.7109 230.803" stroke="#F9D1D1" stroke-width="5"/>
<path d="M292.8 229.289L163.256 428.288L33.7109 229.289" stroke="#F9D1D1" stroke-width="5"/>
<defs>
<filter id="filter0_d_156_1671" x="0" y="0" width="324.698" height="469" filterUnits="userSpaceOnUse" color-interpolation-filters="sRGB">
<feFlood flood-opacity="0" result="BackgroundImageFix"/>
<feColorMatrix in="SourceAlpha" type="matrix" values="0 0 0 0 0 0 0 0 0 0 0 0 0 0 0 0 0 0 127 0" result="hardAlpha"/>
<feOffset dy="4"/>
<feGaussianBlur stdDeviation="2"/>
<feComposite in2="hardAlpha" operator="out"/>
<feColorMatrix type="matrix" values="0 0 0 0 0 0 0 0 0 0 0 0 0 0 0 0 0 0 0.25 0"/>
<feBlend mode="normal" in2="BackgroundImageFix" result="effect1_dropShadow_156_1671"/>
<feBlend mode="normal" in="SourceGraphic" in2="effect1_dropShadow_156_1671" result="shape"/>
</filter>
</defs>
</svg>
