<svg width="125" height="108" viewBox="0 0 125 108" fill="none" xmlns="http://www.w3.org/2000/svg">
<g id="Group 17">
<path id="Vector 1" d="M61.3999 44.5124C60.6476 48.3375 59.4742 53.4245 57.9473 58.9253M57.9473 58.9253C54.1472 72.6159 48.1576 88.8698 41.0209 94.6146C28.5156 104.681 -17.8003 63.5009 11.6103 28.9555C41.0209 -5.58989 58.8525 0.81588 71.3578 6.53531C82.9643 11.8437 116.315 48.684 107.903 76.9988M57.9473 58.9253C62.4175 74.1009 62.7894 97.8175 69.2736 101.478C75.0471 104.737 85.9612 110.717 99.8909 91.6405M99.8909 91.6405C101.606 89.2921 103.366 86.5641 105.168 83.4045C106.35 81.3328 107.252 79.1913 107.903 76.9988M99.8909 91.6405L114.432 104.91L123 91.6405L107.903 76.9988" stroke="white" stroke-width="3"/>
<path id="Vector 2" d="M35 17C22.5527 29.5078 8.64098 35.7617 9.00707 50.8446C9.37317 65.9275 27.6781 86.5285 32.8035 88" stroke="white" stroke-width="3"/>
</g>
</svg>
