<svg width="503" height="488" viewBox="0 0 503 488" fill="none" xmlns="http://www.w3.org/2000/svg">
<path d="M402.963 186.178C469.114 268.759 405.436 387.47 377.612 413.158C349.788 438.846 302.663 419.557 281.595 406.616C255.259 390.44 149.525 335.98 64.1892 276.504C-21.1465 217.027 55.2888 145.504 124.944 101.693C194.6 57.8822 336.812 103.598 402.963 186.178Z" stroke="#FFE7D2" stroke-width="5"/>
<path d="M149.936 198.541L181.436 218.541M308.936 302.541L219.936 245.041M181.436 218.541V177.041M181.436 218.541L219.936 245.041M219.936 245.041V177.041" stroke="#FFE7D2" stroke-width="5"/>
<path d="M50.5535 329.984L60.8371 311.148L63.3571 312.524L54.1615 329.367L61.9529 333.621L60.4792 335.403L50.5535 329.984ZM77.3713 320.175L70.9835 331.875C70.4734 332.809 70.1855 333.704 70.1197 334.558C70.0585 335.403 70.1506 336.182 70.3958 336.895C70.6543 337.604 71.0293 338.231 71.5209 338.778C72.0171 339.316 72.5696 339.751 73.1781 340.083C73.7953 340.42 74.4409 340.633 75.115 340.723C75.7938 340.805 76.4559 340.743 77.1014 340.539C77.76 340.331 78.3891 339.974 78.9887 339.467C79.5929 338.951 80.1313 338.26 80.604 337.395L87.104 325.489L89.4183 326.753L82.9323 338.632C82.6468 339.155 82.2854 339.664 81.8479 340.16C81.4152 340.647 80.9209 341.084 80.365 341.47C79.8178 341.861 79.2117 342.187 78.5467 342.447C77.8818 342.707 77.1768 342.867 76.4317 342.927C75.6866 342.988 74.9041 342.933 74.0843 342.764C73.2691 342.586 72.4287 342.261 71.563 341.788C70.5087 341.212 69.6333 340.523 68.9369 339.72C68.2451 338.908 67.7529 338.017 67.4602 337.045C67.1808 336.069 67.1158 335.026 67.2651 333.917C67.4276 332.804 67.8294 331.661 68.4705 330.486L74.8513 318.799L77.3713 320.175ZM99.8472 354.543C99.1379 354.701 98.4255 354.763 97.71 354.728C96.9992 354.685 96.3146 354.584 95.6561 354.425C94.9976 354.265 94.3885 354.066 93.829 353.828C93.2734 353.602 92.7942 353.38 92.3914 353.16C91.1485 352.481 90.1107 351.631 89.2779 350.609C88.4499 349.578 87.8572 348.442 87.5 347.201C87.1513 345.965 87.0587 344.657 87.2221 343.278C87.3988 341.894 87.8685 340.504 88.6313 339.107C89.2022 338.061 89.8643 337.154 90.6175 336.386C91.3707 335.618 92.1822 334.987 93.0522 334.494C93.9222 334.001 94.8335 333.637 95.786 333.4C96.7384 333.164 97.7038 333.056 98.6819 333.079C99.6647 333.092 100.641 333.23 101.61 333.492C102.584 333.746 103.521 334.119 104.421 334.61C105.013 334.933 105.694 335.377 106.464 335.942C107.24 336.499 108.026 337.179 108.823 337.981L107.164 339.979L106.837 339.968C106.128 339.024 105.409 338.253 104.679 337.654C103.962 337.052 103.321 336.596 102.755 336.287C101.726 335.725 100.669 335.41 99.5835 335.34C98.5025 335.262 97.4597 335.399 96.4549 335.751C95.4548 336.095 94.5287 336.63 93.6766 337.355C92.8244 338.081 92.1152 338.962 91.549 339.999C91.0061 340.993 90.6339 342.042 90.4324 343.145C90.2442 344.243 90.2578 345.319 90.4732 346.371C90.6934 347.415 91.1299 348.399 91.7826 349.322C92.44 350.238 93.3473 351.011 94.5045 351.643C94.8387 351.825 95.219 352.005 95.6453 352.182C96.0715 352.359 96.5422 352.516 97.0573 352.653C97.5771 352.781 98.1371 352.886 98.7372 352.969C99.3419 353.043 99.9857 353.067 100.668 353.039L99.8472 354.543ZM105.71 360.097L103.19 358.722L113.474 339.886L115.994 341.262L105.71 360.097ZM115.057 365.201L112.1 351.236L124.955 346.154L127.784 347.699L114.77 352.276L118.272 366.955L115.057 365.201ZM119.25 372.897C119.715 372.739 120.171 372.555 120.62 372.344C121.078 372.137 121.508 371.91 121.91 371.662C122.312 371.415 122.68 371.159 123.013 370.896C123.346 370.633 123.624 370.367 123.848 370.1C123.8 369.963 123.73 369.807 123.635 369.634C123.554 369.456 123.456 369.28 123.34 369.105C123.224 368.93 123.096 368.766 122.958 368.613C122.824 368.451 122.689 368.31 122.553 368.192C122.55 368.034 122.58 367.867 122.644 367.69C122.707 367.513 122.771 367.365 122.837 367.245C122.949 367.039 123.105 366.846 123.303 366.665C123.511 366.489 123.743 366.349 124 366.245C124.257 366.14 124.535 366.091 124.832 366.098C125.137 366.109 125.444 366.198 125.753 366.367C125.993 366.498 126.203 366.674 126.383 366.894C126.576 367.111 126.713 367.37 126.794 367.67C126.875 367.97 126.884 368.309 126.823 368.687C126.774 369.061 126.628 369.471 126.385 369.916C126.16 370.328 125.855 370.734 125.469 371.135C125.083 371.537 124.613 371.909 124.059 372.251C123.508 372.607 122.874 372.923 122.156 373.199C121.434 373.483 120.628 373.716 119.738 373.898L119.25 372.897ZM158.674 366.349L155.316 381.456L154.501 384.416L154.745 384.549L156.795 382.263L168.335 369.838L170.803 371.186L155.081 387.052L152.15 385.452L155.017 371.58L156.004 368.03L155.747 367.889L153.294 370.639L143.163 380.545L140.257 378.959L145.064 357.133L147.738 358.593L143.552 375.033L142.66 377.951L142.904 378.084L144.979 375.812L155.871 364.819L158.674 366.349ZM164.467 392.177L174.75 373.341L185.795 379.371L184.321 381.153L176.182 376.71L172.897 382.727L180.149 386.686L178.675 388.468L171.809 384.72L168.075 391.56L176.805 396.326L175.331 398.108L164.467 392.177ZM193.476 401.372L185.35 396.936L180.795 401.091L178.417 399.793L195.707 384.783L198.382 386.243L195.118 408.911L192.469 407.465L193.476 401.372ZM193.843 399.019L195.364 390.303L196.063 387.28L195.806 387.14L193.641 389.362L187.106 395.341L193.843 399.019ZM198.949 411.003L209.233 392.167L211.753 393.543L202.557 410.386L210.349 414.64L208.875 416.422L198.949 411.003ZM217.374 421.062L214.854 419.686L224.049 402.843L217.801 399.432L219.274 397.65L234.163 405.778L232.689 407.56L226.569 404.219L217.374 421.062ZM227.363 426.516L237.647 407.68L240.167 409.056L235.794 417.066L245.925 422.598L250.298 414.588L252.818 415.963L242.535 434.799L240.015 433.423L244.837 424.59L234.706 419.059L229.883 427.892L227.363 426.516Z" fill="#FFE7D2"/>
</svg>
