<svg width="252" height="727" viewBox="0 0 252 727" fill="none" xmlns="http://www.w3.org/2000/svg">
<path d="M69.0692 7.20385L81.3282 40.3332L81.7271 41.4113L82.8052 41.8103L115.935 54.0692L82.8052 66.3282L81.7271 66.7271L81.3282 67.8052L69.0692 100.935L56.8103 67.8052L56.4113 66.7271L55.3332 66.3282L22.2039 54.0692L55.3332 41.8103L56.4113 41.4113L56.8103 40.3332L69.0692 7.20385Z" stroke="#FFF9C6" stroke-width="5"/>
<path d="M108.069 413.204L120.328 446.333L120.727 447.411L121.805 447.81L154.935 460.069L121.805 472.328L120.727 472.727L120.328 473.805L108.069 506.935L95.8103 473.805L95.4113 472.727L94.3332 472.328L61.2039 460.069L94.3332 447.81L95.4113 447.411L95.8103 446.333L108.069 413.204Z" stroke="#FFF9C6" stroke-width="5"/>
<path d="M68.5 243.204L77.3641 267.159L77.7631 268.237L78.8412 268.636L102.796 277.5L78.8412 286.364L77.7631 286.763L77.3641 287.841L68.5 311.796L59.6359 287.841L59.2369 286.763L58.1588 286.364L34.2039 277.5L58.1588 268.636L59.2369 268.237L59.6359 267.159L68.5 243.204Z" stroke="#FFF9C6" stroke-width="5"/>
<path d="M151.5 525.204L160.364 549.159L160.763 550.237L161.841 550.636L185.796 559.5L161.841 568.364L160.763 568.763L160.364 569.841L151.5 593.796L142.636 569.841L142.237 568.763L141.159 568.364L117.204 559.5L141.159 550.636L142.237 550.237L142.636 549.159L151.5 525.204Z" stroke="#FFF9C6" stroke-width="5"/>
<path d="M123 150.204L127.948 163.575L128.347 164.653L129.425 165.052L142.796 170L129.425 174.948L128.347 175.347L127.948 176.425L123 189.796L118.052 176.425L117.653 175.347L116.575 174.948L103.204 170L116.575 165.052L117.653 164.653L118.052 163.575L123 150.204Z" stroke="#FFF9C6" stroke-width="5"/>
<path d="M27 653.204L31.9478 666.575L32.3468 667.653L33.4249 668.052L46.7961 673L33.4249 677.948L32.3468 678.347L31.9478 679.425L27 692.796L22.0522 679.425L21.6532 678.347L20.5751 677.948L7.20386 673L20.5751 668.052L21.6532 667.653L22.0522 666.575L27 653.204Z" stroke="#FFF9C6" stroke-width="5"/>
<path d="M225 680.204L229.948 693.575L230.347 694.653L231.425 695.052L244.796 700L231.425 704.948L230.347 705.347L229.948 706.425L225 719.796L220.052 706.425L219.653 705.347L218.575 704.948L205.204 700L218.575 695.052L219.653 694.653L220.052 693.575L225 680.204Z" stroke="#FFF9C6" stroke-width="5"/>
</svg>
