<svg width="303" height="258" viewBox="0 0 303 258" fill="none" xmlns="http://www.w3.org/2000/svg">
<path d="M148.393 106.773C146.539 116.201 143.647 128.738 139.884 142.295M139.884 142.295C130.519 176.036 115.757 216.094 98.1685 230.252C67.3487 255.061 -46.7986 153.571 25.685 68.4329C98.1685 -16.7056 142.115 -0.918312 172.935 13.1775C201.54 26.2602 283.734 117.055 263.003 186.837M139.884 142.295C150.901 179.696 151.818 238.146 167.798 247.167C182.027 255.2 208.926 269.937 243.256 222.923M243.256 222.923C247.482 217.135 251.821 210.412 256.263 202.625C259.175 197.519 261.398 192.241 263.003 186.837M243.256 222.923L279.092 255.625L300.209 222.923L263.003 186.837" stroke="#CE9F26" stroke-width="3"/>
<path d="M83.3298 38.9683C52.6528 69.7942 18.3669 85.2071 19.2691 122.38C20.1714 159.552 65.2847 210.324 77.9164 213.951" stroke="#CE9F26" stroke-width="3"/>
</svg>
