<svg width="128" height="110" viewBox="0 0 128 110" fill="none" xmlns="http://www.w3.org/2000/svg">
<g id="Group 23">
<path id="Vector 1" d="M62.3999 45.5124C61.6476 49.3375 60.4742 54.4245 58.9473 59.9253M58.9473 59.9253C55.1472 73.6159 49.1576 89.8698 42.0209 95.6146C29.5156 105.681 -16.8003 64.5009 12.6103 29.9555C42.0209 -4.58989 59.8525 1.81588 72.3578 7.53531C83.9643 12.8437 117.315 49.684 108.903 77.9988M58.9473 59.9253C63.4175 75.1009 63.7894 98.8175 70.2736 102.478C76.0471 105.737 86.9612 111.717 100.891 92.6405M100.891 92.6405C102.606 90.2921 104.366 87.5641 106.168 84.4045C107.35 82.3328 108.252 80.1913 108.903 77.9988M100.891 92.6405L115.432 105.91L124 92.6405L108.903 77.9988" stroke="white" stroke-width="5"/>
<path id="Vector 2" d="M36 18C23.5527 30.5078 9.64098 36.7617 10.0071 51.8446C10.3732 66.9275 28.6781 87.5285 33.8035 89" stroke="white" stroke-width="5"/>
</g>
</svg>
