<svg width="591" height="421" viewBox="0 0 591 421" fill="none" xmlns="http://www.w3.org/2000/svg">
<path d="M535.993 343.979C526.308 357.651 526.878 383.288 535.993 386.707" stroke="white" stroke-width="5"/>
<path d="M97.8893 71.0894C88.3823 70.2933 76.8218 70.1116 65.086 71.0894M65.086 71.0894C29.2338 74.0768 -8.25496 87.8861 6.16648 128.06C25.3086 181.385 68.0746 175.346 87.0648 165.661C90.673 165.661 101.08 167.256 113.841 173.637C129.793 181.613 217.528 261.371 239.177 271.626C260.826 281.881 410.659 358.222 426.61 370.185C442.562 382.149 472.757 410.065 528.588 416.901C573.253 422.371 572.265 398.671 566.188 386.137C557.643 375.883 547.502 351.157 575.304 334.294C610.056 313.215 562.2 283.59 540.552 271.626C523.233 262.055 488.139 275.614 472.757 283.59C451.108 278.273 396.074 260.46 349.13 231.747C302.186 203.034 219.649 133.947 184.249 102.993M65.086 71.0894C61.7476 57.7963 57.0738 28.0196 65.086 15.2582C75.1013 -0.693608 125.235 -8.6695 146.884 40.3253C154.186 56.8501 168.098 79.5318 184.249 102.993M272.22 209.528C256.362 198.201 215.984 149.092 184.249 102.993" stroke="white" stroke-width="5"/>
</svg>
