<svg width="240" height="531" viewBox="0 0 240 531" fill="none" xmlns="http://www.w3.org/2000/svg">
<rect x="2.5" y="2.5" width="235" height="526" fill="#F0F7C7" stroke="#80DC9F" stroke-width="5"/>
<path d="M131.799 166.645C130.959 168.445 129.804 169.9 128.334 171.01C126.864 172.12 124.929 172.675 122.529 172.675C121.329 172.675 120.054 172.45 118.704 172C117.384 171.52 116.154 170.65 115.014 169.39C113.874 168.13 112.929 166.405 112.179 164.215C111.429 162.025 111.054 159.22 111.054 155.8C111.054 152.44 111.414 149.665 112.134 147.475C112.854 145.285 113.769 143.56 114.879 142.3C116.019 141.04 117.264 140.17 118.614 139.69C119.964 139.18 121.284 138.925 122.574 138.925C123.744 138.925 124.794 139.075 125.724 139.375C126.684 139.675 127.524 140.08 128.244 140.59C128.964 141.07 129.579 141.64 130.089 142.3C130.629 142.96 131.064 143.65 131.394 144.37L128.019 145.675C127.539 144.445 126.864 143.515 125.994 142.885C125.154 142.255 124.014 141.94 122.574 141.94C121.554 141.94 120.579 142.165 119.649 142.615C118.749 143.035 117.954 143.785 117.264 144.865C116.574 145.915 116.019 147.325 115.599 149.095C115.209 150.865 115.014 153.1 115.014 155.8C115.014 158.47 115.224 160.69 115.644 162.46C116.064 164.23 116.619 165.64 117.309 166.69C118.029 167.74 118.839 168.49 119.739 168.94C120.669 169.39 121.629 169.615 122.619 169.615C124.269 169.615 125.529 169.21 126.399 168.4C127.269 167.56 127.974 166.51 128.514 165.25L131.799 166.645ZM130.897 179.6V212H127.072V197.15H114.922V212H111.097V179.6H114.922V194.09H127.072V179.6H130.897ZM114.939 219.6V242.55C114.939 244.8 115.404 246.54 116.334 247.77C117.264 249 118.824 249.615 121.014 249.615C123.204 249.615 124.779 249 125.739 247.77C126.729 246.54 127.224 244.8 127.224 242.55V219.6H130.869V242.595C130.869 245.895 130.014 248.4 128.304 250.11C126.624 251.82 124.194 252.675 121.014 252.675C117.834 252.675 115.389 251.82 113.679 250.11C111.969 248.4 111.114 245.895 111.114 242.595V219.6H114.939ZM114.939 259.6V282.55C114.939 284.8 115.404 286.54 116.334 287.77C117.264 289 118.824 289.615 121.014 289.615C123.204 289.615 124.779 289 125.739 287.77C126.729 286.54 127.224 284.8 127.224 282.55V259.6H130.869V282.595C130.869 285.895 130.014 288.4 128.304 290.11C126.624 291.82 124.194 292.675 121.014 292.675C117.834 292.675 115.389 291.82 113.679 290.11C111.969 288.4 111.114 285.895 111.114 282.595V259.6H114.939ZM127.863 332L116.658 316.925V332H112.833V299.6H116.658V313.73L126.828 299.6H131.103L119.808 315.035L132.543 332H127.863ZM122.92 339.6V372H119.095V339.6H122.92ZM131.799 406.645C130.959 408.445 129.804 409.9 128.334 411.01C126.864 412.12 124.929 412.675 122.529 412.675C121.329 412.675 120.054 412.45 118.704 412C117.384 411.52 116.154 410.65 115.014 409.39C113.874 408.13 112.929 406.405 112.179 404.215C111.429 402.025 111.054 399.22 111.054 395.8C111.054 392.44 111.414 389.665 112.134 387.475C112.854 385.285 113.769 383.56 114.879 382.3C116.019 381.04 117.264 380.17 118.614 379.69C119.964 379.18 121.284 378.925 122.574 378.925C123.744 378.925 124.794 379.075 125.724 379.375C126.684 379.675 127.524 380.08 128.244 380.59C128.964 381.07 129.579 381.64 130.089 382.3C130.629 382.96 131.064 383.65 131.394 384.37L128.019 385.675C127.539 384.445 126.864 383.515 125.994 382.885C125.154 382.255 124.014 381.94 122.574 381.94C121.554 381.94 120.579 382.165 119.649 382.615C118.749 383.035 117.954 383.785 117.264 384.865C116.574 385.915 116.019 387.325 115.599 389.095C115.209 390.865 115.014 393.1 115.014 395.8C115.014 398.47 115.224 400.69 115.644 402.46C116.064 404.23 116.619 405.64 117.309 406.69C118.029 407.74 118.839 408.49 119.739 408.94C120.669 409.39 121.629 409.615 122.619 409.615C124.269 409.615 125.529 409.21 126.399 408.4C127.269 407.56 127.974 406.51 128.514 405.25L131.799 406.645ZM130.897 419.6V452H127.072V437.15H114.922V452H111.097V419.6H114.922V434.09H127.072V419.6H130.897ZM122.92 459.6V492H119.095V459.6H122.92Z" fill="#80DC9F"/>
<path d="M57.72 47.73H114.14V80.7H108.68V52.91H62.97V81.05H57.72V47.73ZM60.52 71.53H111.83V76.64H60.52V71.53ZM83.06 35.2H88.52V99.53H83.06V35.2ZM125.34 45.07H186.45V50.04H125.34V45.07ZM129.75 60.33H182.88V65.37H129.75V60.33ZM136.68 91.97H175.53V96.87H136.68V91.97ZM153.06 35.2H158.59V62.85H153.06V35.2ZM133.53 73.35H179.1V100.23H173.43V78.11H138.92V100.23H133.53V73.35Z" fill="#80DC9F"/>
<path d="M44.5 114.5H197.5" stroke="#80DC9F" stroke-width="3"/>
</svg>
