<svg width="543" height="711" viewBox="0 0 543 711" fill="none" xmlns="http://www.w3.org/2000/svg">
<rect x="1.5" y="1.5" width="540" height="708" rx="28.5" fill="white" stroke="black" stroke-width="3"/>
<path d="M154.775 173.017C172.92 178.591 196.272 184.51 221.029 188.234M320.883 187.576C321.543 187.474 322.202 187.371 322.861 187.266M111.153 305.362C137.227 315.372 169.854 325.581 204.034 331.641M206.028 331.99C227.691 335.721 249.938 337.758 271.5 337C294.177 336.202 317.61 333.032 340.327 328.544M342.312 328.148C377.83 320.998 411.483 310.688 437.607 301.272M111 453.895C139.411 464.009 176.5 474.703 215.444 480.544M217.518 480.85C235.367 483.443 253.579 485 271.5 485C291.44 485 311.739 483.073 331.498 479.935M333.572 479.601C367.33 474.087 399.41 465.099 425.298 456.235M170.213 568.02C189.311 574.54 212.882 580.851 237.59 583.981M239.737 584.244C240.451 584.329 241.165 584.411 241.881 584.49M307.209 583.045C307.934 582.94 308.658 582.832 309.381 582.723M311.556 582.385C338.026 578.188 362.845 570.994 381.801 564.245M153.67 170.582C130.985 221.257 106.5 293.757 106.5 392C106.5 468.678 132.474 510.23 153.834 544.401M223.428 186.567C214.62 227.716 207.254 277.563 206.07 329.968M206 355.5C207.586 445.578 225.205 531.141 239.164 582.161M322.465 185.304C330.659 225.699 337.911 274.737 340.239 326.523M341 355.5C341.63 445.026 324.291 529.756 309.98 580.608M396.942 171.949C420.632 225.319 447.346 301.348 444 355.5C442.164 385.209 433.706 421.503 422.971 457.027M422.257 459.377C410.705 497.217 396.672 533.998 385.426 560.802M70.7523 285.432C81.2366 239.179 101.837 198.204 129.372 166.382C134.757 168.5 141.809 171.017 150.118 173.657C135.337 207.285 120.064 250.165 111.475 303.343C94.701 296.889 80.6741 290.527 70.7523 285.432ZM151.749 169.978C144.04 167.538 137.409 165.2 132.188 163.186C144.233 149.765 157.539 138.064 171.852 128.389C165.877 140.16 158.902 153.983 151.749 169.978ZM115.292 304.796C123.821 251.452 139.14 208.51 153.96 174.859C172.189 180.469 195.684 186.437 220.617 190.195C212.184 230.577 205.247 278.894 204.078 329.618C171.637 323.84 140.595 314.314 115.292 304.796ZM221.445 186.275C196.866 182.585 173.657 176.714 155.596 171.177C162.99 154.675 170.193 140.491 176.289 128.485C177.054 126.978 177.802 125.505 178.531 124.066C199.278 111.227 221.979 102.558 245.923 98.9261C239.024 117.356 229.612 148.092 221.445 186.275ZM208.063 330.307C209.187 279.528 216.14 231.141 224.583 190.772C240.061 192.943 256.009 194.22 271.528 194C287.984 193.766 304.925 192.062 321.275 189.539C329.147 229.169 336.019 276.757 338.254 326.912C316.162 331.206 293.433 334.227 271.43 335.001C250.576 335.735 229.065 333.834 208.063 330.307ZM320.487 185.613C304.361 188.095 287.67 189.77 271.472 190C256.262 190.216 240.617 188.971 225.413 186.849C233.831 147.556 243.56 116.241 250.436 98.3031C257.363 97.4414 264.389 97 271.5 97C280.478 97 289.323 97.7037 298.001 99.069C304.049 116.66 312.692 147.211 320.487 185.613ZM342.223 326.126C339.952 276.041 333.093 228.535 325.228 188.911C351.908 184.558 376.76 178.139 395.018 172.543C403.141 190.828 411.628 211.798 419.134 233.639C426.58 255.309 433.037 277.771 437.226 299.284C411.211 308.674 377.648 318.974 342.223 326.126ZM393.372 168.864C375.27 174.391 350.734 180.705 324.441 184.987C316.896 147.779 308.548 117.871 302.487 99.8361C328.51 104.645 352.979 115.421 374.956 131.028C380.263 141.001 386.66 153.961 393.372 168.864ZM422.916 232.339C415.43 210.553 406.973 189.632 398.863 171.347C404.599 169.534 409.571 167.835 413.605 166.355C441.135 198.162 461.735 239.115 472.228 285.346C464.237 288.921 453.604 293.272 441.03 297.897C436.784 276.291 430.312 253.86 422.916 232.339ZM410.763 163.132C406.952 164.503 402.395 166.042 397.221 167.671C391.946 155.938 386.857 145.386 382.325 136.513C392.415 144.381 401.928 153.294 410.763 163.132ZM441.789 301.879C454.343 297.275 465.007 292.932 473.106 289.335C477.603 310.45 480 332.627 480 355.5C480 383.828 476.324 411.087 469.533 436.586C459.293 441.388 444.237 447.586 426.002 453.878C436.227 419.475 444.211 384.505 445.996 355.623C447.008 339.243 445.304 320.926 441.789 301.879ZM424.587 458.591C442.424 452.531 457.418 446.499 468.142 441.632C455.837 484.804 434.55 522.686 407.099 551.854C402.278 554.13 395.782 556.897 387.996 559.842C397.257 537.65 408.287 508.982 418.25 478.634C420.422 472.02 422.544 465.322 424.587 458.591ZM385.867 564.902C390.883 563.063 395.439 561.273 399.449 559.602C393.677 565.173 387.664 570.374 381.434 575.178C382.843 571.971 384.326 568.538 385.867 564.902ZM380.734 566.743C378.654 571.594 376.697 576.038 374.901 580.012C352.953 595.586 328.523 606.344 302.544 611.153C305.053 604.026 307.923 595.049 310.951 584.504C337.103 580.432 361.689 573.425 380.734 566.743ZM306.601 585.152C303.478 595.911 300.541 604.943 298.021 611.928C289.337 613.295 280.485 614 271.5 614C264.407 614 257.397 613.561 250.487 612.703C248.143 605.839 245.402 597.027 242.461 586.566C252.076 587.603 261.828 588.137 271.528 588C283.254 587.833 295.057 586.793 306.601 585.152ZM238.168 586.068C241.032 596.345 243.721 605.109 246.059 612.094C222.116 608.482 199.414 599.834 178.664 587.016C176.746 581.431 174.326 575.993 171.554 570.584C190.615 576.974 213.856 583.062 238.168 586.068ZM166.029 568.684C168.694 573.6 171.071 578.476 173.055 583.419C162.844 576.623 153.139 568.802 144.029 560.062C150.207 562.761 157.641 565.725 166.029 568.684ZM163.045 563.36C151.65 559.176 142.308 555.081 135.918 551.872C108.459 522.702 87.1658 484.813 74.8577 441.632C84.1735 445.86 96.7106 450.966 111.535 456.207C117.026 479.414 125.177 498.323 133.96 514.757C139.955 525.971 146.255 536.051 152.161 545.499C153.986 548.417 155.773 551.276 157.501 554.089C159.429 557.226 161.285 560.308 163.045 563.36ZM110.49 451.59C95.1727 446.099 82.4616 440.804 73.4668 436.586C66.6762 411.087 63 383.828 63 355.5C63 332.676 65.3864 310.546 69.8655 289.471C79.9768 294.61 94.0692 300.961 110.838 307.383C106.878 333.169 104.5 361.336 104.5 392C104.5 414.667 106.757 434.297 110.49 451.59ZM108.5 392C108.5 361.886 110.808 334.202 114.663 308.832C140.172 318.384 171.378 327.907 203.997 333.665C203.874 340.915 203.871 348.21 204 355.535C204.759 398.639 209.18 440.708 215.116 478.472C178.024 472.857 142.638 462.838 114.935 453.162C110.94 435.551 108.5 415.433 108.5 392ZM208 355.465C207.875 348.394 207.874 341.35 207.986 334.349C229.048 337.854 250.623 339.736 271.57 338.999C293.599 338.224 316.328 335.223 338.424 330.953C338.745 339.084 338.942 347.279 339 355.514C339.303 398.604 335.432 440.584 329.741 478.187C310.535 481.175 290.844 483 271.5 483C254.167 483 236.554 481.535 219.262 479.08C213.254 441.17 208.763 398.84 208 355.465ZM343 355.486C342.94 346.996 342.733 338.549 342.396 330.171C378.004 323.023 411.745 312.705 437.977 303.264C441.361 321.809 442.981 339.558 442.004 355.377C440.198 384.596 431.926 420.325 421.354 455.461C396.319 463.87 365.865 472.254 333.886 477.523C339.502 440.051 343.302 398.318 343 355.486ZM333.253 481.679C364.801 476.57 394.904 468.427 419.928 460.152C418.153 465.932 416.321 471.688 414.45 477.387C403.997 509.224 392.366 539.207 382.862 561.74C364.012 568.552 338.954 575.938 312.153 580.264C319.338 554.603 327.242 520.535 333.253 481.679ZM329.104 482.332C323.004 521.39 315.002 555.51 307.809 580.936C295.862 582.701 283.62 583.828 271.472 584C261.408 584.143 251.279 583.549 241.307 582.413C234.297 556.901 226.325 522.545 219.925 483.212C237 485.588 254.379 487 271.5 487C290.641 487 310.104 485.235 329.104 482.332ZM215.776 482.615C222.103 521.802 230.003 556.143 237.017 581.891C211.87 578.63 187.931 572.076 168.801 565.417C166.348 560.971 163.689 556.519 160.909 551.995C159.15 549.132 157.344 546.242 155.507 543.303C149.614 533.876 143.412 523.954 137.488 512.871C129.168 497.305 121.419 479.485 116.031 457.776C143.873 467.366 179.009 477.153 215.776 482.615Z" stroke="black" stroke-width="4"/>
</svg>
