<svg width="666" height="573" viewBox="0 0 666 573" fill="none" xmlns="http://www.w3.org/2000/svg">
<path d="M586.209 1C576.077 20.178 553.253 61.0912 543.015 71.3195C530.216 84.1048 477.022 82.5067 448.226 101.685C419.429 120.863 414.63 137.244 392.233 164.413C369.835 191.582 340.639 234.732 334.24 249.116C327.84 263.499 347.438 263.499 365.036 249.116C377.476 238.948 388.317 229.579 396.994 218.751M473.823 239.527C473.823 246.156 466.941 259.088 467.451 267.495M473.823 239.527C470.09 241.525 462.624 244.321 462.624 239.527C462.624 234.732 470.09 223.678 473.823 218.751L481.822 227.141M473.823 239.527C473.823 234.802 477.318 231.629 481.822 227.141M624.605 50.5433C620.339 57.4687 609.887 74.1962 602.208 85.703C592.609 100.087 600.608 130.851 586.209 154.824C579.079 166.696 572.341 176.216 565.412 184.161M565.412 184.161C558.35 192.259 551.09 198.72 543.015 204.367C530.216 213.317 522.75 231.536 520.617 239.527C509.819 252.445 485.342 277.643 473.823 275.086C469.379 274.1 467.678 271.248 467.451 267.495M565.412 184.161C574.478 175.181 593.569 154.904 597.408 145.634C602.208 134.048 603.407 108.077 609.807 96.8902C614.926 87.9404 648.735 56.6696 665 42.1529M396.994 218.751C400.592 214.261 403.818 209.52 406.631 204.367C416.23 186.787 459.425 180.395 462.624 177.198C465.824 174.002 473.823 167.609 488.221 177.198C502.619 186.787 504.219 185.189 496.22 205.965C492.163 216.505 486.458 222.52 481.822 227.141M396.994 218.751C393.007 224.078 384.874 237.609 384.234 249.116C383.434 263.499 384.234 261.102 384.234 275.086C384.234 289.07 387.357 307.05 396.994 310.645C406.631 314.241 406.631 289.47 406.631 282.278C406.631 275.086 407.431 253.111 417.03 239.527C426.629 225.942 439.027 213.557 448.226 204.367C455.585 197.016 444.893 210.893 441.827 218.751C437.161 222.48 433.268 231.856 429.428 239.527C424.629 249.116 441.827 264.698 448.226 267.495C453.345 269.732 463.176 268.427 467.451 267.495" stroke="black" stroke-width="3"/>
<path d="M1 466.656C21.5359 452.025 64.1278 420.767 70.2085 412.787C77.8094 402.811 84.2102 334.577 93.0113 322.207C101.812 309.837 120.615 285.496 128.216 278.313C135.817 271.131 161.82 260.756 167.02 258.362C172.221 255.967 187.023 283.501 167.02 292.279C147.018 301.058 141.817 305.846 141.817 322.207M141.817 322.207C141.817 338.567 165.02 347.345 153.419 380.066C144.138 406.243 141.817 420.235 141.817 423.959M141.817 322.207C155.686 319.679 184.943 314.386 191.023 313.428C198.624 312.231 210.226 289.486 222.627 278.313C235.029 267.14 255.431 253.174 257.832 244.396C260.232 235.617 267.033 218.458 273.033 213.271C279.034 208.084 289.035 219.656 286.635 232.026C284.715 241.922 276.767 253.706 273.033 258.362M273.033 258.362H257.832C253.698 259.16 245.91 262.512 247.83 269.535C248.797 273.069 253.07 274.986 257.832 276.511M273.033 258.362C277.567 257.032 286.635 257.404 286.635 269.535C286.635 284.698 278.634 314.625 273.033 322.207C268.553 328.272 261.032 336.439 257.832 339.764M273.033 284.698C273.033 280.169 264.896 278.772 257.832 276.511M257.832 276.511L247.83 313.428C242.363 315.556 229.668 321.808 222.627 329.788C215.586 337.769 243.163 297.595 257.832 276.511ZM257.832 339.764C247.564 338.833 225.428 338.248 219.027 343.355C211.026 349.74 201.825 352.932 205.825 358.119C209.826 363.307 219.027 360.913 233.429 363.307C244.95 365.222 259.032 364.105 264.632 363.307M257.832 339.764C261.832 338.567 271.513 336.891 278.234 339.764C286.635 343.355 286.635 340.961 286.635 358.119C286.635 371.846 271.967 383.524 264.632 387.648M264.632 387.648C257.165 387.648 241.35 387.648 237.829 387.648C233.429 387.648 215.426 396.426 219.027 406.402C222.627 416.378 227.828 411.989 237.829 411.989C247.83 411.989 251.031 411.989 257.832 411.989M264.632 387.648C266.366 386.185 271.513 384.136 278.234 387.648C286.635 392.037 291.836 400.417 278.234 417.176C264.632 433.935 269.833 435.132 253.831 445.108C237.829 455.084 189.023 472.641 158.619 473.439C134.296 474.078 74.609 539.412 47.8057 572" stroke="black" stroke-width="3"/>
</svg>
