<svg width="325" height="371" viewBox="0 0 325 371" fill="none" xmlns="http://www.w3.org/2000/svg">
<path d="M279 314.5C279 316.631 277.061 319.615 271.032 322.972C265.257 326.188 256.702 329.182 245.872 331.732C224.26 336.823 194.252 340 161 340C127.748 340 97.7395 336.823 76.1279 331.732C65.2982 329.182 56.7431 326.188 50.9683 322.972C44.9385 319.615 43 316.631 43 314.5C43 312.369 44.9385 309.385 50.9683 306.028C56.7431 302.812 65.2982 299.818 76.1279 297.268C97.7395 292.177 127.748 289 161 289C194.252 289 224.26 292.177 245.872 297.268C256.702 299.818 265.257 302.812 271.032 306.028C277.061 309.385 279 312.369 279 314.5Z" stroke="#F0C966" stroke-width="6"/>
<path d="M279 342.5C279 344.631 277.061 347.615 271.032 350.972C265.257 354.188 256.702 357.182 245.872 359.732C224.26 364.823 194.252 368 161 368C127.748 368 97.7395 364.823 76.1279 359.732C65.2982 357.182 56.7431 354.188 50.9683 350.972C44.9385 347.615 43 344.631 43 342.5C43 340.369 44.9385 337.385 50.9683 334.028C56.7431 330.812 65.2982 327.818 76.1279 325.268C97.7395 320.177 127.748 317 161 317C194.252 317 224.26 320.177 245.872 325.268C256.702 327.818 265.257 330.812 271.032 334.028C277.061 337.385 279 340.369 279 342.5Z" stroke="#F0C966" stroke-width="6"/>
<circle cx="162.5" cy="162.5" r="159.5" fill="#FFF9C6" stroke="#F0C966" stroke-width="6"/>
<path d="M96.5 54.2039L103.744 73.7794L104.143 74.8575L105.221 75.2564L124.796 82.5L105.221 89.7436L104.143 90.1425L103.744 91.2206L96.5 110.796L89.2564 91.2206L88.8575 90.1425L87.7794 89.7436L68.2039 82.5L87.7794 75.2564L88.8575 74.8575L89.2564 73.7794L96.5 54.2039Z" stroke="#F0C966" stroke-width="5"/>
<path d="M160.5 35.2039L163.422 43.1008L163.821 44.1789L164.899 44.5779L172.796 47.5L164.899 50.4221L163.821 50.8211L163.422 51.8992L160.5 59.7961L157.578 51.8992L157.179 50.8211L156.101 50.4221L148.204 47.5L156.101 44.5779L157.179 44.1789L157.578 43.1008L160.5 35.2039Z" stroke="#F0C966" stroke-width="5"/>
<path d="M251.5 74.2039L254.422 82.1008L254.821 83.1789L255.899 83.5779L263.796 86.5L255.899 89.4221L254.821 89.8211L254.422 90.8992L251.5 98.7961L248.578 90.8992L248.179 89.8211L247.101 89.4221L239.204 86.5L247.101 83.5779L248.179 83.1789L248.578 82.1008L251.5 74.2039Z" stroke="#F0C966" stroke-width="5"/>
</svg>
