<svg width="233" height="754" viewBox="0 0 233 754" fill="none" xmlns="http://www.w3.org/2000/svg">
<path d="M178.069 637.204L190.328 670.333L190.727 671.411L191.805 671.81L224.935 684.069L191.805 696.328L190.727 696.727L190.328 697.805L178.069 730.935L165.81 697.805L165.411 696.727L164.333 696.328L131.204 684.069L164.333 671.81L165.411 671.411L165.81 670.333L178.069 637.204Z" stroke="#FFF9C6" stroke-width="5"/>
<path d="M124.069 119.204L136.328 152.333L136.727 153.411L137.805 153.81L170.935 166.069L137.805 178.328L136.727 178.727L136.328 179.805L124.069 212.935L111.81 179.805L111.411 178.727L110.333 178.328L77.2039 166.069L110.333 153.81L111.411 153.411L111.81 152.333L124.069 119.204Z" stroke="#FFF9C6" stroke-width="5"/>
<path d="M136.5 454.204L145.364 478.159L145.763 479.237L146.841 479.636L170.796 488.5L146.841 497.364L145.763 497.763L145.364 498.841L136.5 522.796L127.636 498.841L127.237 497.763L126.159 497.364L102.204 488.5L126.159 479.636L127.237 479.237L127.636 478.159L136.5 454.204Z" stroke="#FFF9C6" stroke-width="5"/>
<path d="M191.5 7.20385L200.364 31.1588L200.763 32.2369L201.841 32.6359L225.796 41.5L201.841 50.3641L200.763 50.7631L200.364 51.8412L191.5 75.7962L182.636 51.8412L182.237 50.7631L181.159 50.3641L157.204 41.5L181.159 32.6359L182.237 32.2369L182.636 31.1588L191.5 7.20385Z" stroke="#FFF9C6" stroke-width="5"/>
<path d="M41.5 678.204L50.3641 702.159L50.7631 703.237L51.8412 703.636L75.7962 712.5L51.8412 721.364L50.7631 721.763L50.3641 722.841L41.5 746.796L32.6359 722.841L32.2369 721.763L31.1588 721.364L7.20385 712.5L31.1588 703.636L32.2369 703.237L32.6359 702.159L41.5 678.204Z" stroke="#FFF9C6" stroke-width="5"/>
<path d="M178 314.204L182.948 327.575L183.347 328.653L184.425 329.052L197.796 334L184.425 338.948L183.347 339.347L182.948 340.425L178 353.796L173.052 340.425L172.653 339.347L171.575 338.948L158.204 334L171.575 329.052L172.653 328.653L173.052 327.575L178 314.204Z" stroke="#FFF9C6" stroke-width="5"/>
<path d="M110 610.204L114.948 623.575L115.347 624.653L116.425 625.052L129.796 630L116.425 634.948L115.347 635.347L114.948 636.425L110 649.796L105.052 636.425L104.653 635.347L103.575 634.948L90.2039 630L103.575 625.052L104.653 624.653L105.052 623.575L110 610.204Z" stroke="#FFF9C6" stroke-width="5"/>
</svg>
