<svg width="233" height="730" viewBox="0 0 233 730" fill="none" xmlns="http://www.w3.org/2000/svg">
<path d="M159.758 8.93408L96.1171 540.135" stroke="#EC7EA5" stroke-width="5" stroke-dasharray="20 20"/>
<path d="M73.5836 559.635L81.9207 544.935L108.45 548.114L113.079 564.366L73.5836 559.635Z" stroke="#EC7EA5" stroke-width="5"/>
<path d="M53.3411 558.607L131.335 567.951M53.3411 558.607L14.1879 593.501M53.3411 558.607L67.9417 578.442M131.335 567.951L161.137 611.106M131.335 567.951L110.788 583.575M161.137 611.106L125.41 617.405M161.137 611.106L73.9772 720.784M125.41 617.405L47.4162 608.061M125.41 617.405L73.9772 720.784M125.41 617.405L110.788 583.575M47.4162 608.061L14.1879 593.501M47.4162 608.061L73.9772 720.784M47.4162 608.061L67.9417 578.442M14.1879 593.501L73.9772 720.784M67.9417 578.442L110.788 583.575" stroke="#EC7EA5" stroke-width="5"/>
</svg>
