<svg width="181" height="174" viewBox="0 0 181 174" fill="none" xmlns="http://www.w3.org/2000/svg">
<g id="Group 56">
<path id="Vector 46" d="M42.5304 123.942C33.097 121.1 13.6884 109.06 11.5216 83.6396C9.35484 58.2193 22.7731 20.7989 29.753 5.26629C41.6474 21.0634 65.4682 58.3355 65.5959 81.0477C65.7237 103.76 50.2721 119.107 42.5304 123.942ZM42.5304 123.942L39.7083 97.446M34.0641 44.4539L36.8861 70.9499M39.7083 97.446L54.5271 81.7572M39.7083 97.446L36.8861 70.9499M39.7083 97.446L21.5346 85.0507M36.8861 70.9499L48.0727 57.7752M36.8861 70.9499L22.0177 60.1552" stroke="#F08686" stroke-width="5"/>
<path id="Vector 47" d="M46.2081 128.897C49.9663 119.789 63.8602 101.662 89.3702 102.011C114.88 102.36 150.796 119.4 165.565 127.877C148.673 138.157 109.235 158.188 86.6205 156.077C64.0062 153.966 50.2563 137.077 46.2081 128.897ZM46.2081 128.897L70.9092 128.652M123.26 128.132L95.6104 128.407M95.6104 128.407L107.559 116.086M95.6104 128.407L104.214 139.821M95.6104 128.407L70.9092 128.652M70.9092 128.652L84.1943 112.793M70.9092 128.652L79.8562 143.575" stroke="#F08686" stroke-width="5"/>
</g>
</svg>
