<svg width="287" height="267" viewBox="0 0 287 267" fill="none" xmlns="http://www.w3.org/2000/svg">
<g id="Group 75">
<path id="Vector 65" d="M204.196 41.0953C202.776 36.9793 201.067 33.2954 199.168 30.0722M199.168 30.0722C188.29 11.6072 171.188 8.26189 166.461 25.3942C160.909 45.517 171.759 98.4651 146.786 123.237C126.807 143.055 94.7199 179.067 79.5974 187.895C73.1629 182.704 58.3449 174.747 50.5492 184.445C40.8047 196.569 62.3559 203.009 68.5276 212.712C74.6993 222.416 79.3609 262.116 88.8368 260.829C98.3127 259.543 116.711 252.581 119.747 241.17C122.176 232.04 121.911 218.066 121.475 212.22C138.8 203.571 167.098 178.818 175.229 167.958C185.393 154.383 201.931 102.978 215.029 101.758C228.128 100.537 242.787 79.9554 233.798 60.1924C224.809 40.4294 213.644 20.8648 199.168 30.0722Z" stroke="white" stroke-width="5"/>
<path id="Vector 66" d="M207.734 57.2143C210.981 67.9487 209.813 80.187 208.824 84.9643" stroke="white" stroke-width="5"/>
</g>
</svg>
