<svg width="240" height="531" viewBox="0 0 240 531" fill="none" xmlns="http://www.w3.org/2000/svg">
<rect x="2.5" y="2.5" width="235" height="526" fill="#F0F7C7" stroke="#80DC9F" stroke-width="5"/>
<path d="M117.495 162.6C119.625 162.6 121.575 162.855 123.345 163.365C125.145 163.845 126.675 164.7 127.935 165.93C129.225 167.16 130.23 168.825 130.95 170.925C131.67 172.995 132.03 175.62 132.03 178.8C132.03 181.89 131.67 184.47 130.95 186.54C130.26 188.61 129.27 190.275 127.98 191.535C126.69 192.795 125.16 193.695 123.39 194.235C121.62 194.745 119.685 195 117.585 195H111.735V162.6H117.495ZM115.56 165.435V192.03H117.54C119.37 192.03 120.945 191.805 122.265 191.355C123.615 190.875 124.725 190.11 125.595 189.06C126.465 188.01 127.11 186.645 127.53 184.965C127.95 183.285 128.16 181.23 128.16 178.8C128.16 174.15 127.305 170.76 125.595 168.63C123.885 166.5 121.17 165.435 117.45 165.435H115.56ZM128.948 235L126.563 226.315H115.223L112.793 235H109.013L118.688 202.6H123.368L132.998 235H128.948ZM116.078 223.39H125.753L120.983 206.11L116.078 223.39ZM122.92 242.6V275H119.095V242.6H122.92ZM127.863 315L116.658 299.925V315H112.833V282.6H116.658V296.73L126.828 282.6H131.103L119.808 298.035L132.543 315H127.863ZM127.863 355L116.658 339.925V355H112.833V322.6H116.658V336.73L126.828 322.6H131.103L119.808 338.035L132.543 355H127.863ZM132.977 362.6L123.887 382.04V395H120.107V382.04L110.837 362.6H115.022L122.087 378.08L129.242 362.6H132.977ZM109.34 418.8C109.34 415.65 109.67 413.01 110.33 410.88C110.99 408.72 111.86 406.98 112.94 405.66C114.02 404.34 115.25 403.395 116.63 402.825C118.04 402.225 119.495 401.925 120.995 401.925C122.495 401.925 123.935 402.225 125.315 402.825C126.725 403.395 127.97 404.34 129.05 405.66C130.13 406.98 131 408.72 131.66 410.88C132.32 413.01 132.65 415.65 132.65 418.8C132.65 421.95 132.32 424.605 131.66 426.765C131 428.895 130.13 430.62 129.05 431.94C127.97 433.26 126.725 434.22 125.315 434.82C123.905 435.39 122.465 435.675 120.995 435.675C119.495 435.675 118.04 435.39 116.63 434.82C115.25 434.22 114.02 433.26 112.94 431.94C111.86 430.62 110.99 428.895 110.33 426.765C109.67 424.605 109.34 421.95 109.34 418.8ZM113.255 418.8C113.255 423.36 113.9 426.825 115.19 429.195C116.48 431.565 118.415 432.75 120.995 432.75C123.575 432.75 125.51 431.565 126.8 429.195C128.09 426.825 128.735 423.36 128.735 418.8C128.735 414.24 128.09 410.775 126.8 408.405C125.51 406.035 123.575 404.85 120.995 404.85C118.415 404.85 116.48 406.035 115.19 408.405C113.9 410.775 113.255 414.24 113.255 418.8ZM114.939 442.6V465.55C114.939 467.8 115.404 469.54 116.334 470.77C117.264 472 118.824 472.615 121.014 472.615C123.204 472.615 124.779 472 125.739 470.77C126.729 469.54 127.224 467.8 127.224 465.55V442.6H130.869V465.595C130.869 468.895 130.014 471.4 128.304 473.11C126.624 474.82 124.194 475.675 121.014 475.675C117.834 475.675 115.389 474.82 113.679 473.11C111.969 471.4 111.114 468.895 111.114 465.595V442.6H114.939Z" fill="#80DC9F"/>
<path d="M55.34 55.36H116.87V60.68H55.34V55.36ZM89.43 57.46C93.98 74.4 103.5 88.54 118.06 94.56C116.73 95.75 114.98 97.99 114.07 99.46C98.95 92.32 89.43 77.55 84.18 58.72L89.43 57.46ZM83.27 35.27H88.94C88.66 53.61 88.52 85.53 57.93 99.53C57.09 98.13 55.41 96.24 53.94 95.19C83.69 82.24 83.13 52.07 83.27 35.27ZM130.66 88.47H181.48V93.51H130.66V88.47ZM127.3 41.08H132.55V98.55H127.3V41.08ZM179.31 41.01H184.7V98.76H179.31V41.01ZM166.78 37.23L172.24 38.63C164.47 58.16 153.06 75.17 139.48 86.3C138.43 85.32 135.98 83.5 134.58 82.66C148.51 72.37 159.71 55.71 166.78 37.23ZM136.19 49.27L139.76 45.28C153.06 54.1 169.3 66.84 176.86 75.94L172.66 80.7C165.45 71.67 149.56 58.3 136.19 49.27Z" fill="#80DC9F"/>
<path d="M44.5 114.5H197.5" stroke="#80DC9F" stroke-width="3"/>
</svg>
