<svg width="1365" height="151" viewBox="0 0 1365 151" fill="none" xmlns="http://www.w3.org/2000/svg">
<path d="M37 16L44.0664 40.7607L69.0429 34.5L51.1327 53L69.0429 71.5L44.0664 65.2393L37 90L29.9336 65.2393L4.95706 71.5L22.8673 53L4.95706 34.5L29.9336 40.7607L37 16Z" fill="#A155B9"/>
<path d="M214 0L221.066 24.7607L246.043 18.5L228.133 37L246.043 55.5L221.066 49.2393L214 74L206.934 49.2393L181.957 55.5L199.867 37L181.957 18.5L206.934 24.7607L214 0Z" fill="#A155B9"/>
<path d="M402 14L409.066 38.7607L434.043 32.5L416.133 51L434.043 69.5L409.066 63.2393L402 88L394.934 63.2393L369.957 69.5L387.867 51L369.957 32.5L394.934 38.7607L402 14Z" fill="#A155B9"/>
<path d="M570 56L577.066 80.7607L602.043 74.5L584.133 93L602.043 111.5L577.066 105.239L570 130L562.934 105.239L537.957 111.5L555.867 93L537.957 74.5L562.934 80.7607L570 56Z" fill="#A155B9"/>
<path d="M762 56L769.066 80.7607L794.043 74.5L776.133 93L794.043 111.5L769.066 105.239L762 130L754.934 105.239L729.957 111.5L747.867 93L729.957 74.5L754.934 80.7607L762 56Z" fill="#A155B9"/>
<path d="M956 10L963.066 34.7607L988.043 28.5L970.133 47L988.043 65.5L963.066 59.2393L956 84L948.934 59.2393L923.957 65.5L941.867 47L923.957 28.5L948.934 34.7607L956 10Z" fill="#A155B9"/>
<path d="M1143 3L1150.07 27.7607L1175.04 21.5L1157.13 40L1175.04 58.5L1150.07 52.2393L1143 77L1135.93 52.2393L1110.96 58.5L1128.87 40L1110.96 21.5L1135.93 27.7607L1143 3Z" fill="#A155B9"/>
<path d="M1328 26L1335.07 50.7607L1360.04 44.5L1342.13 63L1360.04 81.5L1335.07 75.2393L1328 100L1320.93 75.2393L1295.96 81.5L1313.87 63L1295.96 44.5L1320.93 50.7607L1328 26Z" fill="#A155B9"/>
<path d="M117.931 35.0578L125.138 46.1004L125.931 47.3166L127.172 46.5627L138.443 39.7178L132.483 51.48L131.826 52.7754L133.1 53.4734L144.663 59.8112L131.496 60.5308L130.046 60.61L130.079 62.0619L130.371 75.2446L123.165 64.202L122.371 62.9859L121.13 63.7397L109.86 70.5847L115.82 58.8225L116.476 57.5271L115.203 56.8291L103.64 50.4913L116.806 49.7717L118.256 49.6924L118.224 48.2406L117.931 35.0578Z" stroke="#824496" stroke-width="3"/>
<path d="M300.931 27.0578L308.138 38.1004L308.931 39.3166L310.172 38.5627L321.443 31.7178L315.483 43.48L314.826 44.7754L316.1 45.4734L327.663 51.8112L314.496 52.5308L313.046 52.61L313.079 54.0619L313.371 67.2446L306.165 56.202L305.371 54.9859L304.13 55.7397L292.86 62.5847L298.82 50.8225L299.476 49.5271L298.203 48.8291L286.64 42.4913L299.806 41.7717L301.256 41.6924L301.224 40.2406L300.931 27.0578Z" stroke="#824496" stroke-width="3"/>
<path d="M468.931 50.0578L476.138 61.1004L476.931 62.3166L478.172 61.5627L489.443 54.7178L483.483 66.48L482.826 67.7754L484.1 68.4734L495.663 74.8112L482.496 75.5308L481.046 75.61L481.079 77.0619L481.371 90.2446L474.165 79.202L473.371 77.9859L472.13 78.7397L460.86 85.5847L466.82 73.8225L467.476 72.5271L466.203 71.8291L454.64 65.4913L467.806 64.7717L469.256 64.6924L469.224 63.2406L468.931 50.0578Z" stroke="#824496" stroke-width="3"/>
<path d="M658.931 97.0578L666.138 108.1L666.931 109.317L668.172 108.563L679.443 101.718L673.483 113.48L672.826 114.775L674.1 115.473L685.663 121.811L672.496 122.531L671.046 122.61L671.079 124.062L671.371 137.245L664.165 126.202L663.371 124.986L662.13 125.74L650.86 132.585L656.82 120.822L657.476 119.527L656.203 118.829L644.64 112.491L657.806 111.772L659.256 111.692L659.224 110.241L658.931 97.0578Z" stroke="#824496" stroke-width="3"/>
<path d="M852.931 55.0578L860.138 66.1004L860.931 67.3166L862.172 66.5627L873.443 59.7178L867.483 71.48L866.826 72.7754L868.1 73.4734L879.663 79.8112L866.496 80.5308L865.046 80.61L865.079 82.0619L865.371 95.2446L858.165 84.202L857.371 82.9859L856.13 83.7397L844.86 90.5847L850.82 78.8225L851.476 77.5271L850.203 76.8291L838.64 70.4913L851.806 69.7717L853.256 69.6924L853.224 68.2406L852.931 55.0578Z" stroke="#824496" stroke-width="3"/>
<path d="M1046.93 24.0578L1054.14 35.1004L1054.93 36.3166L1056.17 35.5627L1067.44 28.7178L1061.48 40.48L1060.83 41.7754L1062.1 42.4734L1073.66 48.8112L1060.5 49.5308L1059.05 49.61L1059.08 51.0619L1059.37 64.2446L1052.16 53.202L1051.37 51.9859L1050.13 52.7397L1038.86 59.5847L1044.82 47.8225L1045.48 46.5271L1044.2 45.8291L1032.64 39.4913L1045.81 38.7717L1047.26 38.6924L1047.22 37.2406L1046.93 24.0578Z" stroke="#824496" stroke-width="3"/>
<path d="M1226.93 39.0578L1234.14 50.1004L1234.93 51.3166L1236.17 50.5627L1247.44 43.7178L1241.48 55.48L1240.83 56.7754L1242.1 57.4734L1253.66 63.8112L1240.5 64.5308L1239.05 64.61L1239.08 66.0619L1239.37 79.2446L1232.16 68.202L1231.37 66.9859L1230.13 67.7397L1218.86 74.5847L1224.82 62.8225L1225.48 61.5271L1224.2 60.8291L1212.64 54.4913L1225.81 53.7717L1227.26 53.6924L1227.22 52.2406L1226.93 39.0578Z" stroke="#824496" stroke-width="3"/>
</svg>
