<svg width="259" height="563" viewBox="0 0 259 563" fill="none" xmlns="http://www.w3.org/2000/svg">
<path d="M54.1504 15.5527L165.094 412.412" stroke="#EC7EA5" stroke-width="5" stroke-dasharray="20 20"/>
<path d="M183.555 424.283L176.252 415.052L157.168 420.386L155.711 432.066L183.555 424.283Z" stroke="#EC7EA5" stroke-width="5"/>
<path d="M199.83 421.439L141.561 437.728M199.83 421.439L233.738 443.394M199.83 421.439L191.05 438.256M141.561 437.728L123.953 474.085M141.561 437.728L159.039 447.204M123.953 474.085L151.89 474.675M123.953 474.085L203.203 547.316M151.89 474.675L210.158 458.386M151.89 474.675L203.203 547.316M151.89 474.675L159.039 447.204M210.158 458.386L233.738 443.394M210.158 458.386L203.203 547.316M210.158 458.386L191.05 438.256M233.738 443.394L203.203 547.316M191.05 438.256L159.039 447.204" stroke="#EC7EA5" stroke-width="5"/>
</svg>
