<svg width="287" height="573" viewBox="0 0 287 573" fill="none" xmlns="http://www.w3.org/2000/svg">
<path d="M146.768 16L146.768 428.075" stroke="#EC7EA5" stroke-width="5" stroke-dasharray="20 20"/>
<path d="M132.184 444.477L136.732 433.621H156.547L161.095 444.477H132.184Z" stroke="#EC7EA5" stroke-width="5"/>
<path d="M115.746 446.121H176.249M115.746 446.121L89 476.394M115.746 446.121L128.729 459.952M176.249 446.121L202.995 476.394M176.249 446.121L161.967 459.952M202.995 476.394L176.249 484.484M202.995 476.394L146.387 568.258M176.249 484.484H115.746M176.249 484.484L146.387 568.258M176.249 484.484L161.967 459.952M115.746 484.484L89 476.394M115.746 484.484L146.387 568.258M115.746 484.484L128.729 459.952M89 476.394L146.387 568.258M128.729 459.952H161.967" stroke="#EC7EA5" stroke-width="5"/>
<path d="M0 1H286.5" stroke="white"/>
</svg>
