<svg width="138" height="850" viewBox="0 0 138 850" fill="none" xmlns="http://www.w3.org/2000/svg">
<path d="M35.5 388.763L42.9424 408.876L43.2616 409.738L44.1241 410.058L64.2369 417.5L44.1241 424.942L43.2616 425.262L42.9424 426.124L35.5 446.237L28.0576 426.124L27.7384 425.262L26.8759 424.942L6.76308 417.5L26.8759 410.058L27.7384 409.738L28.0576 408.876L35.5 388.763Z" stroke="white" stroke-width="4"/>
<path d="M103.5 272.763L110.942 292.876L111.262 293.738L112.124 294.058L132.237 301.5L112.124 308.942L111.262 309.262L110.942 310.124L103.5 330.237L96.0576 310.124L95.7384 309.262L94.8759 308.942L74.7631 301.5L94.8759 294.058L95.7384 293.738L96.0576 292.876L103.5 272.763Z" stroke="white" stroke-width="4"/>
<path d="M35.5 156.763L42.9424 176.876L43.2616 177.738L44.1241 178.058L64.2369 185.5L44.1241 192.942L43.2616 193.262L42.9424 194.124L35.5 214.237L28.0576 194.124L27.7384 193.262L26.8759 192.942L6.76308 185.5L26.8759 178.058L27.7384 177.738L28.0576 176.876L35.5 156.763Z" stroke="white" stroke-width="4"/>
<path d="M90.5 87.7631L97.9424 107.876L98.2616 108.738L99.1241 109.058L119.237 116.5L99.1241 123.942L98.2616 124.262L97.9424 125.124L90.5 145.237L83.0576 125.124L82.7384 124.262L81.8759 123.942L61.7631 116.5L81.8759 109.058L82.7384 108.738L83.0576 107.876L90.5 87.7631Z" stroke="white" stroke-width="4"/>
<path d="M34.5 786.763L41.9424 806.876L42.2616 807.738L43.1241 808.058L63.2369 815.5L43.1241 822.942L42.2616 823.262L41.9424 824.124L34.5 844.237L27.0576 824.124L26.7384 823.262L25.8759 822.942L5.76308 815.5L25.8759 808.058L26.7384 807.738L27.0576 806.876L34.5 786.763Z" stroke="white" stroke-width="4"/>
<path d="M103.5 717.763L110.942 737.876L111.262 738.738L112.124 739.058L132.237 746.5L112.124 753.942L111.262 754.262L110.942 755.124L103.5 775.237L96.0576 755.124L95.7384 754.262L94.8759 753.942L74.7631 746.5L94.8759 739.058L95.7384 738.738L96.0576 737.876L103.5 717.763Z" stroke="white" stroke-width="4"/>
<path d="M69.5 539.763L76.9424 559.876L77.2616 560.738L78.1241 561.058L98.2369 568.5L78.1241 575.942L77.2616 576.262L76.9424 577.124L69.5 597.237L62.0576 577.124L61.7384 576.262L60.8759 575.942L40.7631 568.5L60.8759 561.058L61.7384 560.738L62.0576 559.876L69.5 539.763Z" stroke="white" stroke-width="4"/>
<path d="M34.5 5.76308L41.9424 25.8759L42.2616 26.7384L43.1241 27.0576L63.2369 34.5L43.1241 41.9424L42.2616 42.2616L41.9424 43.1241L34.5 63.2369L27.0576 43.1241L26.7384 42.2616L25.8759 41.9424L5.76308 34.5L25.8759 27.0576L26.7384 26.7384L27.0576 25.8759L34.5 5.76308Z" stroke="white" stroke-width="4"/>
<path d="M34.5 608.763L41.9424 628.876L42.2616 629.738L43.1241 630.058L63.2369 637.5L43.1241 644.942L42.2616 645.262L41.9424 646.124L34.5 666.237L27.0576 646.124L26.7384 645.262L25.8759 644.942L5.76308 637.5L25.8759 630.058L26.7384 629.738L27.0576 628.876L34.5 608.763Z" stroke="white" stroke-width="4"/>
</svg>
