<svg width="378" height="400" viewBox="0 0 378 400" fill="none" xmlns="http://www.w3.org/2000/svg">
<path d="M7.36118 123.562C27.6814 24.4415 153.786 -1.23407 189.645 3.5428C225.504 8.31966 240.087 54.7747 243.434 78.1813C247.618 107.44 272.121 218.502 280.489 317.622C288.856 416.742 189.645 404.202 114.939 379.721C40.2321 355.24 -12.959 222.681 7.36118 123.562Z" stroke="#FFE7D2" stroke-width="5"/>
<path d="M138.602 105.079L85.8682 204.897L172.88 189.077L138.602 279.478" stroke="#FFE7D2" stroke-width="5"/>
<path d="M316.667 51.3211C316.75 51.9602 316.91 52.5401 317.145 53.0608C317.39 53.5803 317.693 54.0134 318.054 54.3602C318.424 54.7057 318.841 54.9565 319.305 55.1126C319.769 55.2783 320.268 55.3263 320.801 55.2566C321.43 55.1743 321.943 54.9546 322.34 54.5974C322.737 54.2499 323.069 53.8126 323.335 53.2853C323.602 52.7678 323.821 52.1827 323.992 51.5301C324.172 50.8761 324.351 50.2125 324.529 49.5393C324.717 48.8647 324.925 48.1973 325.154 47.5371C325.383 46.8768 325.688 46.2755 326.07 45.7331C326.453 45.2003 326.926 44.7446 327.487 44.3659C328.059 43.9956 328.776 43.7541 329.638 43.6414C330.548 43.5223 331.389 43.5896 332.161 43.8432C332.932 44.0968 333.611 44.5006 334.195 45.0544C334.791 45.6167 335.275 46.3068 335.648 47.1247C336.032 47.9511 336.291 48.8774 336.425 49.9038C336.507 50.5332 336.548 51.3307 336.546 52.2961C336.554 53.2602 336.468 54.2958 336.287 55.4027L333.697 55.254L333.514 54.9825C333.687 54.4182 333.822 53.8736 333.921 53.3485C334.02 52.8235 334.088 52.3319 334.127 51.8738C334.165 51.4157 334.179 50.9953 334.169 50.6126C334.158 50.2299 334.134 49.8981 334.098 49.6173C334.023 49.046 333.883 48.5375 333.677 48.0917C333.481 47.6543 333.227 47.2887 332.913 46.995C332.609 46.7096 332.252 46.5003 331.841 46.367C331.44 46.2421 330.998 46.2113 330.514 46.2746C329.865 46.3595 329.332 46.5769 328.915 46.9269C328.499 47.2866 328.149 47.7313 327.863 48.2611C327.579 48.8005 327.342 49.3978 327.152 50.053C326.962 50.7082 326.773 51.3731 326.586 52.0476C326.399 52.7319 326.192 53.4041 325.963 54.0644C325.734 54.7246 325.443 55.324 325.09 55.8627C324.748 56.4097 324.315 56.8652 323.792 57.2291C323.269 57.6028 322.616 57.8409 321.832 57.9435C320.97 58.0562 320.122 57.975 319.288 57.7C318.466 57.4333 317.71 57.0004 317.021 56.4011C316.343 55.8102 315.762 55.0637 315.28 54.1616C314.809 53.268 314.498 52.2498 314.349 51.1072C314.285 50.623 314.253 50.1102 314.251 49.5688C314.25 49.0371 314.273 48.4973 314.32 47.9495C314.376 47.4005 314.457 46.8531 314.563 46.3074C314.67 45.7714 314.8 45.2571 314.952 44.7644L317.559 44.9258L317.742 45.1973C317.3 46.2597 316.98 47.316 316.782 48.3661C316.586 49.4259 316.547 50.4109 316.667 51.3211ZM317.297 71.3893L316.925 68.5424L335.952 66.0537L335.029 58.9947L337.337 59.136L339.537 75.9556L337.229 75.8143L336.324 68.9006L317.297 71.3893ZM327.628 84.4124L319.146 85.5218L318.773 82.675L340.052 79.8918L340.838 85.9051C340.975 86.9508 340.955 87.9285 340.779 88.8379C340.602 89.7474 340.298 90.5456 339.866 91.2324C339.443 91.918 338.911 92.4752 338.267 92.904C337.625 93.3426 336.907 93.6138 336.113 93.7176C335.416 93.8088 334.746 93.7684 334.103 93.5964C333.47 93.4232 332.87 93.1668 332.304 92.8272C331.747 92.4864 331.231 92.0811 330.756 91.6114C330.282 91.1514 329.861 90.6796 329.492 90.196L320.739 97.7081L320.293 94.2948L328.139 88.3195L327.628 84.4124ZM329.879 84.1179L330.497 88.8384C330.773 89.216 331.091 89.5437 331.453 89.8214C331.815 90.1088 332.2 90.3392 332.607 90.5125C333.023 90.6846 333.452 90.8008 333.893 90.8613C334.336 90.9315 334.78 90.9374 335.225 90.8792C335.777 90.807 336.278 90.643 336.727 90.3873C337.186 90.1303 337.563 89.7805 337.86 89.3379C338.158 88.905 338.365 88.3805 338.482 87.7645C338.608 87.1472 338.619 86.4416 338.515 85.6476L338.173 83.0331L329.879 84.1179ZM321.292 101.935L342.571 99.1516L344.203 111.628L341.895 111.487L340.692 102.293L333.894 103.182L334.966 111.374L332.658 111.233L331.643 103.476L323.916 104.487L325.206 114.349L322.898 114.208L321.292 101.935ZM323.599 119.568L344.877 116.785L345.419 120.924L332.207 132.861L329.782 134.655L329.82 134.945L332.757 134.355L346.933 132.5L347.273 135.1L325.994 137.883L325.679 135.472L341.26 121.32L343.617 119.683L343.579 119.392L340.642 119.983L323.939 122.168L323.599 119.568ZM330.091 160.734C329.392 159.456 328.863 158.235 328.504 157.071C328.154 155.905 327.917 154.843 327.792 153.884C327.58 152.267 327.63 150.764 327.94 149.374C328.261 147.982 328.809 146.753 329.585 145.687C330.373 144.628 331.372 143.759 332.583 143.079C333.804 142.397 335.203 141.953 336.782 141.747C337.973 141.591 339.1 141.591 340.165 141.747C341.239 141.902 342.231 142.186 343.142 142.599C344.063 143.01 344.9 143.536 345.653 144.176C346.408 144.826 347.065 145.557 347.624 146.371C348.195 147.192 348.661 148.087 349.024 149.054C349.397 150.019 349.653 151.035 349.792 152.1C349.883 152.797 349.927 153.623 349.924 154.579C349.931 155.534 349.844 156.564 349.664 157.671L347.103 157.519L346.92 157.247C347.264 156.119 347.46 155.089 347.505 154.157C347.56 153.224 347.546 152.433 347.461 151.784C347.299 150.545 346.924 149.446 346.335 148.489C345.757 147.531 345.028 146.74 344.149 146.116C343.279 145.491 342.291 145.049 341.183 144.79C340.086 144.53 338.941 144.478 337.75 144.634C336.617 144.782 335.547 145.109 334.54 145.615C333.542 146.12 332.682 146.774 331.96 147.577C331.249 148.389 330.718 149.34 330.368 150.43C330.018 151.52 329.93 152.728 330.104 154.054C330.18 154.635 330.315 155.258 330.51 155.922C330.707 156.595 330.964 157.281 331.282 157.978L338.631 157.016L338.966 159.573L330.091 160.734ZM330.793 174.573L330.421 171.726L349.448 169.237L348.525 162.178L350.833 162.32L353.033 179.139L350.725 178.998L349.82 172.084L330.793 174.573ZM332.269 185.859L353.548 183.075L353.92 185.922L344.871 187.106L346.368 198.551L355.417 197.368L355.79 200.215L334.511 202.998L334.139 200.151L344.117 198.846L342.62 187.4L332.642 188.705L332.269 185.859ZM330.466 208.668C330.867 208.95 331.286 209.211 331.721 209.449C332.157 209.698 332.594 209.911 333.031 210.091C333.468 210.27 333.891 210.416 334.3 210.53C334.708 210.644 335.087 210.713 335.434 210.736C335.517 210.617 335.601 210.468 335.686 210.29C335.782 210.12 335.867 209.936 335.939 209.74C336.012 209.543 336.07 209.343 336.112 209.141C336.164 208.937 336.198 208.745 336.214 208.566C336.34 208.471 336.493 208.397 336.673 208.344C336.853 208.291 337.011 208.255 337.146 208.237C337.379 208.207 337.627 208.219 337.89 208.273C338.154 208.337 338.404 208.442 338.64 208.589C338.876 208.735 339.079 208.93 339.248 209.174C339.419 209.427 339.528 209.728 339.573 210.077C339.609 210.348 339.59 210.621 339.518 210.897C339.457 211.18 339.329 211.443 339.134 211.685C338.939 211.928 338.671 212.135 338.329 212.308C337.998 212.489 337.581 212.613 337.077 212.678C336.612 212.739 336.104 212.732 335.553 212.656C335.001 212.581 334.424 212.42 333.82 212.174C333.208 211.939 332.58 211.612 331.934 211.194C331.279 210.778 330.616 210.264 329.945 209.652L330.466 208.668ZM273.313 51.2448L294.592 48.4616L296.224 60.9384L293.915 60.7971L292.713 51.603L285.915 52.492L286.987 60.684L284.678 60.5427L283.664 52.7865L275.937 53.7972L277.227 63.6595L274.918 63.5182L273.313 51.2448ZM275.619 68.8778L296.898 66.0947L297.439 70.2342L284.227 82.1706L281.803 83.965L281.841 84.2555L284.777 83.6646L298.954 81.8104L299.294 84.4103L278.015 87.1935L277.7 84.7824L293.281 70.6304L295.637 68.9926L295.599 68.7021L292.663 69.293L275.959 71.4778L275.619 68.8778ZM278.826 93.3956L300.105 90.6124L300.477 93.4592L281.45 95.9479L282.601 104.75L280.293 104.609L278.826 93.3956ZM281.288 112.22L280.916 109.373L302.195 106.59L302.567 109.436L281.288 112.22ZM285.402 135.2C284.703 133.923 284.174 132.702 283.815 131.537C283.466 130.372 283.228 129.31 283.103 128.351C282.891 126.734 282.941 125.23 283.251 123.84C283.572 122.449 284.12 121.22 284.897 120.154C285.684 119.095 286.683 118.226 287.894 117.546C289.115 116.864 290.514 116.42 292.093 116.213C293.284 116.058 294.412 116.058 295.476 116.214C296.55 116.369 297.542 116.653 298.453 117.066C299.374 117.477 300.211 118.003 300.964 118.643C301.719 119.293 302.376 120.024 302.935 120.837C303.506 121.659 303.972 122.553 304.335 123.52C304.708 124.486 304.964 125.501 305.103 126.567C305.194 127.264 305.238 128.09 305.235 129.046C305.242 130 305.155 131.031 304.975 132.138L302.414 131.986L302.231 131.714C302.576 130.586 302.771 129.555 302.816 128.624C302.872 127.691 302.857 126.9 302.772 126.251C302.61 125.012 302.235 123.913 301.647 122.956C301.068 121.998 300.339 121.207 299.46 120.583C298.59 119.958 297.602 119.516 296.494 119.257C295.397 118.997 294.252 118.945 293.061 119.1C291.928 119.249 290.858 119.576 289.851 120.082C288.853 120.586 287.993 121.241 287.271 122.044C286.56 122.856 286.029 123.807 285.679 124.897C285.33 125.987 285.241 127.195 285.415 128.521C285.491 129.102 285.626 129.725 285.822 130.389C286.018 131.062 286.275 131.748 286.593 132.445L293.942 131.483L294.277 134.04L285.402 135.2ZM285.122 141.53L306.401 138.747L306.773 141.594L297.724 142.778L299.221 154.223L308.27 153.04L308.642 155.886L287.364 158.67L286.991 155.823L296.97 154.518L295.473 143.072L285.494 144.377L285.122 141.53ZM289.174 172.512L288.802 169.665L307.829 167.176L306.906 160.117L309.214 160.258L311.414 177.078L309.106 176.937L308.202 170.023L289.174 172.512ZM290.65 183.797L311.929 181.014L313.561 193.491L311.253 193.35L310.05 184.156L303.253 185.045L304.324 193.237L302.016 193.095L301.001 185.339L293.274 186.35L294.564 196.212L292.256 196.071L290.65 183.797ZM292.957 201.43L314.235 198.647L314.777 202.787L301.565 214.723L299.14 216.518L299.178 216.808L302.115 216.217L316.291 214.363L316.631 216.963L295.352 219.746L295.037 217.335L310.618 203.183L312.975 201.545L312.937 201.255L310 201.846L293.297 204.03L292.957 201.43ZM296.078 225.295L317.568 224.124L318.126 228.394L303.955 235.595L301.287 236.772L301.325 237.062L304.204 237.498L319.752 240.827L320.313 245.112L299.245 249.507L298.878 246.704L315.434 243.386L318.469 242.871L318.432 242.595L315.417 242.133L298.252 238.528L297.916 235.957L313.54 228.004L316.36 226.749L316.324 226.473L313.291 226.781L296.411 227.836L296.078 225.295ZM299.975 255.085L321.253 252.302L322.885 264.778L320.577 264.637L319.374 255.443L312.577 256.332L313.648 264.524L311.34 264.383L310.325 256.626L302.598 257.637L303.888 267.499L301.58 267.358L299.975 255.085ZM302.281 272.718L323.56 269.935L324.101 274.074L310.889 286.011L308.465 287.805L308.503 288.095L311.439 287.505L325.615 285.65L325.955 288.25L304.676 291.033L304.361 288.622L319.942 274.47L322.299 272.833L322.261 272.542L319.324 273.133L302.621 275.318L302.281 272.718ZM306.47 304.745L306.098 301.898L325.125 299.409L324.202 292.35L326.51 292.491L328.71 309.311L326.402 309.17L325.497 302.256L306.47 304.745Z" fill="#FFE7D2"/>
</svg>
