<svg width="752" height="632" viewBox="0 0 752 632" fill="none" xmlns="http://www.w3.org/2000/svg">
<path d="M749.5 314.83C749.5 326.194 744.656 335.215 733.907 342.261C722.985 349.42 705.954 354.529 681.747 357.556C674.97 358.403 668.368 359.341 661.995 360.246C650.016 361.948 638.843 363.536 628.831 364.19C613.394 365.2 601.792 363.873 594.854 358.113C594.492 357.812 593.826 356.76 593.162 354.371C592.541 352.133 592.039 349.179 591.648 345.676C590.867 338.685 590.562 329.831 590.509 320.847C590.455 311.879 590.652 302.849 590.863 295.526C590.943 292.755 591.026 290.211 591.097 288.006C591.213 284.431 591.3 281.745 591.3 280.422C591.3 277.727 591.886 275.697 592.863 274.13C593.84 272.565 595.318 271.288 597.388 270.278C601.637 268.203 608.068 267.398 616.513 267.51C624.883 267.622 634.851 268.621 645.963 269.874C648.2 270.126 650.482 270.389 652.804 270.656C661.974 271.71 671.765 272.836 681.846 273.69C705.622 275.705 722.633 280.43 733.634 287.444C744.476 294.357 749.5 303.487 749.5 314.83Z" stroke="black" stroke-width="5"/>
<circle cx="316" cy="316" r="313.5" fill="#F08686" stroke="black" stroke-width="5"/>
<rect x="423.5" y="175.5" width="9" height="58" stroke="black" stroke-width="5"/>
<rect x="284.715" y="125.629" width="8.55769" height="58.2692" transform="rotate(28.9897 284.715 125.629)" stroke="black" stroke-width="5"/>
<rect x="334.5" y="156.5" width="9" height="58" stroke="black" stroke-width="5"/>
<rect x="311.635" y="184.87" width="8.55769" height="58.2692" transform="rotate(15.3353 311.635 184.87)" stroke="black" stroke-width="5"/>
<rect x="400.808" y="203.938" width="8.55769" height="58.2692" transform="rotate(15.3353 400.808 203.938)" stroke="black" stroke-width="5"/>
<rect x="271.938" y="458.484" width="8.55769" height="58.2692" transform="rotate(-53.6909 271.938 458.484)" stroke="black" stroke-width="5"/>
<rect x="281.428" y="493.855" width="8.55769" height="58.2692" transform="rotate(-38.3556 281.428 493.855)" stroke="black" stroke-width="5"/>
<rect x="478.049" y="301.177" width="8.55769" height="58.2692" transform="rotate(-48.3853 478.049 301.177)" stroke="black" stroke-width="5"/>
<rect x="484.226" y="337.274" width="8.55769" height="58.2692" transform="rotate(-33.05 484.226 337.274)" stroke="black" stroke-width="5"/>
<rect x="204.933" y="339.239" width="8.55769" height="58.2692" transform="rotate(13.6545 204.933 339.239)" stroke="black" stroke-width="5"/>
<rect x="175.948" y="361.62" width="8.55769" height="58.2692" transform="rotate(28.9897 175.948 361.62)" stroke="black" stroke-width="5"/>
<rect x="225.5" y="392.5" width="9" height="58" stroke="black" stroke-width="5"/>
<rect x="202.867" y="420.861" width="8.55769" height="58.2692" transform="rotate(15.3353 202.867 420.861)" stroke="black" stroke-width="5"/>
<rect x="298.274" y="339.841" width="8.55769" height="58.2692" transform="rotate(28.9897 298.274 339.841)" stroke="black" stroke-width="5"/>
<rect x="348.5" y="370.5" width="8" height="58" stroke="black" stroke-width="5"/>
<rect x="325.193" y="399.081" width="8.55769" height="58.2692" transform="rotate(15.3353 325.193 399.081)" stroke="black" stroke-width="5"/>
<path d="M585.5 321.5C585.5 470.06 464.845 590.5 316 590.5C167.155 590.5 46.5 470.06 46.5 321.5C46.5 172.94 167.155 52.5 316 52.5C464.845 52.5 585.5 172.94 585.5 321.5Z" stroke="black" stroke-width="5"/>
<rect x="228.5" y="178.5" width="9" height="58" stroke="black" stroke-width="5"/>
<rect x="205.578" y="206.649" width="8.55769" height="58.2692" transform="rotate(15.3353 205.578 206.649)" stroke="black" stroke-width="5"/>
<rect x="449.5" y="360.5" width="9" height="58" stroke="black" stroke-width="5"/>
<rect x="427.019" y="389.226" width="8.55769" height="58.2692" transform="rotate(15.3353 427.019 389.226)" stroke="black" stroke-width="5"/>
<rect x="211.207" y="294.286" width="8.55769" height="58.2692" transform="rotate(73.9062 211.207 294.286)" stroke="black" stroke-width="5"/>
<rect x="177.393" y="280.225" width="8.55769" height="58.2692" transform="rotate(89.2415 177.393 280.225)" stroke="black" stroke-width="5"/>
<rect x="233.233" y="278.032" width="8.55769" height="58.2692" transform="rotate(-29.154 233.233 278.032)" stroke="black" stroke-width="5"/>
<rect x="227.179" y="314.149" width="8.55769" height="58.2692" transform="rotate(-13.8187 227.179 314.149)" stroke="black" stroke-width="5"/>
</svg>
