<svg width="138" height="850" viewBox="0 0 138 850" fill="none" xmlns="http://www.w3.org/2000/svg">
<path d="M102.5 388.763L95.0576 408.876L94.7384 409.738L93.8759 410.058L73.7631 417.5L93.8759 424.942L94.7384 425.262L95.0576 426.124L102.5 446.237L109.942 426.124L110.262 425.262L111.124 424.942L131.237 417.5L111.124 410.058L110.262 409.738L109.942 408.876L102.5 388.763Z" stroke="white" stroke-width="4"/>
<path d="M34.5 272.763L27.0576 292.876L26.7384 293.738L25.8759 294.058L5.76308 301.5L25.8759 308.942L26.7384 309.262L27.0576 310.124L34.5 330.237L41.9424 310.124L42.2616 309.262L43.1241 308.942L63.2369 301.5L43.1241 294.058L42.2616 293.738L41.9424 292.876L34.5 272.763Z" stroke="white" stroke-width="4"/>
<path d="M102.5 156.763L95.0576 176.876L94.7384 177.738L93.8759 178.058L73.7631 185.5L93.8759 192.942L94.7384 193.262L95.0576 194.124L102.5 214.237L109.942 194.124L110.262 193.262L111.124 192.942L131.237 185.5L111.124 178.058L110.262 177.738L109.942 176.876L102.5 156.763Z" stroke="white" stroke-width="4"/>
<path d="M47.5 87.7631L40.0576 107.876L39.7384 108.738L38.8759 109.058L18.7631 116.5L38.8759 123.942L39.7384 124.262L40.0576 125.124L47.5 145.237L54.9424 125.124L55.2616 124.262L56.1241 123.942L76.2369 116.5L56.1241 109.058L55.2616 108.738L54.9424 107.876L47.5 87.7631Z" stroke="white" stroke-width="4"/>
<path d="M103.5 786.763L96.0576 806.876L95.7384 807.738L94.8759 808.058L74.7631 815.5L94.8759 822.942L95.7384 823.262L96.0576 824.124L103.5 844.237L110.942 824.124L111.262 823.262L112.124 822.942L132.237 815.5L112.124 808.058L111.262 807.738L110.942 806.876L103.5 786.763Z" stroke="white" stroke-width="4"/>
<path d="M34.5 717.763L27.0576 737.876L26.7384 738.738L25.8759 739.058L5.76308 746.5L25.8759 753.942L26.7384 754.262L27.0576 755.124L34.5 775.237L41.9424 755.124L42.2616 754.262L43.1241 753.942L63.2369 746.5L43.1241 739.058L42.2616 738.738L41.9424 737.876L34.5 717.763Z" stroke="white" stroke-width="4"/>
<path d="M68.5 539.763L61.0576 559.876L60.7384 560.738L59.8759 561.058L39.7631 568.5L59.8759 575.942L60.7384 576.262L61.0576 577.124L68.5 597.237L75.9424 577.124L76.2616 576.262L77.1241 575.942L97.2369 568.5L77.1241 561.058L76.2616 560.738L75.9424 559.876L68.5 539.763Z" stroke="white" stroke-width="4"/>
<path d="M103.5 5.76308L96.0576 25.8759L95.7384 26.7384L94.8759 27.0576L74.7631 34.5L94.8759 41.9424L95.7384 42.2616L96.0576 43.1241L103.5 63.2369L110.942 43.1241L111.262 42.2616L112.124 41.9424L132.237 34.5L112.124 27.0576L111.262 26.7384L110.942 25.8759L103.5 5.76308Z" stroke="white" stroke-width="4"/>
<path d="M103.5 608.763L96.0576 628.876L95.7384 629.738L94.8759 630.058L74.7631 637.5L94.8759 644.942L95.7384 645.262L96.0576 646.124L103.5 666.237L110.942 646.124L111.262 645.262L112.124 644.942L132.237 637.5L112.124 630.058L111.262 629.738L110.942 628.876L103.5 608.763Z" stroke="white" stroke-width="4"/>
</svg>
