<svg width="1344" height="170" viewBox="0 0 1344 170" fill="none" xmlns="http://www.w3.org/2000/svg">
<path d="M1241.92 100.214C1263.52 90.2428 1290.01 65.8777 1304.12 42.4432C1315.29 38.8604 1336.03 35.9825 1329.72 53.1332C1321.82 74.5715 1287.61 104.455 1247.42 117.353L1209.62 129.483C1213.19 123.051 1224.64 108.191 1241.92 100.214Z" stroke="white" stroke-width="5"/>
<path d="M1164.56 81.3319C1143.97 69.4205 1108.79 61.8143 1081.51 63.7795C1072.14 56.7194 1057.84 41.4196 1075.49 36.7006C1097.57 30.8019 1141.7 41.5449 1175.4 66.9611L1207.09 90.8646C1199.78 91.6575 1181.04 90.8611 1164.56 81.3319Z" stroke="white" stroke-width="5"/>
<path d="M733.92 94.2141C755.523 84.2428 782.006 59.8777 796.122 36.4432C807.286 32.8604 828.034 29.9825 821.717 47.1332C813.821 68.5715 779.61 98.455 739.421 111.353L701.623 123.483C705.188 117.051 716.638 102.191 733.92 94.2141Z" stroke="white" stroke-width="5"/>
<path d="M944.73 117.573C923.688 106.466 888.248 100.224 861.057 103.241C851.431 96.5479 836.544 81.8119 854.006 76.4146C875.833 69.668 920.351 78.6984 955.006 102.794L987.598 125.456C980.322 126.531 961.563 126.459 944.73 117.573Z" stroke="white" stroke-width="5"/>
<path d="M1025.35 68.5935C1042.69 84.8803 1075.21 100.292 1102.23 104.589C1109.74 113.595 1120.19 131.749 1101.92 132.325C1079.08 133.046 1038.55 112.539 1011.52 80.1202L986.101 49.6308C993.401 50.5228 1011.47 55.5642 1025.35 68.5935Z" stroke="white" stroke-width="5"/>
<path d="M204.003 71.8519C182.853 60.9525 147.353 55.0598 120.193 58.3449C110.501 51.7468 95.4698 37.1582 112.878 31.5891C134.638 24.6278 179.242 33.2193 214.133 56.9727L246.946 79.3123C239.682 80.4586 220.923 80.5713 204.003 71.8519Z" stroke="white" stroke-width="5"/>
<path d="M295.92 107.214C317.523 97.2428 344.006 72.8777 358.122 49.4432C369.286 45.8604 390.034 42.9825 383.717 60.1332C375.821 81.5715 341.61 111.455 301.421 124.353L263.623 136.483C267.188 130.051 278.638 115.191 295.92 107.214Z" stroke="white" stroke-width="5"/>
<path d="M434.68 92.9616C458.412 91.2647 491.795 77.8257 513.279 60.8887C524.988 61.4806 545.416 66.1178 533.447 79.9312C518.487 97.198 475.926 113.069 433.771 110.939L394.125 108.935C399.732 104.176 415.693 94.3191 434.68 92.9616Z" stroke="white" stroke-width="5"/>
<path d="M671.132 82.4281C647.453 84.7525 614.438 99.0702 593.409 116.57C581.688 116.288 561.145 112.193 572.744 98.0678C587.242 80.4111 629.369 63.4188 671.565 64.4333L711.25 65.3875C705.77 70.2929 690.076 80.5686 671.132 82.4281Z" stroke="white" stroke-width="5"/>
<path d="M44.4368 91.9038C67.7315 96.7486 103.514 92.9307 128.806 82.5004C139.909 86.2657 158.295 96.3019 143.011 106.324C123.906 118.853 78.6289 122.505 38.6561 108.95L1.06269 96.2021C7.7558 93.1544 25.801 88.028 44.4368 91.9038Z" stroke="white" stroke-width="5"/>
</svg>
