<svg width="435" height="653" viewBox="0 0 435 653" fill="none" xmlns="http://www.w3.org/2000/svg">
<path d="M193.965 255.232C184.68 234.682 183.353 154.468 183.353 109.389C183.353 64.3094 172.079 50.3881 162.794 31.8261C153.509 13.2641 120.349 20.5563 120.349 50.3881C120.349 80.2198 127.644 215.457 120.349 237.997C113.054 260.536 120.349 316.222 120.349 353.346C120.349 390.47 93.8202 373.897 84.5354 353.346C75.2505 332.795 58.6704 252.581 49.3856 224.738C40.1007 196.895 13.0506 189.602 3.7657 224.738C-5.51916 259.873 24.325 379.2 34.9363 450.133C45.5476 521.066 109.074 559.516 120.349 602.606C129.369 637.079 124.107 649.232 120.349 651H351.948C354.159 634.869 334.175 594.916 345.317 564.157C359.244 525.707 377.813 508.471 385.109 477.976C392.404 447.481 401.025 383.84 401.025 345.391C401.025 306.941 422.911 260.536 421.584 237.997C420.258 215.457 431.533 155.13 432.859 131.265C434.185 107.4 426.227 74.2533 405.668 74.2533C385.108 74.2533 383.782 122.647 380.466 155.13C377.15 187.614 367.865 237.997 365.875 252.581C363.886 267.165 351.948 271.806 345.316 260.536C338.684 249.266 345.316 194.243 345.316 169.715C345.316 145.187 353.274 95.4669 351.948 74.2533C350.622 53.0396 351.285 25.1966 332.052 19.2303C312.819 13.2639 300.218 41.7698 296.239 58.343C292.26 74.9162 286.954 124.636 286.954 143.861C286.954 163.086 278.332 245.288 277.006 260.536C275.68 275.789 272.364 275.789 270.897 260.536C269.411 245.088 264.264 184.299 264.264 155.13C264.264 125.962 258.296 80.8826 256.306 50.3881C254.316 19.8935 235.083 -6.6238 209.219 4.64597C183.354 15.9157 198.607 89.5007 198.607 109.389C198.607 129.276 195.291 247.94 193.965 255.232ZM193.965 255.232C203.25 275.783 192.638 262.525 193.965 255.232Z" stroke="black" stroke-width="3"/>
<path d="M270 513.5C255.2 537.5 263.833 595.5 270 621.5" stroke="black" stroke-width="3"/>
<path d="M120.795 380C156.037 410.352 215.804 453.104 227.811 534" stroke="black" stroke-width="3"/>
<path d="M230.464 544C234.458 559.808 215.152 602.587 205 622" stroke="black" stroke-width="3"/>
<path d="M207.5 289.5C210.667 296.833 240.4 337.8 264 351C293.5 367.5 338.5 377 376 379.5" stroke="black" stroke-width="3"/>
<path d="M174 335C206 354 238.5 385.5 259 399.5C279.5 413.5 323 423 337 444.5" stroke="black" stroke-width="3"/>
</svg>
