<svg width="549" height="570" viewBox="0 0 549 570" fill="none" xmlns="http://www.w3.org/2000/svg">
<path d="M424.247 310.65C438.353 408.793 330.566 474.259 295.913 481.736C261.261 489.213 232.419 451.204 221.576 430.728C208.023 405.132 148.622 310.829 108.061 222.192C67.4993 133.555 163.147 112.243 240.155 110.065C317.163 107.887 410.142 212.507 424.247 310.65Z" stroke="#FFE7D2" stroke-width="5"/>
<path d="M208.849 245.316L234.749 288.011M268.266 343.265L234.749 288.011M278.779 216.719L318.362 278.984M337.739 309.464L318.362 278.984M318.362 278.984L234.749 288.011" stroke="#FFE7D2" stroke-width="5"/>
<path d="M57.0349 222.923L75.7734 212.463L77.1727 214.97L60.4169 224.323L64.7434 232.074L62.5467 232.797L57.0349 222.923ZM71.0989 244.061C71.6462 245.042 72.3421 245.828 73.1865 246.419C74.0357 247.019 74.9656 247.422 75.9762 247.63C76.9953 247.833 78.0558 247.839 79.1576 247.649C80.2594 247.459 81.3432 247.067 82.4091 246.472C83.5262 245.848 84.4538 245.096 85.1918 244.214C85.9432 243.336 86.4863 242.395 86.821 241.392C87.1604 240.397 87.2846 239.377 87.1933 238.332C87.1153 237.291 86.8098 236.293 86.2767 235.338C85.7198 234.34 85.0083 233.546 84.142 232.956C83.2891 232.37 82.3554 231.979 81.3411 231.785C80.3267 231.591 79.2644 231.591 78.154 231.786C77.057 231.984 75.984 232.376 74.9352 232.962C73.8181 233.585 72.8882 234.334 72.1454 235.207C71.411 236.075 70.8741 237.007 70.5347 238.001C70.2037 238.991 70.0772 240.007 70.1552 241.048C70.2465 242.093 70.561 243.098 71.0989 244.061ZM68.8735 244.733C68.2072 243.539 67.7826 242.278 67.5997 240.948C67.4168 239.619 67.4886 238.315 67.8152 237.037C68.1466 235.767 68.737 234.57 69.5865 233.448C70.4493 232.329 71.5842 231.376 72.9912 230.591C73.9633 230.048 74.9509 229.654 75.9539 229.407C76.9702 229.164 77.9707 229.053 78.9553 229.074C79.9484 229.09 80.9143 229.227 81.8529 229.486C82.7963 229.754 83.6792 230.133 84.5016 230.625C85.3325 231.112 86.0892 231.696 86.7716 232.377C87.4588 233.067 88.0451 233.847 88.5306 234.717C88.9637 235.493 89.2935 236.304 89.52 237.151C89.7513 238.006 89.8735 238.866 89.8866 239.731C89.9045 240.605 89.8038 241.466 89.5844 242.316C89.3699 243.173 89.04 243.995 88.5949 244.78C88.1497 245.566 87.5754 246.3 86.872 246.983C86.1819 247.671 85.3594 248.281 84.4043 248.814C83.4407 249.352 82.4532 249.746 81.4416 249.998C80.4348 250.258 79.4348 250.38 78.4417 250.364C77.4618 250.352 76.5026 250.216 75.564 249.957C74.6301 249.707 73.7478 249.338 72.9168 248.851C72.0906 248.373 71.3316 247.784 70.6397 247.086C69.9525 246.396 69.3638 245.611 68.8735 244.733ZM81.6726 263.004C81.9867 263.567 82.3495 264.047 82.761 264.444C83.1811 264.835 83.6227 265.126 84.086 265.315C84.5578 265.499 85.0379 265.577 85.5263 265.551C86.0195 265.533 86.5006 265.393 86.9696 265.131C87.5238 264.822 87.9191 264.428 88.1552 263.949C88.3962 263.479 88.5426 262.95 88.5945 262.362C88.6512 261.782 88.6381 261.158 88.5552 260.488C88.4808 259.814 88.4017 259.131 88.3178 258.44C88.2424 257.744 88.1888 257.047 88.1571 256.349C88.1253 255.65 88.1866 254.979 88.3408 254.333C88.4999 253.697 88.7699 253.099 89.1511 252.539C89.5455 251.983 90.1222 251.494 90.8811 251.07C91.6826 250.623 92.4889 250.374 93.2997 250.324C94.1106 250.274 94.8901 250.398 95.6381 250.696C96.3994 250.998 97.1047 251.46 97.7537 252.082C98.4161 252.708 98.9996 253.473 99.5041 254.377C99.8135 254.931 100.146 255.657 100.502 256.554C100.866 257.447 101.169 258.441 101.411 259.536L98.9498 260.356L98.6791 260.172C98.6305 259.584 98.5549 259.028 98.4524 258.503C98.3499 257.979 98.2317 257.497 98.0981 257.057C97.9644 256.617 97.8218 256.221 97.6703 255.87C97.5188 255.518 97.374 255.219 97.2359 254.972C96.9551 254.468 96.6365 254.048 96.2802 253.71C95.9371 253.376 95.5652 253.13 95.1646 252.974C94.7773 252.821 94.3679 252.759 93.9364 252.787C93.5182 252.819 93.0959 252.954 92.6695 253.192C92.0982 253.511 91.6835 253.91 91.4256 254.39C91.1723 254.878 91.0112 255.421 90.9422 256.019C90.878 256.625 90.8788 257.267 90.9447 257.946C91.0105 258.625 91.0811 259.313 91.1565 260.009C91.2367 260.714 91.2926 261.415 91.3244 262.113C91.3561 262.811 91.3077 263.476 91.179 264.107C91.0636 264.741 90.83 265.325 90.4782 265.857C90.1312 266.397 89.6123 266.86 88.9216 267.246C88.1627 267.669 87.3451 267.907 86.4687 267.96C85.6057 268.017 84.7432 267.895 83.8814 267.593C83.0328 267.295 82.2175 266.816 81.4356 266.156C80.6669 265.501 80.0018 264.67 79.4401 263.663C79.2021 263.237 78.9821 262.773 78.78 262.27C78.5827 261.777 78.4043 261.267 78.2448 260.741C78.0939 260.21 77.9666 259.671 77.8631 259.125C77.7643 258.587 77.6945 258.062 77.6536 257.548L80.1348 256.733L80.4055 256.918C80.3878 258.068 80.4816 259.168 80.6867 260.216C80.8965 261.274 81.2251 262.203 81.6726 263.004ZM90.3686 278.584C90.6827 279.146 91.0455 279.626 91.457 280.023C91.8771 280.415 92.3187 280.705 92.782 280.894C93.2537 281.078 93.7339 281.156 94.2223 281.13C94.7155 281.112 95.1966 280.972 95.6656 280.71C96.2198 280.401 96.6151 280.007 96.8512 279.528C97.0922 279.058 97.2386 278.529 97.2905 277.941C97.3472 277.361 97.3341 276.737 97.2512 276.067C97.1768 275.393 97.0977 274.71 97.0138 274.019C96.9384 273.323 96.8848 272.626 96.8531 271.928C96.8213 271.23 96.8826 270.558 97.0368 269.913C97.1959 269.276 97.4659 268.678 97.8471 268.118C98.2415 267.563 98.8182 267.073 99.5771 266.649C100.379 266.202 101.185 265.953 101.996 265.903C102.807 265.853 103.586 265.977 104.334 266.276C105.095 266.578 105.801 267.04 106.45 267.661C107.112 268.287 107.696 269.052 108.2 269.956C108.509 270.51 108.842 271.236 109.198 272.133C109.562 273.026 109.865 274.02 110.107 275.115L107.646 275.935L107.375 275.751C107.327 275.163 107.251 274.607 107.148 274.082C107.046 273.558 106.928 273.076 106.794 272.636C106.66 272.196 106.518 271.801 106.366 271.449C106.215 271.097 106.07 270.798 105.932 270.551C105.651 270.048 105.333 269.627 104.976 269.289C104.633 268.955 104.261 268.71 103.861 268.553C103.473 268.4 103.064 268.338 102.632 268.366C102.214 268.398 101.792 268.533 101.366 268.771C100.794 269.09 100.38 269.49 100.122 269.969C99.8683 270.457 99.7072 271 99.6382 271.598C99.574 272.204 99.5748 272.847 99.6407 273.526C99.7065 274.205 99.7771 274.892 99.8525 275.588C99.9327 276.293 99.9886 276.994 100.02 277.692C100.052 278.39 100.004 279.055 99.875 279.686C99.7596 280.321 99.526 280.904 99.1742 281.436C98.8272 281.976 98.3083 282.439 97.6176 282.825C96.8587 283.248 96.0411 283.487 95.1647 283.54C94.3017 283.596 93.4392 283.474 92.5774 283.172C91.7288 282.874 90.9135 282.395 90.1316 281.736C89.3629 281.08 88.6978 280.249 88.1361 279.243C87.8981 278.816 87.6781 278.352 87.476 277.85C87.2787 277.356 87.1003 276.846 86.9408 276.32C86.7899 275.789 86.6626 275.25 86.5591 274.704C86.4603 274.167 86.3905 273.641 86.3496 273.127L88.8308 272.312L89.1015 272.497C89.0838 273.647 89.1776 274.747 89.3827 275.796C89.5925 276.853 89.9211 277.782 90.3686 278.584ZM90.0165 291.748C90.4938 291.862 90.9787 291.949 91.4711 292.01C91.9683 292.079 92.453 292.116 92.9254 292.121C93.3978 292.125 93.845 292.105 94.267 292.06C94.689 292.014 95.0659 291.938 95.3976 291.831C95.4305 291.69 95.4534 291.52 95.4663 291.323C95.4925 291.129 95.503 290.928 95.4978 290.718C95.4927 290.509 95.4723 290.302 95.4368 290.098C95.4099 289.889 95.3706 289.699 95.319 289.526C95.4003 289.391 95.5148 289.266 95.6626 289.15C95.8103 289.034 95.9439 288.943 96.0633 288.876C96.2679 288.762 96.5025 288.681 96.7671 288.634C97.0364 288.596 97.3076 288.601 97.5809 288.65C97.8542 288.698 98.1148 288.805 98.3627 288.968C98.6153 289.14 98.8273 289.38 98.9987 289.687C99.1319 289.926 99.2159 290.186 99.2506 290.469C99.2986 290.755 99.2769 291.047 99.1855 291.344C99.0941 291.641 98.9216 291.933 98.668 292.22C98.4276 292.511 98.0857 292.78 97.6423 293.027C97.233 293.256 96.7582 293.437 96.2178 293.571C95.6774 293.705 95.0814 293.769 94.4297 293.764C93.7743 293.772 93.0694 293.701 92.3151 293.552C91.5522 293.407 90.7459 293.175 89.8963 292.855L90.0165 291.748ZM121.181 293.813L124.715 300.144C125.639 301.798 126.217 303.376 126.452 304.878C126.7 306.384 126.664 307.774 126.346 309.047C126.028 310.321 125.453 311.464 124.62 312.477C123.792 313.498 122.773 314.347 121.562 315.023C120.778 315.461 119.935 315.814 119.033 316.082C118.14 316.346 117.218 316.497 116.267 316.536C115.32 316.583 114.366 316.506 113.404 316.305C112.441 316.104 111.505 315.749 110.594 315.24C109.688 314.739 108.819 314.072 107.985 313.24C107.165 312.412 106.419 311.396 105.748 310.194L102.443 304.272L121.181 293.813ZM105.825 305.672L107.988 309.548C108.678 310.784 109.476 311.754 110.382 312.456C111.297 313.153 112.258 313.612 113.265 313.833C114.285 314.057 115.33 314.067 116.401 313.861C117.48 313.65 118.535 313.256 119.567 312.68C120.693 312.052 121.605 311.313 122.306 310.464C123.019 309.618 123.502 308.689 123.753 307.677C124.017 306.668 124.045 305.585 123.834 304.427C123.638 303.273 123.194 302.078 122.504 300.841L120.598 297.426L105.825 305.672ZM114.18 325.3L132.918 314.841L139.051 325.828L136.855 326.551L132.335 318.454L126.349 321.795L130.376 329.009L128.179 329.732L124.367 322.902L117.562 326.7L122.41 335.385L120.213 336.108L114.18 325.3ZM127.423 344.968C127.737 345.53 128.1 346.01 128.511 346.407C128.931 346.799 129.373 347.089 129.836 347.278C130.308 347.462 130.788 347.54 131.277 347.514C131.77 347.496 132.251 347.356 132.72 347.094C133.274 346.785 133.669 346.391 133.906 345.912C134.147 345.442 134.293 344.913 134.345 344.325C134.402 343.745 134.388 343.121 134.306 342.451C134.231 341.777 134.152 341.094 134.068 340.403C133.993 339.707 133.939 339.01 133.907 338.312C133.876 337.614 133.937 336.942 134.091 336.297C134.25 335.66 134.52 335.062 134.901 334.502C135.296 333.947 135.873 333.457 136.631 333.033C137.433 332.586 138.239 332.337 139.05 332.287C139.861 332.237 140.64 332.361 141.388 332.66C142.15 332.962 142.855 333.424 143.504 334.045C144.166 334.671 144.75 335.436 145.254 336.34C145.564 336.894 145.896 337.62 146.252 338.517C146.616 339.41 146.919 340.404 147.161 341.499L144.7 342.319L144.429 342.135C144.381 341.547 144.305 340.991 144.203 340.466C144.1 339.942 143.982 339.46 143.848 339.02C143.715 338.58 143.572 338.185 143.421 337.833C143.269 337.481 143.124 337.182 142.986 336.935C142.705 336.432 142.387 336.011 142.031 335.673C141.687 335.339 141.316 335.094 140.915 334.937C140.528 334.784 140.118 334.722 139.687 334.75C139.269 334.782 138.846 334.917 138.42 335.155C137.849 335.474 137.434 335.874 137.176 336.353C136.923 336.841 136.762 337.384 136.693 337.982C136.628 338.588 136.629 339.231 136.695 339.91C136.761 340.589 136.832 341.276 136.907 341.972C136.987 342.677 137.043 343.378 137.075 344.076C137.106 344.774 137.058 345.439 136.929 346.07C136.814 346.705 136.58 347.288 136.229 347.82C135.882 348.36 135.363 348.823 134.672 349.209C133.913 349.632 133.095 349.871 132.219 349.924C131.356 349.98 130.494 349.858 129.632 349.556C128.783 349.258 127.968 348.779 127.186 348.12C126.417 347.464 125.752 346.633 125.19 345.627C124.952 345.2 124.732 344.736 124.53 344.234C124.333 343.74 124.155 343.23 123.995 342.704C123.844 342.173 123.717 341.634 123.613 341.088C123.515 340.551 123.445 340.025 123.404 339.511L125.885 338.696L126.156 338.881C126.138 340.031 126.232 341.131 126.437 342.18C126.647 343.237 126.976 344.166 127.423 344.968ZM135.435 363.378L134.035 360.871L150.791 351.518L147.321 345.302L149.518 344.579L157.786 359.391L155.589 360.114L152.19 354.025L135.435 363.378ZM149.851 371.654L142.381 375.823L140.982 373.316L159.72 362.857L162.676 368.152C163.19 369.073 163.534 369.989 163.706 370.899C163.879 371.809 163.891 372.663 163.744 373.461C163.605 374.255 163.316 374.97 162.878 375.606C162.443 376.251 161.877 376.768 161.178 377.159C160.564 377.501 159.926 377.712 159.265 377.79C158.613 377.863 157.961 377.847 157.309 377.741C156.665 377.631 156.036 377.445 155.421 377.185C154.811 376.932 154.245 376.65 153.723 376.337L148.371 386.555L146.694 383.549L151.772 375.095L149.851 371.654ZM151.834 370.547L154.154 374.704C154.55 374.953 154.967 375.139 155.406 375.264C155.849 375.397 156.292 375.468 156.734 375.479C157.184 375.485 157.626 375.434 158.058 375.327C158.495 375.228 158.91 375.069 159.302 374.85C159.788 374.579 160.192 374.242 160.515 373.838C160.846 373.429 161.068 372.965 161.18 372.444C161.296 371.931 161.294 371.367 161.175 370.752C161.063 370.132 160.813 369.472 160.422 368.773L159.137 366.471L151.834 370.547ZM170.515 382.197L158.876 388.694C157.946 389.212 157.226 389.816 156.715 390.503C156.213 391.186 155.876 391.895 155.704 392.628C155.545 393.366 155.528 394.096 155.653 394.821C155.786 395.541 156.022 396.203 156.36 396.809C156.702 397.422 157.135 397.947 157.657 398.382C158.189 398.813 158.782 399.114 159.436 399.285C160.104 399.46 160.827 399.493 161.605 399.383C162.391 399.269 163.215 398.971 164.076 398.49L175.92 391.879L177.205 394.182L165.387 400.778C164.866 401.069 164.289 401.307 163.655 401.493C163.029 401.675 162.378 401.781 161.702 401.812C161.031 401.851 160.344 401.804 159.643 401.669C158.942 401.535 158.26 401.295 157.597 400.949C156.934 400.603 156.301 400.14 155.698 399.56C155.103 398.975 154.565 398.252 154.084 397.391C153.499 396.342 153.125 395.292 152.964 394.242C152.811 393.186 152.87 392.169 153.14 391.191C153.423 390.216 153.924 389.299 154.641 388.44C155.372 387.585 156.321 386.832 157.489 386.179L169.116 379.69L170.515 382.197ZM171.222 423.255C170.538 423.011 169.902 422.684 169.315 422.273C168.737 421.858 168.211 421.407 167.739 420.922C167.267 420.436 166.857 419.943 166.511 419.443C166.161 418.956 165.874 418.513 165.65 418.112C164.96 416.875 164.535 415.603 164.375 414.294C164.223 412.981 164.327 411.704 164.686 410.463C165.05 409.231 165.668 408.075 166.542 406.995C167.428 405.919 168.566 404.993 169.956 404.217C170.997 403.636 172.04 403.221 173.087 402.973C174.133 402.724 175.156 402.623 176.155 402.669C177.154 402.715 178.12 402.892 179.052 403.2C179.984 403.507 180.858 403.931 181.673 404.471C182.498 405.006 183.25 405.643 183.931 406.381C184.62 407.115 185.215 407.929 185.714 408.825C186.043 409.413 186.382 410.152 186.733 411.041C187.093 411.925 187.396 412.919 187.643 414.023L185.174 414.83L184.904 414.646C184.806 413.47 184.609 412.434 184.31 411.538C184.024 410.646 183.725 409.919 183.411 409.356C182.839 408.333 182.113 407.502 181.232 406.865C180.359 406.222 179.403 405.783 178.365 405.546C177.335 405.304 176.267 405.263 175.159 405.423C174.051 405.582 172.982 405.95 171.95 406.526C170.961 407.078 170.087 407.767 169.329 408.593C168.584 409.423 168.023 410.34 167.644 411.345C167.275 412.346 167.12 413.411 167.18 414.54C167.248 415.665 167.604 416.803 168.247 417.954C168.432 418.287 168.658 418.642 168.925 419.019C169.191 419.396 169.506 419.779 169.869 420.169C170.24 420.554 170.658 420.942 171.122 421.332C171.594 421.717 172.126 422.08 172.719 422.42L171.222 423.255ZM175.659 435.441L174.26 432.934L191.015 423.581L187.546 417.365L189.742 416.642L198.01 431.454L195.813 432.177L192.415 426.088L175.659 435.441ZM182.606 447.887L181.206 445.38L199.945 434.92L201.344 437.427L182.606 447.887ZM192.229 461.069C192.776 462.05 193.472 462.836 194.316 463.427C195.166 464.027 196.096 464.43 197.106 464.638C198.125 464.841 199.186 464.847 200.288 464.657C201.389 464.467 202.473 464.075 203.539 463.48C204.656 462.856 205.584 462.103 206.322 461.222C207.073 460.344 207.616 459.403 207.951 458.4C208.29 457.405 208.414 456.385 208.323 455.34C208.245 454.299 207.94 453.301 207.407 452.346C206.85 451.348 206.138 450.554 205.272 449.964C204.419 449.378 203.485 448.987 202.471 448.793C201.457 448.599 200.394 448.599 199.284 448.794C198.187 448.992 197.114 449.384 196.065 449.97C194.948 450.593 194.018 451.341 193.275 452.215C192.541 453.083 192.004 454.015 191.665 455.009C191.334 455.999 191.207 457.015 191.285 458.056C191.376 459.101 191.691 460.106 192.229 461.069ZM190.003 461.741C189.337 460.547 188.912 459.286 188.73 457.956C188.547 456.627 188.619 455.323 188.945 454.044C189.276 452.775 189.867 451.578 190.716 450.455C191.579 449.336 192.714 448.384 194.121 447.599C195.093 447.056 196.081 446.662 197.084 446.415C198.1 446.172 199.101 446.061 200.085 446.082C201.078 446.098 202.044 446.235 202.983 446.494C203.926 446.762 204.809 447.141 205.632 447.633C206.462 448.119 207.219 448.704 207.902 449.385C208.589 450.075 209.175 450.855 209.661 451.725C210.094 452.501 210.423 453.312 210.65 454.159C210.881 455.014 211.003 455.874 211.017 456.739C211.034 457.613 210.934 458.474 210.714 459.323C210.5 460.181 210.17 461.003 209.725 461.788C209.28 462.574 208.705 463.308 208.002 463.991C207.312 464.678 206.489 465.289 205.534 465.822C204.571 466.36 203.583 466.754 202.572 467.006C201.565 467.266 200.565 467.388 199.572 467.372C198.592 467.359 197.633 467.224 196.694 466.965C195.76 466.714 194.878 466.346 194.047 465.859C193.221 465.381 192.462 464.792 191.77 464.094C191.082 463.403 190.494 462.619 190.003 461.741ZM198.227 475.873L216.965 465.413L219 469.059L211.143 485.037L209.555 487.601L209.697 487.857L212.207 486.221L224.691 479.253L225.968 481.542L207.23 492.002L206.045 489.879L215.284 470.965L216.867 468.572L216.724 468.316L214.214 469.952L199.505 478.162L198.227 475.873Z" fill="#FFE7D2"/>
</svg>
