<svg width="246" height="255" viewBox="0 0 246 255" fill="none" xmlns="http://www.w3.org/2000/svg">
<g id="Group 54">
<path id="Vector 46" d="M165.038 195.103C160.165 207.32 141.905 231.738 107.846 231.676C73.7877 231.614 25.5741 209.435 5.72463 198.354C28.1114 184.364 80.4402 157 110.661 159.46C140.882 161.92 159.504 184.247 165.038 195.103ZM165.038 195.103L129.472 195.788M58.3417 197.158L93.907 196.473M129.472 195.788L110.323 174.263M129.472 195.788L93.907 196.473M129.472 195.788L110.883 218.523M93.907 196.473L77.6806 180.07M93.907 196.473L77.8286 214.998" stroke="black" stroke-width="5"/>
<path id="Vector 47" d="M172.053 190.785C160.376 184.732 137.876 164.155 141.294 130.268C144.712 96.3813 171.535 50.5882 184.519 31.9275C196.234 55.584 218.308 110.355 212.882 140.186C207.455 170.018 183.401 186.349 172.053 190.785ZM172.053 190.785L174.588 157.906M179.959 88.2209L177.122 125.026M177.122 125.026L162.119 107.708M177.122 125.026L193.3 114.905M177.122 125.026L174.588 157.906M174.588 157.906L155.035 138.401M174.588 157.906L195.471 147.735" stroke="black" stroke-width="5"/>
</g>
</svg>
