<svg width="375" height="562" viewBox="0 0 375 562" fill="none" xmlns="http://www.w3.org/2000/svg">
<path d="M207.759 219.725C215.751 202.056 216.893 133.089 216.893 94.3309C216.893 55.5727 226.598 43.6033 234.591 27.644C242.583 11.6847 271.127 17.9545 271.127 43.6033C271.127 69.2522 264.847 185.527 271.127 204.906C277.406 224.285 271.127 272.163 271.127 304.082C271.127 336 293.962 321.751 301.954 304.082C309.947 286.412 324.219 217.445 332.211 193.506C340.203 169.567 363.488 163.298 371.48 193.506C379.472 223.715 353.783 326.31 344.649 387.298C335.515 448.285 280.832 481.343 271.127 518.392C263.363 548.031 267.892 558.48 271.127 560H71.7687C69.8657 546.131 87.0679 511.78 77.477 485.333C65.4884 452.275 49.5041 437.456 43.2243 411.237C36.9444 385.018 29.5234 330.3 29.5234 297.242C29.5234 264.183 10.6847 224.285 11.8265 204.906C12.9682 185.527 3.26307 133.659 2.12131 113.14C0.979553 92.621 7.8301 64.1222 25.5273 64.1222C43.2246 64.1222 44.3663 105.73 47.2207 133.659C50.0751 161.588 58.0674 204.906 59.7801 217.445C61.4927 229.985 71.7687 233.975 77.4774 224.285C83.1862 214.596 77.4774 167.288 77.4774 146.199C77.4774 125.11 70.6269 82.3614 71.7687 64.1222C72.9104 45.883 72.3395 21.9441 88.895 16.8143C105.451 11.6846 116.297 36.1935 119.722 50.4428C123.148 64.6922 127.715 107.44 127.715 123.97C127.715 140.499 135.137 211.176 136.278 224.285C137.42 237.4 140.274 237.4 141.537 224.285C142.816 211.004 147.246 158.738 147.246 133.659C147.246 108.58 152.384 69.822 154.096 43.6033C155.809 17.3846 172.364 -5.41461 194.629 4.27496C216.893 13.9645 203.763 77.2317 203.763 94.3309C203.763 111.43 206.617 213.456 207.759 219.725ZM207.759 219.725C199.767 237.395 208.901 225.995 207.759 219.725Z" stroke="black" stroke-width="3"/>
<path d="M256 345C234 360.5 197 382 187 426C179 461.2 177.334 482 177.5 488M220 245.5C181.5 242.5 152 237.5 120 239.5C94.4 241.1 55.6667 242.833 41.5 246.5M88 278C127.5 297 168 349 177.5 363.5" stroke="black" stroke-width="3"/>
</svg>
