<svg width="348" height="546" viewBox="0 0 348 546" fill="none" xmlns="http://www.w3.org/2000/svg">
<path d="M50.3691 25.6714L233.493 394.821" stroke="#EC7EA5" stroke-width="5" stroke-dasharray="20 20"/>
<path d="M253.846 403.034L244.948 395.33L227.197 404.135L227.947 415.882L253.846 403.034Z" stroke="#EC7EA5" stroke-width="5"/>
<path d="M269.302 397.201L215.102 424.088M269.302 397.201L306.715 412.435M269.302 397.201L263.818 415.361M215.102 424.088L204.595 463.093M215.102 424.088L234.042 430.132M204.595 463.093L232.15 458.455M204.595 463.093L296.13 520.231M232.15 458.455L286.351 431.568M232.15 458.455L296.13 520.231M232.15 458.455L234.042 430.132M286.351 431.568L306.715 412.435M286.351 431.568L296.13 520.231M286.351 431.568L263.818 415.361M306.715 412.435L296.13 520.231M263.818 415.361L234.042 430.132" stroke="#EC7EA5" stroke-width="5"/>
</svg>
