<svg width="1394" height="974" viewBox="0 0 1394 974" fill="none" xmlns="http://www.w3.org/2000/svg">
<rect x="1.5" y="1.5" width="1391" height="971" rx="39.5" stroke="#FFE193" stroke-width="3"/>
<path d="M1357.05 932.916C1356.36 932.865 1355.45 932.785 1354.36 932.664C1351.75 932.374 1348.1 931.843 1343.95 930.883C1335.63 928.956 1325.45 925.33 1317.61 918.57C1310.37 912.315 1311.69 902.455 1317.43 895.836C1320.27 892.563 1324.09 890.254 1328.21 889.714C1332.29 889.18 1336.82 890.352 1341.23 894.327C1350.35 902.54 1354.29 912.538 1355.94 920.526C1356.77 924.518 1357.02 927.994 1357.07 930.465C1357.09 931.455 1357.07 932.283 1357.05 932.916Z" stroke="#FFE193" stroke-width="3"/>
<path d="M1367.71 929.923C1367.52 929.704 1367.31 929.446 1367.08 929.151C1366.19 928.018 1365.02 926.343 1363.91 924.198C1361.69 919.909 1359.71 913.776 1360.65 906.325C1361.09 902.775 1362.62 900.402 1364.55 898.975C1366.49 897.533 1368.94 896.975 1371.35 897.272C1376.12 897.862 1380.55 901.778 1380 908.617C1379.4 915.922 1376.09 921.422 1372.88 925.12C1371.28 926.968 1369.72 928.355 1368.56 929.275C1368.24 929.526 1367.96 929.742 1367.71 929.923Z" stroke="#FFE193" stroke-width="3"/>
<path d="M1354.19 942.116C1354.08 942.379 1353.94 942.682 1353.77 943.019C1353.15 944.313 1352.15 946.099 1350.71 948.04C1347.83 951.92 1343.19 956.385 1336.08 958.809C1332.69 959.964 1329.89 959.627 1327.76 958.524C1325.62 957.41 1324.04 955.45 1323.25 953.159C1321.69 948.613 1323.27 942.911 1329.66 940.412C1336.48 937.742 1342.88 938.313 1347.61 939.573C1349.97 940.202 1351.9 941 1353.24 941.638C1353.6 941.812 1353.92 941.974 1354.19 942.116Z" stroke="#FFE193" stroke-width="3"/>
<path d="M1352.05 41.1981C1351.36 41.249 1350.45 41.3282 1349.36 41.4497C1346.75 41.7399 1343.1 42.2704 1338.95 43.2306C1330.63 45.1579 1320.45 48.784 1312.61 55.5441C1305.37 61.7982 1306.69 71.6591 1312.43 78.2775C1315.27 81.5509 1319.09 83.8595 1323.21 84.3997C1327.29 84.9342 1331.82 83.7612 1336.23 79.7866C1345.35 71.5738 1349.29 61.5759 1350.94 53.588C1351.77 49.5954 1352.02 46.1198 1352.07 43.6486C1352.09 42.6583 1352.07 41.8309 1352.05 41.1981Z" stroke="#FFE193" stroke-width="3"/>
<path d="M1362.71 44.1907C1362.52 44.41 1362.31 44.6678 1362.08 44.9628C1361.19 46.0957 1360.02 47.7704 1358.91 49.9153C1356.69 54.2046 1354.71 60.3381 1355.65 67.7892C1356.09 71.3392 1357.62 73.7119 1359.55 75.1387C1361.49 76.5811 1363.94 77.1388 1366.35 76.8416C1371.12 76.252 1375.55 72.3355 1375 65.4969C1374.4 58.1918 1371.09 52.6916 1367.88 48.9934C1366.28 47.1453 1364.72 45.7591 1363.56 44.8385C1363.24 44.5874 1362.96 44.3715 1362.71 44.1907Z" stroke="#FFE193" stroke-width="3"/>
<path d="M1349.19 31.9975C1349.08 31.7344 1348.94 31.4313 1348.77 31.0944C1348.15 29.8003 1347.15 28.0143 1345.71 26.0741C1342.83 22.1941 1338.19 17.729 1331.08 15.3044C1327.69 14.1493 1324.89 14.4868 1322.76 15.5892C1320.62 16.7037 1319.04 18.6635 1318.25 20.955C1316.69 25.5003 1318.27 31.2025 1324.66 33.7017C1331.48 36.3713 1337.88 35.8005 1342.61 34.5409C1344.97 33.9115 1346.9 33.1135 1348.24 32.4757C1348.6 32.3018 1348.92 32.1401 1349.19 31.9975Z" stroke="#FFE193" stroke-width="3"/>
<path d="M38.8154 40.1981C39.5009 40.249 40.4101 40.3282 41.503 40.4497C44.113 40.7399 47.7628 41.2704 51.9096 42.2306C60.2333 44.1579 70.417 47.784 78.2498 54.5441C85.4962 60.7982 84.1737 70.6591 78.432 77.2775C75.5923 80.5509 71.7783 82.8595 67.6564 83.3997C63.5791 83.9342 59.0422 82.7612 54.6308 78.7866C45.5154 70.5738 41.5793 60.5759 39.9243 52.588C39.0971 48.5954 38.8434 45.1198 38.7963 42.6486C38.7775 41.6583 38.7918 40.8309 38.8154 40.1981Z" stroke="#FFE193" stroke-width="3"/>
<path d="M28.1559 43.1907C28.3417 43.41 28.5531 43.6678 28.7841 43.9628C29.6713 45.0957 30.8417 46.7704 31.9543 48.9153C34.179 53.2046 36.1555 59.3381 35.2189 66.7892C34.7727 70.3392 33.2399 72.7119 31.3174 74.1387C29.3739 75.5811 26.9214 76.1388 24.5169 75.8416C19.7473 75.252 15.3133 71.3355 15.8681 64.4969C16.4608 57.1918 19.7785 51.6916 22.9836 47.9934C24.5853 46.1453 26.1493 44.7591 27.3079 43.8385C27.6238 43.5874 27.909 43.3715 28.1559 43.1907Z" stroke="#FFE193" stroke-width="3"/>
<path d="M41.6709 30.9975C41.7866 30.7344 41.9256 30.4313 42.0895 30.0944C42.7188 28.8003 43.7109 27.0143 45.1511 25.0741C48.031 21.1941 52.6774 16.729 59.785 14.3044C63.1713 13.1493 65.9758 13.4868 68.101 14.5892C70.2493 15.7037 71.8257 17.6635 72.6126 19.955C74.1736 24.5003 72.5972 30.2025 66.2074 32.7017C59.3818 35.3713 52.984 34.8005 48.255 33.5409C45.8918 32.9115 43.9603 32.1135 42.625 31.4757C42.2608 31.3018 41.9416 31.1401 41.6709 30.9975Z" stroke="#FFE193" stroke-width="3"/>
<path d="M43.8154 928.916C44.5009 928.865 45.4101 928.785 46.503 928.664C49.113 928.374 52.7628 927.843 56.9096 926.883C65.2333 924.956 75.417 921.33 83.2498 914.57C90.4962 908.315 89.1737 898.455 83.432 891.836C80.5923 888.563 76.7783 886.254 72.6564 885.714C68.5791 885.18 64.0422 886.352 59.6308 890.327C50.5154 898.54 46.5793 908.538 44.9243 916.526C44.0971 920.518 43.8434 923.994 43.7963 926.465C43.7775 927.455 43.7918 928.283 43.8154 928.916Z" stroke="#FFE193" stroke-width="3"/>
<path d="M33.1559 925.923C33.3417 925.704 33.5531 925.446 33.7841 925.151C34.6713 924.018 35.8417 922.343 36.9543 920.198C39.179 915.909 41.1555 909.776 40.2189 902.324C39.7727 898.775 38.2399 896.402 36.3174 894.975C34.3739 893.533 31.9214 892.975 29.5169 893.272C24.7473 893.862 20.3133 897.778 20.8681 904.617C21.4608 911.922 24.7785 917.422 27.9836 921.12C29.5853 922.968 31.1493 924.355 32.3079 925.275C32.6238 925.526 32.909 925.742 33.1559 925.923Z" stroke="#FFE193" stroke-width="3"/>
<path d="M46.6709 938.116C46.7866 938.379 46.9256 938.682 47.0895 939.019C47.7188 940.313 48.7109 942.099 50.1511 944.04C53.031 947.92 57.6774 952.385 64.785 954.809C68.1713 955.964 70.9758 955.627 73.101 954.524C75.2493 953.41 76.8257 951.45 77.6126 949.159C79.1736 944.613 77.5972 938.911 71.2074 936.412C64.3818 933.742 57.984 934.313 53.255 935.573C50.8918 936.202 48.9603 937 47.625 937.638C47.2608 937.812 46.9416 937.974 46.6709 938.116Z" stroke="#FFE193" stroke-width="3"/>
<path d="M1362.45 936.401L1369.23 939.886L1374.65 934.509L1373.43 942.04L1380.21 945.525L1372.68 946.694L1371.46 954.225L1368.02 947.417L1360.48 948.586L1365.89 943.209L1362.45 936.401Z" fill="#FFE193"/>
<path d="M1357.45 34.2977L1364.23 30.8125L1369.65 36.1894L1368.43 28.6585L1375.21 25.1733L1367.68 24.0041L1366.46 16.4732L1363.02 23.2816L1355.48 22.1124L1360.89 27.4893L1357.45 34.2977Z" fill="#FFE193"/>
<path d="M32.2498 34.2977L25.4637 30.8125L20.0521 36.1894L21.2697 28.6585L14.4837 25.1733L22.0223 24.0041L23.2399 16.4732L26.6814 23.2816L34.2199 22.1124L28.8083 27.4893L32.2498 34.2977Z" fill="#FFE193"/>
<path d="M34.2498 937.401L27.4637 940.886L22.0521 935.509L23.2697 943.04L16.4837 946.525L24.0223 947.694L25.2399 955.225L28.6814 948.417L36.2199 949.586L30.8083 944.209L34.2498 937.401Z" fill="#FFE193"/>
<path d="M1362.45 936.401L1369.23 939.886L1374.65 934.509L1373.43 942.04L1380.21 945.525L1372.68 946.694L1371.46 954.225L1368.02 947.417L1360.48 948.586L1365.89 943.209L1362.45 936.401Z" fill="#FFE193"/>
<circle cx="1345.5" cy="487.5" r="21.5" stroke="#FFE193" stroke-width="2"/>
<path d="M1317.25 488.799C1316.25 488.222 1316.25 486.778 1317.25 486.201L1358.5 462.385C1359.5 461.808 1360.75 462.53 1360.75 463.684V511.316C1360.75 512.47 1359.5 513.192 1358.5 512.615L1317.25 488.799Z" stroke="#FFE193" stroke-width="3"/>
<path d="M1373.75 486.201C1374.75 486.778 1374.75 488.222 1373.75 488.799L1332.5 512.615C1331.5 513.192 1330.25 512.47 1330.25 511.316V463.684C1330.25 462.53 1331.5 461.808 1332.5 462.385L1373.75 486.201Z" stroke="#FFE193" stroke-width="3"/>
<circle cx="51.5" cy="493.5" r="21.5" stroke="#FFE193" stroke-width="2"/>
<path d="M23.25 494.799C22.25 494.222 22.25 492.778 23.25 492.201L64.5 468.385C65.5 467.808 66.75 468.53 66.75 469.684V517.316C66.75 518.47 65.5 519.192 64.5 518.615L23.25 494.799Z" stroke="#FFE193" stroke-width="3"/>
<path d="M79.75 492.201C80.75 492.778 80.75 494.222 79.75 494.799L38.5 518.615C37.5 519.192 36.25 518.47 36.25 517.316L36.25 469.684C36.25 468.53 37.5 467.808 38.5 468.385L79.75 492.201Z" stroke="#FFE193" stroke-width="3"/>
<path d="M1345 109.34L1336.34 118L1345 126.66L1353.66 118L1345 109.34ZM1343.5 118L1343.5 121.01L1346.5 121.01L1346.5 118L1343.5 118ZM1343.5 127.029L1343.5 133.048L1346.5 133.048L1346.5 127.029L1343.5 127.029ZM1343.5 139.067L1343.5 145.087L1346.5 145.087L1346.5 139.067L1343.5 139.067ZM1343.5 151.106L1343.5 157.125L1346.5 157.125L1346.5 151.106L1343.5 151.106ZM1343.5 163.144L1343.5 169.163L1346.5 169.163L1346.5 163.144L1343.5 163.144ZM1343.5 175.183L1343.5 181.202L1346.5 181.202L1346.5 175.183L1343.5 175.183ZM1343.5 187.221L1343.5 193.24L1346.5 193.24L1346.5 187.221L1343.5 187.221ZM1343.5 199.26L1343.5 205.279L1346.5 205.279L1346.5 199.26L1343.5 199.26ZM1343.5 211.298L1343.5 217.317L1346.5 217.317L1346.5 211.298L1343.5 211.298ZM1343.5 223.337L1343.5 229.356L1346.5 229.356L1346.5 223.337L1343.5 223.337ZM1343.5 235.375L1343.5 241.394L1346.5 241.394L1346.5 235.375L1343.5 235.375ZM1343.5 247.413L1343.5 253.433L1346.5 253.433L1346.5 247.413L1343.5 247.413ZM1343.5 259.452L1343.5 265.471L1346.5 265.471L1346.5 259.452L1343.5 259.452ZM1343.5 271.49L1343.5 277.51L1346.5 277.51L1346.5 271.49L1343.5 271.49ZM1343.5 283.529L1343.5 289.548L1346.5 289.548L1346.5 283.529L1343.5 283.529ZM1343.5 295.567L1343.5 301.587L1346.5 301.587L1346.5 295.567L1343.5 295.567ZM1343.5 307.606L1343.5 313.625L1346.5 313.625L1346.5 307.606L1343.5 307.606ZM1343.5 319.644L1343.5 325.663L1346.5 325.663L1346.5 319.644L1343.5 319.644ZM1343.5 331.683L1343.5 337.702L1346.5 337.702L1346.5 331.683L1343.5 331.683ZM1343.5 343.721L1343.5 349.74L1346.5 349.74L1346.5 343.721L1343.5 343.721ZM1343.5 355.76L1343.5 361.779L1346.5 361.779L1346.5 355.76L1343.5 355.76ZM1343.5 367.798L1343.5 373.817L1346.5 373.817L1346.5 367.798L1343.5 367.798ZM1343.5 379.836L1343.5 385.856L1346.5 385.856L1346.5 379.836L1343.5 379.836ZM1343.5 391.875L1343.5 397.894L1346.5 397.894L1346.5 391.875L1343.5 391.875ZM1343.5 403.913L1343.5 409.933L1346.5 409.933L1346.5 403.913L1343.5 403.913ZM1343.5 415.952L1343.5 421.971L1346.5 421.971L1346.5 415.952L1343.5 415.952ZM1343.5 427.99L1343.5 431L1346.5 431L1346.5 427.99L1343.5 427.99Z" fill="#FFE193"/>
<path d="M51 109.34L42.3397 118L51 126.66L59.6603 118L51 109.34ZM49.5 118L49.5 121.01L52.5 121.01L52.5 118L49.5 118ZM49.5 127.029L49.5 133.048L52.5 133.048L52.5 127.029L49.5 127.029ZM49.5 139.067L49.5 145.087L52.5 145.087L52.5 139.067L49.5 139.067ZM49.5 151.106L49.5 157.125L52.5 157.125L52.5 151.106L49.5 151.106ZM49.5 163.144L49.5 169.163L52.5 169.163L52.5 163.144L49.5 163.144ZM49.5 175.183L49.5 181.202L52.5 181.202L52.5 175.183L49.5 175.183ZM49.5 187.221L49.5 193.24L52.5 193.24L52.5 187.221L49.5 187.221ZM49.5 199.26L49.5 205.279L52.5 205.279L52.5 199.26L49.5 199.26ZM49.5 211.298L49.5 217.317L52.5 217.317L52.5 211.298L49.5 211.298ZM49.5 223.337L49.5 229.356L52.5 229.356L52.5 223.337L49.5 223.337ZM49.5 235.375L49.5 241.394L52.5 241.394L52.5 235.375L49.5 235.375ZM49.5 247.413L49.5 253.433L52.5 253.433L52.5 247.413L49.5 247.413ZM49.5 259.452L49.5 265.471L52.5 265.471L52.5 259.452L49.5 259.452ZM49.5 271.49L49.5 277.51L52.5 277.51L52.5 271.49L49.5 271.49ZM49.5 283.529L49.5 289.548L52.5 289.548L52.5 283.529L49.5 283.529ZM49.5 295.567L49.5 301.587L52.5 301.587L52.5 295.567L49.5 295.567ZM49.5 307.606L49.5 313.625L52.5 313.625L52.5 307.606L49.5 307.606ZM49.5 319.644L49.5 325.663L52.5 325.663L52.5 319.644L49.5 319.644ZM49.5 331.683L49.5 337.702L52.5 337.702L52.5 331.683L49.5 331.683ZM49.5 343.721L49.5 349.74L52.5 349.74L52.5 343.721L49.5 343.721ZM49.5 355.76L49.5 361.779L52.5 361.779L52.5 355.76L49.5 355.76ZM49.5 367.798L49.5 373.817L52.5 373.817L52.5 367.798L49.5 367.798ZM49.5 379.836L49.5 385.856L52.5 385.856L52.5 379.836L49.5 379.836ZM49.5 391.875L49.5 397.894L52.5 397.894L52.5 391.875L49.5 391.875ZM49.5 403.913L49.5 409.933L52.5 409.933L52.5 403.913L49.5 403.913ZM49.5 415.952L49.5 421.971L52.5 421.971L52.5 415.952L49.5 415.952ZM49.5 427.99L49.5 431L52.5 431L52.5 427.99L49.5 427.99Z" fill="#FFE193"/>
<path d="M1345 865.66L1336.34 857L1345 848.34L1353.66 857L1345 865.66ZM1343.5 857L1343.5 853.99L1346.5 853.99L1346.5 857L1343.5 857ZM1343.5 847.971L1343.5 841.952L1346.5 841.952L1346.5 847.971L1343.5 847.971ZM1343.5 835.933L1343.5 829.913L1346.5 829.913L1346.5 835.933L1343.5 835.933ZM1343.5 823.894L1343.5 817.875L1346.5 817.875L1346.5 823.894L1343.5 823.894ZM1343.5 811.856L1343.5 805.837L1346.5 805.837L1346.5 811.856L1343.5 811.856ZM1343.5 799.817L1343.5 793.798L1346.5 793.798L1346.5 799.817L1343.5 799.817ZM1343.5 787.779L1343.5 781.76L1346.5 781.76L1346.5 787.779L1343.5 787.779ZM1343.5 775.74L1343.5 769.721L1346.5 769.721L1346.5 775.74L1343.5 775.74ZM1343.5 763.702L1343.5 757.683L1346.5 757.683L1346.5 763.702L1343.5 763.702ZM1343.5 751.663L1343.5 745.644L1346.5 745.644L1346.5 751.663L1343.5 751.663ZM1343.5 739.625L1343.5 733.606L1346.5 733.606L1346.5 739.625L1343.5 739.625ZM1343.5 727.587L1343.5 721.567L1346.5 721.567L1346.5 727.587L1343.5 727.587ZM1343.5 715.548L1343.5 709.529L1346.5 709.529L1346.5 715.548L1343.5 715.548ZM1343.5 703.51L1343.5 697.49L1346.5 697.49L1346.5 703.51L1343.5 703.51ZM1343.5 691.471L1343.5 685.452L1346.5 685.452L1346.5 691.471L1343.5 691.471ZM1343.5 679.433L1343.5 673.413L1346.5 673.413L1346.5 679.433L1343.5 679.433ZM1343.5 667.394L1343.5 661.375L1346.5 661.375L1346.5 667.394L1343.5 667.394ZM1343.5 655.356L1343.5 649.337L1346.5 649.337L1346.5 655.356L1343.5 655.356ZM1343.5 643.317L1343.5 637.298L1346.5 637.298L1346.5 643.317L1343.5 643.317ZM1343.5 631.279L1343.5 625.26L1346.5 625.26L1346.5 631.279L1343.5 631.279ZM1343.5 619.24L1343.5 613.221L1346.5 613.221L1346.5 619.24L1343.5 619.24ZM1343.5 607.202L1343.5 601.183L1346.5 601.183L1346.5 607.202L1343.5 607.202ZM1343.5 595.164L1343.5 589.144L1346.5 589.144L1346.5 595.164L1343.5 595.164ZM1343.5 583.125L1343.5 577.106L1346.5 577.106L1346.5 583.125L1343.5 583.125ZM1343.5 571.087L1343.5 565.067L1346.5 565.067L1346.5 571.087L1343.5 571.087ZM1343.5 559.048L1343.5 553.029L1346.5 553.029L1346.5 559.048L1343.5 559.048ZM1343.5 547.01L1343.5 544L1346.5 544L1346.5 547.01L1343.5 547.01Z" fill="#FFE193"/>
<path d="M51 865.66L42.3397 857L51 848.34L59.6603 857L51 865.66ZM49.5 857L49.5 853.99L52.5 853.99L52.5 857L49.5 857ZM49.5 847.971L49.5 841.952L52.5 841.952L52.5 847.971L49.5 847.971ZM49.5 835.933L49.5 829.913L52.5 829.913L52.5 835.933L49.5 835.933ZM49.5 823.894L49.5 817.875L52.5 817.875L52.5 823.894L49.5 823.894ZM49.5 811.856L49.5 805.837L52.5 805.837L52.5 811.856L49.5 811.856ZM49.5 799.817L49.5 793.798L52.5 793.798L52.5 799.817L49.5 799.817ZM49.5 787.779L49.5 781.76L52.5 781.76L52.5 787.779L49.5 787.779ZM49.5 775.74L49.5 769.721L52.5 769.721L52.5 775.74L49.5 775.74ZM49.5 763.702L49.5 757.683L52.5 757.683L52.5 763.702L49.5 763.702ZM49.5 751.663L49.5 745.644L52.5 745.644L52.5 751.663L49.5 751.663ZM49.5 739.625L49.5 733.606L52.5 733.606L52.5 739.625L49.5 739.625ZM49.5 727.587L49.5 721.567L52.5 721.567L52.5 727.587L49.5 727.587ZM49.5 715.548L49.5 709.529L52.5 709.529L52.5 715.548L49.5 715.548ZM49.5 703.51L49.5 697.49L52.5 697.49L52.5 703.51L49.5 703.51ZM49.5 691.471L49.5 685.452L52.5 685.452L52.5 691.471L49.5 691.471ZM49.5 679.433L49.5 673.413L52.5 673.413L52.5 679.433L49.5 679.433ZM49.5 667.394L49.5 661.375L52.5 661.375L52.5 667.394L49.5 667.394ZM49.5 655.356L49.5 649.337L52.5 649.337L52.5 655.356L49.5 655.356ZM49.5 643.317L49.5 637.298L52.5 637.298L52.5 643.317L49.5 643.317ZM49.5 631.279L49.5 625.26L52.5 625.26L52.5 631.279L49.5 631.279ZM49.5 619.24L49.5 613.221L52.5 613.221L52.5 619.24L49.5 619.24ZM49.5 607.202L49.5 601.183L52.5 601.183L52.5 607.202L49.5 607.202ZM49.5 595.164L49.5 589.144L52.5 589.144L52.5 595.164L49.5 595.164ZM49.5 583.125L49.5 577.106L52.5 577.106L52.5 583.125L49.5 583.125ZM49.5 571.087L49.5 565.067L52.5 565.067L52.5 571.087L49.5 571.087ZM49.5 559.048L49.5 553.029L52.5 553.029L52.5 559.048L49.5 559.048ZM49.5 547.01L49.5 544L52.5 544L52.5 547.01L49.5 547.01Z" fill="#FFE193"/>
</svg>
