<svg width="361" height="424" viewBox="0 0 361 424" fill="none" xmlns="http://www.w3.org/2000/svg">
<path d="M226.613 303.396L208.984 247.334M169.255 120.995L181.174 158.897M208.984 247.334L243.701 181.531L181.174 158.897M208.984 247.334L181.174 158.897" stroke="#FFE7D2" stroke-width="5"/>
<path d="M352.59 288.9C333.891 394.146 201.427 424.775 163.424 420.729C125.42 416.683 108.725 368.028 104.538 343.402C99.305 312.619 70.3327 196.009 58.7349 91.5615C47.1371 -12.8859 152.262 -2.4069 231.842 21.3668C311.421 45.1405 371.289 183.653 352.59 288.9Z" stroke="#FFE7D2" stroke-width="5"/>
<path d="M14.0453 132.785L13.4242 129.982L32.1592 125.831L30.619 118.88L32.9309 118.818L36.6006 135.379L34.2888 135.442L32.7803 128.634L14.0453 132.785ZM16.5077 143.898L37.4594 139.255L38.0805 142.058L29.1707 144.033L31.6679 155.302L40.5778 153.328L41.1989 156.131L20.2471 160.774L19.626 157.97L29.4512 155.793L26.954 144.524L17.1288 146.701L16.5077 143.898ZM25.6828 176.163C25.9258 177.26 26.3669 178.212 27.0062 179.021C27.6476 179.839 28.4225 180.492 29.3311 180.981C30.2491 181.468 31.2631 181.778 32.3731 181.913C33.4831 182.047 34.634 181.982 35.8258 181.718C37.0748 181.441 38.1793 180.986 39.1394 180.353C40.1111 179.728 40.9012 178.983 41.5097 178.118C42.1203 177.262 42.5319 176.321 42.7444 175.293C42.9685 174.273 42.9622 173.23 42.7256 172.162C42.4784 171.046 42.0246 170.082 41.3641 169.268C40.7153 168.461 39.9329 167.819 39.017 167.342C38.101 166.865 37.0833 166.56 35.9638 166.428C34.8559 166.304 33.7156 166.371 32.5429 166.631C31.2939 166.908 30.1883 167.358 29.2261 167.981C28.2735 168.602 27.4919 169.341 26.8812 170.196C26.2801 171.05 25.8675 171.986 25.6434 173.006C25.4309 174.034 25.4441 175.086 25.6828 176.163ZM23.3583 176.168C23.0625 174.833 23.0178 173.503 23.2241 172.177C23.4304 170.851 23.8734 169.622 24.553 168.492C25.2348 167.37 26.1437 166.394 27.2797 165.562C28.4273 164.737 29.7877 164.151 31.3609 163.802C32.4478 163.561 33.5071 163.467 34.5387 163.518C35.582 163.577 36.5723 163.758 37.5096 164.06C38.4563 164.361 39.3421 164.769 40.167 165.287C40.9939 165.814 41.7307 166.431 42.3775 167.138C43.0338 167.842 43.591 168.619 44.0492 169.468C44.5094 170.326 44.8473 171.241 45.0628 172.214C45.255 173.082 45.3382 173.953 45.3122 174.829C45.2884 175.715 45.1586 176.574 44.923 177.406C44.6894 178.248 44.3458 179.045 43.892 179.795C43.4403 180.556 42.8885 181.248 42.2367 181.872C41.5849 182.497 40.8241 183.036 39.9542 183.489C39.0959 183.949 38.1329 184.297 37.065 184.534C35.9876 184.773 34.9283 184.867 33.8871 184.818C32.8481 184.778 31.8551 184.608 30.9084 184.308C29.9732 184.015 29.0933 183.61 28.2684 183.092C27.4457 182.584 26.7062 181.978 26.0499 181.273C25.3957 180.578 24.8375 179.796 24.3751 178.929C23.9149 178.07 23.5759 177.15 23.3583 176.168ZM36.1859 193.161L27.8338 195.011L27.2127 192.208L48.1644 187.566L49.4764 193.487C49.7046 194.516 49.7707 195.492 49.6748 196.413C49.579 197.335 49.346 198.157 48.9759 198.879C48.6153 199.599 48.1335 200.201 47.5305 200.684C46.9296 201.178 46.2383 201.511 45.4565 201.684C44.77 201.836 44.0989 201.855 43.4433 201.74C42.7973 201.623 42.1772 201.421 41.5832 201.132C40.9987 200.841 40.4491 200.483 39.9346 200.057C39.4222 199.64 38.9612 199.207 38.5515 198.758L30.4927 207.01L29.7479 203.65L37.0384 197.008L36.1859 193.161ZM38.4027 192.67L39.4326 197.318C39.7406 197.669 40.0868 197.968 40.4712 198.213C40.8576 198.467 41.2611 198.663 41.6815 198.8C42.1115 198.934 42.5489 199.013 42.9938 199.034C43.4407 199.065 43.8835 199.032 44.3221 198.935C44.8655 198.814 45.3497 198.607 45.7747 198.313C46.2091 198.016 46.5547 197.635 46.8113 197.168C47.07 196.71 47.2303 196.17 47.2921 195.546C47.3635 194.92 47.3125 194.216 47.1393 193.434L46.5688 190.86L38.4027 192.67ZM31.3832 211.029L52.3349 206.387L53.2381 210.462L41.1264 223.514L38.869 225.514L38.9324 225.8L41.8055 224.954L55.7638 221.861L56.3311 224.421L35.3793 229.063L34.8533 226.689L49.1304 211.223L51.3337 209.384L51.2703 209.098L48.3972 209.945L31.9504 213.589L31.3832 211.029ZM31.8199 234.938C32.2445 235.184 32.684 235.407 33.1383 235.607C33.5947 235.815 34.0484 235.99 34.4996 236.13C34.9507 236.27 35.385 236.379 35.8022 236.457C36.2195 236.534 36.6024 236.569 36.9509 236.562C37.023 236.436 37.0936 236.28 37.1625 236.095C37.2431 235.917 37.311 235.727 37.3662 235.525C37.4214 235.323 37.4613 235.119 37.4858 234.913C37.5198 234.706 37.5369 234.512 37.537 234.332C37.6535 234.226 37.7992 234.139 37.9741 234.07C38.1489 234.001 38.303 233.952 38.4365 233.922C38.6653 233.872 38.9132 233.862 39.1801 233.893C39.4491 233.933 39.7075 234.016 39.9553 234.141C40.2031 234.266 40.4222 234.443 40.6128 234.67C40.8054 234.908 40.9397 235.198 41.0158 235.541C41.075 235.808 41.0806 236.082 41.0328 236.363C40.9966 236.651 40.8921 236.924 40.7193 237.182C40.5465 237.441 40.2974 237.671 39.9721 237.873C39.6584 238.083 39.2537 238.242 38.7579 238.352C38.3003 238.454 37.7934 238.491 37.2373 238.464C36.6813 238.437 36.0919 238.328 35.4692 238.136C34.839 237.955 34.1841 237.685 33.5042 237.326C32.8149 236.968 32.1092 236.515 31.3871 235.965L31.8199 234.938ZM45.6544 265.886C45.0689 265.456 44.5538 264.96 44.1093 264.398C43.6743 263.835 43.3002 263.252 42.9871 262.651C42.6739 262.051 42.4232 261.461 42.235 260.883C42.0394 260.316 41.8919 259.808 41.7926 259.36C41.4863 257.978 41.4442 256.637 41.6664 255.337C41.8981 254.036 42.3638 252.842 43.0636 251.757C43.7654 250.681 44.6896 249.751 45.8362 248.967C46.9944 248.19 48.3506 247.63 49.9047 247.285C51.0678 247.027 52.1864 246.93 53.2605 246.992C54.3345 247.054 55.3433 247.25 56.2869 247.581C57.2304 247.912 58.1046 248.359 58.9092 248.921C59.7139 249.483 60.4296 250.139 61.0562 250.891C61.6923 251.64 62.2304 252.466 62.6705 253.369C63.1202 254.269 63.4559 255.22 63.6777 256.221C63.8235 256.879 63.9369 257.684 64.0179 258.636C64.1084 259.587 64.1136 260.626 64.0335 261.754L61.4372 261.819L61.2308 261.565C61.4752 260.41 61.5828 259.361 61.5537 258.417C61.5363 257.481 61.4578 256.698 61.3184 256.069C61.0649 254.925 60.6073 253.921 59.9458 253.057C59.2939 252.191 58.5046 251.496 57.5781 250.971C56.6612 250.444 55.6493 250.098 54.5425 249.933C53.4357 249.769 52.3055 249.814 51.1518 250.07C50.0458 250.315 49.0112 250.724 48.048 251.297C47.0965 251.878 46.2953 252.596 45.6444 253.45C45.0031 254.303 44.5491 255.279 44.2826 256.378C44.0256 257.475 44.0397 258.667 44.3249 259.954C44.4073 260.326 44.522 260.731 44.6689 261.168C44.8159 261.606 45.0074 262.064 45.2433 262.542C45.4887 263.017 45.7776 263.508 46.1099 264.015C46.4517 264.519 46.8576 265.02 47.3276 265.516L45.6544 265.886ZM44.7058 271.153L65.6576 266.51L66.2787 269.313L57.3688 271.288L59.866 282.557L68.7759 280.583L69.397 283.386L48.4453 288.029L47.8241 285.226L57.6493 283.048L55.1521 271.779L45.3269 273.956L44.7058 271.153ZM58.1018 304.659L56.0989 295.62L49.9728 294.922L49.3865 292.276L72.0654 295.428L72.7245 298.403L53.5031 310.854L52.8502 307.908L58.1018 304.659ZM60.1156 303.387L67.6813 298.8L70.4182 297.338L70.3548 297.052L67.2566 296.884L58.455 295.893L60.1156 303.387ZM54.4158 314.973L75.3675 310.33L76.2707 314.406L64.159 327.457L61.9016 329.458L61.965 329.744L64.8381 328.897L78.7964 325.804L79.3637 328.364L58.4119 333.007L57.8859 330.633L72.1631 315.166L74.3663 313.328L74.3029 313.042L71.4298 313.888L54.983 317.533L54.4158 314.973ZM64.5011 355.409C63.6926 354.197 63.0583 353.028 62.5982 351.899C62.1477 350.769 61.8178 349.732 61.6087 348.788C61.2558 347.195 61.1731 345.693 61.3604 344.282C61.5572 342.868 61.9954 341.595 62.6751 340.464C63.3663 339.341 64.2853 338.387 65.4318 337.603C66.5879 336.817 67.943 336.251 69.4971 335.907C70.6699 335.647 71.7932 335.548 72.8673 335.61C73.9508 335.67 74.9644 335.866 75.908 336.197C76.8611 336.526 77.741 336.976 78.5478 337.547C79.3567 338.128 80.0755 338.799 80.7042 339.56C81.3446 340.328 81.888 341.178 82.3344 342.11C82.7904 343.039 83.1346 344.028 83.367 345.077C83.5191 345.763 83.6356 346.582 83.7166 347.535C83.8072 348.485 83.8113 349.519 83.7291 350.638L81.1646 350.711L80.9582 350.457C81.2025 349.302 81.3064 348.259 81.2699 347.327C81.243 346.393 81.1587 345.606 81.0171 344.967C80.7467 343.747 80.2765 342.686 79.6066 341.784C78.9462 340.88 78.1506 340.156 77.2199 339.612C76.2987 339.066 75.2751 338.713 74.1493 338.552C73.0329 338.389 71.8884 338.438 70.7157 338.698C69.6002 338.945 68.5629 339.365 67.604 339.957C66.6545 340.548 65.8554 341.275 65.2067 342.139C64.5695 343.01 64.1246 344.004 63.8718 345.12C63.619 346.237 63.6374 347.448 63.9268 348.754C64.0536 349.326 64.2433 349.934 64.4961 350.579C64.751 351.232 65.0673 351.892 65.445 352.559L72.6816 350.955L73.2394 353.472L64.5011 355.409ZM64.7785 361.739L85.7303 357.096L88.4525 369.381L86.1407 369.443L84.1347 360.39L77.4416 361.874L79.2289 369.94L76.9171 370.002L75.2248 362.365L67.6164 364.051L69.7682 373.761L67.4564 373.824L64.7785 361.739Z" fill="#FFE7D2"/>
</svg>
