<svg width="498" height="457" viewBox="0 0 498 457" fill="none" xmlns="http://www.w3.org/2000/svg">
<path d="M265.902 364.514C184.559 402.703 99.2975 326.587 83.6494 298.526C68.0012 270.466 93.3194 235.41 108.201 220.594C126.804 202.075 192.836 125.639 258.941 67.0312C325.045 8.42377 368.82 85.6978 391.079 151.875C413.338 218.052 347.245 326.325 265.902 364.514Z" stroke="#FFE7D2" stroke-width="5"/>
<path d="M306.892 191.614L223.529 193.467L220.248 268.141" stroke="#FFE7D2" stroke-width="5"/>
<path d="M68.1174 176.914L66.1287 178.984L50.6503 164.12L52.639 162.049L68.1174 176.914ZM72.4397 172.413L56.9613 157.548L59.853 154.537L77.4296 157.383L80.346 158.153L80.5489 157.941L78.2515 156.019L67.9396 146.116L69.7558 144.225L85.2342 159.09L83.5499 160.843L62.7627 157.535L60.0111 156.72L59.8082 156.931L62.1056 158.853L74.2559 170.521L72.4397 172.413ZM92.0873 149.098C92.5337 148.634 92.8864 148.146 93.1455 147.637C93.3975 147.121 93.5461 146.614 93.5913 146.115C93.6294 145.61 93.5644 145.128 93.3962 144.669C93.2348 144.202 92.9604 143.783 92.573 143.411C92.1152 142.972 91.623 142.709 91.0963 142.623C90.5764 142.53 90.0276 142.544 89.4499 142.666C88.879 142.782 88.2855 142.977 87.6695 143.251C87.0464 143.52 86.4165 143.795 85.7799 144.077C85.1363 144.353 84.4853 144.607 83.827 144.842C83.1687 145.076 82.5084 145.214 81.8462 145.255C81.1907 145.289 80.5398 145.205 79.8934 145.004C79.2467 144.789 78.6099 144.381 77.9831 143.779C77.321 143.143 76.8475 142.445 76.5628 141.684C76.278 140.923 76.1689 140.141 76.2356 139.339C76.3019 138.522 76.5377 137.713 76.9427 136.911C77.3475 136.094 77.9084 135.313 78.6254 134.566C79.0651 134.108 79.6622 133.578 80.4166 132.976C81.164 132.367 82.026 131.787 83.0025 131.235L84.5061 133.349L84.4088 133.662C83.8607 133.88 83.3509 134.115 82.8794 134.366C82.4079 134.617 81.9814 134.871 81.5998 135.128C81.2182 135.384 80.8814 135.636 80.5894 135.884C80.2974 136.131 80.0534 136.357 79.8572 136.562C79.4581 136.977 79.1491 137.405 78.93 137.844C78.7107 138.27 78.5847 138.697 78.5519 139.126C78.5189 139.541 78.579 139.951 78.7322 140.355C78.8852 140.746 79.1377 141.11 79.4899 141.449C79.9618 141.902 80.4648 142.182 80.9988 142.288C81.5395 142.388 82.1058 142.383 82.6976 142.275C83.2961 142.159 83.9104 141.97 84.5406 141.709C85.1707 141.448 85.8076 141.179 86.4513 140.904C87.1017 140.621 87.756 140.363 88.4144 140.128C89.0727 139.894 89.7224 139.746 90.3634 139.685C91.0042 139.61 91.6304 139.663 92.2418 139.844C92.8601 140.018 93.4544 140.379 94.025 140.927C94.6519 141.529 95.1187 142.241 95.4254 143.063C95.7319 143.872 95.8667 144.733 95.8299 145.645C95.7928 146.544 95.5732 147.463 95.1709 148.404C94.7683 149.331 94.168 150.21 93.3698 151.041C93.0316 151.393 92.6518 151.739 92.2305 152.079C91.8159 152.412 91.3803 152.732 90.9238 153.038C90.4602 153.338 89.9823 153.617 89.4903 153.875C89.005 154.127 88.5225 154.347 88.0429 154.536L86.5389 152.402L86.6362 152.089C87.7417 151.769 88.7659 151.359 89.7089 150.856C90.6586 150.346 91.4514 149.761 92.0873 149.098ZM104.238 139.3L102.25 141.371L86.7711 126.507L90.8297 122.281C91.6143 121.464 92.4471 120.808 93.3281 120.314C94.2088 119.805 95.0968 119.487 95.992 119.358C96.8941 119.223 97.7865 119.294 98.6693 119.574C99.5451 119.846 100.374 120.357 101.156 121.108C101.712 121.643 102.159 122.214 102.496 122.822C102.826 123.423 103.056 124.043 103.186 124.683C103.323 125.316 103.374 125.953 103.339 126.596C103.296 127.233 103.181 127.853 102.993 128.458C102.805 129.063 102.551 129.638 102.23 130.183C101.91 130.728 101.537 131.222 101.11 131.666C101.029 131.751 100.941 131.842 100.847 131.941C100.745 132.033 100.616 132.139 100.459 132.26L99.0166 130.59C99.1594 130.483 99.2784 130.388 99.3734 130.303C99.4613 130.211 99.5492 130.12 99.6372 130.028C100.07 129.577 100.409 129.09 100.654 128.567C100.899 128.031 101.022 127.479 101.025 126.913C101.034 126.339 100.908 125.765 100.648 125.19C100.387 124.601 99.9646 124.026 99.38 123.465C98.7813 122.89 98.1758 122.491 97.5635 122.269C96.958 122.039 96.3488 121.969 95.7358 122.057C95.1297 122.139 94.5197 122.372 93.9059 122.757C93.2918 123.129 92.6838 123.628 92.0818 124.255L90.3975 126.009L104.238 139.3ZM117.043 125.967L115.054 128.038L99.5758 113.173L101.564 111.103L117.043 125.967ZM117.285 113.364L123.455 119.289L121.467 121.36L105.988 106.496L110.189 102.122C110.919 101.361 111.695 100.765 112.515 100.334C113.335 99.9033 114.148 99.6416 114.954 99.5493C115.753 99.4503 116.521 99.5176 117.258 99.7514C118.002 99.978 118.662 100.369 119.24 100.923C119.747 101.41 120.135 101.959 120.403 102.568C120.663 103.17 120.838 103.799 120.928 104.453C121.01 105.101 121.016 105.757 120.947 106.421C120.884 107.079 120.779 107.702 120.632 108.292L131.968 110.425L129.584 112.908L120.014 110.522L117.285 113.364ZM115.647 111.791L118.945 108.358C119.067 107.906 119.124 107.453 119.114 106.997C119.112 106.534 119.051 106.09 118.932 105.664C118.806 105.232 118.628 104.824 118.4 104.442C118.178 104.053 117.905 103.703 117.581 103.392C117.179 103.006 116.738 102.718 116.258 102.527C115.77 102.33 115.261 102.254 114.73 102.299C114.206 102.338 113.667 102.504 113.114 102.798C112.553 103.086 111.996 103.518 111.441 104.096L109.615 105.998L115.647 111.791ZM139.188 94.4901L132.775 101.167L135.59 106.653L133.713 108.608L123.765 87.9853L125.875 85.7876L146.893 94.8832L144.803 97.0597L139.188 94.4901ZM137.013 93.5188L129.001 89.7648L126.268 88.2972L126.065 88.5085L127.642 91.1806L131.697 99.0551L137.013 93.5188ZM153.701 87.7938L151.713 89.8646L137.872 76.573L132.941 81.7078L131.608 79.8181L143.357 67.5833L144.69 69.473L139.861 74.5021L153.701 87.7938ZM163.574 77.5136L161.585 79.5844L146.107 64.7201L148.095 62.6493L163.574 77.5136ZM173.369 64.4584C174.147 63.6484 174.695 62.7532 175.014 61.7729C175.339 60.7856 175.454 59.7784 175.357 58.7512C175.253 57.7173 174.949 56.7012 174.446 55.7031C173.942 54.7049 173.25 53.783 172.369 52.9375C171.447 52.0514 170.456 51.3842 169.397 50.936C168.338 50.4739 167.28 50.2294 166.222 50.2025C165.172 50.1685 164.16 50.3478 163.187 50.7405C162.214 51.1193 161.349 51.7032 160.591 52.4921C159.8 53.3162 159.249 54.2287 158.937 55.2295C158.626 56.2166 158.525 57.2236 158.636 58.2504C158.746 59.2773 159.057 60.2932 159.568 61.2982C160.078 62.2893 160.767 63.2009 161.633 64.0329C162.556 64.919 163.543 65.5897 164.595 66.045C165.64 66.4935 166.688 66.7347 167.739 66.7687C168.782 66.796 169.79 66.6201 170.764 66.2413C171.736 65.8486 172.605 65.2544 173.369 64.4584ZM174.662 66.3903C173.715 67.3764 172.632 68.1512 171.414 68.7146C170.196 69.2779 168.929 69.5902 167.611 69.6514C166.299 69.7056 164.983 69.4905 163.661 69.0062C162.338 68.508 161.096 67.7009 159.934 66.5848C159.131 65.8137 158.465 64.9845 157.936 64.0974C157.406 63.1964 157.008 62.272 156.74 61.3243C156.465 60.3699 156.314 59.406 156.288 58.4326C156.268 57.4523 156.373 56.497 156.603 55.5669C156.826 54.63 157.163 53.7356 157.616 52.8838C158.075 52.025 158.649 51.2364 159.339 50.5179C159.955 49.8769 160.634 49.3245 161.378 48.8605C162.128 48.3894 162.915 48.0213 163.738 47.756C164.568 47.4836 165.422 47.3282 166.298 47.2898C167.181 47.2443 168.063 47.3196 168.945 47.5159C169.826 47.7122 170.696 48.0468 171.555 48.5198C172.414 48.979 173.238 49.5874 174.026 50.345C174.822 51.1093 175.488 51.9385 176.024 52.8324C176.567 53.7193 176.976 54.64 177.251 55.5945C177.526 56.5351 177.676 57.4921 177.703 58.4654C177.736 59.4317 177.642 60.3833 177.419 61.3202C177.203 62.2501 176.862 63.148 176.396 64.0138C175.937 64.8727 175.359 65.6648 174.662 66.3903ZM185.774 54.3963L170.296 39.532L173.187 36.5208L190.764 39.3664L193.68 40.1362L193.883 39.9249L191.586 38.0029L181.274 28.1002L183.09 26.2089L198.568 41.0733L196.884 42.8271L176.097 39.5182L173.345 38.7036L173.142 38.9149L175.44 40.8369L187.59 52.5051L185.774 54.3963ZM205.431 40.779C205.401 40.2892 205.342 39.8 205.257 39.3114C205.177 38.8157 205.071 38.3413 204.938 37.8881C204.804 37.435 204.654 37.0133 204.487 36.623C204.32 36.2326 204.138 35.8945 203.938 35.6084C203.794 35.6182 203.625 35.6458 203.432 35.6912C203.24 35.7227 203.044 35.7716 202.845 35.8377C202.646 35.9039 202.454 35.9838 202.269 36.0773C202.078 36.1641 201.907 36.2573 201.757 36.357C201.604 36.3187 201.451 36.2458 201.297 36.1384C201.143 36.031 201.016 35.93 200.918 35.8353C200.749 35.673 200.603 35.4722 200.481 35.2329C200.365 34.9866 200.291 34.7256 200.258 34.45C200.225 34.1744 200.25 33.8942 200.334 33.6093C200.425 33.3174 200.592 33.0447 200.835 32.7911C201.025 32.5939 201.25 32.4374 201.51 32.3216C201.77 32.192 202.055 32.1275 202.366 32.1282C202.677 32.1288 203.006 32.2084 203.355 32.3671C203.703 32.512 204.06 32.7604 204.427 33.1121C204.765 33.4368 205.077 33.838 205.363 34.3156C205.649 34.7933 205.884 35.3446 206.069 35.9693C206.269 36.5938 206.407 37.2886 206.485 38.0537C206.569 38.8255 206.583 39.6644 206.525 40.5704L205.431 40.779ZM97.6894 205.312L95.7008 207.383L80.2223 192.519L82.211 190.448L97.6894 205.312ZM105.066 197.631L90.8146 196.822L89.283 183.084L91.5152 180.76L92.5188 194.518L107.602 194.99L105.066 197.631ZM110.433 192.042L94.9548 177.178L97.8465 174.167L115.423 177.012L118.339 177.782L118.542 177.571L116.245 175.649L105.933 165.746L107.749 163.855L123.228 178.719L121.543 180.473L100.756 177.164L98.0046 176.349L97.8017 176.561L100.099 178.483L112.249 190.151L110.433 192.042ZM132.932 165.759C133.71 164.949 134.258 164.054 134.577 163.074C134.902 162.086 135.016 161.079 134.919 160.052C134.816 159.018 134.512 158.002 134.008 157.004C133.505 156.005 132.812 155.084 131.932 154.238C131.009 153.352 130.019 152.685 128.96 152.237C127.9 151.775 126.842 151.53 125.785 151.503C124.734 151.469 123.723 151.648 122.75 152.041C121.777 152.42 120.912 153.004 120.154 153.793C119.363 154.617 118.811 155.529 118.5 156.53C118.188 157.517 118.088 158.524 118.198 159.551C118.309 160.578 118.62 161.594 119.13 162.599C119.641 163.59 120.329 164.501 121.196 165.333C122.118 166.22 123.106 166.89 124.158 167.346C125.203 167.794 126.251 168.035 127.301 168.069C128.345 168.097 129.353 167.921 130.326 167.542C131.299 167.149 132.167 166.555 132.932 165.759ZM134.225 167.691C133.278 168.677 132.195 169.452 130.977 170.015C129.759 170.579 128.491 170.891 127.173 170.952C125.862 171.006 124.545 170.791 123.223 170.307C121.901 169.809 120.659 169.001 119.496 167.885C118.693 167.114 118.027 166.285 117.498 165.398C116.969 164.497 116.57 163.573 116.303 162.625C116.028 161.67 115.877 160.707 115.85 159.733C115.831 158.753 115.936 157.798 116.165 156.867C116.388 155.931 116.726 155.036 117.178 154.184C117.637 153.326 118.212 152.537 118.902 151.819C119.517 151.178 120.197 150.625 120.94 150.161C121.691 149.69 122.477 149.322 123.301 149.057C124.131 148.784 124.984 148.629 125.861 148.59C126.744 148.545 127.626 148.62 128.507 148.817C129.388 149.013 130.258 149.347 131.117 149.82C131.976 150.28 132.8 150.888 133.589 151.646C134.385 152.41 135.051 153.239 135.587 154.133C136.13 155.02 136.539 155.941 136.814 156.895C137.088 157.836 137.239 158.793 137.265 159.766C137.299 160.732 137.204 161.684 136.981 162.621C136.765 163.551 136.424 164.449 135.958 165.314C135.499 166.173 134.921 166.965 134.225 167.691ZM140.912 131.585L154.608 138.788L157.251 140.351L157.444 140.15L155.775 137.573L146.813 123.178L148.761 121.149L159.947 140.483L157.634 142.892L144.999 136.486L141.833 134.602L141.63 134.813L143.64 137.901L150.542 150.277L148.248 152.665L128.448 142.301L130.558 140.104L145.325 148.455L147.906 150.082L148.099 149.881L146.451 147.283L138.7 133.888L140.912 131.585ZM167.354 132.77L151.876 117.906L153.864 115.835L167.705 129.126L173.854 122.724L175.187 124.613L167.354 132.77ZM178.515 121.148L163.036 106.283L171.752 97.2078L173.085 99.0974L166.663 105.785L171.607 110.534L177.33 104.575L178.663 106.465L173.245 112.106L178.866 117.504L185.755 110.33L187.089 112.22L178.515 121.148ZM175.456 93.3514L180.478 88.1214C181.79 86.755 183.13 85.7402 184.498 85.0771C185.866 84.4002 187.205 84.0277 188.516 83.9598C189.827 83.8918 191.088 84.108 192.3 84.6084C193.519 85.1017 194.628 85.8287 195.629 86.7892C196.277 87.4115 196.861 88.1145 197.381 88.8983C197.894 89.6752 198.308 90.5129 198.623 91.4114C198.945 92.3027 199.15 93.2379 199.239 94.2168C199.328 95.1958 199.262 96.1952 199.041 97.2149C198.827 98.2277 198.443 99.2542 197.891 100.294C197.339 101.321 196.585 102.331 195.632 103.324L190.934 108.216L175.456 93.3514ZM191.285 104.572L194.359 101.371C195.34 100.35 196.034 99.3029 196.44 98.2311C196.84 97.1524 196.998 96.0994 196.915 95.072C196.832 94.0307 196.535 93.0283 196.025 92.0648C195.509 91.0945 194.824 90.2001 193.972 89.3817C193.042 88.4888 192.069 87.8316 191.052 87.4102C190.034 86.9749 189.005 86.7851 187.963 86.8407C186.921 86.8825 185.877 87.173 184.831 87.7122C183.785 88.2375 182.772 89.0109 181.791 90.0322L179.082 92.8532L191.285 104.572ZM218.551 77.8714C217.991 79.2157 217.369 80.3921 216.685 81.4005C215.994 82.4022 215.314 83.2517 214.644 83.949C213.515 85.1253 212.31 86.0268 211.031 86.6536C209.745 87.2736 208.444 87.6142 207.126 87.6754C205.807 87.7228 204.504 87.4867 203.216 86.9671C201.921 86.4408 200.699 85.6264 199.551 84.5238C198.684 83.6918 197.979 82.8117 197.436 81.8833C196.885 80.9483 196.486 79.9963 196.238 79.0275C195.984 78.0519 195.87 77.0699 195.899 76.0817C195.934 75.0864 196.094 74.1162 196.379 73.1711C196.663 72.2123 197.069 71.2889 197.597 70.4011C198.118 69.5065 198.75 68.6718 199.494 67.897C199.981 67.3898 200.598 66.8386 201.346 66.2433C202.087 65.6412 202.945 65.0644 203.922 64.5128L205.404 66.6066L205.307 66.9194C204.211 67.356 203.285 67.8479 202.529 68.395C201.767 68.9353 201.159 69.4415 200.705 69.9134C199.84 70.815 199.217 71.7945 198.838 72.852C198.452 73.9027 198.29 74.9662 198.353 76.0424C198.41 77.1118 198.683 78.1595 199.173 79.1856C199.657 80.2049 200.332 81.1306 201.198 81.9626C202.022 82.754 202.946 83.3845 203.971 83.8542C204.989 84.3171 206.037 84.579 207.116 84.6401C208.194 84.6873 209.268 84.5067 210.337 84.0983C211.407 83.6899 212.404 83.0032 213.331 82.0382C213.737 81.6156 214.138 81.1206 214.534 80.5531C214.937 79.9786 215.311 79.3494 215.656 78.6656L210.31 73.5315L212.096 71.672L218.551 77.8714ZM223.666 74.1315L208.188 59.2671L216.903 50.1914L218.236 52.081L211.814 58.769L216.759 63.5175L222.481 57.5585L223.814 59.4482L218.396 65.0901L224.017 70.488L230.906 63.314L232.24 65.2037L223.666 74.1315Z" fill="#FFE7D2"/>
</svg>
