<svg width="127" height="110" viewBox="0 0 127 110" fill="none" xmlns="http://www.w3.org/2000/svg">
<g id="Group 25">
<path id="Vector 9" d="M61.909 45.5124C61.1629 49.3375 59.9992 54.4245 58.485 59.9253M58.485 59.9253C54.7163 73.6159 48.7761 89.8698 41.6984 95.6146C29.2965 105.681 -16.6366 64.5009 12.5309 29.9555C41.6984 -4.58989 59.3827 1.81588 71.7846 7.53531C83.2952 12.8437 116.37 49.684 108.028 77.9988M58.485 59.9253C62.9182 75.1009 63.287 98.8175 69.7176 102.478C75.4434 105.737 86.2673 111.717 100.082 92.6405M100.082 92.6405C101.783 90.2921 103.528 87.5641 105.316 84.4045C106.488 82.3328 107.382 80.1913 108.028 77.9988M100.082 92.6405L114.502 105.91L123 92.6405L108.028 77.9988" stroke="white" stroke-width="5"/>
<path id="Vector 10" d="M35 19C22.5527 31.3316 8.64098 37.4974 9.00707 52.3679C9.37317 67.2383 27.6781 87.5492 32.8035 89" stroke="white" stroke-width="5"/>
</g>
</svg>
