<svg width="524" height="198" viewBox="0 0 524 198" fill="none" xmlns="http://www.w3.org/2000/svg">
<path d="M165.274 62.5369C154.774 50.8703 114.774 -3.53954 92.7736 2.46046M92.7736 2.46046C65.2736 9.96046 23.2736 121.961 3.77356 146.961C-15.7264 171.961 131.274 200.461 165.274 195.461M92.7736 2.46046C89.7736 13.7938 87.1736 41.9606 100.774 63.9606M165.274 195.461C192.474 191.461 192.274 161.461 188.774 146.961M165.274 195.461C165.274 187.627 168.297 182.461 165.274 162.461C164.458 157.067 163.1 151.91 161.315 146.961M100.774 63.9606C115.641 88.0115 148.867 112.445 161.315 146.961M100.774 63.9606L351.274 58.4317M161.315 146.961H325.774M325.774 146.961C330.94 163.127 344.674 195.461 358.274 195.461M325.774 146.961H369.274M358.274 195.461C371.874 195.461 371.274 163.127 369.274 146.961M358.274 195.461C375.44 195.461 414.074 192.76 431.274 181.96C452.774 168.459 520.774 135.461 522.274 122.46C523.774 109.459 515.274 92.46 482.774 57.4606C456.774 29.461 396.274 13.7937 369.274 9.45996M369.274 146.961H393.774L395.274 57.4606L373.274 57.9461M351.274 58.4317C351.774 41.2744 356.074 7.45996 369.274 9.45996M351.274 58.4317L373.274 57.9461M369.274 9.45996C382.474 11.46 377.44 42.6174 373.274 57.9461" stroke="#CE9F26" stroke-width="3"/>
<path d="M153.725 109C153.492 109 153.275 108.942 153.075 108.825C152.875 108.692 152.775 108.5 152.775 108.25V91.475C152.775 91.225 152.875 91.0417 153.075 90.925C153.275 90.7917 153.492 90.725 153.725 90.725H162.625C162.892 90.725 163.075 90.825 163.175 91.025C163.292 91.225 163.35 91.4333 163.35 91.65C163.35 91.9 163.283 92.125 163.15 92.325C163.033 92.525 162.858 92.625 162.625 92.625H154.875V98.975H158.775C159.008 98.975 159.183 99.0667 159.3 99.25C159.433 99.4333 159.5 99.6417 159.5 99.875C159.5 100.075 159.442 100.267 159.325 100.45C159.225 100.633 159.042 100.725 158.775 100.725H154.875V107.1H162.625C162.858 107.1 163.033 107.2 163.15 107.4C163.283 107.583 163.35 107.808 163.35 108.075C163.35 108.292 163.292 108.5 163.175 108.7C163.075 108.9 162.892 109 162.625 109H153.725ZM165.692 109.2C165.542 109.2 165.367 109.142 165.167 109.025C164.967 108.925 164.792 108.8 164.642 108.65C164.492 108.483 164.417 108.325 164.417 108.175C164.417 108.025 164.467 107.883 164.567 107.75L167.767 103L164.667 98.45C164.633 98.4 164.6 98.3417 164.567 98.275C164.533 98.1917 164.517 98.1167 164.517 98.05C164.517 97.8833 164.592 97.725 164.742 97.575C164.892 97.4083 165.067 97.275 165.267 97.175C165.467 97.0583 165.658 97 165.842 97C165.925 97 166.017 97.025 166.117 97.075C166.233 97.1083 166.325 97.1833 166.392 97.3L169.167 101.6L171.967 97.3C172.017 97.2 172.092 97.125 172.192 97.075C172.308 97.025 172.417 97 172.517 97C172.683 97 172.867 97.05 173.067 97.15C173.283 97.25 173.458 97.3833 173.592 97.55C173.742 97.7167 173.817 97.8833 173.817 98.05C173.817 98.1667 173.767 98.3 173.667 98.45L170.542 103L173.792 107.75C173.825 107.8 173.85 107.867 173.867 107.95C173.9 108.017 173.917 108.092 173.917 108.175C173.917 108.308 173.842 108.458 173.692 108.625C173.558 108.792 173.392 108.925 173.192 109.025C173.008 109.142 172.817 109.2 172.617 109.2C172.517 109.2 172.417 109.175 172.317 109.125C172.217 109.075 172.133 109 172.067 108.9L169.167 104.475L166.292 108.9C166.225 109 166.133 109.075 166.017 109.125C165.9 109.175 165.792 109.2 165.692 109.2ZM176.986 114.725C176.703 114.725 176.461 114.642 176.261 114.475C176.078 114.325 175.986 114.158 175.986 113.975V97.875C175.986 97.6583 176.078 97.4833 176.261 97.35C176.461 97.2167 176.703 97.15 176.986 97.15C177.27 97.15 177.503 97.2167 177.686 97.35C177.87 97.4833 177.961 97.6583 177.961 97.875V98.9C178.245 98.4167 178.67 97.9833 179.236 97.6C179.803 97.2 180.495 97 181.311 97C182.145 97 182.903 97.225 183.586 97.675C184.27 98.1083 184.811 98.6833 185.211 99.4C185.611 100.117 185.811 100.917 185.811 101.8V104.35C185.811 105.183 185.603 105.975 185.186 106.725C184.786 107.458 184.253 108.058 183.586 108.525C182.92 108.975 182.186 109.2 181.386 109.2C180.636 109.2 179.961 109.008 179.361 108.625C178.761 108.225 178.328 107.767 178.061 107.25V113.975C178.061 114.158 177.953 114.325 177.736 114.475C177.536 114.642 177.286 114.725 176.986 114.725ZM180.886 107.325C181.386 107.325 181.853 107.183 182.286 106.9C182.72 106.617 183.07 106.242 183.336 105.775C183.603 105.308 183.736 104.833 183.736 104.35V101.8C183.736 101.317 183.603 100.85 183.336 100.4C183.07 99.95 182.72 99.5833 182.286 99.3C181.853 99.0167 181.37 98.875 180.836 98.875C180.386 98.875 179.945 99 179.511 99.25C179.095 99.4833 178.745 99.8167 178.461 100.25C178.195 100.667 178.061 101.183 178.061 101.8V105.025C178.061 105.242 178.178 105.533 178.411 105.9C178.661 106.267 178.995 106.6 179.411 106.9C179.845 107.183 180.336 107.325 180.886 107.325ZM193.44 109.2C192.357 109.2 191.398 109 190.565 108.6C189.732 108.183 189.073 107.617 188.59 106.9C188.107 106.167 187.865 105.317 187.865 104.35V101.725C187.865 100.875 188.09 100.092 188.54 99.375C189.007 98.6583 189.615 98.0833 190.365 97.65C191.115 97.2167 191.94 97 192.84 97C193.707 97 194.498 97.2 195.215 97.6C195.948 98 196.532 98.5417 196.965 99.225C197.415 99.9083 197.64 100.7 197.64 101.6C197.64 102.267 197.532 102.75 197.315 103.05C197.098 103.333 196.823 103.508 196.49 103.575C196.157 103.642 195.807 103.675 195.44 103.675H189.94V104.425C189.94 105.358 190.273 106.1 190.94 106.65C191.607 107.183 192.465 107.45 193.515 107.45C194.132 107.45 194.623 107.367 194.99 107.2C195.357 107.033 195.657 106.875 195.89 106.725C196.123 106.558 196.332 106.475 196.515 106.475C196.698 106.475 196.848 106.533 196.965 106.65C197.098 106.75 197.198 106.875 197.265 107.025C197.332 107.175 197.365 107.308 197.365 107.425C197.365 107.642 197.207 107.892 196.89 108.175C196.573 108.442 196.115 108.683 195.515 108.9C194.932 109.1 194.24 109.2 193.44 109.2ZM189.94 102.275H194.565C195.015 102.275 195.307 102.225 195.44 102.125C195.59 102.008 195.665 101.792 195.665 101.475C195.665 100.975 195.54 100.517 195.29 100.1C195.057 99.6667 194.723 99.3167 194.29 99.05C193.857 98.7833 193.365 98.65 192.815 98.65C192.298 98.65 191.823 98.775 191.39 99.025C190.957 99.2583 190.607 99.5833 190.34 100C190.073 100.417 189.94 100.875 189.94 101.375V102.275ZM204.536 109.2C203.386 109.2 202.436 108.983 201.686 108.55C200.953 108.117 200.403 107.542 200.036 106.825C199.686 106.092 199.511 105.267 199.511 104.35V101.85C199.511 100.95 199.686 100.133 200.036 99.4C200.403 98.6667 200.953 98.0833 201.686 97.65C202.436 97.2167 203.378 97 204.511 97C205.244 97 205.886 97.0917 206.436 97.275C206.986 97.4583 207.411 97.6833 207.711 97.95C208.011 98.2167 208.161 98.475 208.161 98.725C208.161 98.8583 208.119 99.0083 208.036 99.175C207.969 99.325 207.869 99.4583 207.736 99.575C207.619 99.6917 207.478 99.75 207.311 99.75C207.144 99.75 206.961 99.675 206.761 99.525C206.578 99.375 206.319 99.2333 205.986 99.1C205.669 98.95 205.219 98.875 204.636 98.875C203.619 98.875 202.853 99.1417 202.336 99.675C201.836 100.208 201.586 100.933 201.586 101.85V104.35C201.586 105.267 201.836 105.992 202.336 106.525C202.853 107.058 203.628 107.325 204.661 107.325C205.261 107.325 205.728 107.25 206.061 107.1C206.394 106.933 206.653 106.783 206.836 106.65C207.036 106.5 207.228 106.425 207.411 106.425C207.594 106.425 207.753 106.483 207.886 106.6C208.019 106.7 208.119 106.825 208.186 106.975C208.269 107.125 208.311 107.275 208.311 107.425C208.311 107.675 208.153 107.942 207.836 108.225C207.519 108.492 207.078 108.725 206.511 108.925C205.944 109.108 205.286 109.2 204.536 109.2ZM214.485 109C213.135 109 212.102 108.7 211.385 108.1C210.685 107.5 210.335 106.542 210.335 105.225V92.35C210.335 92.1333 210.443 91.9583 210.66 91.825C210.877 91.6917 211.11 91.625 211.36 91.625C211.627 91.625 211.868 91.6917 212.085 91.825C212.302 91.9583 212.41 92.1333 212.41 92.35V97.15H215.56C215.76 97.15 215.91 97.2333 216.01 97.4C216.127 97.5667 216.185 97.7583 216.185 97.975C216.185 98.1917 216.127 98.3833 216.01 98.55C215.91 98.7 215.76 98.775 215.56 98.775H212.41V105.225C212.41 105.942 212.56 106.45 212.86 106.75C213.177 107.033 213.718 107.175 214.485 107.175H215.26C215.56 107.175 215.785 107.267 215.935 107.45C216.085 107.633 216.16 107.842 216.16 108.075C216.16 108.308 216.085 108.525 215.935 108.725C215.785 108.908 215.56 109 215.26 109H214.485ZM227.205 109C225.855 109 224.822 108.7 224.105 108.1C223.405 107.5 223.055 106.542 223.055 105.225V92.35C223.055 92.1333 223.163 91.9583 223.38 91.825C223.597 91.6917 223.83 91.625 224.08 91.625C224.347 91.625 224.588 91.6917 224.805 91.825C225.022 91.9583 225.13 92.1333 225.13 92.35V97.15H228.28C228.48 97.15 228.63 97.2333 228.73 97.4C228.847 97.5667 228.905 97.7583 228.905 97.975C228.905 98.1917 228.847 98.3833 228.73 98.55C228.63 98.7 228.48 98.775 228.28 98.775H225.13V105.225C225.13 105.942 225.28 106.45 225.58 106.75C225.897 107.033 226.438 107.175 227.205 107.175H227.98C228.28 107.175 228.505 107.267 228.655 107.45C228.805 107.633 228.88 107.842 228.88 108.075C228.88 108.308 228.805 108.525 228.655 108.725C228.505 108.908 228.28 109 227.98 109H227.205ZM231.87 109C231.57 109 231.32 108.925 231.12 108.775C230.936 108.608 230.845 108.433 230.845 108.25V90.725C230.845 90.5083 230.936 90.3333 231.12 90.2C231.32 90.0667 231.57 90 231.87 90C232.153 90 232.395 90.0667 232.595 90.2C232.811 90.3333 232.92 90.5083 232.92 90.725V98.9C233.186 98.4167 233.586 97.9833 234.12 97.6C234.67 97.2 235.353 97 236.17 97C236.97 97 237.703 97.225 238.37 97.675C239.036 98.1083 239.57 98.6833 239.97 99.4C240.37 100.117 240.57 100.917 240.57 101.8V108.25C240.57 108.5 240.461 108.692 240.245 108.825C240.028 108.942 239.786 109 239.52 109C239.27 109 239.036 108.942 238.82 108.825C238.603 108.692 238.495 108.5 238.495 108.25V101.8C238.495 101.317 238.361 100.85 238.095 100.4C237.828 99.95 237.478 99.5833 237.045 99.3C236.628 99.0167 236.161 98.875 235.645 98.875C235.195 98.875 234.761 99 234.345 99.25C233.928 99.4833 233.586 99.8167 233.32 100.25C233.053 100.667 232.92 101.183 232.92 101.8V108.25C232.92 108.433 232.811 108.608 232.595 108.775C232.395 108.925 232.153 109 231.87 109ZM248.518 109.2C247.435 109.2 246.476 109 245.643 108.6C244.81 108.183 244.151 107.617 243.668 106.9C243.185 106.167 242.943 105.317 242.943 104.35V101.725C242.943 100.875 243.168 100.092 243.618 99.375C244.085 98.6583 244.693 98.0833 245.443 97.65C246.193 97.2167 247.018 97 247.918 97C248.785 97 249.576 97.2 250.293 97.6C251.026 98 251.61 98.5417 252.043 99.225C252.493 99.9083 252.718 100.7 252.718 101.6C252.718 102.267 252.61 102.75 252.393 103.05C252.176 103.333 251.901 103.508 251.568 103.575C251.235 103.642 250.885 103.675 250.518 103.675H245.018V104.425C245.018 105.358 245.351 106.1 246.018 106.65C246.685 107.183 247.543 107.45 248.593 107.45C249.21 107.45 249.701 107.367 250.068 107.2C250.435 107.033 250.735 106.875 250.968 106.725C251.201 106.558 251.41 106.475 251.593 106.475C251.776 106.475 251.926 106.533 252.043 106.65C252.176 106.75 252.276 106.875 252.343 107.025C252.41 107.175 252.443 107.308 252.443 107.425C252.443 107.642 252.285 107.892 251.968 108.175C251.651 108.442 251.193 108.683 250.593 108.9C250.01 109.1 249.318 109.2 248.518 109.2ZM245.018 102.275H249.643C250.093 102.275 250.385 102.225 250.518 102.125C250.668 102.008 250.743 101.792 250.743 101.475C250.743 100.975 250.618 100.517 250.368 100.1C250.135 99.6667 249.801 99.3167 249.368 99.05C248.935 98.7833 248.443 98.65 247.893 98.65C247.376 98.65 246.901 98.775 246.468 99.025C246.035 99.2583 245.685 99.5833 245.418 100C245.151 100.417 245.018 100.875 245.018 101.375V102.275ZM264.869 109.2C263.952 109.2 263.119 108.975 262.369 108.525C261.619 108.075 261.019 107.483 260.569 106.75C260.119 106.017 259.894 105.233 259.894 104.4V97.9C259.894 97.7167 259.994 97.55 260.194 97.4C260.411 97.2333 260.661 97.15 260.944 97.15C261.227 97.15 261.469 97.2333 261.669 97.4C261.869 97.55 261.969 97.7167 261.969 97.9V104.4C261.969 104.883 262.094 105.35 262.344 105.8C262.611 106.25 262.961 106.617 263.394 106.9C263.827 107.183 264.311 107.325 264.844 107.325C265.377 107.325 265.861 107.183 266.294 106.9C266.727 106.617 267.069 106.25 267.319 105.8C267.569 105.35 267.694 104.883 267.694 104.4V97.875C267.694 97.675 267.802 97.5083 268.019 97.375C268.236 97.225 268.477 97.15 268.744 97.15C269.061 97.15 269.311 97.225 269.494 97.375C269.677 97.5083 269.769 97.675 269.769 97.875V104.4C269.769 105.25 269.544 106.042 269.094 106.775C268.661 107.492 268.069 108.075 267.319 108.525C266.569 108.975 265.752 109.2 264.869 109.2ZM273.642 109C273.342 109 273.092 108.925 272.892 108.775C272.708 108.608 272.617 108.433 272.617 108.25V97.875C272.617 97.6583 272.708 97.4833 272.892 97.35C273.092 97.2167 273.342 97.15 273.642 97.15C273.908 97.15 274.133 97.2167 274.317 97.35C274.5 97.4833 274.592 97.6583 274.592 97.875V98.9C274.858 98.4167 275.275 97.9833 275.842 97.6C276.408 97.2 277.108 97 277.942 97C278.742 97 279.475 97.225 280.142 97.675C280.808 98.1083 281.342 98.6833 281.742 99.4C282.142 100.117 282.342 100.917 282.342 101.8V108.25C282.342 108.5 282.233 108.692 282.017 108.825C281.8 108.942 281.558 109 281.292 109C281.042 109 280.808 108.942 280.592 108.825C280.375 108.692 280.267 108.5 280.267 108.25V101.8C280.267 101.317 280.133 100.85 279.867 100.4C279.617 99.95 279.275 99.5833 278.842 99.3C278.408 99.0167 277.933 98.875 277.417 98.875C276.967 98.875 276.533 99 276.117 99.25C275.7 99.4833 275.358 99.8167 275.092 100.25C274.825 100.667 274.692 101.183 274.692 101.8V108.25C274.692 108.433 274.583 108.608 274.367 108.775C274.167 108.925 273.925 109 273.642 109ZM290.29 109.2C289.207 109.2 288.249 109 287.415 108.6C286.582 108.183 285.924 107.617 285.44 106.9C284.957 106.167 284.715 105.317 284.715 104.35V101.725C284.715 100.875 284.94 100.092 285.39 99.375C285.857 98.6583 286.465 98.0833 287.215 97.65C287.965 97.2167 288.79 97 289.69 97C290.557 97 291.349 97.2 292.065 97.6C292.799 98 293.382 98.5417 293.815 99.225C294.265 99.9083 294.49 100.7 294.49 101.6C294.49 102.267 294.382 102.75 294.165 103.05C293.949 103.333 293.674 103.508 293.34 103.575C293.007 103.642 292.657 103.675 292.29 103.675H286.79V104.425C286.79 105.358 287.124 106.1 287.79 106.65C288.457 107.183 289.315 107.45 290.365 107.45C290.982 107.45 291.474 107.367 291.84 107.2C292.207 107.033 292.507 106.875 292.74 106.725C292.974 106.558 293.182 106.475 293.365 106.475C293.549 106.475 293.699 106.533 293.815 106.65C293.949 106.75 294.049 106.875 294.115 107.025C294.182 107.175 294.215 107.308 294.215 107.425C294.215 107.642 294.057 107.892 293.74 108.175C293.424 108.442 292.965 108.683 292.365 108.9C291.782 109.1 291.09 109.2 290.29 109.2ZM286.79 102.275H291.415C291.865 102.275 292.157 102.225 292.29 102.125C292.44 102.008 292.515 101.792 292.515 101.475C292.515 100.975 292.39 100.517 292.14 100.1C291.907 99.6667 291.574 99.3167 291.14 99.05C290.707 98.7833 290.215 98.65 289.665 98.65C289.149 98.65 288.674 98.775 288.24 99.025C287.807 99.2583 287.457 99.5833 287.19 100C286.924 100.417 286.79 100.875 286.79 101.375V102.275ZM297.162 109.2C297.012 109.2 296.837 109.142 296.637 109.025C296.437 108.925 296.262 108.8 296.112 108.65C295.962 108.483 295.887 108.325 295.887 108.175C295.887 108.025 295.937 107.883 296.037 107.75L299.237 103L296.137 98.45C296.103 98.4 296.07 98.3417 296.037 98.275C296.003 98.1917 295.987 98.1167 295.987 98.05C295.987 97.8833 296.062 97.725 296.212 97.575C296.362 97.4083 296.537 97.275 296.737 97.175C296.937 97.0583 297.128 97 297.312 97C297.395 97 297.487 97.025 297.587 97.075C297.703 97.1083 297.795 97.1833 297.862 97.3L300.637 101.6L303.437 97.3C303.487 97.2 303.562 97.125 303.662 97.075C303.778 97.025 303.887 97 303.987 97C304.153 97 304.337 97.05 304.537 97.15C304.753 97.25 304.928 97.3833 305.062 97.55C305.212 97.7167 305.287 97.8833 305.287 98.05C305.287 98.1667 305.237 98.3 305.137 98.45L302.012 103L305.262 107.75C305.295 107.8 305.32 107.867 305.337 107.95C305.37 108.017 305.387 108.092 305.387 108.175C305.387 108.308 305.312 108.458 305.162 108.625C305.028 108.792 304.862 108.925 304.662 109.025C304.478 109.142 304.287 109.2 304.087 109.2C303.987 109.2 303.887 109.175 303.787 109.125C303.687 109.075 303.603 109 303.537 108.9L300.637 104.475L297.762 108.9C297.695 109 297.603 109.075 297.487 109.125C297.37 109.175 297.262 109.2 297.162 109.2ZM308.456 114.725C308.173 114.725 307.931 114.642 307.731 114.475C307.548 114.325 307.456 114.158 307.456 113.975V97.875C307.456 97.6583 307.548 97.4833 307.731 97.35C307.931 97.2167 308.173 97.15 308.456 97.15C308.739 97.15 308.973 97.2167 309.156 97.35C309.339 97.4833 309.431 97.6583 309.431 97.875V98.9C309.714 98.4167 310.139 97.9833 310.706 97.6C311.273 97.2 311.964 97 312.781 97C313.614 97 314.373 97.225 315.056 97.675C315.739 98.1083 316.281 98.6833 316.681 99.4C317.081 100.117 317.281 100.917 317.281 101.8V104.35C317.281 105.183 317.073 105.975 316.656 106.725C316.256 107.458 315.723 108.058 315.056 108.525C314.389 108.975 313.656 109.2 312.856 109.2C312.106 109.2 311.431 109.008 310.831 108.625C310.231 108.225 309.798 107.767 309.531 107.25V113.975C309.531 114.158 309.423 114.325 309.206 114.475C309.006 114.642 308.756 114.725 308.456 114.725ZM312.356 107.325C312.856 107.325 313.323 107.183 313.756 106.9C314.189 106.617 314.539 106.242 314.806 105.775C315.073 105.308 315.206 104.833 315.206 104.35V101.8C315.206 101.317 315.073 100.85 314.806 100.4C314.539 99.95 314.189 99.5833 313.756 99.3C313.323 99.0167 312.839 98.875 312.306 98.875C311.856 98.875 311.414 99 310.981 99.25C310.564 99.4833 310.214 99.8167 309.931 100.25C309.664 100.667 309.531 101.183 309.531 101.8V105.025C309.531 105.242 309.648 105.533 309.881 105.9C310.131 106.267 310.464 106.6 310.881 106.9C311.314 107.183 311.806 107.325 312.356 107.325ZM324.91 109.2C323.826 109.2 322.868 109 322.035 108.6C321.201 108.183 320.543 107.617 320.06 106.9C319.576 106.167 319.335 105.317 319.335 104.35V101.725C319.335 100.875 319.56 100.092 320.01 99.375C320.476 98.6583 321.085 98.0833 321.835 97.65C322.585 97.2167 323.41 97 324.31 97C325.176 97 325.968 97.2 326.685 97.6C327.418 98 328.001 98.5417 328.435 99.225C328.885 99.9083 329.11 100.7 329.11 101.6C329.11 102.267 329.001 102.75 328.785 103.05C328.568 103.333 328.293 103.508 327.96 103.575C327.626 103.642 327.276 103.675 326.91 103.675H321.41V104.425C321.41 105.358 321.743 106.1 322.41 106.65C323.076 107.183 323.935 107.45 324.985 107.45C325.601 107.45 326.093 107.367 326.46 107.2C326.826 107.033 327.126 106.875 327.36 106.725C327.593 106.558 327.801 106.475 327.985 106.475C328.168 106.475 328.318 106.533 328.435 106.65C328.568 106.75 328.668 106.875 328.735 107.025C328.801 107.175 328.835 107.308 328.835 107.425C328.835 107.642 328.676 107.892 328.36 108.175C328.043 108.442 327.585 108.683 326.985 108.9C326.401 109.1 325.71 109.2 324.91 109.2ZM321.41 102.275H326.035C326.485 102.275 326.776 102.225 326.91 102.125C327.06 102.008 327.135 101.792 327.135 101.475C327.135 100.975 327.01 100.517 326.76 100.1C326.526 99.6667 326.193 99.3167 325.76 99.05C325.326 98.7833 324.835 98.65 324.285 98.65C323.768 98.65 323.293 98.775 322.86 99.025C322.426 99.2583 322.076 99.5833 321.81 100C321.543 100.417 321.41 100.875 321.41 101.375V102.275ZM336.006 109.2C334.856 109.2 333.906 108.983 333.156 108.55C332.422 108.117 331.872 107.542 331.506 106.825C331.156 106.092 330.981 105.267 330.981 104.35V101.85C330.981 100.95 331.156 100.133 331.506 99.4C331.872 98.6667 332.422 98.0833 333.156 97.65C333.906 97.2167 334.847 97 335.981 97C336.714 97 337.356 97.0917 337.906 97.275C338.456 97.4583 338.881 97.6833 339.181 97.95C339.481 98.2167 339.631 98.475 339.631 98.725C339.631 98.8583 339.589 99.0083 339.506 99.175C339.439 99.325 339.339 99.4583 339.206 99.575C339.089 99.6917 338.947 99.75 338.781 99.75C338.614 99.75 338.431 99.675 338.231 99.525C338.047 99.375 337.789 99.2333 337.456 99.1C337.139 98.95 336.689 98.875 336.106 98.875C335.089 98.875 334.322 99.1417 333.806 99.675C333.306 100.208 333.056 100.933 333.056 101.85V104.35C333.056 105.267 333.306 105.992 333.806 106.525C334.322 107.058 335.097 107.325 336.131 107.325C336.731 107.325 337.197 107.25 337.531 107.1C337.864 106.933 338.122 106.783 338.306 106.65C338.506 106.5 338.697 106.425 338.881 106.425C339.064 106.425 339.222 106.483 339.356 106.6C339.489 106.7 339.589 106.825 339.656 106.975C339.739 107.125 339.781 107.275 339.781 107.425C339.781 107.675 339.622 107.942 339.306 108.225C338.989 108.492 338.547 108.725 337.981 108.925C337.414 109.108 336.756 109.2 336.006 109.2ZM345.955 109C344.605 109 343.572 108.7 342.855 108.1C342.155 107.5 341.805 106.542 341.805 105.225V92.35C341.805 92.1333 341.913 91.9583 342.13 91.825C342.347 91.6917 342.58 91.625 342.83 91.625C343.097 91.625 343.338 91.6917 343.555 91.825C343.772 91.9583 343.88 92.1333 343.88 92.35V97.15H347.03C347.23 97.15 347.38 97.2333 347.48 97.4C347.597 97.5667 347.655 97.7583 347.655 97.975C347.655 98.1917 347.597 98.3833 347.48 98.55C347.38 98.7 347.23 98.775 347.03 98.775H343.88V105.225C343.88 105.942 344.03 106.45 344.33 106.75C344.647 107.033 345.188 107.175 345.955 107.175H346.73C347.03 107.175 347.255 107.267 347.405 107.45C347.555 107.633 347.63 107.842 347.63 108.075C347.63 108.308 347.555 108.525 347.405 108.725C347.255 108.908 347.03 109 346.73 109H345.955ZM354.475 109.2C353.392 109.2 352.433 109 351.6 108.6C350.767 108.183 350.108 107.617 349.625 106.9C349.142 106.167 348.9 105.317 348.9 104.35V101.725C348.9 100.875 349.125 100.092 349.575 99.375C350.042 98.6583 350.65 98.0833 351.4 97.65C352.15 97.2167 352.975 97 353.875 97C354.742 97 355.533 97.2 356.25 97.6C356.983 98 357.567 98.5417 358 99.225C358.45 99.9083 358.675 100.7 358.675 101.6C358.675 102.267 358.567 102.75 358.35 103.05C358.133 103.333 357.858 103.508 357.525 103.575C357.192 103.642 356.842 103.675 356.475 103.675H350.975V104.425C350.975 105.358 351.308 106.1 351.975 106.65C352.642 107.183 353.5 107.45 354.55 107.45C355.167 107.45 355.658 107.367 356.025 107.2C356.392 107.033 356.692 106.875 356.925 106.725C357.158 106.558 357.367 106.475 357.55 106.475C357.733 106.475 357.883 106.533 358 106.65C358.133 106.75 358.233 106.875 358.3 107.025C358.367 107.175 358.4 107.308 358.4 107.425C358.4 107.642 358.242 107.892 357.925 108.175C357.608 108.442 357.15 108.683 356.55 108.9C355.967 109.1 355.275 109.2 354.475 109.2ZM350.975 102.275H355.6C356.05 102.275 356.342 102.225 356.475 102.125C356.625 102.008 356.7 101.792 356.7 101.475C356.7 100.975 356.575 100.517 356.325 100.1C356.092 99.6667 355.758 99.3167 355.325 99.05C354.892 98.7833 354.4 98.65 353.85 98.65C353.333 98.65 352.858 98.775 352.425 99.025C351.992 99.2583 351.642 99.5833 351.375 100C351.108 100.417 350.975 100.875 350.975 101.375V102.275ZM364.946 109.2C364.163 109.2 363.429 108.975 362.746 108.525C362.079 108.058 361.538 107.458 361.121 106.725C360.721 105.975 360.521 105.183 360.521 104.35V101.8C360.521 100.917 360.721 100.117 361.121 99.4C361.538 98.6833 362.079 98.1083 362.746 97.675C363.429 97.225 364.179 97 364.996 97C365.796 97 366.471 97.2 367.021 97.6C367.588 97.9833 368.004 98.4167 368.271 98.9V90.725C368.271 90.5083 368.371 90.3333 368.571 90.2C368.788 90.0667 369.046 90 369.346 90C369.646 90 369.888 90.0667 370.071 90.2C370.254 90.3333 370.346 90.5083 370.346 90.725V108.25C370.346 108.433 370.254 108.608 370.071 108.775C369.888 108.925 369.646 109 369.346 109C369.079 109 368.846 108.925 368.646 108.775C368.463 108.608 368.371 108.433 368.371 108.25V107.25C368.121 107.767 367.679 108.225 367.046 108.625C366.413 109.008 365.713 109.2 364.946 109.2ZM365.446 107.325C365.979 107.325 366.454 107.183 366.871 106.9C367.304 106.6 367.646 106.267 367.896 105.9C368.146 105.533 368.271 105.242 368.271 105.025V101.8C368.271 101.183 368.129 100.667 367.846 100.25C367.579 99.8167 367.229 99.4833 366.796 99.25C366.363 99 365.921 98.875 365.471 98.875C364.938 98.875 364.454 99.0167 364.021 99.3C363.588 99.5833 363.238 99.95 362.971 100.4C362.721 100.85 362.596 101.317 362.596 101.8V104.35C362.596 104.833 362.721 105.308 362.971 105.775C363.238 106.242 363.588 106.617 364.021 106.9C364.454 107.183 364.929 107.325 365.446 107.325Z" fill="#CE9F26"/>
</svg>
