<svg width="234" height="730" viewBox="0 0 234 730" fill="none" xmlns="http://www.w3.org/2000/svg">
<path d="M73.4395 8.92163L137.08 540.123" stroke="#EC7EA5" stroke-opacity="0.25" stroke-width="5" stroke-dasharray="20 20"/>
<path d="M159.614 559.622L151.277 544.923L124.748 548.101L120.119 564.354L159.614 559.622Z" stroke="#EC7EA5" stroke-opacity="0.25" stroke-width="5"/>
<path d="M179.856 558.594L101.863 567.938M179.856 558.594L219.009 593.489M179.856 558.594L165.256 578.43M101.863 567.938L72.0602 611.094M101.863 567.938L122.409 583.563M72.0602 611.094L107.788 617.392M72.0602 611.094L159.22 720.772M107.788 617.392L185.781 608.048M107.788 617.392L159.22 720.772M107.788 617.392L122.409 583.563M185.781 608.048L219.009 593.489M185.781 608.048L159.22 720.772M185.781 608.048L165.256 578.43M219.009 593.489L159.22 720.772M165.256 578.43L122.409 583.563" stroke="#EC7EA5" stroke-opacity="0.25" stroke-width="5"/>
</svg>
