<svg width="495" height="566" viewBox="0 0 495 566" fill="none" xmlns="http://www.w3.org/2000/svg">
<path d="M426.507 479.008C426.507 483.197 422.798 488.142 413.565 493.283C404.588 498.282 391.398 502.882 374.842 506.782C341.776 514.57 295.945 519.415 245.215 519.415C194.485 519.415 148.654 514.57 115.589 506.782C99.0321 502.882 85.8426 498.282 76.865 493.283C67.6324 488.142 63.9229 483.197 63.9229 479.008C63.9229 474.818 67.6324 469.874 76.865 464.733C85.8426 459.733 99.0321 455.134 115.589 451.234C148.654 443.446 194.485 438.6 245.215 438.6C295.945 438.6 341.776 443.446 374.842 451.234C391.398 455.134 404.588 459.733 413.565 464.733C422.798 469.874 426.507 474.818 426.507 479.008Z" stroke="black" stroke-width="6"/>
<path d="M426.507 521.654C426.507 525.843 422.798 530.788 413.565 535.929C404.588 540.928 391.398 545.528 374.842 549.428C341.776 557.216 295.945 562.061 245.215 562.061C194.485 562.061 148.654 557.216 115.589 549.428C99.0321 545.528 85.8426 540.928 76.865 535.929C67.6324 530.788 63.9229 525.843 63.9229 521.654C63.9229 517.464 67.6324 512.52 76.865 507.379C85.8426 502.379 99.0321 497.78 115.589 493.88C148.654 486.092 194.485 481.246 245.215 481.246C295.945 481.246 341.776 486.092 374.842 493.88C391.398 497.78 404.588 502.379 413.565 507.379C422.798 512.52 426.507 517.464 426.507 521.654Z" stroke="black" stroke-width="6"/>
<circle cx="247.5" cy="247.5" r="244.5" fill="#FFF9C6" stroke="black" stroke-width="6"/>
<path d="M146.977 78.7886L159.236 111.918L159.635 112.996L160.713 113.395L193.843 125.654L160.713 137.913L159.635 138.312L159.236 139.39L146.977 172.519L134.718 139.39L134.32 138.312L133.241 137.913L100.112 125.654L133.241 113.395L134.32 112.996L134.718 111.918L146.977 78.7886Z" stroke="black" stroke-width="5"/>
<path d="M244.454 49.8501L250.131 65.1921L250.53 66.2702L251.608 66.6692L266.95 72.3462L251.608 78.0233L250.53 78.4222L250.131 79.5003L244.454 94.8424L238.777 79.5003L238.378 78.4222L237.3 78.0233L221.958 72.3462L237.3 66.6692L238.378 66.2702L238.777 65.1921L244.454 49.8501Z" stroke="black" stroke-width="5"/>
<path d="M383.054 109.25L388.731 124.592L389.13 125.67L390.208 126.069L405.55 131.746L390.208 137.423L389.13 137.822L388.731 138.9L383.054 154.242L377.376 138.9L376.978 137.822L375.899 137.423L360.557 131.746L375.899 126.069L376.978 125.67L377.376 124.592L383.054 109.25Z" stroke="black" stroke-width="5"/>
</svg>
