<svg width="348" height="546" viewBox="0 0 348 546" fill="none" xmlns="http://www.w3.org/2000/svg">
<path d="M297.17 25.6714L114.046 394.821" stroke="#EC7EA5" stroke-width="5" stroke-dasharray="20 20"/>
<path d="M93.6926 403.034L102.591 395.33L120.342 404.135L119.592 415.882L93.6926 403.034Z" stroke="#EC7EA5" stroke-width="5"/>
<path d="M78.2371 397.201L132.437 424.088M78.2371 397.201L40.8241 412.435M78.2371 397.201L83.7213 415.361M132.437 424.088L142.944 463.093M132.437 424.088L113.497 430.132M142.944 463.093L115.389 458.455M142.944 463.093L51.4091 520.231M115.389 458.455L61.1886 431.568M115.389 458.455L51.4091 520.231M115.389 458.455L113.497 430.132M61.1886 431.568L40.8241 412.435M61.1886 431.568L51.4091 520.231M61.1886 431.568L83.7213 415.361M40.8241 412.435L51.4091 520.231M83.7213 415.361L113.497 430.132" stroke="#EC7EA5" stroke-width="5"/>
</svg>
