<svg width="259" height="563" viewBox="0 0 259 563" fill="none" xmlns="http://www.w3.org/2000/svg">
<path d="M204.32 15.5527L93.3768 412.412" stroke="#EC7EA5" stroke-width="5" stroke-dasharray="20 20"/>
<path d="M74.9157 424.283L82.2186 415.052L101.302 420.386L102.759 432.066L74.9157 424.283Z" stroke="#EC7EA5" stroke-width="5"/>
<path d="M58.6411 421.439L116.91 437.728M58.6411 421.439L24.7323 443.394M58.6411 421.439L67.4212 438.256M116.91 437.728L134.518 474.085M116.91 437.728L99.4315 447.204M134.518 474.085L106.581 474.675M134.518 474.085L55.2675 547.316M106.581 474.675L48.3124 458.386M106.581 474.675L55.2675 547.316M106.581 474.675L99.4315 447.204M48.3124 458.386L24.7323 443.394M48.3124 458.386L55.2675 547.316M48.3124 458.386L67.4212 438.256M24.7323 443.394L55.2675 547.316M67.4212 438.256L99.4315 447.204" stroke="#EC7EA5" stroke-width="5"/>
</svg>
