<svg width="236" height="145" viewBox="0 0 236 145" fill="none" xmlns="http://www.w3.org/2000/svg">
<path d="M54.416 86V54.464H72.32V57.488H57.968V67.904H70.064V70.88H57.968V82.976H72.8V86H54.416ZM79.2519 86V62.72H82.1319L82.4199 66.176H82.5639C83.6839 65.024 84.8679 64.064 86.1159 63.296C87.3959 62.528 88.8199 62.144 90.3879 62.144C92.8519 62.144 94.6439 62.912 95.7639 64.448C96.9159 65.984 97.4919 68.24 97.4919 71.216V86H93.9879V71.648C93.9879 69.408 93.6199 67.776 92.8839 66.752C92.1799 65.728 91.0119 65.216 89.3799 65.216C88.1639 65.216 87.0599 65.536 86.0679 66.176C85.0759 66.784 83.9559 67.712 82.7079 68.96V86H79.2519ZM112.37 86.576C109.97 86.576 108.29 85.872 107.33 84.464C106.402 83.056 105.938 81.232 105.938 78.992V65.6H102.434V62.96L106.082 62.72L106.514 56.144H109.442V62.72H115.826V65.6H109.442V79.088C109.442 80.528 109.698 81.664 110.21 82.496C110.754 83.296 111.73 83.696 113.138 83.696C113.554 83.696 114.002 83.632 114.482 83.504C114.994 83.376 115.442 83.232 115.826 83.072L116.546 85.712C115.906 85.936 115.218 86.128 114.482 86.288C113.746 86.48 113.042 86.576 112.37 86.576ZM121.205 86V62.72H124.085L124.373 66.992H124.517C125.317 65.52 126.277 64.352 127.397 63.488C128.549 62.592 129.797 62.144 131.141 62.144C131.621 62.144 132.053 62.192 132.437 62.288C132.821 62.352 133.189 62.464 133.541 62.624L132.869 65.696C132.485 65.568 132.133 65.472 131.813 65.408C131.525 65.344 131.141 65.312 130.661 65.312C129.669 65.312 128.629 65.728 127.541 66.56C126.453 67.36 125.493 68.784 124.661 70.832V86H121.205ZM137.566 96.176C137.054 96.176 136.574 96.128 136.126 96.032C135.678 95.936 135.278 95.824 134.926 95.696L135.598 92.864C135.854 92.96 136.142 93.04 136.462 93.104C136.814 93.2 137.134 93.248 137.422 93.248C138.766 93.248 139.886 92.736 140.782 91.712C141.678 90.72 142.366 89.456 142.846 87.92L143.422 86.144L134.014 62.72H137.614L142.606 76.064C142.99 77.056 143.374 78.128 143.758 79.28C144.174 80.4 144.558 81.504 144.91 82.592H145.102C145.454 81.536 145.806 80.448 146.158 79.328C146.51 78.176 146.83 77.088 147.118 76.064L151.486 62.72H154.894L146.062 88.16C145.518 89.632 144.878 90.976 144.142 92.192C143.406 93.408 142.494 94.368 141.406 95.072C140.35 95.808 139.07 96.176 137.566 96.176ZM167.43 86V83.072H174.486V59.792H168.918V57.536C170.294 57.312 171.494 57.024 172.518 56.672C173.542 56.288 174.47 55.856 175.302 55.376H177.99V83.072H184.374V86H167.43Z" fill="#F0C966"/>
<path d="M126.365 40.9002L135.659 48.8761L143.635 39.5818L134.341 31.6058L126.365 40.9002ZM126.34 105.741L135 114.401L143.66 105.741L135 97.0807L126.34 105.741ZM126.365 40.9002L135.659 48.8761L143.635 39.5818L134.341 31.6058L126.365 40.9002ZM126.34 105.741L135 114.401L143.66 105.741L135 97.0807L126.34 105.741ZM135.114 41.7366C167.84 39.2384 190.44 40.5176 204.808 45.6533C211.958 48.2092 216.974 51.6874 220.21 56.0419C223.439 60.3863 225 65.74 225 72.2409H228C228 65.2418 226.311 59.2204 222.618 54.2522C218.933 49.2942 213.354 45.5223 205.817 42.8283C190.81 37.464 167.66 36.2434 134.886 38.7453L135.114 41.7366ZM225 72.2409C225 78.746 223.469 83.8649 220.3 87.946C217.116 92.0449 212.159 95.2543 205.015 97.6967C190.659 102.605 168.026 104.241 135 104.241V107.241C167.974 107.241 191.091 105.627 205.985 100.535C213.466 97.9777 219.009 94.4996 222.669 89.786C226.344 85.0545 228 79.2359 228 72.2409H225ZM135.114 41.7366C167.84 39.2384 190.44 40.5176 204.808 45.6533C211.958 48.2092 216.974 51.6874 220.21 56.0419C223.439 60.3863 225 65.74 225 72.2409H228C228 65.2418 226.311 59.2204 222.618 54.2522C218.933 49.2942 213.354 45.5223 205.817 42.8283C190.81 37.464 167.66 36.2434 134.886 38.7453L135.114 41.7366ZM225 72.2409C225 78.746 223.469 83.8649 220.3 87.946C217.116 92.0449 212.159 95.2543 205.015 97.6967C190.659 102.605 168.026 104.241 135 104.241V107.241C167.974 107.241 191.091 105.627 205.985 100.535C213.466 97.9777 219.009 94.4996 222.669 89.786C226.344 85.0545 228 79.2359 228 72.2409H225Z" fill="#CDAAD9" fill-opacity="0.95"/>
<path d="M111.135 40.9002L101.841 48.8761L93.8649 39.5818L103.159 31.6058L111.135 40.9002ZM111.16 105.741L102.5 114.401L93.8397 105.741L102.5 97.0807L111.16 105.741ZM111.135 40.9002L101.841 48.8761L93.8649 39.5818L103.159 31.6058L111.135 40.9002ZM111.16 105.741L102.5 114.401L93.8397 105.741L102.5 97.0807L111.16 105.741ZM102.386 41.7366C69.6597 39.2384 47.06 40.5176 32.6924 45.6533C25.5417 48.2092 20.5265 51.6874 17.2898 56.0419C14.0607 60.3863 12.5 65.74 12.5 72.2409H9.5C9.5 65.2418 11.1893 59.2204 14.8821 54.2522C18.5673 49.2942 24.1458 45.5223 31.6826 42.8283C46.69 37.464 69.8403 36.2434 102.614 38.7453L102.386 41.7366ZM12.5 72.2409C12.5 78.746 14.031 83.8649 17.2003 87.946C20.3836 92.0449 25.3414 95.2543 32.4852 97.6967C46.8411 102.605 69.4742 104.241 102.5 104.241V107.241C69.5258 107.241 46.4089 105.627 31.5148 100.535C24.0336 97.9777 18.4914 94.4996 14.8309 89.786C11.1565 85.0545 9.5 79.2359 9.5 72.2409H12.5ZM102.386 41.7366C69.6597 39.2384 47.06 40.5176 32.6924 45.6533C25.5417 48.2092 20.5265 51.6874 17.2898 56.0419C14.0607 60.3863 12.5 65.74 12.5 72.2409H9.5C9.5 65.2418 11.1893 59.2204 14.8821 54.2522C18.5673 49.2942 24.1458 45.5223 31.6826 42.8283C46.69 37.464 69.8403 36.2434 102.614 38.7453L102.386 41.7366ZM12.5 72.2409C12.5 78.746 14.031 83.8649 17.2003 87.946C20.3836 92.0449 25.3414 95.2543 32.4852 97.6967C46.8411 102.605 69.4742 104.241 102.5 104.241V107.241C69.5258 107.241 46.4089 105.627 31.5148 100.535C24.0336 97.9777 18.4914 94.4996 14.8309 89.786C11.1565 85.0545 9.5 79.2359 9.5 72.2409H12.5Z" fill="#CDAAD9" fill-opacity="0.95"/>
<path d="M198 72.5L207.75 78.1292L207.75 66.8708L198 72.5Z" fill="#CC94DE" fill-opacity="0.65"/>
<path d="M198 72.5L207.75 78.1292L207.75 66.8708L198 72.5Z" fill="#CC94DE" fill-opacity="0.65"/>
<path d="M39 72.5L29.25 78.1292L29.25 66.8708L39 72.5Z" fill="#CC94DE" fill-opacity="0.65"/>
<path d="M39 72.5L29.25 78.1292L29.25 66.8708L39 72.5Z" fill="#CC94DE" fill-opacity="0.65"/>
<path d="M104.5 13L103.6 14.2L104.5 13ZM87.8416 1.32918C87.4712 0.588212 86.5701 0.287875 85.8292 0.658359C85.0882 1.02884 84.7879 1.92985 85.1584 2.67082L87.8416 1.32918ZM32 27.5H34.875V24.5H32V27.5ZM40.625 27.5H46.375V24.5H40.625V27.5ZM52.125 27.5H57.875V24.5H52.125V27.5ZM63.625 27.5H69.375V24.5H63.625V27.5ZM75.125 27.5H80.875V24.5H75.125V27.5ZM86.625 27.5H92.375V24.5H86.625V27.5ZM98.125 27.5H101V24.5H98.125V27.5ZM101 27.5C101.957 27.5 102.874 27.3796 103.734 27.1519L102.966 24.2519C102.364 24.4113 101.705 24.5 101 24.5V27.5ZM108.467 24.1092C109.672 22.5511 110.245 20.5783 109.92 18.4946L106.956 18.9565C107.148 20.1877 106.819 21.3364 106.094 22.2736L108.467 24.1092ZM107.37 13.5583C106.805 12.95 106.149 12.3621 105.4 11.8L103.6 14.2C104.219 14.664 104.739 15.1333 105.171 15.5988L107.37 13.5583ZM105.4 11.8C104.548 11.1607 103.74 10.6201 102.972 10.1616L101.434 12.7377C102.106 13.1384 102.826 13.6193 103.6 14.2L105.4 11.8ZM97.4476 7.90361C96.3045 7.64389 95.2519 7.51951 94.4341 7.39354C93.5802 7.26203 92.9288 7.12342 92.3253 6.85881L91.1207 9.60638C92.0966 10.0342 93.0671 10.2184 93.9774 10.3586C94.9237 10.5043 95.7775 10.6006 96.7829 10.829L97.4476 7.90361ZM89.1152 3.62841C88.7149 2.98852 88.2922 2.23031 87.8416 1.32918L85.1584 2.67082C85.6425 3.63911 86.1112 4.48316 86.5719 5.21949L89.1152 3.62841Z" fill="#CDAAD9" fill-opacity="0.95"/>
<path d="M131.01 13L131.91 14.2L131.01 13ZM147.668 1.32918C148.038 0.588212 148.939 0.287875 149.68 0.658359C150.421 1.02884 150.722 1.92985 150.351 2.67082L147.668 1.32918ZM203.51 27.5H200.635V24.5H203.51V27.5ZM194.885 27.5H189.135V24.5H194.885V27.5ZM183.385 27.5H177.635V24.5H183.385V27.5ZM171.885 27.5H166.135V24.5H171.885V27.5ZM160.385 27.5H154.635V24.5H160.385V27.5ZM148.885 27.5H143.135V24.5H148.885V27.5ZM137.385 27.5H134.51V24.5H137.385V27.5ZM134.51 27.5C133.553 27.5 132.636 27.3796 131.776 27.1519L132.544 24.2519C133.146 24.4113 133.805 24.5 134.51 24.5V27.5ZM127.043 24.1092C125.838 22.5511 125.265 20.5783 125.59 18.4946L128.554 18.9565C128.362 20.1877 128.691 21.3364 129.416 22.2736L127.043 24.1092ZM128.14 13.5583C128.704 12.95 129.36 12.3621 130.11 11.8L131.91 14.2C131.291 14.664 130.771 15.1333 130.339 15.5988L128.14 13.5583ZM130.11 11.8C130.962 11.1607 131.769 10.6201 132.538 10.1616L134.075 12.7377C133.404 13.1384 132.684 13.6193 131.91 14.2L130.11 11.8ZM138.062 7.90361C139.205 7.64389 140.258 7.51951 141.076 7.39354C141.929 7.26203 142.581 7.12342 143.184 6.85881L144.389 9.60638C143.413 10.0342 142.443 10.2184 141.532 10.3586C140.586 10.5043 139.732 10.6006 138.727 10.829L138.062 7.90361ZM146.394 3.62841C146.795 2.98852 147.217 2.23031 147.668 1.32918L150.351 2.67082C149.867 3.63911 149.398 4.48316 148.938 5.21949L146.394 3.62841Z" fill="#CDAAD9" fill-opacity="0.95"/>
<path d="M131.01 13L131.91 14.2L131.01 13ZM147.668 1.32918C148.038 0.588212 148.939 0.287875 149.68 0.658359C150.421 1.02884 150.722 1.92985 150.351 2.67082L147.668 1.32918ZM203.51 27.5H200.635V24.5H203.51V27.5ZM194.885 27.5H189.135V24.5H194.885V27.5ZM183.385 27.5H177.635V24.5H183.385V27.5ZM171.885 27.5H166.135V24.5H171.885V27.5ZM160.385 27.5H154.635V24.5H160.385V27.5ZM148.885 27.5H143.135V24.5H148.885V27.5ZM137.385 27.5H134.51V24.5H137.385V27.5ZM134.51 27.5C133.553 27.5 132.636 27.3796 131.776 27.1519L132.544 24.2519C133.146 24.4113 133.805 24.5 134.51 24.5V27.5ZM127.043 24.1092C125.838 22.5511 125.265 20.5783 125.59 18.4946L128.554 18.9565C128.362 20.1877 128.691 21.3364 129.416 22.2736L127.043 24.1092ZM128.14 13.5583C128.704 12.95 129.36 12.3621 130.11 11.8L131.91 14.2C131.291 14.664 130.771 15.1333 130.339 15.5988L128.14 13.5583ZM130.11 11.8C130.962 11.1607 131.769 10.6201 132.538 10.1616L134.075 12.7377C133.404 13.1384 132.684 13.6193 131.91 14.2L130.11 11.8ZM138.062 7.90361C139.205 7.64389 140.258 7.51951 141.076 7.39354C141.929 7.26203 142.581 7.12342 143.184 6.85881L144.389 9.60638C143.413 10.0342 142.443 10.2184 141.532 10.3586C140.586 10.5043 139.732 10.6006 138.727 10.829L138.062 7.90361ZM146.394 3.62841C146.795 2.98852 147.217 2.23031 147.668 1.32918L150.351 2.67082C149.867 3.63911 149.398 4.48316 148.938 5.21949L146.394 3.62841Z" fill="#CDAAD9" fill-opacity="0.95"/>
<path d="M104.5 132L103.6 130.8L104.5 132ZM87.8416 143.671C87.4712 144.412 86.5701 144.712 85.8292 144.342C85.0882 143.971 84.7879 143.07 85.1584 142.329L87.8416 143.671ZM32 117.5H34.875V120.5H32V117.5ZM40.625 117.5H46.375V120.5H40.625V117.5ZM52.125 117.5H57.875V120.5H52.125V117.5ZM63.625 117.5H69.375V120.5H63.625V117.5ZM75.125 117.5H80.875V120.5H75.125V117.5ZM86.625 117.5H92.375V120.5H86.625V117.5ZM98.125 117.5H101V120.5H98.125V117.5ZM101 117.5C101.957 117.5 102.874 117.62 103.734 117.848L102.966 120.748C102.364 120.589 101.705 120.5 101 120.5V117.5ZM108.467 120.891C109.672 122.449 110.245 124.422 109.92 126.505L106.956 126.044C107.148 124.812 106.819 123.664 106.094 122.726L108.467 120.891ZM107.37 131.442C106.805 132.05 106.149 132.638 105.4 133.2L103.6 130.8C104.219 130.336 104.739 129.867 105.171 129.401L107.37 131.442ZM105.4 133.2C104.548 133.839 103.74 134.38 102.972 134.838L101.434 132.262C102.106 131.862 102.826 131.381 103.6 130.8L105.4 133.2ZM97.4476 137.096C96.3045 137.356 95.2519 137.48 94.4341 137.606C93.5802 137.738 92.9288 137.877 92.3253 138.141L91.1207 135.394C92.0966 134.966 93.0671 134.782 93.9774 134.641C94.9237 134.496 95.7775 134.399 96.7829 134.171L97.4476 137.096ZM89.1152 141.372C88.7149 142.011 88.2922 142.77 87.8416 143.671L85.1584 142.329C85.6425 141.361 86.1112 140.517 86.5719 139.781L89.1152 141.372Z" fill="#CDAAD9" fill-opacity="0.95"/>
<path d="M131.01 132L131.91 130.8L131.01 132ZM147.668 143.671C148.038 144.412 148.939 144.712 149.68 144.342C150.421 143.971 150.722 143.07 150.351 142.329L147.668 143.671ZM203.51 117.5H200.635V120.5H203.51V117.5ZM194.885 117.5H189.135V120.5H194.885V117.5ZM183.385 117.5H177.635V120.5H183.385V117.5ZM171.885 117.5H166.135V120.5H171.885V117.5ZM160.385 117.5H154.635V120.5H160.385V117.5ZM148.885 117.5H143.135V120.5H148.885V117.5ZM137.385 117.5H134.51V120.5H137.385V117.5ZM134.51 117.5C133.553 117.5 132.636 117.62 131.776 117.848L132.544 120.748C133.146 120.589 133.805 120.5 134.51 120.5V117.5ZM127.043 120.891C125.838 122.449 125.265 124.422 125.59 126.505L128.554 126.044C128.362 124.812 128.691 123.664 129.416 122.726L127.043 120.891ZM128.14 131.442C128.704 132.05 129.36 132.638 130.11 133.2L131.91 130.8C131.291 130.336 130.771 129.867 130.339 129.401L128.14 131.442ZM130.11 133.2C130.962 133.839 131.769 134.38 132.538 134.838L134.075 132.262C133.404 131.862 132.684 131.381 131.91 130.8L130.11 133.2ZM138.062 137.096C139.205 137.356 140.258 137.48 141.076 137.606C141.929 137.738 142.581 137.877 143.184 138.141L144.389 135.394C143.413 134.966 142.443 134.782 141.532 134.641C140.586 134.496 139.732 134.399 138.727 134.171L138.062 137.096ZM146.394 141.372C146.795 142.011 147.217 142.77 147.668 143.671L150.351 142.329C149.867 141.361 149.398 140.517 148.938 139.781L146.394 141.372Z" fill="#CDAAD9" fill-opacity="0.95"/>
<path d="M19.4999 39.5C-4 50.5 -3.50005 93.5 19.4999 104" stroke="#CDAAD9" stroke-opacity="0.95" stroke-width="3" stroke-dasharray="6 6"/>
<path d="M217 40C240.5 51 240 94 217 104.5" stroke="#CDAAD9" stroke-opacity="0.95" stroke-width="3" stroke-dasharray="6 6"/>
</svg>
