<svg width="406" height="368" viewBox="0 0 406 368" fill="none" xmlns="http://www.w3.org/2000/svg">
<path d="M29.3148 103.5H277.899C291.698 103.5 303.148 113.62 304.053 127.206C305.812 153.613 306.797 196.292 299.719 237.194C292.617 278.231 277.52 316.762 247.719 335.777C217.27 355.205 186.446 364.723 155.663 364.658C124.877 364.594 93.9596 354.945 63.3302 335.766C33.3205 316.975 17.5292 278.649 9.63888 237.737C1.77363 196.956 1.89018 154.294 3.12453 127.712C3.76537 113.911 15.3118 103.5 29.3148 103.5Z" stroke="black" stroke-width="5"/>
<path d="M296.579 257.129C297.388 257.376 298.377 257.664 299.514 257.969C302.822 258.857 307.418 259.897 312.555 260.5C322.665 261.686 335.602 261.266 344.632 253.741C365.499 236.351 365.499 201.731 344.632 184.341C335.697 176.896 324.947 176.135 316.705 177.11C312.563 177.599 308.97 178.535 306.412 179.347C306.187 179.418 305.969 179.489 305.759 179.558V158.65C305.882 158.601 306.011 158.55 306.148 158.496C307.389 158.009 309.203 157.33 311.47 156.573C316.01 155.06 322.339 153.246 329.508 152.039C343.962 149.605 361.264 149.727 374.364 159.018C393.198 172.375 402.756 195.381 402.756 218.604C402.756 241.827 393.198 264.832 374.364 278.19C367.908 282.768 359.38 285.078 349.994 285.858C340.63 286.636 330.617 285.874 321.378 284.488C312.151 283.104 303.769 281.109 297.691 279.457C294.654 278.632 292.198 277.894 290.505 277.364C290.407 277.333 290.311 277.303 290.217 277.274L296.579 257.129Z" stroke="black" stroke-width="5"/>
<path d="M85.7594 2C85.7594 2 73.0403 17.3147 75.2601 30.5C77.5844 44.3062 92.1259 45.0456 93.2601 59C94.2125 70.7177 80.7594 80.5 80.7594 80.5" stroke="black" stroke-width="5"/>
<path d="M155.519 2C155.519 2 142.8 17.3147 145.02 30.5C147.344 44.3062 161.886 45.0456 163.02 59C163.972 70.7177 150.519 80.5 150.519 80.5" stroke="black" stroke-width="5"/>
<path d="M225.519 2C225.519 2 212.8 17.3147 215.02 30.5C217.344 44.3062 231.886 45.0456 233.02 59C233.972 70.7177 220.519 80.5 220.519 80.5" stroke="black" stroke-width="5"/>
</svg>
