<svg width="313" height="293" viewBox="0 0 313 293" fill="none" xmlns="http://www.w3.org/2000/svg">
<g id="Group 76">
<path id="Vector 64" d="M36.5838 155.995C36.7794 148.688 30.3554 139.531 26.2214 140.502" stroke="white" stroke-width="5"/>
<path id="Vector 63" d="M261.613 148.689C265.253 146.672 269.489 143.934 273.507 140.733M273.507 140.733C285.782 130.955 296.025 116.857 281.053 105.788C261.181 91.0959 247.139 103.657 242.602 111.774C241.294 112.649 237.134 114.595 230.96 115.376C223.241 116.353 172.087 108.712 161.751 110.244C151.415 111.776 78.5743 120.434 69.889 119.965C61.2037 119.496 43.4858 116.697 21.5845 127.758C4.06357 136.608 10.1693 144.961 15.4123 148.032C20.9977 149.677 30.671 156.183 24.6804 169.04C17.1921 185.111 41.7281 184.246 52.479 183.333C61.0797 182.604 70.5157 169.176 74.1586 162.554C83.2975 159.232 107.572 152.343 131.556 151.369C155.54 150.395 202.221 155.427 222.564 158.065M273.507 140.733C277.941 144.744 286.857 154.407 287.047 160.977C287.285 169.189 271.041 184.24 251.31 171.726C244.655 167.505 234.11 162.655 222.564 158.065M164.83 140.773C173.327 141.034 199.877 149.047 222.564 158.065" stroke="white" stroke-width="5"/>
</g>
</svg>
