<svg width="524" height="198" viewBox="0 0 524 198" fill="none" xmlns="http://www.w3.org/2000/svg">
<path d="M165.274 62.5369C154.774 50.8703 114.774 -3.53954 92.7736 2.46046M92.7736 2.46046C65.2736 9.96046 23.2736 121.961 3.77356 146.961C-15.7264 171.961 131.274 200.461 165.274 195.461M92.7736 2.46046C89.7736 13.7938 87.1736 41.9606 100.774 63.9606M165.274 195.461C192.474 191.461 192.274 161.461 188.774 146.961M165.274 195.461C165.274 187.627 168.297 182.461 165.274 162.461C164.458 157.067 163.1 151.91 161.315 146.961M100.774 63.9606C115.641 88.0115 148.867 112.445 161.315 146.961M100.774 63.9606L351.274 58.4317M161.315 146.961H325.774M325.774 146.961C330.94 163.127 344.674 195.461 358.274 195.461M325.774 146.961H369.274M358.274 195.461C371.874 195.461 371.274 163.127 369.274 146.961M358.274 195.461C375.44 195.461 414.074 192.76 431.274 181.96C452.774 168.459 520.774 135.461 522.274 122.46C523.774 109.459 515.274 92.46 482.774 57.4606C456.774 29.461 396.274 13.7937 369.274 9.45996M369.274 146.961H393.774L395.274 57.4606L373.274 57.9461M351.274 58.4317C351.774 41.2744 356.074 7.45996 369.274 9.45996M351.274 58.4317L373.274 57.9461M369.274 9.45996C382.474 11.46 377.44 42.6174 373.274 57.9461" stroke="#CE9F26" stroke-width="3"/>
<path d="M150.725 115C150.492 115 150.275 114.942 150.075 114.825C149.875 114.692 149.775 114.5 149.775 114.25V97.45C149.775 97.2 149.883 97.0167 150.1 96.9C150.333 96.7833 150.575 96.725 150.825 96.725C151.092 96.725 151.333 96.7833 151.55 96.9C151.767 97.0167 151.875 97.2 151.875 97.45V113.1H158.725C158.958 113.1 159.125 113.2 159.225 113.4C159.342 113.583 159.4 113.8 159.4 114.05C159.4 114.283 159.342 114.5 159.225 114.7C159.125 114.9 158.958 115 158.725 115H150.725ZM165.879 115.2C164.796 115.2 163.838 115 163.004 114.6C162.171 114.183 161.513 113.617 161.029 112.9C160.546 112.167 160.304 111.317 160.304 110.35V107.725C160.304 106.875 160.529 106.092 160.979 105.375C161.446 104.658 162.054 104.083 162.804 103.65C163.554 103.217 164.379 103 165.279 103C166.146 103 166.938 103.2 167.654 103.6C168.388 104 168.971 104.542 169.404 105.225C169.854 105.908 170.079 106.7 170.079 107.6C170.079 108.267 169.971 108.75 169.754 109.05C169.538 109.333 169.263 109.508 168.929 109.575C168.596 109.642 168.246 109.675 167.879 109.675H162.379V110.425C162.379 111.358 162.713 112.1 163.379 112.65C164.046 113.183 164.904 113.45 165.954 113.45C166.571 113.45 167.063 113.367 167.429 113.2C167.796 113.033 168.096 112.875 168.329 112.725C168.563 112.558 168.771 112.475 168.954 112.475C169.138 112.475 169.288 112.533 169.404 112.65C169.538 112.75 169.638 112.875 169.704 113.025C169.771 113.175 169.804 113.308 169.804 113.425C169.804 113.642 169.646 113.892 169.329 114.175C169.013 114.442 168.554 114.683 167.954 114.9C167.371 115.1 166.679 115.2 165.879 115.2ZM162.379 108.275H167.004C167.454 108.275 167.746 108.225 167.879 108.125C168.029 108.008 168.104 107.792 168.104 107.475C168.104 106.975 167.979 106.517 167.729 106.1C167.496 105.667 167.163 105.317 166.729 105.05C166.296 104.783 165.804 104.65 165.254 104.65C164.738 104.65 164.263 104.775 163.829 105.025C163.396 105.258 163.046 105.583 162.779 106C162.513 106.417 162.379 106.875 162.379 107.375V108.275ZM176.475 115C175.125 115 174.092 114.7 173.375 114.1C172.675 113.5 172.325 112.542 172.325 111.225V98.35C172.325 98.1333 172.434 97.9583 172.65 97.825C172.867 97.6917 173.1 97.625 173.35 97.625C173.617 97.625 173.859 97.6917 174.075 97.825C174.292 97.9583 174.4 98.1333 174.4 98.35V103.15H177.55C177.75 103.15 177.9 103.233 178 103.4C178.117 103.567 178.175 103.758 178.175 103.975C178.175 104.192 178.117 104.383 178 104.55C177.9 104.7 177.75 104.775 177.55 104.775H174.4V111.225C174.4 111.942 174.55 112.45 174.85 112.75C175.167 113.033 175.709 113.175 176.475 113.175H177.25C177.55 113.175 177.775 113.267 177.925 113.45C178.075 113.633 178.15 113.842 178.15 114.075C178.15 114.308 178.075 114.525 177.925 114.725C177.775 114.908 177.55 115 177.25 115H176.475ZM189.42 120.725C188.437 120.725 187.553 120.583 186.77 120.3C185.987 120.033 185.362 119.642 184.895 119.125C184.445 118.625 184.22 118.033 184.22 117.35C184.22 116.65 184.42 116.075 184.82 115.625C185.237 115.192 185.712 114.858 186.245 114.625C185.878 114.492 185.57 114.3 185.32 114.05C185.087 113.783 184.97 113.417 184.97 112.95C184.97 112.483 185.087 112.117 185.32 111.85C185.553 111.567 185.853 111.317 186.22 111.1C185.77 110.733 185.42 110.283 185.17 109.75C184.92 109.2 184.795 108.6 184.795 107.95V107.125C184.795 106.308 184.978 105.592 185.345 104.975C185.712 104.358 186.228 103.875 186.895 103.525C187.578 103.175 188.37 103 189.27 103C189.853 103 190.387 103.092 190.87 103.275C191.37 103.442 191.803 103.675 192.17 103.975C192.437 103.425 192.712 103.017 192.995 102.75C193.295 102.483 193.587 102.35 193.87 102.35C194.17 102.35 194.395 102.433 194.545 102.6C194.695 102.767 194.77 102.942 194.77 103.125C194.77 103.258 194.728 103.375 194.645 103.475C194.562 103.575 194.462 103.65 194.345 103.7C194.162 103.75 193.945 103.85 193.695 104C193.462 104.15 193.237 104.4 193.02 104.75C193.27 105.067 193.453 105.433 193.57 105.85C193.703 106.25 193.77 106.675 193.77 107.125V107.95C193.77 108.733 193.578 109.442 193.195 110.075C192.812 110.708 192.278 111.208 191.595 111.575C190.912 111.925 190.128 112.1 189.245 112.1C188.562 112.1 187.953 111.975 187.42 111.725C187.253 111.825 187.103 111.942 186.97 112.075C186.837 112.192 186.77 112.358 186.77 112.575C186.77 112.925 186.953 113.175 187.32 113.325C187.703 113.475 188.187 113.583 188.77 113.65C189.353 113.717 189.97 113.792 190.62 113.875C191.27 113.958 191.887 114.108 192.47 114.325C193.053 114.525 193.528 114.842 193.895 115.275C194.278 115.708 194.47 116.308 194.47 117.075C194.47 117.892 194.245 118.567 193.795 119.1C193.345 119.65 192.737 120.058 191.97 120.325C191.22 120.592 190.37 120.725 189.42 120.725ZM189.37 119.275C190.32 119.275 191.07 119.075 191.62 118.675C192.17 118.292 192.445 117.775 192.445 117.125C192.445 116.658 192.303 116.292 192.02 116.025C191.737 115.775 191.37 115.583 190.92 115.45C190.47 115.333 189.995 115.25 189.495 115.2C189.012 115.167 188.57 115.125 188.17 115.075C187.637 115.242 187.17 115.492 186.77 115.825C186.387 116.158 186.195 116.592 186.195 117.125C186.195 117.775 186.487 118.292 187.07 118.675C187.653 119.075 188.42 119.275 189.37 119.275ZM189.295 110.675C190.062 110.675 190.662 110.417 191.095 109.9C191.528 109.383 191.745 108.733 191.745 107.95V107.125C191.745 106.358 191.528 105.717 191.095 105.2C190.662 104.683 190.053 104.425 189.27 104.425C188.487 104.425 187.878 104.683 187.445 105.2C187.028 105.717 186.82 106.358 186.82 107.125V107.925C186.82 108.708 187.037 109.367 187.47 109.9C187.903 110.417 188.512 110.675 189.295 110.675ZM200.996 115.2C200.113 115.2 199.296 114.975 198.546 114.525C197.796 114.058 197.196 113.458 196.746 112.725C196.296 111.992 196.071 111.2 196.071 110.35V107.8C196.071 106.95 196.288 106.167 196.721 105.45C197.171 104.717 197.771 104.125 198.521 103.675C199.271 103.225 200.096 103 200.996 103C201.879 103 202.696 103.225 203.446 103.675C204.196 104.108 204.796 104.683 205.246 105.4C205.713 106.117 205.946 106.917 205.946 107.8V110.35C205.946 111.183 205.713 111.975 205.246 112.725C204.796 113.458 204.196 114.058 203.446 114.525C202.696 114.975 201.879 115.2 200.996 115.2ZM200.996 113.325C201.529 113.325 202.004 113.183 202.421 112.9C202.854 112.617 203.204 112.25 203.471 111.8C203.738 111.333 203.871 110.85 203.871 110.35V107.8C203.871 107.317 203.738 106.85 203.471 106.4C203.221 105.95 202.879 105.583 202.446 105.3C202.013 105.017 201.529 104.875 200.996 104.875C200.463 104.875 199.979 105.017 199.546 105.3C199.113 105.583 198.771 105.95 198.521 106.4C198.271 106.85 198.146 107.317 198.146 107.8V110.35C198.146 110.85 198.271 111.333 198.521 111.8C198.771 112.25 199.113 112.617 199.546 112.9C199.979 113.183 200.463 113.325 200.996 113.325ZM216.04 115.2C215.107 115.2 214.307 114.933 213.64 114.4C212.99 113.85 212.665 113.008 212.665 111.875C212.665 110.958 212.915 110.25 213.415 109.75C213.915 109.233 214.598 108.883 215.465 108.7C216.348 108.5 217.365 108.4 218.515 108.4H219.715V107.875C219.715 107.375 219.623 106.892 219.44 106.425C219.257 105.942 218.965 105.55 218.565 105.25C218.182 104.933 217.648 104.775 216.965 104.775C216.382 104.775 215.915 104.833 215.565 104.95C215.232 105.067 214.965 105.192 214.765 105.325C214.565 105.442 214.39 105.5 214.24 105.5C213.99 105.5 213.798 105.383 213.665 105.15C213.532 104.9 213.465 104.667 213.465 104.45C213.465 104.183 213.648 103.942 214.015 103.725C214.382 103.508 214.84 103.333 215.39 103.2C215.94 103.067 216.482 103 217.015 103C218.182 103 219.115 103.233 219.815 103.7C220.515 104.167 221.015 104.767 221.315 105.5C221.632 106.233 221.79 107.017 221.79 107.85V114.25C221.79 114.45 221.69 114.625 221.49 114.775C221.307 114.925 221.065 115 220.765 115C220.498 115 220.273 114.925 220.09 114.775C219.907 114.625 219.815 114.45 219.815 114.25V113.25C219.382 113.75 218.857 114.2 218.24 114.6C217.623 115 216.89 115.2 216.04 115.2ZM216.69 113.525C217.173 113.525 217.64 113.392 218.09 113.125C218.557 112.858 218.94 112.525 219.24 112.125C219.557 111.725 219.715 111.342 219.715 110.975V109.675H218.84C218.14 109.675 217.473 109.717 216.84 109.8C216.223 109.883 215.723 110.067 215.34 110.35C214.957 110.617 214.765 111.05 214.765 111.65C214.765 112.3 214.948 112.775 215.315 113.075C215.682 113.375 216.14 113.525 216.69 113.525ZM225.646 115C225.346 115 225.096 114.925 224.896 114.775C224.713 114.608 224.621 114.433 224.621 114.25V103.875C224.621 103.658 224.713 103.483 224.896 103.35C225.096 103.217 225.346 103.15 225.646 103.15C225.913 103.15 226.138 103.217 226.321 103.35C226.505 103.483 226.596 103.658 226.596 103.875V104.9C226.863 104.417 227.28 103.983 227.846 103.6C228.413 103.2 229.113 103 229.946 103C230.746 103 231.48 103.225 232.146 103.675C232.813 104.108 233.346 104.683 233.746 105.4C234.146 106.117 234.346 106.917 234.346 107.8V114.25C234.346 114.5 234.238 114.692 234.021 114.825C233.805 114.942 233.563 115 233.296 115C233.046 115 232.813 114.942 232.596 114.825C232.38 114.692 232.271 114.5 232.271 114.25V107.8C232.271 107.317 232.138 106.85 231.871 106.4C231.621 105.95 231.28 105.583 230.846 105.3C230.413 105.017 229.938 104.875 229.421 104.875C228.971 104.875 228.538 105 228.121 105.25C227.705 105.483 227.363 105.817 227.096 106.25C226.83 106.667 226.696 107.183 226.696 107.8V114.25C226.696 114.433 226.588 114.608 226.371 114.775C226.171 114.925 225.93 115 225.646 115ZM241.145 115.2C240.362 115.2 239.629 114.975 238.945 114.525C238.279 114.058 237.737 113.458 237.32 112.725C236.92 111.975 236.72 111.183 236.72 110.35V107.8C236.72 106.917 236.92 106.117 237.32 105.4C237.737 104.683 238.279 104.108 238.945 103.675C239.629 103.225 240.379 103 241.195 103C241.995 103 242.67 103.2 243.22 103.6C243.787 103.983 244.204 104.417 244.47 104.9V96.725C244.47 96.5083 244.57 96.3333 244.77 96.2C244.987 96.0667 245.245 96 245.545 96C245.845 96 246.087 96.0667 246.27 96.2C246.454 96.3333 246.545 96.5083 246.545 96.725V114.25C246.545 114.433 246.454 114.608 246.27 114.775C246.087 114.925 245.845 115 245.545 115C245.279 115 245.045 114.925 244.845 114.775C244.662 114.608 244.57 114.433 244.57 114.25V113.25C244.32 113.767 243.879 114.225 243.245 114.625C242.612 115.008 241.912 115.2 241.145 115.2ZM241.645 113.325C242.179 113.325 242.654 113.183 243.07 112.9C243.504 112.6 243.845 112.267 244.095 111.9C244.345 111.533 244.47 111.242 244.47 111.025V107.8C244.47 107.183 244.329 106.667 244.045 106.25C243.779 105.817 243.429 105.483 242.995 105.25C242.562 105 242.12 104.875 241.67 104.875C241.137 104.875 240.654 105.017 240.22 105.3C239.787 105.583 239.437 105.95 239.17 106.4C238.92 106.85 238.795 107.317 238.795 107.8V110.35C238.795 110.833 238.92 111.308 239.17 111.775C239.437 112.242 239.787 112.617 240.22 112.9C240.654 113.183 241.129 113.325 241.645 113.325ZM255.779 115C255.479 115 255.229 114.925 255.029 114.775C254.845 114.608 254.754 114.433 254.754 114.25V96.725C254.754 96.5083 254.845 96.3333 255.029 96.2C255.229 96.0667 255.479 96 255.779 96C256.062 96 256.304 96.0667 256.504 96.2C256.72 96.3333 256.829 96.5083 256.829 96.725V114.25C256.829 114.433 256.72 114.608 256.504 114.775C256.304 114.925 256.062 115 255.779 115ZM265.122 115.2C264.039 115.2 263.081 115 262.247 114.6C261.414 114.183 260.756 113.617 260.272 112.9C259.789 112.167 259.547 111.317 259.547 110.35V107.725C259.547 106.875 259.772 106.092 260.222 105.375C260.689 104.658 261.297 104.083 262.047 103.65C262.797 103.217 263.622 103 264.522 103C265.389 103 266.181 103.2 266.897 103.6C267.631 104 268.214 104.542 268.647 105.225C269.097 105.908 269.322 106.7 269.322 107.6C269.322 108.267 269.214 108.75 268.997 109.05C268.781 109.333 268.506 109.508 268.172 109.575C267.839 109.642 267.489 109.675 267.122 109.675H261.622V110.425C261.622 111.358 261.956 112.1 262.622 112.65C263.289 113.183 264.147 113.45 265.197 113.45C265.814 113.45 266.306 113.367 266.672 113.2C267.039 113.033 267.339 112.875 267.572 112.725C267.806 112.558 268.014 112.475 268.197 112.475C268.381 112.475 268.531 112.533 268.647 112.65C268.781 112.75 268.881 112.875 268.947 113.025C269.014 113.175 269.047 113.308 269.047 113.425C269.047 113.642 268.889 113.892 268.572 114.175C268.256 114.442 267.797 114.683 267.197 114.9C266.614 115.1 265.922 115.2 265.122 115.2ZM261.622 108.275H266.247C266.697 108.275 266.989 108.225 267.122 108.125C267.272 108.008 267.347 107.792 267.347 107.475C267.347 106.975 267.222 106.517 266.972 106.1C266.739 105.667 266.406 105.317 265.972 105.05C265.539 104.783 265.047 104.65 264.497 104.65C263.981 104.65 263.506 104.775 263.072 105.025C262.639 105.258 262.289 105.583 262.022 106C261.756 106.417 261.622 106.875 261.622 107.375V108.275ZM275.719 115C274.369 115 273.335 114.7 272.619 114.1C271.919 113.5 271.569 112.542 271.569 111.225V98.35C271.569 98.1333 271.677 97.9583 271.894 97.825C272.11 97.6917 272.344 97.625 272.594 97.625C272.86 97.625 273.102 97.6917 273.319 97.825C273.535 97.9583 273.644 98.1333 273.644 98.35V103.15H276.794C276.994 103.15 277.144 103.233 277.244 103.4C277.36 103.567 277.419 103.758 277.419 103.975C277.419 104.192 277.36 104.383 277.244 104.55C277.144 104.7 276.994 104.775 276.794 104.775H273.644V111.225C273.644 111.942 273.794 112.45 274.094 112.75C274.41 113.033 274.952 113.175 275.719 113.175H276.494C276.794 113.175 277.019 113.267 277.169 113.45C277.319 113.633 277.394 113.842 277.394 114.075C277.394 114.308 277.319 114.525 277.169 114.725C277.019 114.908 276.794 115 276.494 115H275.719ZM288.438 115C287.088 115 286.055 114.7 285.338 114.1C284.638 113.5 284.288 112.542 284.288 111.225V98.35C284.288 98.1333 284.397 97.9583 284.613 97.825C284.83 97.6917 285.063 97.625 285.313 97.625C285.58 97.625 285.822 97.6917 286.038 97.825C286.255 97.9583 286.363 98.1333 286.363 98.35V103.15H289.513C289.713 103.15 289.863 103.233 289.963 103.4C290.08 103.567 290.138 103.758 290.138 103.975C290.138 104.192 290.08 104.383 289.963 104.55C289.863 104.7 289.713 104.775 289.513 104.775H286.363V111.225C286.363 111.942 286.513 112.45 286.813 112.75C287.13 113.033 287.672 113.175 288.438 113.175H289.213C289.513 113.175 289.738 113.267 289.888 113.45C290.038 113.633 290.113 113.842 290.113 114.075C290.113 114.308 290.038 114.525 289.888 114.725C289.738 114.908 289.513 115 289.213 115H288.438ZM293.103 115C292.803 115 292.553 114.925 292.353 114.775C292.17 114.608 292.078 114.433 292.078 114.25V96.725C292.078 96.5083 292.17 96.3333 292.353 96.2C292.553 96.0667 292.803 96 293.103 96C293.386 96 293.628 96.0667 293.828 96.2C294.045 96.3333 294.153 96.5083 294.153 96.725V104.9C294.42 104.417 294.82 103.983 295.353 103.6C295.903 103.2 296.586 103 297.403 103C298.203 103 298.936 103.225 299.603 103.675C300.27 104.108 300.803 104.683 301.203 105.4C301.603 106.117 301.803 106.917 301.803 107.8V114.25C301.803 114.5 301.695 114.692 301.478 114.825C301.261 114.942 301.02 115 300.753 115C300.503 115 300.27 114.942 300.053 114.825C299.836 114.692 299.728 114.5 299.728 114.25V107.8C299.728 107.317 299.595 106.85 299.328 106.4C299.061 105.95 298.711 105.583 298.278 105.3C297.861 105.017 297.395 104.875 296.878 104.875C296.428 104.875 295.995 105 295.578 105.25C295.161 105.483 294.82 105.817 294.553 106.25C294.286 106.667 294.153 107.183 294.153 107.8V114.25C294.153 114.433 294.045 114.608 293.828 114.775C293.628 114.925 293.386 115 293.103 115ZM309.751 115.2C308.668 115.2 307.71 115 306.876 114.6C306.043 114.183 305.385 113.617 304.901 112.9C304.418 112.167 304.176 111.317 304.176 110.35V107.725C304.176 106.875 304.401 106.092 304.851 105.375C305.318 104.658 305.926 104.083 306.676 103.65C307.426 103.217 308.251 103 309.151 103C310.018 103 310.81 103.2 311.526 103.6C312.26 104 312.843 104.542 313.276 105.225C313.726 105.908 313.951 106.7 313.951 107.6C313.951 108.267 313.843 108.75 313.626 109.05C313.41 109.333 313.135 109.508 312.801 109.575C312.468 109.642 312.118 109.675 311.751 109.675H306.251V110.425C306.251 111.358 306.585 112.1 307.251 112.65C307.918 113.183 308.776 113.45 309.826 113.45C310.443 113.45 310.935 113.367 311.301 113.2C311.668 113.033 311.968 112.875 312.201 112.725C312.435 112.558 312.643 112.475 312.826 112.475C313.01 112.475 313.16 112.533 313.276 112.65C313.41 112.75 313.51 112.875 313.576 113.025C313.643 113.175 313.676 113.308 313.676 113.425C313.676 113.642 313.518 113.892 313.201 114.175C312.885 114.442 312.426 114.683 311.826 114.9C311.243 115.1 310.551 115.2 309.751 115.2ZM306.251 108.275H310.876C311.326 108.275 311.618 108.225 311.751 108.125C311.901 108.008 311.976 107.792 311.976 107.475C311.976 106.975 311.851 106.517 311.601 106.1C311.368 105.667 311.035 105.317 310.601 105.05C310.168 104.783 309.676 104.65 309.126 104.65C308.61 104.65 308.135 104.775 307.701 105.025C307.268 105.258 306.918 105.583 306.651 106C306.385 106.417 306.251 106.875 306.251 107.375V108.275ZM322.277 115C321.994 115 321.752 114.933 321.552 114.8C321.369 114.667 321.277 114.492 321.277 114.275V100.975C321.277 99.925 321.544 99.0333 322.077 98.3C322.627 97.55 323.336 96.9833 324.202 96.6C325.086 96.2 326.019 96 327.002 96C327.519 96 328.052 96.0583 328.602 96.175C329.169 96.2917 329.694 96.475 330.177 96.725C330.661 96.975 331.069 97.2833 331.402 97.65V114.25C331.402 114.433 331.302 114.608 331.102 114.775C330.902 114.925 330.652 115 330.352 115C330.052 115 329.802 114.925 329.602 114.775C329.419 114.608 329.327 114.433 329.327 114.25V98.55C329.027 98.2667 328.661 98.0583 328.227 97.925C327.794 97.775 327.361 97.7 326.927 97.7C326.327 97.7 325.752 97.8333 325.202 98.1C324.669 98.35 324.227 98.7167 323.877 99.2C323.527 99.6667 323.352 100.233 323.352 100.9V103.15H326.352C326.552 103.15 326.711 103.233 326.827 103.4C326.944 103.567 327.002 103.758 327.002 103.975C327.002 104.175 326.944 104.358 326.827 104.525C326.711 104.692 326.552 104.775 326.352 104.775H323.352V114.275C323.352 114.492 323.244 114.667 323.027 114.8C322.811 114.933 322.561 115 322.277 115ZM339.057 115.2C338.174 115.2 337.357 114.975 336.607 114.525C335.857 114.058 335.257 113.458 334.807 112.725C334.357 111.992 334.132 111.2 334.132 110.35V107.8C334.132 106.95 334.349 106.167 334.782 105.45C335.232 104.717 335.832 104.125 336.582 103.675C337.332 103.225 338.157 103 339.057 103C339.941 103 340.757 103.225 341.507 103.675C342.257 104.108 342.857 104.683 343.307 105.4C343.774 106.117 344.007 106.917 344.007 107.8V110.35C344.007 111.183 343.774 111.975 343.307 112.725C342.857 113.458 342.257 114.058 341.507 114.525C340.757 114.975 339.941 115.2 339.057 115.2ZM339.057 113.325C339.591 113.325 340.066 113.183 340.482 112.9C340.916 112.617 341.266 112.25 341.532 111.8C341.799 111.333 341.932 110.85 341.932 110.35V107.8C341.932 107.317 341.799 106.85 341.532 106.4C341.282 105.95 340.941 105.583 340.507 105.3C340.074 105.017 339.591 104.875 339.057 104.875C338.524 104.875 338.041 105.017 337.607 105.3C337.174 105.583 336.832 105.95 336.582 106.4C336.332 106.85 336.207 107.317 336.207 107.8V110.35C336.207 110.85 336.332 111.333 336.582 111.8C336.832 112.25 337.174 112.617 337.607 112.9C338.041 113.183 338.524 113.325 339.057 113.325ZM350.171 115.225C349.971 115.225 349.796 115.183 349.646 115.1C349.513 115.033 349.405 114.9 349.321 114.7L345.446 104.4C345.413 104.317 345.38 104.242 345.346 104.175C345.33 104.092 345.321 104.033 345.321 104C345.321 103.817 345.388 103.658 345.521 103.525C345.671 103.392 345.846 103.292 346.046 103.225C346.246 103.142 346.438 103.1 346.621 103.1C346.771 103.1 346.905 103.133 347.021 103.2C347.155 103.267 347.246 103.367 347.296 103.5L350.296 111.9L352.671 104.325C352.738 104.142 352.838 104.017 352.971 103.95C353.105 103.867 353.263 103.825 353.446 103.825C353.63 103.825 353.788 103.867 353.921 103.95C354.071 104.017 354.171 104.142 354.221 104.325L356.546 111.975L359.596 103.5C359.68 103.233 359.896 103.1 360.246 103.1C360.43 103.1 360.621 103.142 360.821 103.225C361.021 103.292 361.188 103.392 361.321 103.525C361.471 103.658 361.546 103.817 361.546 104C361.546 104.05 361.53 104.117 361.496 104.2C361.48 104.283 361.463 104.35 361.446 104.4L357.546 114.775C357.48 114.942 357.371 115.058 357.221 115.125C357.071 115.192 356.905 115.225 356.721 115.225C356.505 115.225 356.321 115.183 356.171 115.1C356.038 115.033 355.938 114.925 355.871 114.775L353.446 107.425L351.071 114.7C351.005 114.867 350.888 114.992 350.721 115.075C350.555 115.175 350.371 115.225 350.171 115.225Z" fill="#CE9F26"/>
</svg>
