<svg width="285" height="590" viewBox="0 0 285 590" fill="none" xmlns="http://www.w3.org/2000/svg">
<path d="M234.562 96.9445H48.7961L3.46873 52.6712L48.8868 2.5H234.472L281.473 52.6693L234.562 96.9445ZM238.056 100.523L282.5 58.575V92.5L281.566 91.5656L238.056 135.076V100.523ZM238.056 142.147L282.5 97.7022V498.056L281.566 497.121L238.056 540.631V142.147ZM238.056 547.702L282.5 503.258V531.292L238.056 582.727V547.702ZM233.056 549.167V586.944H50.2778V549.167H233.056ZM45.2778 547.702V582.55L2.5 531.316V504.924L45.2778 547.702ZM45.2778 540.631L2.5 497.853V99.3689L45.2778 142.147V540.631ZM45.2778 135.076L2.5 92.2978V58.7143L45.2778 100.497V135.076ZM50.2778 138.611V101.944H233.056V138.611H50.2778ZM50.2778 143.611H233.056V544.167H50.2778V143.611Z" stroke="#80DC9F" stroke-width="5"/>
<path d="M226.389 52.7779C226.389 57.7721 221.449 62.5001 214.444 62.5001C207.44 62.5001 202.5 57.7721 202.5 52.7779C202.5 47.7836 207.44 43.0557 214.444 43.0557C221.449 43.0557 226.389 47.7836 226.389 52.7779Z" stroke="#80DC9F" stroke-width="5"/>
</svg>
