<svg width="240" height="531" viewBox="0 0 240 531" fill="none" xmlns="http://www.w3.org/2000/svg">
<rect x="2.5" y="2.5" width="235" height="526" fill="#F0F7C7" stroke="#80DC9F" stroke-width="5"/>
<path d="M121.453 141.895C119.773 141.895 118.393 142.3 117.313 143.11C116.233 143.89 115.693 145.135 115.693 146.845C115.693 147.625 115.798 148.315 116.008 148.915C116.218 149.515 116.563 150.055 117.043 150.535C117.553 151.015 118.213 151.48 119.023 151.93C119.833 152.35 120.838 152.785 122.038 153.235C123.208 153.685 124.318 154.18 125.368 154.72C126.418 155.26 127.333 155.92 128.113 156.7C128.923 157.48 129.553 158.425 130.003 159.535C130.483 160.645 130.723 161.995 130.723 163.585C130.723 164.815 130.468 165.985 129.958 167.095C129.478 168.205 128.788 169.18 127.888 170.02C127.018 170.83 125.968 171.475 124.738 171.955C123.508 172.435 122.158 172.675 120.688 172.675C119.188 172.675 117.868 172.48 116.728 172.09C115.618 171.73 114.658 171.25 113.848 170.65C113.038 170.02 112.363 169.315 111.823 168.535C111.313 167.755 110.908 166.945 110.608 166.105L113.848 164.89C114.058 165.49 114.328 166.075 114.658 166.645C115.018 167.215 115.468 167.725 116.008 168.175C116.548 168.595 117.193 168.94 117.943 169.21C118.723 169.48 119.653 169.615 120.733 169.615C121.453 169.615 122.173 169.525 122.893 169.345C123.613 169.135 124.258 168.805 124.828 168.355C125.428 167.905 125.908 167.305 126.268 166.555C126.628 165.805 126.808 164.89 126.808 163.81C126.808 162.67 126.658 161.725 126.358 160.975C126.088 160.225 125.638 159.565 125.008 158.995C124.408 158.425 123.613 157.915 122.623 157.465C121.633 157.015 120.448 156.505 119.068 155.935C116.638 154.945 114.838 153.745 113.668 152.335C112.528 150.925 111.958 149.185 111.958 147.115C111.958 145.975 112.168 144.91 112.588 143.92C113.008 142.9 113.623 142.03 114.433 141.31C115.243 140.56 116.218 139.975 117.358 139.555C118.528 139.135 119.863 138.925 121.363 138.925C123.913 138.925 125.908 139.45 127.348 140.5C128.788 141.52 129.898 142.915 130.678 144.685L127.348 145.855C126.838 144.595 126.133 143.62 125.233 142.93C124.333 142.24 123.073 141.895 121.453 141.895ZM130.897 179.6V212H127.072V197.15H114.922V212H111.097V179.6H114.922V194.09H127.072V179.6H130.897ZM109.34 235.8C109.34 232.65 109.67 230.01 110.33 227.88C110.99 225.72 111.86 223.98 112.94 222.66C114.02 221.34 115.25 220.395 116.63 219.825C118.04 219.225 119.495 218.925 120.995 218.925C122.495 218.925 123.935 219.225 125.315 219.825C126.725 220.395 127.97 221.34 129.05 222.66C130.13 223.98 131 225.72 131.66 227.88C132.32 230.01 132.65 232.65 132.65 235.8C132.65 238.95 132.32 241.605 131.66 243.765C131 245.895 130.13 247.62 129.05 248.94C127.97 250.26 126.725 251.22 125.315 251.82C123.905 252.39 122.465 252.675 120.995 252.675C119.495 252.675 118.04 252.39 116.63 251.82C115.25 251.22 114.02 250.26 112.94 248.94C111.86 247.62 110.99 245.895 110.33 243.765C109.67 241.605 109.34 238.95 109.34 235.8ZM113.255 235.8C113.255 240.36 113.9 243.825 115.19 246.195C116.48 248.565 118.415 249.75 120.995 249.75C123.575 249.75 125.51 248.565 126.8 246.195C128.09 243.825 128.735 240.36 128.735 235.8C128.735 231.24 128.09 227.775 126.8 225.405C125.51 223.035 123.575 221.85 120.995 221.85C118.415 221.85 116.48 223.035 115.19 225.405C113.9 227.775 113.255 231.24 113.255 235.8ZM114.939 259.6V282.55C114.939 284.8 115.404 286.54 116.334 287.77C117.264 289 118.824 289.615 121.014 289.615C123.204 289.615 124.779 289 125.739 287.77C126.729 286.54 127.224 284.8 127.224 282.55V259.6H130.869V282.595C130.869 285.895 130.014 288.4 128.304 290.11C126.624 291.82 124.194 292.675 121.014 292.675C117.834 292.675 115.389 291.82 113.679 290.11C111.969 288.4 111.114 285.895 111.114 282.595V259.6H114.939ZM127.863 332L116.658 316.925V332H112.833V299.6H116.658V313.73L126.828 299.6H131.103L119.808 315.035L132.543 332H127.863ZM122.92 339.6V372H119.095V339.6H122.92ZM131.799 406.645C130.959 408.445 129.804 409.9 128.334 411.01C126.864 412.12 124.929 412.675 122.529 412.675C121.329 412.675 120.054 412.45 118.704 412C117.384 411.52 116.154 410.65 115.014 409.39C113.874 408.13 112.929 406.405 112.179 404.215C111.429 402.025 111.054 399.22 111.054 395.8C111.054 392.44 111.414 389.665 112.134 387.475C112.854 385.285 113.769 383.56 114.879 382.3C116.019 381.04 117.264 380.17 118.614 379.69C119.964 379.18 121.284 378.925 122.574 378.925C123.744 378.925 124.794 379.075 125.724 379.375C126.684 379.675 127.524 380.08 128.244 380.59C128.964 381.07 129.579 381.64 130.089 382.3C130.629 382.96 131.064 383.65 131.394 384.37L128.019 385.675C127.539 384.445 126.864 383.515 125.994 382.885C125.154 382.255 124.014 381.94 122.574 381.94C121.554 381.94 120.579 382.165 119.649 382.615C118.749 383.035 117.954 383.785 117.264 384.865C116.574 385.915 116.019 387.325 115.599 389.095C115.209 390.865 115.014 393.1 115.014 395.8C115.014 398.47 115.224 400.69 115.644 402.46C116.064 404.23 116.619 405.64 117.309 406.69C118.029 407.74 118.839 408.49 119.739 408.94C120.669 409.39 121.629 409.615 122.619 409.615C124.269 409.615 125.529 409.21 126.399 408.4C127.269 407.56 127.974 406.51 128.514 405.25L131.799 406.645ZM130.897 419.6V452H127.072V437.15H114.922V452H111.097V419.6H114.922V434.09H127.072V419.6H130.897ZM122.92 459.6V492H119.095V459.6H122.92Z" fill="#80DC9F"/>
<path d="M83.41 36.25H89.08V92.32C89.08 96.24 88.03 97.78 85.51 98.62C82.99 99.53 78.65 99.67 72 99.67C71.72 98.13 70.74 95.68 69.83 94.14C75.01 94.35 80.05 94.28 81.45 94.21C82.92 94.21 83.41 93.72 83.41 92.32V36.25ZM100.35 54.1L105.39 52.14C111.48 62.01 117.43 74.82 119.25 83.29L113.65 85.53C111.97 77.27 106.3 64.11 100.35 54.1ZM65.07 52.63L70.95 53.61C68.64 63.9 64.58 76.57 58.21 84.41C56.95 83.43 54.64 82.17 53.24 81.61C59.47 74.19 63.32 62.08 65.07 52.63ZM125.34 45.07H186.45V50.04H125.34V45.07ZM129.75 60.33H182.88V65.37H129.75V60.33ZM136.68 91.97H175.53V96.87H136.68V91.97ZM153.06 35.2H158.59V62.85H153.06V35.2ZM133.53 73.35H179.1V100.23H173.43V78.11H138.92V100.23H133.53V73.35Z" fill="#80DC9F"/>
<path d="M44.5 114.5H197.5" stroke="#80DC9F" stroke-width="3"/>
</svg>
