<svg width="284" height="224" viewBox="0 0 284 224" fill="none" xmlns="http://www.w3.org/2000/svg">
<g id="Group 55">
<path id="Vector 46" d="M126.026 51.993C134.71 44.3339 160.094 31.2381 192.164 40.1282C224.235 49.0182 262.234 77.7409 277.225 90.991C251.446 95.3969 192.974 101.797 165.323 92.1521C137.672 82.5066 127.604 61.3604 126.026 51.993ZM126.026 51.993L159.767 60.7287M227.247 78.2L193.507 69.4644M159.767 60.7287L170.6 81.426M159.767 60.7287L193.507 69.4644M159.767 60.7287L184.898 48.9484M193.507 69.4644L203.302 85.6609M193.507 69.4644L214.861 60.1076" stroke="black" stroke-width="5"/>
<path id="Vector 47" d="M117.969 53.3255C126.944 60.7797 141.252 81.6548 126.68 105.522C112.109 129.389 71.4971 155.875 53.0126 166.135C49.8979 145.812 47.4449 100.069 62.5503 79.6857C77.6557 59.3028 105.79 53.6194 117.969 53.3255ZM117.969 53.3255L104.567 76.6863M76.1644 126.197L91.1659 100.047M91.1659 100.047L99.5011 116.594M91.1659 100.047L72.533 103.239M91.1659 100.047L104.567 76.6863M104.567 76.6863L116.458 96.0126M104.567 76.6863L81.4834 78.6929" stroke="black" stroke-width="5"/>
</g>
</svg>
