<svg width="406" height="290" viewBox="0 0 406 290" fill="none" xmlns="http://www.w3.org/2000/svg">
<path d="M367.629 236.269C361.003 245.623 361.393 263.161 367.629 265.5" stroke="white" stroke-width="5"/>
<path d="M67.9151 49.581C61.4113 49.0363 53.5026 48.912 45.4739 49.581M45.4739 49.581C20.9469 51.6246 -4.69969 61.0718 5.16623 88.5554C18.2617 125.036 47.5185 120.904 60.51 114.279C62.9784 114.279 70.0977 115.37 78.8282 119.735C89.7412 125.191 149.762 179.756 164.572 186.771C179.382 193.787 281.885 246.012 292.798 254.197C303.711 262.382 324.367 281.479 362.562 286.156C393.118 289.898 392.443 273.684 388.285 265.11C382.439 258.094 375.502 241.179 394.521 229.643C418.296 215.222 385.557 194.956 370.747 186.771C358.899 180.223 334.89 189.499 324.367 194.956C309.557 191.318 271.908 179.132 239.793 159.489C207.678 139.846 151.213 92.5828 126.995 71.4067M45.4739 49.581C43.1901 40.4869 39.9927 20.1163 45.4739 11.386C52.3255 0.473149 86.6231 -4.98328 101.433 28.5348C106.429 39.8397 115.946 55.3565 126.995 71.4067M187.177 144.289C176.329 136.54 148.705 102.944 126.995 71.4067" stroke="white" stroke-width="5"/>
</svg>
