<svg width="122" height="557" viewBox="0 0 122 557" fill="none" xmlns="http://www.w3.org/2000/svg">
<path d="M61.7676 0L61.7676 412.075" stroke="#EC7EA5" stroke-width="5" stroke-dasharray="20 20"/>
<path d="M47.1836 428.477L51.7315 417.621H71.5469L76.0948 428.477H47.1836Z" stroke="#EC7EA5" stroke-width="5"/>
<path d="M30.7459 430.121H91.2487M30.7459 430.121L4 460.394M30.7459 430.121L43.7293 443.952M91.2487 430.121L117.995 460.394M91.2487 430.121L76.9669 443.952M117.995 460.394L91.2487 468.484M117.995 460.394L61.3868 552.258M91.2487 468.484H30.7459M91.2487 468.484L61.3868 552.258M91.2487 468.484L76.9669 443.952M30.7459 468.484L4 460.394M30.7459 468.484L61.3868 552.258M30.7459 468.484L43.7293 443.952M4 460.394L61.3868 552.258M43.7293 443.952H76.9669" stroke="#EC7EA5" stroke-width="5"/>
</svg>
