<svg width="240" height="531" viewBox="0 0 240 531" fill="none" xmlns="http://www.w3.org/2000/svg">
<rect x="2.5" y="2.5" width="235" height="526" fill="#F0F7C7" stroke="#80DC9F" stroke-width="5"/>
<path d="M115.605 140C117.972 140 120.138 140.283 122.105 140.85C124.105 141.383 125.805 142.333 127.205 143.7C128.638 145.067 129.755 146.917 130.555 149.25C131.355 151.55 131.755 154.467 131.755 158C131.755 161.433 131.355 164.3 130.555 166.6C129.788 168.9 128.688 170.75 127.255 172.15C125.822 173.55 124.122 174.55 122.155 175.15C120.188 175.717 118.038 176 115.705 176H109.205V140H115.605ZM113.455 143.15V172.7H115.655C117.688 172.7 119.438 172.45 120.905 171.95C122.405 171.417 123.638 170.567 124.605 169.4C125.572 168.233 126.288 166.717 126.755 164.85C127.222 162.983 127.455 160.7 127.455 158C127.455 152.833 126.505 149.067 124.605 146.7C122.705 144.333 119.688 143.15 115.555 143.15H113.455ZM128.332 221L125.682 211.35H113.082L110.382 221H106.182L116.932 185H122.132L132.832 221H128.332ZM114.032 208.1H124.782L119.482 188.9L114.032 208.1ZM121.634 230V266H117.384V230H121.634ZM127.126 311L114.676 294.25V311H110.426V275H114.676V290.7L125.976 275H130.726L118.176 292.15L132.326 311H127.126ZM121.634 320V356H117.384V320H121.634ZM131.499 395.05C130.566 397.05 129.283 398.667 127.649 399.9C126.016 401.133 123.866 401.75 121.199 401.75C119.866 401.75 118.449 401.5 116.949 401C115.483 400.467 114.116 399.5 112.849 398.1C111.583 396.7 110.533 394.783 109.699 392.35C108.866 389.917 108.449 386.8 108.449 383C108.449 379.267 108.849 376.183 109.649 373.75C110.449 371.317 111.466 369.4 112.699 368C113.966 366.6 115.349 365.633 116.849 365.1C118.349 364.533 119.816 364.25 121.249 364.25C122.549 364.25 123.716 364.417 124.749 364.75C125.816 365.083 126.749 365.533 127.549 366.1C128.349 366.633 129.033 367.267 129.599 368C130.199 368.733 130.683 369.5 131.049 370.3L127.299 371.75C126.766 370.383 126.016 369.35 125.049 368.65C124.116 367.95 122.849 367.6 121.249 367.6C120.116 367.6 119.033 367.85 117.999 368.35C116.999 368.817 116.116 369.65 115.349 370.85C114.583 372.017 113.966 373.583 113.499 375.55C113.066 377.517 112.849 380 112.849 383C112.849 385.967 113.083 388.433 113.549 390.4C114.016 392.367 114.633 393.933 115.399 395.1C116.199 396.267 117.099 397.1 118.099 397.6C119.133 398.1 120.199 398.35 121.299 398.35C123.133 398.35 124.533 397.9 125.499 397C126.466 396.067 127.249 394.9 127.849 393.5L131.499 395.05ZM130.497 410V446H126.247V429.5H112.747V446H108.497V410H112.747V426.1H126.247V410H130.497ZM121.634 455V491H117.384V455H121.634Z" fill="#80DC9F"/>
<path d="M55.34 55.36H116.87V60.68H55.34V55.36ZM89.43 57.46C93.98 74.4 103.5 88.54 118.06 94.56C116.73 95.75 114.98 97.99 114.07 99.46C98.95 92.32 89.43 77.55 84.18 58.72L89.43 57.46ZM83.27 35.27H88.94C88.66 53.61 88.52 85.53 57.93 99.53C57.09 98.13 55.41 96.24 53.94 95.19C83.69 82.24 83.13 52.07 83.27 35.27ZM125.34 45.07H186.45V50.04H125.34V45.07ZM129.75 60.33H182.88V65.37H129.75V60.33ZM136.68 91.97H175.53V96.87H136.68V91.97ZM153.06 35.2H158.59V62.85H153.06V35.2ZM133.53 73.35H179.1V100.23H173.43V78.11H138.92V100.23H133.53V73.35Z" fill="#80DC9F"/>
<path d="M44.5 114.5H197.5" stroke="#80DC9F" stroke-width="3"/>
</svg>
