<svg width="1428" height="386" viewBox="0 0 1428 386" fill="none" xmlns="http://www.w3.org/2000/svg">
<path d="M1168.5 122.204L1179.79 152.728L1180.19 153.806L1181.27 154.205L1211.8 165.5L1181.27 176.795L1180.19 177.194L1179.79 178.272L1168.5 208.796L1157.21 178.272L1156.81 177.194L1155.73 176.795L1125.2 165.5L1155.73 154.205L1156.81 153.806L1157.21 152.728L1168.5 122.204Z" stroke="#F0C966" stroke-width="5"/>
<path d="M1377.5 7.20385L1388.79 37.728L1389.19 38.8061L1390.27 39.205L1420.8 50.5L1390.27 61.795L1389.19 62.1939L1388.79 63.272L1377.5 93.7962L1366.21 63.272L1365.81 62.1939L1364.73 61.795L1334.2 50.5L1364.73 39.205L1365.81 38.8061L1366.21 37.728L1377.5 7.20385Z" stroke="#F0C966" stroke-width="5"/>
<path d="M609.5 223.204L620.795 253.728L621.194 254.806L622.272 255.205L652.796 266.5L622.272 277.795L621.194 278.194L620.795 279.272L609.5 309.796L598.205 279.272L597.806 278.194L596.728 277.795L566.204 266.5L596.728 255.205L597.806 254.806L598.205 253.728L609.5 223.204Z" stroke="#F0C966" stroke-width="5"/>
<path d="M155.5 98.2038L166.795 128.728L167.194 129.806L168.272 130.205L198.796 141.5L168.272 152.795L167.194 153.194L166.795 154.272L155.5 184.796L144.205 154.272L143.806 153.194L142.728 152.795L112.204 141.5L142.728 130.205L143.806 129.806L144.205 128.728L155.5 98.2038Z" stroke="#F0C966" stroke-width="5"/>
<path d="M1292.5 98.2039L1299.47 117.049L1299.87 118.128L1300.95 118.526L1319.8 125.5L1300.95 132.474L1299.87 132.872L1299.47 133.951L1292.5 152.796L1285.53 133.951L1285.13 132.872L1284.05 132.474L1265.2 125.5L1284.05 118.526L1285.13 118.128L1285.53 117.049L1292.5 98.2039Z" stroke="#F0C966" stroke-width="5"/>
<path d="M1134.5 239.204L1141.47 258.049L1141.87 259.128L1142.95 259.526L1161.8 266.5L1142.95 273.474L1141.87 273.872L1141.47 274.951L1134.5 293.796L1127.53 274.951L1127.13 273.872L1126.05 273.474L1107.2 266.5L1126.05 259.526L1127.13 259.128L1127.53 258.049L1134.5 239.204Z" stroke="#F0C966" stroke-width="5"/>
<path d="M805.5 98.2039L812.474 117.049L812.872 118.128L813.951 118.526L832.796 125.5L813.951 132.474L812.872 132.872L812.474 133.951L805.5 152.796L798.526 133.951L798.128 132.872L797.049 132.474L778.204 125.5L797.049 118.526L798.128 118.128L798.526 117.049L805.5 98.2039Z" stroke="#F0C966" stroke-width="5"/>
<path d="M1003.5 164.204L1010.47 183.049L1010.87 184.128L1011.95 184.526L1030.8 191.5L1011.95 198.474L1010.87 198.872L1010.47 199.951L1003.5 218.796L996.526 199.951L996.128 198.872L995.049 198.474L976.204 191.5L995.049 184.526L996.128 184.128L996.526 183.049L1003.5 164.204Z" stroke="#F0C966" stroke-width="5"/>
<path d="M460.5 129.204L467.474 148.049L467.872 149.128L468.951 149.526L487.796 156.5L468.951 163.474L467.872 163.872L467.474 164.951L460.5 183.796L453.526 164.951L453.128 163.872L452.049 163.474L433.204 156.5L452.049 149.526L453.128 149.128L453.526 148.049L460.5 129.204Z" stroke="#F0C966" stroke-width="5"/>
<path d="M529.5 324.204L536.474 343.049L536.872 344.128L537.951 344.526L556.796 351.5L537.951 358.474L536.872 358.872L536.474 359.951L529.5 378.796L522.526 359.951L522.128 358.872L521.049 358.474L502.204 351.5L521.049 344.526L522.128 344.128L522.526 343.049L529.5 324.204Z" stroke="#F0C966" stroke-width="5"/>
<path d="M240.5 188.204L247.474 207.049L247.872 208.128L248.951 208.526L267.796 215.5L248.951 222.474L247.872 222.872L247.474 223.951L240.5 242.796L233.526 223.951L233.128 222.872L232.049 222.474L213.204 215.5L232.049 208.526L233.128 208.128L233.526 207.049L240.5 188.204Z" stroke="#F0C966" stroke-width="5"/>
<path d="M34.5 23.2039L41.4735 42.0495L41.8724 43.1276L42.9505 43.5265L61.7961 50.5L42.9505 57.4735L41.8724 57.8724L41.4735 58.9505L34.5 77.7961L27.5265 58.9505L27.1276 57.8724L26.0495 57.4735L7.20385 50.5L26.0495 43.5265L27.1276 43.1276L27.5265 42.0495L34.5 23.2039Z" stroke="#F0C966" stroke-width="5"/>
<path d="M352.5 73.2039L359.474 92.0495L359.872 93.1276L360.951 93.5265L379.796 100.5L360.951 107.474L359.872 107.872L359.474 108.951L352.5 127.796L345.526 108.951L345.128 107.872L344.049 107.474L325.204 100.5L344.049 93.5265L345.128 93.1276L345.526 92.0495L352.5 73.2039Z" stroke="#F0C966" stroke-width="5"/>
<path d="M879.5 216.204L883.232 226.291L883.631 227.369L884.709 227.768L894.796 231.5L884.709 235.232L883.631 235.631L883.232 236.709L879.5 246.796L875.768 236.709L875.369 235.631L874.291 235.232L864.204 231.5L874.291 227.768L875.369 227.369L875.768 226.291L879.5 216.204Z" stroke="#F0C966" stroke-width="5"/>
<path d="M1112.5 106.204L1116.23 116.291L1116.63 117.369L1117.71 117.768L1127.8 121.5L1117.71 125.232L1116.63 125.631L1116.23 126.709L1112.5 136.796L1108.77 126.709L1108.37 125.631L1107.29 125.232L1097.2 121.5L1107.29 117.768L1108.37 117.369L1108.77 116.291L1112.5 106.204Z" stroke="#F0C966" stroke-width="5"/>
<path d="M1168.5 301.204L1172.23 311.291L1172.63 312.369L1173.71 312.768L1183.8 316.5L1173.71 320.232L1172.63 320.631L1172.23 321.709L1168.5 331.796L1164.77 321.709L1164.37 320.631L1163.29 320.232L1153.2 316.5L1163.29 312.768L1164.37 312.369L1164.77 311.291L1168.5 301.204Z" stroke="#F0C966" stroke-width="5"/>
<path d="M252.5 274.204L256.232 284.291L256.631 285.369L257.709 285.768L267.796 289.5L257.709 293.232L256.631 293.631L256.232 294.709L252.5 304.796L248.768 294.709L248.369 293.631L247.291 293.232L237.204 289.5L247.291 285.768L248.369 285.369L248.768 284.291L252.5 274.204Z" stroke="#F0C966" stroke-width="5"/>
<path d="M1304.5 176.204L1308.23 186.291L1308.63 187.369L1309.71 187.768L1319.8 191.5L1309.71 195.232L1308.63 195.631L1308.23 196.709L1304.5 206.796L1300.77 196.709L1300.37 195.631L1299.29 195.232L1289.2 191.5L1299.29 187.768L1300.37 187.369L1300.77 186.291L1304.5 176.204Z" stroke="#F0C966" stroke-width="5"/>
<path d="M946.5 128.204L950.232 138.291L950.631 139.369L951.709 139.768L961.796 143.5L951.709 147.232L950.631 147.631L950.232 148.709L946.5 158.796L942.768 148.709L942.369 147.631L941.291 147.232L931.204 143.5L941.291 139.768L942.369 139.369L942.768 138.291L946.5 128.204Z" stroke="#F0C966" stroke-width="5"/>
<path d="M696.5 193.204L700.232 203.291L700.631 204.369L701.709 204.768L711.796 208.5L701.709 212.232L700.631 212.631L700.232 213.709L696.5 223.796L692.768 213.709L692.369 212.631L691.291 212.232L681.204 208.5L691.291 204.768L692.369 204.369L692.768 203.291L696.5 193.204Z" stroke="#F0C966" stroke-width="5"/>
<path d="M474.5 223.204L478.232 233.291L478.631 234.369L479.709 234.768L489.796 238.5L479.709 242.232L478.631 242.631L478.232 243.709L474.5 253.796L470.768 243.709L470.369 242.631L469.291 242.232L459.204 238.5L469.291 234.768L470.369 234.369L470.768 233.291L474.5 223.204Z" stroke="#F0C966" stroke-width="5"/>
<path d="M494.5 99.2039L498.232 109.291L498.631 110.369L499.709 110.768L509.796 114.5L499.709 118.232L498.631 118.631L498.232 119.709L494.5 129.796L490.768 119.709L490.369 118.631L489.291 118.232L479.204 114.5L489.291 110.768L490.369 110.369L490.768 109.291L494.5 99.2039Z" stroke="#F0C966" stroke-width="5"/>
<path d="M330.5 164.204L334.232 174.291L334.631 175.369L335.709 175.768L345.796 179.5L335.709 183.232L334.631 183.631L334.232 184.709L330.5 194.796L326.768 184.709L326.369 183.631L325.291 183.232L315.204 179.5L325.291 175.768L326.369 175.369L326.768 174.291L330.5 164.204Z" stroke="#F0C966" stroke-width="5"/>
<path d="M118.5 53.2039L122.232 63.2905L122.631 64.3687L123.709 64.7676L133.796 68.5L123.709 72.2324L122.631 72.6313L122.232 73.7095L118.5 83.7961L114.768 73.7095L114.369 72.6313L113.291 72.2324L103.204 68.5L113.291 64.7676L114.369 64.3687L114.768 63.2905L118.5 53.2039Z" stroke="#F0C966" stroke-width="5"/>
</svg>
