<svg width="1512" height="592" viewBox="0 0 1512 592" fill="none" xmlns="http://www.w3.org/2000/svg">
<rect x="2.5" y="2.5" width="1507" height="587" fill="#F0C966" stroke="black" stroke-width="5"/>
<path d="M944.5 497C944.5 498.892 943.593 500.995 941.324 503.312C939.045 505.637 935.557 508.001 930.844 510.328C921.428 514.978 907.641 519.236 890.4 522.837C855.958 530.031 808.263 534.5 755.5 534.5C702.737 534.5 655.042 530.031 620.6 522.837C603.359 519.236 589.572 514.978 580.156 510.328C575.443 508.001 571.955 505.637 569.676 503.312C567.407 500.995 566.5 498.892 566.5 497C566.5 495.108 567.407 493.005 569.676 490.688C571.955 488.363 575.443 485.999 580.156 483.672C589.572 479.022 603.359 474.764 620.6 471.163C655.042 463.969 702.737 459.5 755.5 459.5C808.263 459.5 855.958 463.969 890.4 471.163C907.641 474.764 921.428 479.022 930.844 483.672C935.557 485.999 939.045 488.363 941.324 490.688C943.593 493.005 944.5 495.108 944.5 497Z" stroke="black" stroke-width="5"/>
<path d="M944.5 537C944.5 538.892 943.593 540.995 941.324 543.312C939.045 545.637 935.557 548.001 930.844 550.328C921.428 554.978 907.641 559.236 890.4 562.837C855.958 570.031 808.263 574.5 755.5 574.5C702.737 574.5 655.042 570.031 620.6 562.837C603.359 559.236 589.572 554.978 580.156 550.328C575.443 548.001 571.955 545.637 569.676 543.312C567.407 540.995 566.5 538.892 566.5 537C566.5 535.108 567.407 533.005 569.676 530.688C571.955 528.363 575.443 525.999 580.156 523.672C589.572 519.022 603.359 514.764 620.6 511.163C655.042 503.969 702.737 499.5 755.5 499.5C808.263 499.5 855.958 503.969 890.4 511.163C907.641 514.764 921.428 519.022 930.844 523.672C935.557 525.999 939.045 528.363 941.324 530.688C943.593 533.005 944.5 535.108 944.5 537Z" stroke="black" stroke-width="5"/>
<circle cx="755.5" cy="272.5" r="246" fill="#F0C966" stroke="black" stroke-width="5"/>
<path d="M637.5 123.204L646.364 147.159L646.763 148.237L647.841 148.636L671.796 157.5L647.841 166.364L646.763 166.763L646.364 167.841L637.5 191.796L628.636 167.841L628.237 166.763L627.159 166.364L603.204 157.5L627.159 148.636L628.237 148.237L628.636 147.159L637.5 123.204Z" stroke="black" stroke-width="5"/>
<path d="M1084.5 303.204L1093.36 327.159L1093.76 328.237L1094.84 328.636L1118.8 337.5L1094.84 346.364L1093.76 346.763L1093.36 347.841L1084.5 371.796L1075.64 347.841L1075.24 346.763L1074.16 346.364L1050.2 337.5L1074.16 328.636L1075.24 328.237L1075.64 327.159L1084.5 303.204Z" stroke="black" stroke-width="5"/>
<path d="M1368.5 82.2039L1377.36 106.159L1377.76 107.237L1378.84 107.636L1402.8 116.5L1378.84 125.364L1377.76 125.763L1377.36 126.841L1368.5 150.796L1359.64 126.841L1359.24 125.763L1358.16 125.364L1334.2 116.5L1358.16 107.636L1359.24 107.237L1359.64 106.159L1368.5 82.2039Z" stroke="black" stroke-width="5"/>
<path d="M91.5 59.2039L100.364 83.1588L100.763 84.2369L101.841 84.6359L125.796 93.5L101.841 102.364L100.763 102.763L100.364 103.841L91.5 127.796L82.6359 103.841L82.2369 102.763L81.1588 102.364L57.2039 93.5L81.1588 84.6359L82.2369 84.2369L82.6359 83.1588L91.5 59.2039Z" stroke="black" stroke-width="5"/>
<path d="M77.5 345.204L86.3641 369.159L86.7631 370.237L87.8412 370.636L111.796 379.5L87.8412 388.364L86.7631 388.763L86.3641 389.841L77.5 413.796L68.6359 389.841L68.2369 388.763L67.1588 388.364L43.2039 379.5L67.1588 370.636L68.2369 370.237L68.6359 369.159L77.5 345.204Z" stroke="black" stroke-width="5"/>
<path d="M1451.5 280.204L1460.36 304.159L1460.76 305.237L1461.84 305.636L1485.8 314.5L1461.84 323.364L1460.76 323.763L1460.36 324.841L1451.5 348.796L1442.64 324.841L1442.24 323.763L1441.16 323.364L1417.2 314.5L1441.16 305.636L1442.24 305.237L1442.64 304.159L1451.5 280.204Z" stroke="black" stroke-width="5"/>
<path d="M756 82.2039L761.758 97.7649L762.157 98.843L763.235 99.2419L778.796 105L763.235 110.758L762.157 111.157L761.758 112.235L756 127.796L750.242 112.235L749.843 111.157L748.765 110.758L733.204 105L748.765 99.2419L749.843 98.843L750.242 97.7649L756 82.2039Z" stroke="black" stroke-width="5"/>
<path d="M1034 52.2039L1039.76 67.7649L1040.16 68.843L1041.24 69.2419L1056.8 75L1041.24 80.7581L1040.16 81.157L1039.76 82.2351L1034 97.7961L1028.24 82.2351L1027.84 81.157L1026.76 80.7581L1011.2 75L1026.76 69.2419L1027.84 68.843L1028.24 67.7649L1034 52.2039Z" stroke="black" stroke-width="5"/>
<path d="M400 112.204L405.758 127.765L406.157 128.843L407.235 129.242L422.796 135L407.235 140.758L406.157 141.157L405.758 142.235L400 157.796L394.242 142.235L393.843 141.157L392.765 140.758L377.204 135L392.765 129.242L393.843 128.843L394.242 127.765L400 112.204Z" stroke="black" stroke-width="5"/>
<path d="M1232 190.204L1237.76 205.765L1238.16 206.843L1239.24 207.242L1254.8 213L1239.24 218.758L1238.16 219.157L1237.76 220.235L1232 235.796L1226.24 220.235L1225.84 219.157L1224.76 218.758L1209.2 213L1224.76 207.242L1225.84 206.843L1226.24 205.765L1232 190.204Z" stroke="black" stroke-width="5"/>
<path d="M1422 172.204L1427.76 187.765L1428.16 188.843L1429.24 189.242L1444.8 195L1429.24 200.758L1428.16 201.157L1427.76 202.235L1422 217.796L1416.24 202.235L1415.84 201.157L1414.76 200.758L1399.2 195L1414.76 189.242L1415.84 188.843L1416.24 187.765L1422 172.204Z" stroke="black" stroke-width="5"/>
<path d="M240 52.2039L245.758 67.7649L246.157 68.843L247.235 69.2419L262.796 75L247.235 80.7581L246.157 81.157L245.758 82.2351L240 97.7961L234.242 82.2351L233.843 81.157L232.765 80.7581L217.204 75L232.765 69.2419L233.843 68.843L234.242 67.7649L240 52.2039Z" stroke="black" stroke-width="5"/>
<path d="M430 333.204L435.758 348.765L436.157 349.843L437.235 350.242L452.796 356L437.235 361.758L436.157 362.157L435.758 363.235L430 378.796L424.242 363.235L423.843 362.157L422.765 361.758L407.204 356L422.765 350.242L423.843 349.843L424.242 348.765L430 333.204Z" stroke="black" stroke-width="5"/>
<path d="M116 206.204L121.758 221.765L122.157 222.843L123.235 223.242L138.796 229L123.235 234.758L122.157 235.157L121.758 236.235L116 251.796L110.242 236.235L109.843 235.157L108.765 234.758L93.2039 229L108.765 223.242L109.843 222.843L110.242 221.765L116 206.204Z" stroke="black" stroke-width="5"/>
<path d="M947 226.204L952.758 241.765L953.157 242.843L954.235 243.242L969.796 249L954.235 254.758L953.157 255.157L952.758 256.235L947 271.796L941.242 256.235L940.843 255.157L939.765 254.758L924.204 249L939.765 243.242L940.843 242.843L941.242 241.765L947 226.204Z" stroke="black" stroke-width="5"/>
<path d="M862 124.322L864.645 131.469L864.884 132.116L865.531 132.355L872.678 135L865.531 137.645L864.884 137.884L864.645 138.531L862 145.678L859.355 138.531L859.116 137.884L858.469 137.645L851.322 135L858.469 132.355L859.116 132.116L859.355 131.469L862 124.322Z" stroke="black" stroke-width="3"/>
<path d="M816 162.322L818.645 169.469L818.884 170.116L819.531 170.355L826.678 173L819.531 175.645L818.884 175.884L818.645 176.531L816 183.678L813.355 176.531L813.116 175.884L812.469 175.645L805.322 173L812.469 170.355L813.116 170.116L813.355 169.469L816 162.322Z" stroke="black" stroke-width="3"/>
<path d="M664 79.3223L666.645 86.4692L666.884 87.1161L667.531 87.3554L674.678 90L667.531 92.6446L666.884 92.8839L666.645 93.5308L664 100.678L661.355 93.5308L661.116 92.8839L660.469 92.6446L653.322 90L660.469 87.3554L661.116 87.1161L661.355 86.4692L664 79.3223Z" stroke="black" stroke-width="3"/>
<path d="M1156 79.3223L1158.64 86.4692L1158.88 87.1161L1159.53 87.3554L1166.68 90L1159.53 92.6446L1158.88 92.8839L1158.64 93.5308L1156 100.678L1153.36 93.5308L1153.12 92.8839L1152.47 92.6446L1145.32 90L1152.47 87.3554L1153.12 87.1161L1153.36 86.4692L1156 79.3223Z" stroke="black" stroke-width="3"/>
<path d="M1085 173.322L1087.64 180.469L1087.88 181.116L1088.53 181.355L1095.68 184L1088.53 186.645L1087.88 186.884L1087.64 187.531L1085 194.678L1082.36 187.531L1082.12 186.884L1081.47 186.645L1074.32 184L1081.47 181.355L1082.12 181.116L1082.36 180.469L1085 173.322Z" stroke="black" stroke-width="3"/>
<path d="M1452 64.3223L1454.64 71.4692L1454.88 72.1161L1455.53 72.3554L1462.68 75L1455.53 77.6446L1454.88 77.8839L1454.64 78.5308L1452 85.6777L1449.36 78.5308L1449.12 77.8839L1448.47 77.6446L1441.32 75L1448.47 72.3554L1449.12 72.1161L1449.36 71.4692L1452 64.3223Z" stroke="black" stroke-width="3"/>
<path d="M1342 237.322L1344.64 244.469L1344.88 245.116L1345.53 245.355L1352.68 248L1345.53 250.645L1344.88 250.884L1344.64 251.531L1342 258.678L1339.36 251.531L1339.12 250.884L1338.47 250.645L1331.32 248L1338.47 245.355L1339.12 245.116L1339.36 244.469L1342 237.322Z" stroke="black" stroke-width="3"/>
<path d="M465 68.3223L467.645 75.4692L467.884 76.1161L468.531 76.3554L475.678 79L468.531 81.6446L467.884 81.8839L467.645 82.5308L465 89.6777L462.355 82.5308L462.116 81.8839L461.469 81.6446L454.322 79L461.469 76.3554L462.116 76.1161L462.355 75.4692L465 68.3223Z" stroke="black" stroke-width="3"/>
<path d="M285 139.322L287.645 146.469L287.884 147.116L288.531 147.355L295.678 150L288.531 152.645L287.884 152.884L287.645 153.531L285 160.678L282.355 153.531L282.116 152.884L281.469 152.645L274.322 150L281.469 147.355L282.116 147.116L282.355 146.469L285 139.322Z" stroke="black" stroke-width="3"/>
<path d="M460 223.322L462.645 230.469L462.884 231.116L463.531 231.355L470.678 234L463.531 236.645L462.884 236.884L462.645 237.531L460 244.678L457.355 237.531L457.116 236.884L456.469 236.645L449.322 234L456.469 231.355L457.116 231.116L457.355 230.469L460 223.322Z" stroke="black" stroke-width="3"/>
<path d="M50 169.322L52.6446 176.469L52.8839 177.116L53.5308 177.355L60.6777 180L53.5308 182.645L52.8839 182.884L52.6446 183.531L50 190.678L47.3554 183.531L47.1161 182.884L46.4692 182.645L39.3223 180L46.4692 177.355L47.1161 177.116L47.3554 176.469L50 169.322Z" stroke="black" stroke-width="3"/>
<path d="M311.5 220.204L320.364 244.159L320.763 245.237L321.841 245.636L345.796 254.5L321.841 263.364L320.763 263.763L320.364 264.841L311.5 288.796L302.636 264.841L302.237 263.763L301.159 263.364L277.204 254.5L301.159 245.636L302.237 245.237L302.636 244.159L311.5 220.204Z" stroke="black" stroke-width="5"/>
</svg>
