<svg width="274" height="719" viewBox="0 0 274 719" fill="none" xmlns="http://www.w3.org/2000/svg">
<path d="M138.5 0V387.5" stroke="white" stroke-width="5" stroke-dasharray="20 20"/>
<path d="M99.7578 428.5L113.163 396.5H163.837L177.242 428.5H99.7578Z" stroke="white" stroke-width="5"/>
<path d="M66.41 429H207.59M66.41 429L4 499.641M66.41 429L96.7062 461.276M207.59 429L270 499.641M207.59 429L174.264 461.276M270 499.641L207.59 518.519M270 499.641L137.909 714M207.59 518.519H66.41M207.59 518.519L137.909 714M207.59 518.519L174.264 461.276M66.41 518.519L4 499.641M66.41 518.519L137.909 714M66.41 518.519L96.7062 461.276M4 499.641L137.909 714M96.7062 461.276H174.264" stroke="white" stroke-width="5"/>
</svg>
