<svg width="524" height="198" viewBox="0 0 524 198" fill="none" xmlns="http://www.w3.org/2000/svg">
<path d="M165.274 62.5369C154.774 50.8703 114.774 -3.53954 92.7736 2.46046M92.7736 2.46046C65.2736 9.96046 23.2736 121.961 3.77356 146.961C-15.7264 171.961 131.274 200.461 165.274 195.461M92.7736 2.46046C89.7736 13.7938 87.1736 41.9606 100.774 63.9606M165.274 195.461C192.474 191.461 192.274 161.461 188.774 146.961M165.274 195.461C165.274 187.627 168.297 182.461 165.274 162.461C164.458 157.067 163.1 151.91 161.315 146.961M100.774 63.9606C115.641 88.0115 148.867 112.445 161.315 146.961M100.774 63.9606L351.274 58.4317M161.315 146.961H325.774M325.774 146.961C330.94 163.127 344.674 195.461 358.274 195.461M325.774 146.961H369.274M358.274 195.461C371.874 195.461 371.274 163.127 369.274 146.961M358.274 195.461C375.44 195.461 414.074 192.76 431.274 181.96C452.774 168.459 520.774 135.461 522.274 122.46C523.774 109.459 515.274 92.46 482.774 57.4606C456.774 29.461 396.274 13.7937 369.274 9.45996M369.274 146.961H393.774L395.274 57.4606L373.274 57.9461M351.274 58.4317C351.774 41.2744 356.074 7.45996 369.274 9.45996M351.274 58.4317L373.274 57.9461M369.274 9.45996C382.474 11.46 377.44 42.6174 373.274 57.9461" stroke="#CE9F26" stroke-width="3"/>
<path d="M171.023 95.4619C170.756 95.4677 170.513 95.4145 170.294 95.3025C170.075 95.1739 169.962 94.9846 169.957 94.7346L169.623 79.1632L165.574 79.2499C165.358 79.2546 165.181 79.1584 165.043 78.9613C164.905 78.7642 164.834 78.5323 164.828 78.2657C164.823 78.0324 164.877 77.8146 164.989 77.6121C165.101 77.4097 165.283 77.3057 165.533 77.3004L175.73 77.0819C175.98 77.0765 176.166 77.1726 176.286 77.37C176.407 77.5675 176.47 77.7829 176.475 78.0161C176.481 78.2661 176.427 78.5006 176.315 78.7197C176.203 78.9222 176.022 79.0261 175.772 79.0314L171.723 79.1182L172.057 94.6896C172.062 94.9396 171.958 95.1335 171.744 95.2715C171.53 95.3927 171.289 95.4562 171.023 95.4619ZM179.677 95.2765C179.377 95.283 179.125 95.2133 178.922 95.0676C178.735 94.9049 178.64 94.7319 178.636 94.5487L178.26 77.0277C178.256 76.8111 178.344 76.6341 178.524 76.4969C178.721 76.3593 178.97 76.2873 179.27 76.2809C179.553 76.2748 179.796 76.3363 179.999 76.4653C180.218 76.594 180.33 76.7666 180.335 76.9832L180.51 85.1564C180.766 84.6674 181.157 84.2256 181.682 83.8309C182.223 83.4193 182.902 83.2047 183.719 83.1872C184.518 83.17 185.256 83.3793 185.933 83.8149C186.608 84.2338 187.154 84.7973 187.569 85.5052C187.984 86.2132 188.202 87.0087 188.22 87.8918L188.359 94.3403C188.364 94.5903 188.26 94.7842 188.046 94.9222C187.832 95.0434 187.592 95.1069 187.325 95.1127C187.075 95.118 186.84 95.0647 186.621 94.9527C186.402 94.824 186.289 94.6347 186.284 94.3848L186.146 87.9363C186.136 87.453 185.992 86.9893 185.716 86.5452C185.44 86.101 185.082 85.7419 184.643 85.4679C184.22 85.1936 183.75 85.0619 183.234 85.073C182.784 85.0826 182.353 85.2169 181.942 85.4757C181.531 85.718 181.196 86.0585 180.939 86.4975C180.681 86.9198 180.559 87.4392 180.572 88.0557L180.71 94.5042C180.714 94.6875 180.61 94.8648 180.397 95.036C180.2 95.1903 179.96 95.2705 179.677 95.2765ZM196.325 95.1199C195.242 95.1431 194.28 94.9636 193.438 94.5816C192.596 94.1829 191.926 93.6304 191.427 92.9243C190.928 92.2015 190.669 91.3568 190.648 90.3904L190.592 87.766C190.573 86.9162 190.782 86.1282 191.216 85.4021C191.667 84.6756 192.263 84.0877 193.004 83.6384C193.744 83.1891 194.564 82.9548 195.464 82.9355C196.331 82.9169 197.126 83.0999 197.852 83.4845C198.593 83.8687 199.188 84.3977 199.636 85.0716C200.1 85.7452 200.342 86.5318 200.362 87.4316C200.376 88.0981 200.278 88.5837 200.068 88.8883C199.857 89.1762 199.586 89.357 199.254 89.4308C198.922 89.5046 198.573 89.5454 198.207 89.5533L192.708 89.6711L192.724 90.4209C192.744 91.354 193.093 92.0884 193.771 92.624C194.449 93.1429 195.313 93.3911 196.363 93.3686C196.979 93.3554 197.469 93.2616 197.832 93.0871C198.195 92.9126 198.492 92.7479 198.722 92.5929C198.952 92.4213 199.158 92.3335 199.341 92.3296C199.525 92.3257 199.676 92.3808 199.795 92.4949C199.93 92.5921 200.033 92.7149 200.103 92.8634C200.173 93.012 200.209 93.1445 200.211 93.2612C200.216 93.4778 200.063 93.7311 199.753 94.0212C199.442 94.2946 198.989 94.546 198.394 94.7755C197.815 94.9879 197.125 95.1027 196.325 95.1199ZM192.678 88.2714L197.302 88.1723C197.752 88.1627 198.042 88.1065 198.173 88.0036C198.321 87.8838 198.391 87.6656 198.384 87.349C198.374 86.8491 198.239 86.3935 197.98 85.9823C197.737 85.5541 197.397 85.2113 196.958 84.954C196.519 84.6967 196.024 84.5739 195.475 84.5857C194.958 84.5967 194.486 84.7319 194.058 84.9911C193.63 85.2337 193.287 85.5661 193.029 85.9884C192.771 86.4107 192.648 86.8717 192.659 87.3716L192.678 88.2714ZM212.298 94.7776C211.415 94.7965 210.593 94.5891 209.834 94.1553C209.074 93.7048 208.461 93.1178 207.996 92.3942C207.53 91.6707 207.288 90.884 207.27 90.0342L207.215 87.4848C207.197 86.635 207.397 85.8472 207.815 85.1214C208.249 84.3786 208.836 83.7743 209.576 83.3083C210.317 82.8423 211.137 82.5997 212.036 82.5804C212.92 82.5615 213.741 82.769 214.5 83.2028C215.259 83.62 215.872 84.182 216.337 84.8888C216.819 85.5953 217.069 86.3902 217.088 87.2733L217.143 89.8227C217.161 90.6558 216.944 91.4523 216.494 92.2122C216.06 92.955 215.473 93.5677 214.733 94.0503C213.993 94.5163 213.181 94.7587 212.298 94.7776ZM212.258 92.9031C212.791 92.8916 213.263 92.7398 213.673 92.4476C214.1 92.1551 214.442 91.781 214.699 91.3254C214.956 90.8531 215.079 90.367 215.068 89.8672L215.014 87.3177C215.003 86.8345 214.86 86.3708 214.584 85.9266C214.324 85.4821 213.975 85.1228 213.535 84.8488C213.096 84.5749 212.61 84.4436 212.077 84.455C211.543 84.4664 211.063 84.6184 210.636 84.911C210.209 85.2035 209.875 85.5774 209.635 86.0327C209.394 86.4879 209.28 86.9572 209.29 87.4404L209.344 89.9898C209.355 90.4897 209.491 90.9702 209.75 91.4314C210.01 91.876 210.359 92.2352 210.799 92.5092C211.238 92.7832 211.724 92.9145 212.258 92.9031ZM220.756 94.3964C220.456 94.4028 220.204 94.3332 220.001 94.1875C219.814 94.0248 219.719 93.8518 219.715 93.6685L219.492 83.2959C219.488 83.0793 219.576 82.9023 219.756 82.7651C219.953 82.6275 220.202 82.5555 220.502 82.5491C220.768 82.5434 220.995 82.6052 221.181 82.7346C221.367 82.864 221.462 83.0369 221.467 83.2536L221.489 84.2783C221.745 83.7894 222.153 83.3472 222.711 82.9518C223.269 82.5398 223.964 82.3249 224.798 82.307C225.597 82.2899 226.335 82.4991 227.011 82.9347C227.687 83.3537 228.233 83.9171 228.648 84.6251C229.063 85.333 229.28 86.1285 229.299 87.0116L229.437 93.4602C229.443 93.7101 229.339 93.9041 229.125 94.042C228.911 94.1633 228.67 94.2268 228.404 94.2325C228.154 94.2378 227.919 94.1845 227.7 94.0725C227.481 93.9439 227.368 93.7546 227.363 93.5046L227.225 87.0561C227.214 86.5729 227.071 86.1092 226.795 85.665C226.535 85.2204 226.186 84.8612 225.747 84.5872C225.307 84.3132 224.829 84.1818 224.313 84.1928C223.863 84.2025 223.432 84.3367 223.021 84.5956C222.61 84.8378 222.275 85.1784 222.018 85.6173C221.76 86.0396 221.638 86.559 221.651 87.1755L221.789 93.624C221.793 93.8073 221.689 93.9846 221.476 94.1559C221.279 94.3101 221.039 94.3903 220.756 94.3964ZM237.405 94.2397C236.322 94.2629 235.359 94.0835 234.518 93.7014C233.676 93.3027 233.005 92.7502 232.507 92.0441C232.008 91.3213 231.748 90.4767 231.727 89.5102L231.671 86.8858C231.653 86.036 231.861 85.248 232.296 84.5219C232.747 83.7954 233.343 83.2075 234.083 82.7582C234.824 82.3089 235.644 82.0746 236.544 82.0553C237.41 82.0368 238.206 82.2198 238.931 82.6043C239.673 82.9885 240.267 83.5176 240.715 84.1915C241.18 84.865 241.422 85.6517 241.441 86.5514C241.455 87.218 241.357 87.7035 241.147 88.0081C240.937 88.296 240.665 88.4768 240.334 88.5506C240.002 88.6244 239.653 88.6652 239.286 88.6731L233.787 88.7909L233.803 89.5407C233.823 90.4739 234.173 91.2082 234.851 91.7438C235.529 92.2627 236.393 92.511 237.442 92.4885C238.059 92.4753 238.549 92.3814 238.912 92.2069C239.275 92.0324 239.571 91.8677 239.801 91.7128C240.031 91.5411 240.237 91.4534 240.421 91.4494C240.604 91.4455 240.755 91.5006 240.874 91.6147C241.01 91.7119 241.113 91.8347 241.182 91.9832C241.252 92.1318 241.288 92.2644 241.291 92.381C241.296 92.5976 241.143 92.851 240.832 93.141C240.521 93.4144 240.068 93.6658 239.473 93.8953C238.894 94.1077 238.205 94.2225 237.405 94.2397ZM233.757 87.3912L238.381 87.2922C238.831 87.2825 239.122 87.2263 239.253 87.1235C239.4 87.0036 239.471 86.7854 239.464 86.4688C239.453 85.9689 239.318 85.5133 239.059 85.1021C238.817 84.6739 238.476 84.3311 238.037 84.0738C237.598 83.8165 237.104 83.6937 236.554 83.7055C236.037 83.7166 235.565 83.8517 235.137 84.1109C234.709 84.3535 234.366 84.6859 234.108 85.1082C233.851 85.5305 233.727 85.9916 233.738 86.4914L233.757 87.3912ZM248.797 99.5219C248.53 99.5276 248.304 99.4657 248.117 99.3364C247.932 99.2237 247.835 98.984 247.827 98.6174C247.822 98.3841 247.859 98.175 247.939 97.9899C248.035 97.8045 248.191 97.7094 248.408 97.7048C248.774 97.6969 249.138 97.5808 249.5 97.3563C249.863 97.1485 250.206 96.8327 250.53 96.409C250.872 96.0016 251.161 95.5203 251.4 94.9651C251.638 94.4098 251.808 93.7977 251.91 93.1287L247.544 83.0949C247.492 82.996 247.465 82.9049 247.464 82.8216C247.46 82.6383 247.531 82.4701 247.678 82.3169C247.825 82.1637 247.997 82.0433 248.195 81.9557C248.41 81.8511 248.609 81.7968 248.792 81.7929C248.925 81.79 249.059 81.8205 249.194 81.8843C249.329 81.9481 249.414 82.0546 249.451 82.2039L252.961 90.8307L255.749 82.0689C255.796 81.9179 255.877 81.8078 255.992 81.7386C256.124 81.6691 256.257 81.6329 256.39 81.6301C256.557 81.6265 256.741 81.6726 256.943 81.7683C257.162 81.8469 257.347 81.9597 257.501 82.1064C257.654 82.2532 257.732 82.4265 257.737 82.6265C257.739 82.7265 257.724 82.8101 257.692 82.8775L254.086 93.1321C253.851 93.8206 253.599 94.5345 253.332 95.2737C253.064 96.013 252.737 96.6951 252.35 97.3202C251.981 97.9616 251.508 98.4802 250.933 98.8759C250.359 99.2883 249.646 99.5037 248.797 99.5219ZM264.239 93.6647C263.356 93.6836 262.534 93.4762 261.775 93.0424C261.015 92.5919 260.402 92.0049 259.937 91.2813C259.471 90.5578 259.229 89.7711 259.211 88.9213L259.157 86.3719C259.138 85.5221 259.338 84.7343 259.756 84.0085C260.19 83.2657 260.777 82.6613 261.518 82.1954C262.258 81.7294 263.078 81.4868 263.978 81.4675C264.861 81.4486 265.682 81.6561 266.441 82.0899C267.201 82.5071 267.813 83.0691 268.278 83.7759C268.76 84.4824 269.01 85.2773 269.029 86.1604L269.084 88.7098C269.102 89.5429 268.885 90.3394 268.435 91.0992C268.001 91.8421 267.414 92.4548 266.674 92.9374C265.934 93.4034 265.122 93.6458 264.239 93.6647ZM264.199 91.7902C264.732 91.7787 265.204 91.6269 265.614 91.3347C266.041 91.0422 266.384 90.6681 266.641 90.2125C266.897 89.7402 267.02 89.2541 267.009 88.7542L266.955 86.2048C266.944 85.7216 266.801 85.2579 266.525 84.8137C266.265 84.3692 265.916 84.0099 265.477 83.7359C265.037 83.4619 264.551 83.3307 264.018 83.3421C263.485 83.3535 263.004 83.5055 262.577 83.7981C262.15 84.0906 261.816 84.4645 261.576 84.9198C261.336 85.375 261.221 85.8442 261.231 86.3275L261.286 88.8769C261.296 89.3768 261.432 89.8573 261.692 90.3185C261.951 90.7631 262.301 91.1223 262.74 91.3963C263.179 91.6703 263.666 91.8016 264.199 91.7902ZM276.525 93.4015C275.609 93.4211 274.771 93.214 274.011 92.7802C273.252 92.3463 272.639 91.7677 272.174 91.0441C271.708 90.3206 271.466 89.5423 271.448 88.7091L271.309 82.2106C271.305 82.0273 271.402 81.8586 271.598 81.7043C271.812 81.5331 272.06 81.4444 272.343 81.4383C272.626 81.4322 272.87 81.5104 273.073 81.6727C273.276 81.8184 273.38 81.9829 273.384 82.1662L273.523 88.6647C273.533 89.1479 273.668 89.6118 273.928 90.0563C274.204 90.5005 274.562 90.8596 275.001 91.1336C275.441 91.4076 275.927 91.5389 276.46 91.5274C276.993 91.516 277.473 91.364 277.901 91.0715C278.328 90.7789 278.661 90.405 278.902 89.9498C279.142 89.4945 279.257 89.0253 279.247 88.5421L279.107 82.0186C279.103 81.8186 279.207 81.6497 279.421 81.5117C279.635 81.3571 279.875 81.2769 280.141 81.2712C280.458 81.2644 280.709 81.3341 280.896 81.4801C281.082 81.6095 281.177 81.7742 281.181 81.9741L281.321 88.4976C281.339 89.3474 281.131 90.1437 280.697 90.8865C280.279 91.6123 279.7 92.2082 278.96 92.6741C278.22 93.1401 277.408 93.3825 276.525 93.4015ZM290.52 92.9016C290.22 92.908 289.969 92.8384 289.766 92.6927C289.579 92.53 289.483 92.357 289.479 92.1737L289.104 74.6527C289.099 74.4361 289.187 74.2592 289.368 74.1219C289.565 73.9844 289.813 73.9123 290.113 73.9059C290.396 73.8999 290.64 73.9613 290.842 74.0903C291.062 74.219 291.174 74.3916 291.178 74.6083L291.554 92.1292C291.558 92.3125 291.453 92.4898 291.24 92.6611C291.043 92.8153 290.803 92.8955 290.52 92.9016ZM299.216 92.9153C298.333 92.9342 297.512 92.7268 296.752 92.2929C295.993 91.8424 295.38 91.2554 294.914 90.5319C294.449 89.8084 294.207 89.0217 294.188 88.1719L294.134 85.6225C294.116 84.7727 294.315 83.9849 294.733 83.2591C295.168 82.5163 295.755 81.9119 296.495 81.4459C297.235 80.98 298.055 80.7374 298.955 80.7181C299.838 80.6992 300.659 80.9066 301.419 81.3404C302.178 81.7576 302.79 82.3196 303.255 83.0265C303.737 83.733 303.988 84.5278 304.007 85.4109L304.061 87.9604C304.079 88.7935 303.863 89.59 303.412 90.3498C302.978 91.0926 302.391 91.7053 301.651 92.188C300.911 92.6539 300.099 92.8964 299.216 92.9153ZM299.176 91.0407C299.709 91.0293 300.181 90.8775 300.592 90.5853C301.019 90.2927 301.361 89.9187 301.618 89.463C301.874 88.9908 301.997 88.5047 301.987 88.0048L301.932 85.4554C301.922 84.9722 301.778 84.5085 301.502 84.0643C301.243 83.6197 300.893 83.2605 300.454 82.9865C300.015 82.7125 299.528 82.5812 298.995 82.5927C298.462 82.6041 297.982 82.7561 297.555 83.0486C297.127 83.3412 296.794 83.7151 296.553 84.1703C296.313 84.6256 296.198 85.0948 296.208 85.578L296.263 88.1275C296.274 88.6273 296.409 89.1079 296.669 89.5691C296.929 90.0136 297.278 90.3729 297.717 90.6469C298.157 90.9209 298.643 91.0521 299.176 91.0407ZM310.579 92.6968C310.363 92.7015 310.162 92.6641 309.977 92.5847C309.809 92.5216 309.69 92.4158 309.62 92.2673L305.299 81.9825C305.281 81.9495 305.255 81.8917 305.22 81.8091C305.202 81.7262 305.192 81.6514 305.19 81.5847C305.187 81.4181 305.25 81.2667 305.38 81.1305C305.527 80.9774 305.7 80.8653 305.898 80.7944C306.113 80.7064 306.312 80.6605 306.496 80.6565C306.629 80.6537 306.763 80.6842 306.898 80.7479C307.032 80.8117 307.126 80.9098 307.179 81.042L310.51 89.4726L313.48 81.007C313.526 80.856 313.599 80.7377 313.697 80.6523C313.812 80.5498 313.961 80.4966 314.144 80.4927C314.31 80.4891 314.495 80.5268 314.696 80.6059C314.898 80.6682 315.083 80.7726 315.253 80.919C315.423 81.0487 315.509 81.1969 315.513 81.3635C315.515 81.4469 315.499 81.5222 315.468 81.5896C315.452 81.6566 315.437 81.7152 315.421 81.7656L311.545 92.226C311.481 92.3608 311.358 92.4718 311.177 92.559C310.995 92.6462 310.796 92.6922 310.579 92.6968ZM322.566 92.415C321.483 92.4382 320.52 92.2588 319.679 91.8767C318.837 91.478 318.166 90.9256 317.668 90.2194C317.169 89.4966 316.909 88.652 316.888 87.6855L316.832 85.0611C316.814 84.2113 317.022 83.4233 317.457 82.6972C317.908 81.9707 318.504 81.3828 319.244 80.9335C319.985 80.4842 320.805 80.2499 321.705 80.2306C322.571 80.2121 323.367 80.3951 324.092 80.7796C324.834 81.1638 325.429 81.6929 325.876 82.3668C326.341 83.0403 326.583 83.827 326.602 84.7268C326.616 85.3933 326.519 85.8788 326.308 86.1834C326.098 86.4713 325.827 86.6522 325.495 86.7259C325.163 86.7997 324.814 86.8406 324.447 86.8484L318.948 86.9662L318.964 87.7161C318.984 88.6492 319.334 89.3835 320.012 89.9191C320.69 90.4381 321.554 90.6863 322.603 90.6638C323.22 90.6506 323.71 90.5567 324.073 90.3822C324.436 90.2078 324.732 90.043 324.962 89.8881C325.192 89.7164 325.399 89.6287 325.582 89.6247C325.765 89.6208 325.916 89.6759 326.036 89.7901C326.171 89.8872 326.274 90.01 326.344 90.1586C326.413 90.3071 326.45 90.4397 326.452 90.5563C326.457 90.7729 326.304 91.0263 325.993 91.3163C325.682 91.5897 325.229 91.8411 324.634 92.0706C324.055 92.2831 323.366 92.3979 322.566 92.415ZM318.918 85.5666L323.542 85.4675C323.992 85.4578 324.283 85.4016 324.414 85.2988C324.561 85.1789 324.632 84.9607 324.625 84.6441C324.614 84.1442 324.479 83.6887 324.221 83.2774C323.978 82.8492 323.637 82.5064 323.198 82.2491C322.759 81.9918 322.265 81.869 321.715 81.8808C321.199 81.8919 320.726 82.027 320.298 82.2862C319.87 82.5288 319.527 82.8612 319.27 83.2835C319.012 83.7058 318.888 84.1669 318.899 84.6668L318.918 85.5666ZM334.761 76.8502C334.411 76.8577 334.101 76.7476 333.829 76.5201C333.574 76.2755 333.443 75.9949 333.436 75.6783C333.429 75.3617 333.548 75.0841 333.793 74.8455C334.055 74.6065 334.361 74.4832 334.71 74.4757C335.077 74.4679 335.379 74.5781 335.618 74.8064C335.873 75.0343 336.004 75.3065 336.01 75.6231C336.017 75.9397 335.898 76.2257 335.654 76.481C335.425 76.7193 335.128 76.8423 334.761 76.8502ZM335.085 91.9467C334.785 91.9531 334.533 91.8835 334.33 91.7378C334.143 91.5751 334.048 91.4021 334.044 91.2188L333.822 80.8462C333.817 80.6296 333.905 80.4527 334.085 80.3155C334.282 80.1779 334.531 80.1059 334.831 80.0994C335.114 80.0934 335.357 80.1548 335.56 80.2839C335.78 80.4125 335.892 80.5852 335.896 80.8018L336.118 91.1744C336.122 91.3577 336.018 91.535 335.805 91.7062C335.608 91.8605 335.368 91.9406 335.085 91.9467ZM342.467 91.9886C341.667 92.0057 340.957 91.9209 340.336 91.7342C339.715 91.5308 339.227 91.2912 338.871 91.0154C338.515 90.7396 338.334 90.4601 338.328 90.1768C338.325 90.0435 338.355 89.9095 338.419 89.7748C338.482 89.6234 338.563 89.4966 338.661 89.3945C338.775 89.2754 338.899 89.2144 339.032 89.2115C339.232 89.2072 339.451 89.3026 339.688 89.4975C339.925 89.6758 340.246 89.8607 340.65 90.0521C341.055 90.2434 341.632 90.3311 342.381 90.315C343.265 90.2961 343.878 90.1246 344.221 89.8005C344.564 89.4598 344.731 89.0894 344.722 88.6895C344.711 88.173 344.553 87.7846 344.247 87.5244C343.941 87.2476 343.553 87.0392 343.083 86.8992C342.613 86.7426 342.118 86.5948 341.599 86.4559C341.079 86.317 340.583 86.1443 340.112 85.9376C339.641 85.7144 339.251 85.406 338.942 85.0125C338.65 84.602 338.496 84.0552 338.482 83.372C338.47 82.8221 338.592 82.2777 338.847 81.7388C339.102 81.1999 339.526 80.749 340.118 80.3862C340.71 80.0068 341.506 79.8064 342.506 79.785C343.089 79.7725 343.649 79.8271 344.185 79.949C344.737 80.0539 345.182 80.211 345.52 80.4205C345.874 80.613 346.054 80.8259 346.059 81.0591C346.061 81.1591 346.031 81.2931 345.968 81.4612C345.904 81.6292 345.816 81.7812 345.702 81.917C345.588 82.0528 345.44 82.1226 345.257 82.1266C345.123 82.1294 344.93 82.0752 344.678 81.9639C344.442 81.8356 344.148 81.7169 343.795 81.6077C343.459 81.4983 343.05 81.4487 342.567 81.459C342.017 81.4708 341.577 81.5803 341.248 81.7873C340.919 81.9778 340.682 82.2079 340.538 82.4777C340.393 82.7309 340.324 82.9908 340.33 83.2574C340.339 83.6739 340.487 83.9958 340.776 84.223C341.08 84.4499 341.468 84.6333 341.938 84.7733C342.424 84.8962 342.927 85.0271 343.446 85.166C343.966 85.2883 344.462 85.4777 344.934 85.7343C345.406 85.9743 345.797 86.316 346.106 86.7594C346.416 87.2029 346.578 87.7995 346.595 88.5494C346.616 89.5658 346.267 90.3901 345.547 91.0224C344.827 91.6379 343.8 91.96 342.467 91.9886ZM171.663 127.656C170.513 127.68 169.558 127.484 168.799 127.067C168.057 126.649 167.495 126.086 167.113 125.378C166.747 124.652 166.555 123.831 166.535 122.914L166.481 120.415C166.462 119.515 166.62 118.695 166.954 117.954C167.305 117.213 167.842 116.618 168.566 116.169C169.306 115.72 170.243 115.483 171.376 115.459C172.109 115.443 172.753 115.521 173.307 115.693C173.861 115.864 174.29 116.08 174.596 116.34C174.902 116.6 175.057 116.855 175.062 117.105C175.065 117.239 175.027 117.39 174.947 117.558C174.884 117.709 174.787 117.845 174.656 117.964C174.542 118.083 174.401 118.145 174.235 118.148C174.068 118.152 173.883 118.081 173.68 117.935C173.493 117.789 173.232 117.653 172.896 117.527C172.576 117.384 172.125 117.318 171.541 117.331C170.525 117.353 169.764 117.636 169.259 118.18C168.771 118.724 168.536 119.454 168.556 120.371L168.609 122.87C168.629 123.786 168.895 124.506 169.406 125.028C169.934 125.551 170.714 125.801 171.747 125.778C172.347 125.766 172.812 125.681 173.142 125.523C173.472 125.35 173.727 125.194 173.907 125.057C174.104 124.903 174.294 124.824 174.478 124.82C174.661 124.816 174.82 124.871 174.956 124.984C175.092 125.082 175.194 125.204 175.264 125.353C175.351 125.501 175.396 125.65 175.399 125.8C175.404 126.05 175.251 126.32 174.941 126.61C174.63 126.884 174.194 127.126 173.631 127.338C173.069 127.534 172.412 127.64 171.663 127.656ZM178.756 127.304C178.456 127.31 178.204 127.24 178.001 127.095C177.814 126.932 177.719 126.759 177.715 126.576L177.34 109.055C177.335 108.838 177.423 108.661 177.603 108.524C177.8 108.386 178.049 108.314 178.349 108.308C178.632 108.302 178.875 108.363 179.078 108.492C179.298 108.621 179.41 108.794 179.414 109.01L179.79 126.531C179.794 126.715 179.689 126.892 179.476 127.063C179.279 127.217 179.039 127.298 178.756 127.304ZM187.452 127.317C186.569 127.336 185.748 127.129 184.988 126.695C184.228 126.244 183.616 125.657 183.15 124.934C182.684 124.21 182.442 123.424 182.424 122.574L182.37 120.025C182.351 119.175 182.551 118.387 182.969 117.661C183.403 116.918 183.99 116.314 184.731 115.848C185.471 115.382 186.291 115.139 187.191 115.12C188.074 115.101 188.895 115.309 189.655 115.742C190.414 116.16 191.026 116.722 191.491 117.429C191.973 118.135 192.223 118.93 192.242 119.813L192.297 122.362C192.315 123.196 192.098 123.992 191.648 124.752C191.214 125.495 190.627 126.107 189.887 126.59C189.147 127.056 188.335 127.298 187.452 127.317ZM187.412 125.443C187.945 125.431 188.417 125.28 188.827 124.987C189.255 124.695 189.597 124.321 189.854 123.865C190.11 123.393 190.233 122.907 190.222 122.407L190.168 119.857C190.157 119.374 190.014 118.911 189.738 118.466C189.478 118.022 189.129 117.663 188.69 117.389C188.25 117.115 187.764 116.983 187.231 116.995C186.698 117.006 186.217 117.158 185.79 117.451C185.363 117.743 185.029 118.117 184.789 118.572C184.549 119.028 184.434 119.497 184.444 119.98L184.499 122.529C184.509 123.029 184.645 123.51 184.905 123.971C185.164 124.416 185.514 124.775 185.953 125.049C186.392 125.323 186.879 125.454 187.412 125.443ZM198.289 127.085C197.489 127.102 196.778 127.017 196.158 126.831C195.536 126.627 195.048 126.388 194.692 126.112C194.336 125.836 194.155 125.557 194.149 125.273C194.146 125.14 194.176 125.006 194.24 124.871C194.304 124.72 194.384 124.593 194.482 124.491C194.596 124.372 194.72 124.311 194.853 124.308C195.053 124.304 195.272 124.399 195.51 124.594C195.747 124.772 196.067 124.957 196.472 125.149C196.876 125.34 197.453 125.428 198.203 125.412C199.086 125.393 199.699 125.221 200.042 124.897C200.385 124.556 200.552 124.186 200.543 123.786C200.532 123.27 200.374 122.881 200.068 122.621C199.762 122.344 199.374 122.136 198.905 121.996C198.435 121.839 197.94 121.691 197.42 121.552C196.9 121.414 196.405 121.241 195.933 121.034C195.462 120.811 195.072 120.503 194.763 120.109C194.471 119.699 194.318 119.152 194.303 118.469C194.291 117.919 194.413 117.374 194.668 116.835C194.923 116.296 195.347 115.846 195.939 115.483C196.531 115.103 197.327 114.903 198.327 114.882C198.91 114.869 199.47 114.924 200.006 115.046C200.558 115.15 201.004 115.308 201.341 115.517C201.696 115.71 201.875 115.922 201.88 116.156C201.882 116.256 201.852 116.39 201.789 116.558C201.726 116.726 201.637 116.878 201.524 117.014C201.41 117.149 201.261 117.219 201.078 117.223C200.945 117.226 200.752 117.172 200.499 117.06C200.263 116.932 199.969 116.813 199.616 116.704C199.281 116.595 198.871 116.545 198.388 116.556C197.838 116.567 197.399 116.677 197.07 116.884C196.74 117.074 196.504 117.304 196.359 117.574C196.215 117.827 196.145 118.087 196.151 118.354C196.16 118.77 196.309 119.092 196.597 119.32C196.902 119.546 197.289 119.73 197.759 119.87C198.245 119.993 198.748 120.124 199.268 120.263C199.787 120.385 200.283 120.574 200.755 120.831C201.227 121.071 201.618 121.413 201.927 121.856C202.237 122.299 202.4 122.896 202.416 123.646C202.438 124.662 202.088 125.487 201.369 126.119C200.648 126.735 199.622 127.057 198.289 127.085ZM209.874 126.837C208.791 126.86 207.829 126.681 206.987 126.299C206.145 125.9 205.475 125.347 204.976 124.641C204.477 123.919 204.217 123.074 204.197 122.107L204.14 119.483C204.122 118.633 204.33 117.845 204.765 117.119C205.216 116.393 205.812 115.805 206.552 115.355C207.293 114.906 208.113 114.672 209.013 114.653C209.879 114.634 210.675 114.817 211.4 115.202C212.142 115.586 212.737 116.115 213.185 116.789C213.649 117.462 213.891 118.249 213.91 119.149C213.925 119.815 213.827 120.301 213.617 120.605C213.406 120.893 213.135 121.074 212.803 121.148C212.471 121.222 212.122 121.262 211.755 121.27L206.257 121.388L206.273 122.138C206.293 123.071 206.642 123.805 207.32 124.341C207.998 124.86 208.862 125.108 209.912 125.086C210.528 125.072 211.018 124.979 211.381 124.804C211.744 124.63 212.041 124.465 212.271 124.31C212.5 124.138 212.707 124.051 212.89 124.047C213.073 124.043 213.225 124.098 213.344 124.212C213.479 124.309 213.582 124.432 213.652 124.58C213.722 124.729 213.758 124.862 213.76 124.978C213.765 125.195 213.612 125.448 213.301 125.738C212.991 126.012 212.537 126.263 211.942 126.493C211.363 126.705 210.674 126.82 209.874 126.837ZM206.227 119.988L210.851 119.889C211.3 119.88 211.591 119.824 211.722 119.721C211.87 119.601 211.94 119.383 211.933 119.066C211.922 118.566 211.788 118.111 211.529 117.699C211.286 117.271 210.945 116.928 210.507 116.671C210.068 116.414 209.573 116.291 209.023 116.303C208.507 116.314 208.035 116.449 207.607 116.708C207.178 116.951 206.835 117.283 206.578 117.705C206.32 118.128 206.197 118.589 206.207 119.089L206.227 119.988ZM217.364 126.476C217.081 126.482 216.838 126.413 216.635 126.267C216.448 126.104 216.352 125.931 216.348 125.748L216.126 115.375C216.122 115.159 216.209 114.982 216.39 114.845C216.587 114.707 216.827 114.635 217.11 114.629C217.394 114.623 217.628 114.685 217.815 114.814C218.001 114.943 218.096 115.116 218.101 115.333L218.126 116.508C218.302 116.154 218.545 115.824 218.855 115.517C219.165 115.194 219.526 114.927 219.938 114.719C220.367 114.509 220.84 114.399 221.356 114.388L222.206 114.37C222.423 114.365 222.608 114.453 222.762 114.633C222.932 114.813 223.02 115.036 223.026 115.303C223.032 115.552 222.953 115.771 222.79 115.958C222.644 116.144 222.463 116.24 222.246 116.244L221.396 116.263C220.863 116.274 220.358 116.435 219.881 116.745C219.405 117.056 219.014 117.489 218.709 118.046C218.42 118.585 218.284 119.238 218.301 120.005L218.423 125.704C218.427 125.887 218.322 126.064 218.109 126.235C217.913 126.39 217.664 126.47 217.364 126.476ZM234.01 126.12C232.661 126.149 231.621 125.871 230.892 125.286C230.179 124.701 229.809 123.751 229.78 122.434L229.505 109.562C229.5 109.346 229.604 109.169 229.818 109.031C230.032 108.893 230.264 108.821 230.514 108.816C230.78 108.81 231.023 108.871 231.243 109C231.462 109.129 231.574 109.301 231.579 109.518L231.682 114.317L234.831 114.249C235.031 114.245 235.183 114.325 235.286 114.49C235.407 114.654 235.469 114.844 235.474 115.061C235.478 115.277 235.424 115.47 235.311 115.639C235.214 115.792 235.066 115.87 234.866 115.874L231.717 115.942L231.855 122.39C231.87 123.107 232.031 123.612 232.337 123.905C232.66 124.182 233.205 124.312 233.971 124.295L234.746 124.279C235.046 124.272 235.273 124.359 235.427 124.539C235.581 124.719 235.66 124.926 235.665 125.159C235.67 125.392 235.6 125.611 235.454 125.814C235.308 126 235.085 126.097 234.785 126.103L234.01 126.12ZM238.674 126.02C238.374 126.026 238.123 125.957 237.919 125.811C237.732 125.648 237.637 125.475 237.633 125.292L237.258 107.771C237.253 107.554 237.341 107.377 237.521 107.24C237.719 107.103 237.967 107.031 238.267 107.024C238.55 107.018 238.793 107.08 238.996 107.209C239.216 107.337 239.328 107.51 239.332 107.726L239.507 115.9C239.764 115.411 240.154 114.969 240.679 114.574C241.221 114.163 241.899 113.948 242.716 113.93C243.516 113.913 244.254 114.123 244.93 114.558C245.606 114.977 246.151 115.541 246.566 116.248C246.982 116.956 247.199 117.752 247.218 118.635L247.356 125.084C247.361 125.334 247.257 125.527 247.043 125.665C246.829 125.787 246.589 125.85 246.322 125.856C246.072 125.861 245.838 125.808 245.619 125.696C245.399 125.567 245.287 125.378 245.281 125.128L245.143 118.68C245.133 118.196 244.99 117.733 244.713 117.288C244.437 116.844 244.079 116.485 243.64 116.211C243.217 115.937 242.748 115.805 242.231 115.816C241.781 115.826 241.351 115.96 240.94 116.219C240.528 116.461 240.194 116.802 239.936 117.241C239.679 117.663 239.556 118.182 239.57 118.799L239.708 125.247C239.712 125.431 239.607 125.608 239.394 125.779C239.197 125.934 238.957 126.014 238.674 126.02ZM252.798 125.917C251.865 125.937 251.06 125.688 250.382 125.169C249.72 124.633 249.377 123.798 249.353 122.665C249.333 121.749 249.568 121.035 250.057 120.525C250.546 119.997 251.222 119.633 252.084 119.431C252.963 119.212 253.977 119.09 255.127 119.066L256.327 119.04L256.316 118.515C256.305 118.015 256.203 117.534 256.01 117.071C255.816 116.592 255.516 116.207 255.11 115.915C254.72 115.607 254.183 115.46 253.5 115.475C252.917 115.487 252.451 115.556 252.104 115.68C251.773 115.804 251.509 115.934 251.312 116.072C251.115 116.193 250.941 116.255 250.791 116.258C250.541 116.263 250.347 116.151 250.209 115.92C250.07 115.673 249.998 115.441 249.994 115.225C249.988 114.958 250.166 114.713 250.528 114.488C250.89 114.264 251.344 114.079 251.891 113.934C252.438 113.789 252.979 113.711 253.512 113.699C254.678 113.674 255.616 113.887 256.326 114.339C257.036 114.791 257.549 115.38 257.864 116.106C258.197 116.833 258.372 117.613 258.39 118.446L258.527 124.844C258.531 125.044 258.435 125.221 258.238 125.376C258.058 125.529 257.818 125.61 257.518 125.616C257.251 125.622 257.025 125.552 256.838 125.406C256.652 125.259 256.556 125.087 256.552 124.887L256.531 123.887C256.108 124.396 255.593 124.857 254.985 125.27C254.377 125.683 253.648 125.899 252.798 125.917ZM253.412 124.229C253.895 124.218 254.359 124.075 254.803 123.799C255.264 123.522 255.64 123.181 255.932 122.774C256.24 122.368 256.39 121.981 256.382 121.614L256.354 120.315L255.479 120.333C254.779 120.348 254.114 120.404 253.482 120.501C252.868 120.598 252.372 120.792 251.995 121.083C251.617 121.358 251.435 121.795 251.448 122.395C251.461 123.045 251.655 123.516 252.028 123.808C252.401 124.1 252.862 124.24 253.412 124.229ZM262.398 125.511C262.099 125.518 261.847 125.448 261.644 125.303C261.457 125.14 261.362 124.967 261.358 124.784L261.135 114.411C261.131 114.194 261.219 114.017 261.399 113.88C261.596 113.743 261.845 113.671 262.145 113.664C262.411 113.658 262.638 113.72 262.824 113.85C263.01 113.979 263.105 114.152 263.11 114.369L263.132 115.393C263.388 114.904 263.795 114.462 264.354 114.067C264.912 113.655 265.607 113.44 266.44 113.422C267.24 113.405 267.978 113.614 268.654 114.05C269.33 114.469 269.876 115.032 270.291 115.74C270.706 116.448 270.923 117.244 270.942 118.127L271.08 124.575C271.086 124.825 270.982 125.019 270.768 125.157C270.554 125.278 270.313 125.342 270.047 125.348C269.797 125.353 269.562 125.3 269.343 125.188C269.124 125.059 269.011 124.87 269.006 124.62L268.868 118.171C268.857 117.688 268.714 117.224 268.438 116.78C268.178 116.336 267.829 115.976 267.389 115.702C266.95 115.428 266.472 115.297 265.956 115.308C265.506 115.318 265.075 115.452 264.664 115.711C264.252 115.953 263.918 116.293 263.661 116.732C263.403 117.155 263.281 117.674 263.294 118.291L263.432 124.739C263.436 124.922 263.332 125.1 263.118 125.271C262.922 125.425 262.682 125.505 262.398 125.511ZM278.821 130.886C278.554 130.892 278.328 130.83 278.142 130.7C277.956 130.588 277.859 130.348 277.851 129.981C277.846 129.748 277.884 129.539 277.963 129.354C278.059 129.168 278.215 129.073 278.432 129.069C278.799 129.061 279.163 128.945 279.525 128.72C279.887 128.513 280.23 128.197 280.555 127.773C280.896 127.366 281.186 126.884 281.424 126.329C281.662 125.774 281.832 125.162 281.935 124.493L277.569 114.459C277.517 114.36 277.49 114.269 277.488 114.186C277.484 114.002 277.555 113.834 277.702 113.681C277.849 113.528 278.021 113.407 278.22 113.32C278.434 113.215 278.633 113.161 278.816 113.157C278.95 113.154 279.084 113.185 279.218 113.248C279.353 113.312 279.439 113.419 279.475 113.568L282.986 122.195L285.774 113.433C285.821 113.282 285.902 113.172 286.017 113.103C286.149 113.033 286.281 112.997 286.415 112.994C286.581 112.991 286.766 113.037 286.968 113.132C287.186 113.211 287.372 113.324 287.525 113.47C287.678 113.617 287.757 113.791 287.761 113.991C287.763 114.09 287.748 114.174 287.717 114.242L284.11 124.496C283.875 125.185 283.624 125.899 283.356 126.638C283.089 127.377 282.761 128.059 282.375 128.684C282.005 129.326 281.533 129.844 280.958 130.24C280.383 130.652 279.671 130.868 278.821 130.886ZM294.263 125.029C293.38 125.048 292.559 124.84 291.799 124.406C291.04 123.956 290.427 123.369 289.961 122.645C289.496 121.922 289.254 121.135 289.236 120.285L289.181 117.736C289.163 116.886 289.363 116.098 289.781 115.373C290.215 114.63 290.802 114.025 291.542 113.559C292.282 113.093 293.102 112.851 294.002 112.832C294.885 112.813 295.706 113.02 296.466 113.454C297.225 113.871 297.837 114.433 298.302 115.14C298.784 115.846 299.035 116.641 299.054 117.524L299.108 120.074C299.126 120.907 298.91 121.703 298.459 122.463C298.025 123.206 297.438 123.819 296.698 124.301C295.958 124.767 295.147 125.01 294.263 125.029ZM294.223 123.154C294.756 123.143 295.228 122.991 295.639 122.699C296.066 122.406 296.408 122.032 296.665 121.577C296.922 121.104 297.045 120.618 297.034 120.118L296.979 117.569C296.969 117.086 296.826 116.622 296.549 116.178C296.29 115.733 295.94 115.374 295.501 115.1C295.062 114.826 294.575 114.695 294.042 114.706C293.509 114.718 293.029 114.87 292.602 115.162C292.174 115.455 291.841 115.829 291.6 116.284C291.36 116.739 291.245 117.208 291.256 117.692L291.31 120.241C291.321 120.741 291.456 121.221 291.716 121.683C291.976 122.127 292.325 122.486 292.764 122.76C293.204 123.034 293.69 123.166 294.223 123.154ZM306.55 124.766C305.633 124.785 304.795 124.578 304.036 124.144C303.276 123.71 302.664 123.132 302.198 122.408C301.733 121.685 301.491 120.906 301.473 120.073L301.334 113.575C301.33 113.391 301.426 113.223 301.623 113.068C301.836 112.897 302.084 112.808 302.367 112.802C302.651 112.796 302.894 112.874 303.098 113.037C303.301 113.182 303.404 113.347 303.408 113.53L303.547 120.029C303.558 120.512 303.693 120.976 303.952 121.42C304.229 121.865 304.586 122.224 305.026 122.498C305.465 122.772 305.951 122.903 306.484 122.891C307.018 122.88 307.498 122.728 307.925 122.436C308.352 122.143 308.686 121.769 308.926 121.314C309.167 120.859 309.282 120.389 309.271 119.906L309.131 113.383C309.127 113.183 309.232 113.014 309.446 112.876C309.659 112.721 309.899 112.641 310.166 112.635C310.482 112.628 310.734 112.698 310.92 112.844C311.106 112.974 311.202 113.138 311.206 113.338L311.346 119.862C311.364 120.711 311.156 121.508 310.722 122.251C310.304 122.976 309.725 123.572 308.985 124.038C308.244 124.504 307.433 124.747 306.55 124.766ZM323.394 124.205C322.044 124.233 321.005 123.956 320.275 123.371C319.563 122.786 319.192 121.836 319.164 120.519L318.888 107.647C318.884 107.431 318.988 107.253 319.202 107.115C319.416 106.977 319.648 106.906 319.898 106.9C320.164 106.895 320.407 106.956 320.627 107.085C320.846 107.214 320.958 107.386 320.963 107.603L321.066 112.402L324.215 112.334C324.415 112.33 324.567 112.41 324.67 112.575C324.79 112.739 324.853 112.929 324.857 113.146C324.862 113.362 324.808 113.555 324.695 113.724C324.598 113.876 324.45 113.955 324.25 113.959L321.1 114.026L321.239 120.475C321.254 121.191 321.415 121.696 321.721 121.99C322.044 122.266 322.588 122.396 323.355 122.38L324.13 122.363C324.43 122.357 324.657 122.444 324.81 122.624C324.964 122.804 325.044 123.011 325.049 123.244C325.054 123.477 324.983 123.695 324.838 123.899C324.692 124.085 324.469 124.182 324.169 124.188L323.394 124.205ZM328.058 124.105C327.758 124.111 327.506 124.041 327.303 123.896C327.116 123.733 327.021 123.56 327.017 123.377L326.642 105.856C326.637 105.639 326.725 105.462 326.905 105.325C327.102 105.187 327.351 105.115 327.651 105.109C327.934 105.103 328.177 105.164 328.38 105.293C328.599 105.422 328.711 105.595 328.716 105.811L328.891 113.984C329.147 113.496 329.538 113.054 330.063 112.659C330.604 112.247 331.283 112.033 332.1 112.015C332.9 111.998 333.638 112.207 334.314 112.643C334.989 113.062 335.535 113.625 335.95 114.333C336.366 115.041 336.583 115.837 336.602 116.72L336.74 123.168C336.745 123.418 336.641 123.612 336.427 123.75C336.213 123.872 335.973 123.935 335.706 123.941C335.456 123.946 335.222 123.893 335.002 123.781C334.783 123.652 334.671 123.463 334.665 123.213L334.527 116.764C334.517 116.281 334.373 115.817 334.097 115.373C333.821 114.929 333.463 114.57 333.024 114.296C332.601 114.022 332.132 113.89 331.615 113.901C331.165 113.911 330.735 114.045 330.323 114.304C329.912 114.546 329.577 114.887 329.32 115.326C329.062 115.748 328.94 116.267 328.953 116.884L329.091 123.332C329.095 123.516 328.991 123.693 328.778 123.864C328.581 124.018 328.341 124.099 328.058 124.105ZM340.28 108.739C339.93 108.747 339.619 108.637 339.347 108.409C339.092 108.165 338.961 107.884 338.954 107.567C338.947 107.251 339.067 106.973 339.312 106.735C339.573 106.496 339.879 106.372 340.229 106.365C340.595 106.357 340.898 106.467 341.136 106.695C341.391 106.923 341.522 107.196 341.529 107.512C341.535 107.829 341.417 108.115 341.172 108.37C340.944 108.608 340.646 108.731 340.28 108.739ZM340.603 123.836C340.303 123.842 340.052 123.773 339.848 123.627C339.662 123.464 339.566 123.291 339.562 123.108L339.34 112.735C339.335 112.519 339.423 112.342 339.604 112.205C339.801 112.067 340.049 111.995 340.349 111.989C340.633 111.982 340.876 112.044 341.078 112.173C341.298 112.302 341.41 112.474 341.415 112.691L341.637 123.063C341.641 123.247 341.536 123.424 341.323 123.595C341.126 123.75 340.886 123.83 340.603 123.836ZM345.607 123.729C345.307 123.735 345.055 123.665 344.852 123.52C344.665 123.357 344.57 123.184 344.566 123.001L344.344 112.628C344.339 112.411 344.427 112.235 344.607 112.097C344.805 111.96 345.053 111.888 345.353 111.881C345.62 111.876 345.846 111.937 346.032 112.067C346.218 112.196 346.314 112.369 346.318 112.586L346.34 113.611C346.597 113.122 347.004 112.679 347.562 112.284C348.12 111.872 348.816 111.657 349.649 111.639C350.449 111.622 351.187 111.831 351.863 112.267C352.539 112.686 353.084 113.249 353.499 113.957C353.915 114.665 354.132 115.461 354.151 116.344L354.289 122.792C354.294 123.042 354.19 123.236 353.976 123.374C353.762 123.496 353.522 123.559 353.255 123.565C353.005 123.57 352.771 123.517 352.552 123.405C352.332 123.276 352.22 123.087 352.214 122.837L352.076 116.388C352.066 115.905 351.922 115.441 351.646 114.997C351.387 114.553 351.037 114.193 350.598 113.919C350.159 113.645 349.681 113.514 349.164 113.525C348.714 113.535 348.284 113.669 347.872 113.928C347.461 114.17 347.126 114.511 346.869 114.95C346.611 115.372 346.489 115.891 346.502 116.508L346.641 122.956C346.645 123.14 346.54 123.317 346.327 123.488C346.13 123.642 345.89 123.723 345.607 123.729ZM358.153 123.46C357.87 123.466 357.626 123.396 357.423 123.25C357.236 123.088 357.141 122.915 357.137 122.731L356.762 105.21C356.757 104.994 356.845 104.817 357.025 104.68C357.222 104.542 357.463 104.47 357.746 104.464C358.046 104.458 358.297 104.519 358.5 104.648C358.719 104.777 358.831 104.949 358.836 105.166L359.087 116.863L364.675 111.592C364.823 111.473 364.971 111.411 365.121 111.408C365.288 111.404 365.447 111.451 365.599 111.548C365.768 111.627 365.904 111.741 366.007 111.889C366.127 112.036 366.188 112.193 366.192 112.36C366.194 112.443 366.179 112.535 366.148 112.636C366.116 112.72 366.06 112.796 365.978 112.865L362.569 116.013L366.847 121.948C366.933 122.063 366.978 122.187 366.98 122.32C366.984 122.487 366.929 122.655 366.816 122.824C366.703 122.993 366.556 123.13 366.375 123.234C366.21 123.337 366.036 123.391 365.853 123.395C365.62 123.4 365.426 123.296 365.271 123.082L361.173 117.344L359.138 119.238L359.212 122.687C359.215 122.87 359.111 123.048 358.898 123.219C358.701 123.373 358.453 123.453 358.153 123.46ZM369.524 123.366C369.141 123.374 368.821 123.248 368.566 122.987C368.31 122.725 368.179 122.428 368.171 122.095C368.164 121.728 368.282 121.417 368.526 121.162C368.771 120.89 369.084 120.75 369.468 120.742C369.801 120.735 370.095 120.862 370.351 121.123C370.623 121.367 370.763 121.673 370.771 122.039C370.778 122.372 370.651 122.675 370.39 122.948C370.146 123.219 369.857 123.359 369.524 123.366Z" fill="#CE9F26"/>
</svg>
