<svg width="124" height="108" viewBox="0 0 124 108" fill="none" xmlns="http://www.w3.org/2000/svg">
<g id="Group 15">
<path id="Vector 5" d="M60.909 44.5124C60.1629 48.3375 58.9992 53.4245 57.485 58.9253M57.485 58.9253C53.7163 72.6159 47.7761 88.8698 40.6984 94.6146C28.2965 104.681 -17.6366 63.5009 11.5309 28.9555C40.6984 -5.58989 58.3827 0.81588 70.7846 6.53531C82.2952 11.8437 115.37 48.684 107.028 76.9988M57.485 58.9253C61.9182 74.1009 62.287 97.8175 68.7176 101.478C74.4434 104.737 85.2673 110.717 99.0819 91.6405M99.0819 91.6405C100.783 89.2921 102.528 86.5641 104.316 83.4045C105.488 81.3328 106.382 79.1913 107.028 76.9988M99.0819 91.6405L113.502 104.91L122 91.6405L107.028 76.9988" stroke="white" stroke-width="3"/>
<path id="Vector 6" d="M34 17C21.5527 29.5078 7.64098 35.7617 8.00707 50.8446C8.37317 65.9275 26.6781 86.5285 31.8035 88" stroke="white" stroke-width="3"/>
</g>
</svg>
