<svg width="406" height="368" viewBox="0 0 406 368" fill="none" xmlns="http://www.w3.org/2000/svg">
<path d="M29.3148 103.832H277.899C291.698 103.832 303.148 113.952 304.053 127.537C305.812 153.945 306.797 196.624 299.719 237.526C292.617 278.562 277.52 317.094 247.719 336.109C217.27 355.537 186.446 365.054 155.663 364.99C124.877 364.925 93.9596 355.276 63.3302 336.097C33.3205 317.306 17.5292 278.981 9.63888 238.069C1.77363 197.287 1.89018 154.626 3.12453 128.044C3.76537 114.243 15.3118 103.832 29.3148 103.832Z" stroke="black" stroke-width="5"/>
<path d="M296.579 257.461C297.388 257.708 298.377 257.996 299.514 258.301C302.822 259.188 307.418 260.229 312.555 260.831C322.665 262.018 335.602 261.597 344.632 254.072C365.499 236.683 365.499 202.062 344.632 184.673C335.697 177.227 324.947 176.466 316.705 177.441C312.563 177.931 308.97 178.866 306.412 179.678C306.187 179.75 305.969 179.821 305.759 179.89V158.981C305.882 158.933 306.011 158.881 306.148 158.828C307.389 158.34 309.203 157.661 311.47 156.905C316.01 155.391 322.339 153.578 329.508 152.37C343.962 149.936 361.264 150.059 374.364 159.35C393.198 172.707 402.756 195.713 402.756 218.935C402.756 242.158 393.198 265.164 374.364 278.521C367.908 283.1 359.38 285.41 349.994 286.19C340.63 286.967 330.617 286.206 321.378 284.82C312.151 283.436 303.769 281.44 297.691 279.788C294.654 278.963 292.198 278.226 290.505 277.696C290.407 277.665 290.311 277.635 290.217 277.605L296.579 257.461Z" stroke="black" stroke-width="5"/>
<path d="M85.734 2C85.734 2 73.0149 17.3147 75.2347 30.5C77.559 44.3062 92.1006 45.0456 93.2347 59C94.1871 70.7177 80.734 80.5 80.734 80.5" stroke="black" stroke-width="5"/>
<path d="M155.494 2C155.494 2 142.775 17.3147 144.994 30.5C147.319 44.3062 161.86 45.0456 162.994 59C163.947 70.7177 150.494 80.5 150.494 80.5" stroke="black" stroke-width="5"/>
<path d="M225.494 2C225.494 2 212.775 17.3147 214.994 30.5C217.319 44.3062 231.86 45.0456 232.994 59C233.947 70.7177 220.494 80.5 220.494 80.5" stroke="black" stroke-width="5"/>
</svg>
