<svg width="240" height="531" viewBox="0 0 240 531" fill="none" xmlns="http://www.w3.org/2000/svg">
<rect x="2.5" y="2.5" width="235" height="526" fill="#F0F7C7" stroke="#80DC9F" stroke-width="5"/>
<path d="M127.863 257L116.658 241.925V257H112.833V224.6H116.658V238.73L126.828 224.6H131.103L119.808 240.035L132.543 257H127.863ZM132.977 264.6L123.887 284.04V297H120.107V284.04L110.837 264.6H115.022L122.087 280.08L129.242 264.6H132.977ZM109.34 320.8C109.34 317.65 109.67 315.01 110.33 312.88C110.99 310.72 111.86 308.98 112.94 307.66C114.02 306.34 115.25 305.395 116.63 304.825C118.04 304.225 119.495 303.925 120.995 303.925C122.495 303.925 123.935 304.225 125.315 304.825C126.725 305.395 127.97 306.34 129.05 307.66C130.13 308.98 131 310.72 131.66 312.88C132.32 315.01 132.65 317.65 132.65 320.8C132.65 323.95 132.32 326.605 131.66 328.765C131 330.895 130.13 332.62 129.05 333.94C127.97 335.26 126.725 336.22 125.315 336.82C123.905 337.39 122.465 337.675 120.995 337.675C119.495 337.675 118.04 337.39 116.63 336.82C115.25 336.22 114.02 335.26 112.94 333.94C111.86 332.62 110.99 330.895 110.33 328.765C109.67 326.605 109.34 323.95 109.34 320.8ZM113.255 320.8C113.255 325.36 113.9 328.825 115.19 331.195C116.48 333.565 118.415 334.75 120.995 334.75C123.575 334.75 125.51 333.565 126.8 331.195C128.09 328.825 128.735 325.36 128.735 320.8C128.735 316.24 128.09 312.775 126.8 310.405C125.51 308.035 123.575 306.85 120.995 306.85C118.415 306.85 116.48 308.035 115.19 310.405C113.9 312.775 113.255 316.24 113.255 320.8ZM114.939 344.6V367.55C114.939 369.8 115.404 371.54 116.334 372.77C117.264 374 118.824 374.615 121.014 374.615C123.204 374.615 124.779 374 125.739 372.77C126.729 371.54 127.224 369.8 127.224 367.55V344.6H130.869V367.595C130.869 370.895 130.014 373.4 128.304 375.11C126.624 376.82 124.194 377.675 121.014 377.675C117.834 377.675 115.389 376.82 113.679 375.11C111.969 373.4 111.114 370.895 111.114 367.595V344.6H114.939Z" fill="#80DC9F"/>
<path d="M95.66 88.47H146.48V93.51H95.66V88.47ZM92.3 41.08H97.55V98.55H92.3V41.08ZM144.31 41.01H149.7V98.76H144.31V41.01ZM131.78 37.23L137.24 38.63C129.47 58.16 118.06 75.17 104.48 86.3C103.43 85.32 100.98 83.5 99.58 82.66C113.51 72.37 124.71 55.71 131.78 37.23ZM101.19 49.27L104.76 45.28C118.06 54.1 134.3 66.84 141.86 75.94L137.66 80.7C130.45 71.67 114.56 58.3 101.19 49.27Z" fill="#80DC9F"/>
<path d="M44.5 114.5H197.5" stroke="#80DC9F" stroke-width="3"/>
</svg>
