<svg width="494" height="692" viewBox="0 0 494 692" fill="none" xmlns="http://www.w3.org/2000/svg">
<path d="M479 691.434L493.434 677L479 662.566L464.566 677L479 691.434ZM15 691.434L29.4338 677L15 662.566L0.566243 677L15 691.434ZM35 5.5H459V0.5H35V5.5ZM476.5 23V677H481.5V23H476.5ZM17.5 677V23H12.5V677H17.5ZM459 5.5C468.665 5.5 476.5 13.335 476.5 23H481.5C481.5 10.5736 471.426 0.5 459 0.5V5.5ZM35 0.5C22.5736 0.5 12.5 10.5736 12.5 23H17.5C17.5 13.335 25.335 5.5 35 5.5V0.5Z" fill="#F9D1D1"/>
</svg>
