<svg width="175" height="201" viewBox="0 0 175 201" fill="none" xmlns="http://www.w3.org/2000/svg">
<path d="M84.6152 3.10847C85.4434 0.206193 89.5565 0.206184 90.3848 3.10847L107.234 62.147C107.678 63.7039 109.277 64.6273 110.848 64.2337L170.401 49.3059C173.329 48.5721 175.385 52.1341 173.286 54.3026L130.582 98.4133C129.455 99.5765 129.455 101.423 130.581 102.587L173.286 146.697C175.385 148.866 173.329 152.428 170.401 151.694L110.848 136.766C109.277 136.373 107.678 137.296 107.234 138.853L90.3848 197.892C89.5566 200.794 85.4435 200.794 84.6152 197.892L67.7664 138.853C67.3221 137.296 65.7226 136.373 64.1521 136.766L4.59887 151.694C1.67129 152.428 -0.385269 148.866 1.71404 146.697L44.4185 102.587C45.5446 101.423 45.5446 99.5765 44.4185 98.4133L1.71405 54.3026C-0.385263 52.1341 1.67128 48.5721 4.59886 49.3059L64.1521 64.2337C65.7226 64.6273 67.3221 63.7039 67.7664 62.147L84.6152 3.10847Z" fill="#FBEFFF"/>
</svg>
