<svg width="1313" height="1940" viewBox="0 0 1313 1940" fill="none" xmlns="http://www.w3.org/2000/svg">
<path d="M23.4461 973.568C23.4461 908.992 29.2413 858.259 34.7402 810.12C37.0715 789.71 39.3496 769.767 41.1101 749.433C47.0202 681.174 47.0132 609.057 23.388 501.411C-0.104021 394.372 -0.11692 276.733 5.76762 185.772C8.70879 140.308 13.1206 101.545 16.7964 74.1522C18.6343 60.4564 20.2879 49.6046 21.4814 42.1806C22.0782 38.4687 22.5599 35.6137 22.892 33.6889C22.9826 33.1638 23.062 32.708 23.1297 32.3228C23.4817 32.2284 23.894 32.1185 24.3655 31.994C26.1829 31.5143 28.8785 30.818 32.3802 29.9552C39.3838 28.2295 49.6108 25.8378 62.4835 23.1793C88.2311 17.862 124.552 11.4803 166.826 7.226C251.43 -1.28816 359.634 -1.25435 454.645 32.6808C532.74 60.5746 592.808 77.7524 655.753 79.3226C718.727 80.8935 784.365 66.8408 873.666 32.6613C962.26 -1.248 1066.12 -1.28917 1148.01 7.22511C1188.92 11.4788 1224.28 17.8599 1249.41 23.1768C1261.97 25.835 1271.97 28.2266 1278.83 29.9522C1282.26 30.8149 1284.9 31.5111 1286.68 31.9908C1287.15 32.1179 1287.56 32.2298 1287.91 32.3255C1287.99 32.6933 1288.07 33.1281 1288.17 33.6287C1288.54 35.4762 1289.06 38.2198 1289.72 41.7942C1291.02 48.9432 1292.83 59.4152 1294.85 72.6892C1298.87 99.2383 1303.7 136.99 1306.92 181.776C1313.36 271.375 1313.35 389.005 1287.62 501.389C1261.75 614.386 1261.74 686.517 1268.21 753.472C1270.14 773.422 1272.64 792.856 1275.19 812.741C1281.22 859.624 1287.56 909.01 1287.56 973.568C1287.56 1038.18 1282.86 1091.27 1278.41 1141.61C1276.52 1162.94 1274.68 1183.77 1273.26 1204.77C1268.48 1275.31 1268.48 1347.4 1287.61 1445.67C1306.62 1543.37 1306.64 1661.03 1301.87 1754.37C1299.49 1801.02 1295.91 1841.56 1292.94 1870.43C1291.45 1884.86 1290.11 1896.38 1289.14 1904.28C1288.66 1908.23 1288.27 1911.28 1288 1913.34C1287.94 1913.83 1287.88 1914.26 1287.83 1914.63C1287.54 1914.67 1287.22 1914.72 1286.87 1914.78C1286.38 1914.85 1285.82 1914.94 1285.21 1915.03C1283.52 1915.28 1281.36 1915.6 1278.77 1915.97C1271.73 1916.98 1261.48 1918.39 1248.71 1919.94C1223.16 1923.06 1187.52 1926.79 1147.11 1929.29C1066.22 1934.27 966.548 1934.25 890.658 1914.39C801.103 1890.96 731.578 1877.85 664.68 1877.18C597.744 1876.51 533.574 1888.29 454.699 1914.44C376.514 1940.36 268.308 1940.4 179.382 1933.88C134.972 1930.63 95.4677 1925.74 67.0665 1921.67C52.8669 1919.64 41.4455 1917.81 33.577 1916.48C29.6429 1915.82 26.5972 1915.29 24.5368 1914.92C24.021 1914.83 23.567 1914.75 23.1762 1914.68C23.1137 1914.22 23.04 1913.67 22.9556 1913.04C22.6545 1910.79 22.2181 1907.47 21.6776 1903.17C20.5967 1894.59 19.0994 1882.13 17.4355 1866.65C14.1076 1835.69 10.1143 1792.65 7.45221 1744.33C2.12333 1647.6 2.15019 1530.03 23.3704 1445.8C44.781 1360.82 44.7698 1288.66 39.4298 1214.8C37.8392 1192.8 35.7796 1170.67 33.6712 1148.02C28.6949 1094.56 23.4461 1038.17 23.4461 973.568Z" fill="#CC94DE" fill-opacity="0.65" stroke="#824496" stroke-width="5"/>
</svg>
