<svg width="649" height="128" viewBox="0 0 649 128" fill="none" xmlns="http://www.w3.org/2000/svg">
<path d="M25.4704 14.8427C25.4258 12.8311 28.0452 12.0203 29.1448 13.7053L34.3355 21.6592C34.9254 22.5631 36.1261 22.8359 37.0487 22.2756L45.1665 17.3452C46.8863 16.3007 48.8982 18.1638 47.9887 19.9586L43.6958 28.4308C43.208 29.3937 43.5721 30.5699 44.5186 31.0887L52.8473 35.6537C54.6118 36.6208 54.0043 39.2948 51.9952 39.4046L42.5115 39.9229C41.4338 39.9818 40.5972 40.8853 40.6212 41.9644L40.8321 51.4598C40.8768 53.4714 38.2573 54.2823 37.1577 52.5972L31.967 44.6433C31.3771 43.7394 30.1764 43.4667 29.2539 44.027L21.136 48.9573C19.4163 50.0018 17.4043 48.1388 18.3138 46.3439L22.6067 37.8717C23.0945 36.9089 22.7304 35.7327 21.7839 35.2139L13.4552 30.6488C11.6908 29.6817 12.2982 27.0078 14.3074 26.898L23.791 26.3796C24.8687 26.3207 25.7053 25.4173 25.6813 24.3382L25.4704 14.8427Z" fill="#FBEFFF"/>
<path d="M615.674 79.3581C615.63 77.3465 618.249 76.5356 619.349 78.2206L622.63 83.2485C623.22 84.1524 624.421 84.4252 625.343 83.8649L630.475 80.7483C632.194 79.7038 634.206 81.5668 633.297 83.3617L630.583 88.7172C630.095 89.68 630.459 90.8563 631.406 91.375L636.671 94.2608C638.435 95.2279 637.828 97.9018 635.819 98.0116L629.824 98.3393C628.746 98.3982 627.909 99.3016 627.933 100.381L628.067 106.383C628.111 108.395 625.492 109.206 624.392 107.52L621.111 102.493C620.521 101.589 619.321 101.316 618.398 101.876L613.266 104.993C611.547 106.037 609.535 104.174 610.444 102.379L613.158 97.0239C613.646 96.0611 613.282 94.8849 612.335 94.3661L607.07 91.4804C605.306 90.5132 605.913 87.8393 607.922 87.7295L613.917 87.4019C614.995 87.3429 615.832 86.4395 615.808 85.3604L615.674 79.3581Z" fill="#FBEFFF"/>
<path d="M53.5244 60.8863C53.4798 58.8747 56.1262 58.0554 57.2258 59.7405V59.7405C57.8157 60.6444 59.0363 60.9217 59.9589 60.3614V60.3614C61.6786 59.3169 63.7113 61.1991 62.8018 62.994V62.994C62.314 63.9568 62.6841 65.1525 63.6306 65.6713V65.6713C65.3951 66.6384 64.7813 69.3399 62.7722 69.4497V69.4497C61.6945 69.5086 60.844 70.427 60.868 71.5061V71.5061C60.9127 73.5177 58.2662 74.3369 57.1666 72.6519V72.6519C56.5767 71.748 55.3561 71.4707 54.4336 72.031V72.031C52.7138 73.0755 50.6811 71.1933 51.5906 69.3984V69.3984C52.0784 68.4356 51.7083 67.2399 50.7618 66.7211V66.7211C48.9974 65.754 49.6111 63.0525 51.6202 62.9427V62.9427C52.6979 62.8838 53.5484 61.9654 53.5244 60.8863V60.8863Z" fill="#FBEFFF"/>
<path d="M98.4254 38.22C97.1654 40.98 95.3054 43.26 92.8454 45.06C90.3854 46.86 87.7154 47.76 84.8354 47.76C81.9554 47.76 79.5854 46.92 77.7254 45.24C75.9254 43.56 75.0254 41.07 75.0254 37.77C75.0254 34.47 76.4954 31.95 79.4354 30.21C82.3754 28.41 85.8254 27.51 89.7854 27.51H125.515C125.695 28.35 125.785 29.16 125.785 29.94C125.785 31.98 125.125 33.87 123.805 35.61C122.485 37.35 120.475 38.22 117.775 38.22C117.655 38.22 117.565 38.22 117.505 38.22H98.4254ZM86.7254 38.22C84.5054 38.22 83.3954 39 83.3954 40.56C83.3954 41.82 84.3554 42.45 86.2754 42.45C87.1754 42.45 88.2254 42.06 89.4254 41.28C90.6854 40.5 91.7354 39.48 92.5754 38.22H86.7254ZM105.355 78.72C103.855 90.48 98.5454 96.36 89.4254 96.36C86.1854 96.36 83.5754 95.37 81.5954 93.39C79.6754 91.41 78.7154 88.92 78.7154 85.92C78.7154 78.9 84.0554 72.9 94.7354 67.92L97.8854 43.98C100.345 42.42 103.195 41.64 106.435 41.64C107.935 41.64 109.375 41.79 110.755 42.09L105.355 78.72ZM93.7454 75.57C88.1654 78.81 85.3754 81.93 85.3754 84.93C85.3754 87.09 86.4254 88.17 88.5254 88.17C90.9254 88.17 92.4254 85.86 93.0254 81.24L93.7454 75.57ZM161.65 96.18C158.29 96.18 155.74 95.1 154 92.94C152.32 90.72 151.18 86.61 150.58 80.61C150.22 77.49 149.86 73.44 149.5 68.46C145.3 69.72 141.07 71.04 136.81 72.42L133.75 80.88C133.15 82.5 132.73 83.67 132.49 84.39C132.25 85.05 131.8 86.07 131.14 87.45C130.54 88.83 130 89.85 129.52 90.51C129.1 91.11 128.47 91.89 127.63 92.85C126.85 93.81 126.04 94.5 125.2 94.92C123.04 96 120.73 96.54 118.27 96.54C115.81 96.54 113.8 95.67 112.24 93.93C110.74 92.13 109.99 89.94 109.99 87.36C109.99 86.64 110.05 85.89 110.17 85.11C110.95 79.35 116.86 74.1 127.9 69.36C131.02 61.38 136.21 47.94 143.47 29.04C145.39 27.96 147.82 27.42 150.76 27.42C151.42 27.42 152.05 27.42 152.65 27.42C153.25 27.42 153.97 27.42 154.81 27.42C155.71 27.42 156.82 27.6 158.14 27.96C158.2 30.78 159.58 48.27 162.28 80.43C162.52 83.13 162.85 84.9 163.27 85.74C163.69 86.52 164.41 86.91 165.43 86.91C167.11 86.91 169.33 85.77 172.09 83.49C174.91 81.21 177.43 78.36 179.65 74.94L182.17 81.06L180.01 83.94C173.71 92.1 167.59 96.18 161.65 96.18ZM147.34 43.08L139.51 64.95C143.71 63.51 146.83 62.46 148.87 61.8L147.34 43.08ZM124.75 77.19C119.17 80.01 116.38 82.77 116.38 85.47C116.38 87.39 117.1 88.35 118.54 88.35C119.62 88.35 120.49 87.57 121.15 86.01C121.93 84.33 123.13 81.39 124.75 77.19ZM238.408 76.65L241.288 81.06C238.348 91.38 232.258 96.54 223.018 96.54C220.918 96.54 219.088 96.15 217.528 95.37C216.028 94.59 214.888 93.66 214.108 92.58C213.328 91.5 212.698 90.12 212.218 88.44C211.558 85.92 211.198 82.59 211.138 78.45C211.138 74.31 210.628 71.46 209.608 69.9C208.648 68.34 206.788 67.47 204.028 67.29L205.018 59.64C205.138 59.64 205.228 59.64 205.288 59.64C208.768 59.64 211.648 58.65 213.928 56.67C216.388 54.45 217.618 51.6 217.618 48.12C217.618 44.64 215.968 41.7 212.668 39.3C209.428 36.9 205.228 35.7 200.068 35.7C193.408 35.7 188.278 37.35 184.678 40.65C182.758 42.45 181.798 44.61 181.798 47.13C181.798 50.31 184.228 52.23 189.088 52.89L187.828 59.64C184.168 59.46 180.928 58.23 178.108 55.95C175.288 53.67 173.878 50.73 173.878 47.13C173.878 40.83 176.518 36 181.798 32.64C187.078 29.22 193.768 27.51 201.868 27.51C207.088 27.51 211.678 28.14 215.638 29.4C222.418 31.68 226.918 35.64 229.138 41.28C229.858 43.26 230.218 44.88 230.218 46.14C230.218 47.34 230.218 48.15 230.218 48.57C229.978 51.87 228.748 55.11 226.528 58.29C224.368 61.47 221.098 63.66 216.718 64.86C219.358 65.4 221.158 66.54 222.118 68.28C223.078 70.02 223.588 72.66 223.648 76.2C223.708 82.26 223.978 85.95 224.458 87.27C224.998 88.53 226.078 89.16 227.698 89.16C232.078 89.16 235.648 84.99 238.408 76.65ZM183.238 96.54C180.058 96.54 177.508 95.58 175.588 93.66C173.668 91.74 172.708 89.37 172.708 86.55C172.708 79.23 178.078 73.11 188.818 68.19C190.978 51.39 192.088 42.78 192.148 42.36C194.668 40.74 197.518 39.93 200.698 39.93C202.018 39.93 203.518 40.11 205.198 40.47L199.528 78.9C197.728 90.66 192.298 96.54 183.238 96.54ZM179.368 85.47C179.368 87.39 180.388 88.35 182.428 88.35C184.828 88.35 186.358 86.19 187.018 81.87L187.828 75.75C182.188 79.05 179.368 82.29 179.368 85.47ZM314.633 59.82C313.253 61.32 310.973 62.67 307.793 63.87C304.613 65.01 302.063 65.58 300.143 65.58C298.283 65.58 296.903 65.52 296.003 65.4C294.503 74.28 290.663 81.69 284.483 87.63C278.363 93.57 271.223 96.54 263.063 96.54C254.963 96.54 248.843 94.02 244.703 88.98C240.623 83.94 238.583 77.37 238.583 69.27C238.583 63.99 239.393 58.86 241.013 53.88C242.633 48.84 244.853 44.37 247.673 40.47C250.553 36.57 254.153 33.45 258.473 31.11C262.793 28.71 267.293 27.51 271.973 27.51C276.713 27.51 280.583 28.59 283.583 30.75C286.643 32.85 288.173 35.79 288.173 39.57C288.173 42.45 287.153 45.03 285.113 47.31C283.133 49.53 280.373 50.64 276.833 50.64C274.973 50.64 273.323 50.19 271.883 49.29C270.443 48.33 269.723 46.83 269.723 44.79C269.723 43.83 269.963 42.99 270.443 42.27C270.923 41.55 271.403 41.1 271.883 40.92L272.693 40.56C272.693 42.96 273.653 44.16 275.573 44.16C276.473 44.16 277.253 43.86 277.913 43.26C278.573 42.6 278.933 41.88 278.993 41.1C279.053 40.32 279.023 39.72 278.903 39.3C278.783 38.82 278.543 38.28 278.183 37.68C277.343 36.18 275.573 35.43 272.873 35.43C269.333 35.43 265.973 37.11 262.793 40.47C259.613 43.83 257.063 48.15 255.143 53.43C253.283 58.71 252.353 64.11 252.353 69.63C252.353 74.25 253.103 78.36 254.603 81.96C255.443 83.88 256.673 85.41 258.293 86.55C259.913 87.63 261.863 88.17 264.143 88.17C267.923 88.17 271.283 86.58 274.223 83.4C277.223 80.22 279.413 76.38 280.793 71.88C282.233 67.38 282.953 62.82 282.953 58.2V57.12C282.773 56.46 282.683 55.83 282.683 55.23C282.683 52.35 283.703 50.16 285.743 48.66C287.063 47.7 288.713 47.22 290.693 47.22C291.233 47.22 292.103 47.31 293.303 47.49C294.503 47.67 295.343 47.94 295.823 48.3C294.563 48.36 293.573 48.78 292.853 49.56C292.193 50.34 291.863 51.39 291.863 52.71C291.863 54.03 292.463 55.26 293.663 56.4C295.343 58.02 297.953 58.83 301.493 58.83C305.093 58.83 308.813 57.36 312.653 54.42L314.633 59.82ZM322.019 38.22C320.759 40.98 318.899 43.26 316.439 45.06C313.979 46.86 311.309 47.76 308.429 47.76C305.549 47.76 303.179 46.92 301.319 45.24C299.519 43.56 298.619 41.07 298.619 37.77C298.619 34.47 300.089 31.95 303.029 30.21C305.969 28.41 309.419 27.51 313.379 27.51H349.109C349.289 28.35 349.379 29.16 349.379 29.94C349.379 31.98 348.719 33.87 347.399 35.61C346.079 37.35 344.069 38.22 341.369 38.22C341.249 38.22 341.159 38.22 341.099 38.22H322.019ZM310.319 38.22C308.099 38.22 306.989 39 306.989 40.56C306.989 41.82 307.949 42.45 309.869 42.45C310.769 42.45 311.819 42.06 313.019 41.28C314.279 40.5 315.329 39.48 316.169 38.22H310.319ZM328.949 78.72C327.449 90.48 322.139 96.36 313.019 96.36C309.779 96.36 307.169 95.37 305.189 93.39C303.269 91.41 302.309 88.92 302.309 85.92C302.309 78.9 307.649 72.9 318.329 67.92L321.479 43.98C323.939 42.42 326.789 41.64 330.029 41.64C331.529 41.64 332.969 41.79 334.349 42.09L328.949 78.72ZM317.339 75.57C311.759 78.81 308.969 81.93 308.969 84.93C308.969 87.09 310.019 88.17 312.119 88.17C314.519 88.17 316.019 85.86 316.619 81.24L317.339 75.57ZM384.481 96.54C375.181 96.54 368.341 94.17 363.961 89.43C359.641 84.69 357.481 78.45 357.481 70.71C357.481 62.91 358.801 55.83 361.441 49.47C364.141 43.05 368.131 37.8 373.411 33.72C378.691 29.58 384.391 27.51 390.511 27.51C396.691 27.51 401.521 29.01 405.001 32.01C408.541 34.95 410.311 38.94 410.311 43.98C410.311 48.96 408.751 53.1 405.631 56.4C402.571 59.7 398.971 61.35 394.831 61.35C390.691 61.35 387.481 60.45 385.201 58.65C382.921 56.79 381.781 54.84 381.781 52.8C381.781 50.7 382.591 49.08 384.211 47.94C385.891 46.74 388.321 46.14 391.501 46.14C390.721 46.92 390.331 47.97 390.331 49.29C390.331 50.55 390.721 51.66 391.501 52.62C392.281 53.58 393.481 54.06 395.101 54.06C396.721 54.06 398.341 53.22 399.961 51.54C401.581 49.8 402.391 47.52 402.391 44.7C402.391 41.88 401.521 39.63 399.781 37.95C398.101 36.27 395.701 35.43 392.581 35.43C388.501 35.43 384.781 37.08 381.421 40.38C378.121 43.68 375.601 47.88 373.861 52.98C372.121 58.08 371.251 63.45 371.251 69.09C371.251 73.95 372.301 78.24 374.401 81.96C375.481 83.88 377.071 85.41 379.171 86.55C381.331 87.69 383.851 88.26 386.731 88.26C391.651 88.26 396.391 86.7 400.951 83.58C405.511 80.4 409.351 76.32 412.471 71.34L415.531 76.83C411.991 82.59 407.551 87.33 402.211 91.05C396.871 94.71 390.961 96.54 384.481 96.54ZM461.269 96.18C457.909 96.18 455.359 95.1 453.619 92.94C451.939 90.72 450.799 86.61 450.199 80.61C449.839 77.49 449.479 73.44 449.119 68.46C444.919 69.72 440.689 71.04 436.429 72.42L433.369 80.88C432.769 82.5 432.349 83.67 432.109 84.39C431.869 85.05 431.419 86.07 430.759 87.45C430.159 88.83 429.619 89.85 429.139 90.51C428.719 91.11 428.089 91.89 427.249 92.85C426.469 93.81 425.659 94.5 424.819 94.92C422.659 96 420.349 96.54 417.889 96.54C415.429 96.54 413.419 95.67 411.859 93.93C410.359 92.13 409.609 89.94 409.609 87.36C409.609 86.64 409.669 85.89 409.789 85.11C410.569 79.35 416.479 74.1 427.519 69.36C430.639 61.38 435.829 47.94 443.089 29.04C445.009 27.96 447.439 27.42 450.379 27.42C451.039 27.42 451.669 27.42 452.269 27.42C452.869 27.42 453.589 27.42 454.429 27.42C455.329 27.42 456.439 27.6 457.759 27.96C457.819 30.78 459.199 48.27 461.899 80.43C462.139 83.13 462.469 84.9 462.889 85.74C463.309 86.52 464.029 86.91 465.049 86.91C466.729 86.91 468.949 85.77 471.709 83.49C474.529 81.21 477.049 78.36 479.269 74.94L481.789 81.06L479.629 83.94C473.329 92.1 467.209 96.18 461.269 96.18ZM446.959 43.08L439.129 64.95C443.329 63.51 446.449 62.46 448.489 61.8L446.959 43.08ZM424.369 77.19C418.789 80.01 415.999 82.77 415.999 85.47C415.999 87.39 416.719 88.35 418.159 88.35C419.239 88.35 420.109 87.57 420.769 86.01C421.549 84.33 422.749 81.39 424.369 77.19ZM538.027 76.65L540.907 81.06C537.967 91.38 531.877 96.54 522.637 96.54C520.537 96.54 518.707 96.15 517.147 95.37C515.647 94.59 514.507 93.66 513.727 92.58C512.947 91.5 512.317 90.12 511.837 88.44C511.177 85.92 510.817 82.59 510.757 78.45C510.757 74.31 510.247 71.46 509.227 69.9C508.267 68.34 506.407 67.47 503.647 67.29L504.637 59.64C504.757 59.64 504.847 59.64 504.907 59.64C508.387 59.64 511.267 58.65 513.547 56.67C516.007 54.45 517.237 51.6 517.237 48.12C517.237 44.64 515.587 41.7 512.287 39.3C509.047 36.9 504.847 35.7 499.687 35.7C493.027 35.7 487.897 37.35 484.297 40.65C482.377 42.45 481.417 44.61 481.417 47.13C481.417 50.31 483.847 52.23 488.707 52.89L487.447 59.64C483.787 59.46 480.547 58.23 477.727 55.95C474.907 53.67 473.497 50.73 473.497 47.13C473.497 40.83 476.137 36 481.417 32.64C486.697 29.22 493.387 27.51 501.487 27.51C506.707 27.51 511.297 28.14 515.257 29.4C522.037 31.68 526.537 35.64 528.757 41.28C529.477 43.26 529.837 44.88 529.837 46.14C529.837 47.34 529.837 48.15 529.837 48.57C529.597 51.87 528.367 55.11 526.147 58.29C523.987 61.47 520.717 63.66 516.337 64.86C518.977 65.4 520.777 66.54 521.737 68.28C522.697 70.02 523.207 72.66 523.267 76.2C523.327 82.26 523.597 85.95 524.077 87.27C524.617 88.53 525.697 89.16 527.317 89.16C531.697 89.16 535.267 84.99 538.027 76.65ZM482.857 96.54C479.677 96.54 477.127 95.58 475.207 93.66C473.287 91.74 472.327 89.37 472.327 86.55C472.327 79.23 477.697 73.11 488.437 68.19C490.597 51.39 491.707 42.78 491.767 42.36C494.287 40.74 497.137 39.93 500.317 39.93C501.637 39.93 503.137 40.11 504.817 40.47L499.147 78.9C497.347 90.66 491.917 96.54 482.857 96.54ZM478.987 85.47C478.987 87.39 480.007 88.35 482.047 88.35C484.447 88.35 485.977 86.19 486.637 81.87L487.447 75.75C481.807 79.05 478.987 82.29 478.987 85.47ZM535.052 47.76C535.052 41.34 537.842 36.3 543.422 32.64C549.002 28.98 555.422 27.15 562.682 27.15C571.982 27.15 580.142 29.82 587.162 35.16C590.642 37.86 593.342 41.46 595.262 45.96C597.182 50.4 598.142 55.32 598.142 60.72C598.142 71.34 595.112 79.98 589.052 86.64C582.752 93.42 574.862 96.81 565.382 96.81C563.282 96.81 561.062 96.54 558.722 96C556.382 95.46 554.522 94.74 553.142 93.84C550.922 95.52 548.072 96.36 544.592 96.36C541.172 96.36 538.502 95.4 536.582 93.48C534.662 91.56 533.702 89.1 533.702 86.1C533.702 79.02 539.072 72.99 549.812 68.01C550.112 65.49 550.532 62.1 551.072 57.84C551.672 53.52 552.122 50.04 552.422 47.4C552.782 44.76 553.022 43.02 553.142 42.18C555.602 40.62 558.452 39.84 561.692 39.84C563.192 39.84 564.632 39.99 566.012 40.29L560.342 78.72C559.802 82.14 559.052 84.99 558.092 87.27C559.952 87.75 561.452 87.99 562.592 87.99C569.492 87.99 574.832 85.38 578.612 80.16C582.512 74.7 584.462 68.1 584.462 60.36C584.462 50.46 580.892 43.35 573.752 39.03C569.792 36.63 565.442 35.43 560.702 35.43C554.642 35.43 549.842 37.08 546.302 40.38C544.262 42.24 543.242 44.49 543.242 47.13C543.242 48.51 543.662 49.83 544.502 51.09C545.342 52.29 546.812 52.98 548.912 53.16L548.012 59.01C543.632 58.77 540.362 57.57 538.202 55.41C536.102 53.19 535.052 50.64 535.052 47.76ZM540.362 84.93C540.362 87.09 541.382 88.17 543.422 88.17C544.262 88.17 545.132 87.63 546.032 86.55C546.992 85.41 547.652 83.64 548.012 81.24L548.822 75.66C543.182 78.84 540.362 81.93 540.362 84.93Z" fill="#FBEEFF"/>
</svg>
