<svg width="969" height="578" viewBox="0 0 969 578" fill="none" xmlns="http://www.w3.org/2000/svg">
<path d="M538.49 268.871L352.989 265.243M538.49 268.871L536.167 387.665M538.49 268.871L774.989 1.99539L966.408 123.664L672.539 425.984M538.49 268.871L530.123 276.021L532.485 575.907M352.989 265.243L365.776 499.515M352.989 265.243L144.905 107.596L2.86223 265.708L365.776 499.515M365.776 499.515L532.485 575.907M532.485 575.907L672.539 425.984M532.485 575.907L535.97 397.717M672.539 425.984L536.167 387.665M672.539 425.984L535.97 397.717M536.167 387.665L535.97 397.717" stroke="#84D688" stroke-width="3"/>
</svg>
