<svg width="253" height="380" viewBox="0 0 253 380" fill="none" xmlns="http://www.w3.org/2000/svg">
<path d="M120.927 167.217L123.596 239.881M120.927 167.217L171.182 165.371M120.927 167.217L2.7872 80.8727L49.8685 3.15596L184.286 111.125M120.927 167.217L124.138 170.325L250.817 162.446M123.596 239.881L222.309 229.445M123.596 239.881L61.6875 324.952L131.723 376.861L222.309 229.445M222.309 229.445L250.817 162.446M250.817 162.446L184.286 111.125M250.817 162.446L175.434 165.215M184.286 111.125L171.182 165.371M184.286 111.125L175.434 165.215M171.182 165.371L175.434 165.215" stroke="#80DC9F" stroke-width="3"/>
</svg>
