<svg width="107" height="73" viewBox="0 0 107 73" fill="none" xmlns="http://www.w3.org/2000/svg">
<path id="Vector 75" d="M20.4558 32.8769C17.9419 33.5643 14.8677 34.7226 12.022 36.3259M65.1617 52.6545C62.5628 54.7659 53.5904 63.9549 49.6668 65.0687M49.6668 65.0687C35.219 69.17 14.3523 66.2687 5.93698 54.6047C-0.0636511 46.2877 5.3514 40.0841 12.022 36.3259M49.6668 65.0687C56.4457 63.2485 71.7195 61.3041 78.5835 68.0886C87.1635 76.5692 95.5177 47.2244 95.8539 44.0053C96.1901 40.7863 107.83 35.9585 103.139 27.5655C98.4473 19.1726 86.0785 17.6484 79.613 15.5785C73.1475 13.5086 50.243 6.23534 43.5982 3.21698C36.9534 0.198611 16.1162 7.78498 14.2943 14.5679C12.4723 21.3509 8.18961 27.7036 12.022 36.3259M25.6838 49.4613C35.0728 44.8633 48.0451 29.9472 44.657 27.7338C41.9466 25.9632 41.8293 20.1554 42.1094 17.4728C41.368 13.9088 38.5941 7.94753 33.4295 12.6148" stroke="white" stroke-width="5"/>
</svg>
