<svg width="495" height="607" viewBox="0 0 495 607" fill="none" xmlns="http://www.w3.org/2000/svg">
<path d="M157.619 140.761L73.6606 49.3596C85.6276 50.6973 117.232 50.9879 147.913 41.4485M157.619 140.761C173.392 149.042 214.134 165.864 250.919 166.9C287.705 167.937 339.659 153.729 361.038 146.495M157.619 140.761C150.908 147.748 164.426 177.245 157.619 185.5M147.913 41.4485C186.264 29.5243 225.601 -17.386 255.23 13.9612M147.913 41.4485L177.71 102.312M255.23 13.9612C284.859 45.3084 325.406 61.9574 363.827 47.5342M255.23 13.9612L278.67 105.158M363.827 47.5342C394.565 35.9956 432.612 44.3042 447.794 49.9008L361.038 146.495M363.827 47.5342L335.648 106.764M361.038 146.495C367.346 152.72 355.459 175.44 363.827 185.5M157.619 185.5C111.278 241.694 44.0483 302.045 19.2899 363.452C-16.2045 451.487 7.91743 571.715 71.399 591.011C134.881 610.307 259.099 604.305 371.28 599.463C483.461 594.622 505.946 506.721 484.105 376.554C469.899 291.888 400.218 229.25 363.827 185.5M157.619 185.5C172.066 195.432 192.492 199.537 223.5 200.863M363.827 185.5C343.277 193.799 311.219 199.221 274.832 200.863M223.5 200.863C231.572 201.208 240.36 201.364 249.947 201.387C258.404 201.406 266.726 201.228 274.832 200.863M223.5 200.863C216.333 216.575 201.6 250.4 200 260M274.832 200.863C279.555 212.908 289.1 240.5 289.5 254.5" stroke="#FFE7D2" stroke-width="5"/>
</svg>
