<svg width="107" height="134" viewBox="0 0 107 134" fill="none" xmlns="http://www.w3.org/2000/svg">
<path id="Vector 73" d="M53.631 23.1333C52.1554 19.9856 49.8576 16.1791 46.9055 12.727M30.1624 83.4181C26.461 80.3525 10.7321 70.0247 8.36548 65.1173M8.36548 65.1173C-0.348864 47.0473 0.772742 19.7612 17.5254 7.3444C29.4711 -1.50952 39.9857 4.63501 46.9055 12.727M8.36548 65.1173C12.2926 73.6098 17.7905 93.0349 8.36548 102.795C-3.41579 114.996 43.5214 121.814 48.5762 121.814C53.631 121.814 63.0184 136.167 75.2943 128.991C87.5702 121.814 87.9312 105.666 90.0976 97.0539C92.2639 88.4418 99.8461 57.9406 103.457 48.9696C107.067 39.9987 91.9029 14.1623 81.0712 12.727C70.2395 11.2916 59.677 6.62671 46.9055 12.727M28.7181 32.1042C37.3835 43.587 62.6574 58.2994 65.5458 53.6345C67.8566 49.9026 76.8589 48.9696 81.0712 48.9696C86.487 47.5343 95.2968 43.1564 87.2091 37.1279" stroke="white" stroke-width="5"/>
</svg>
