<svg width="313" height="372" viewBox="0 0 313 372" fill="none" xmlns="http://www.w3.org/2000/svg">
<path d="M165.834 202.426L81.8442 259.417M165.834 202.426L202.331 256.213M165.834 202.426L187.132 8.51683L311.062 2.37317L275.341 230.238M165.834 202.426L164.357 208.263L260.163 341.445M81.8442 259.417L161.575 360.001M81.8442 259.417L-60.8953 254.758L-74.3744 370.25L161.575 360.001M161.575 360.001L260.163 341.445M260.163 341.445L275.341 230.238M260.163 341.445L205.419 260.764M275.341 230.238L202.331 256.213M275.341 230.238L205.419 260.764M202.331 256.213L205.419 260.764" stroke="#80DC9F" stroke-width="3"/>
</svg>
