<svg width="222" height="213" viewBox="0 0 222 213" fill="none" xmlns="http://www.w3.org/2000/svg">
<path d="M68.7633 87.8996L103.021 133.895L213.01 141.098L219.558 210.902L90.0429 196.401L26.8911 190.597L13.966 135.406L2.31694 2.47075L67.8454 7.20926L68.7633 87.8996Z" fill="#F0F7C7"/>
<path d="M103.021 133.895L68.7633 87.8996M103.021 133.895L73.5659 155.833M103.021 133.895L213.01 141.098L219.558 210.902L90.0429 196.401M103.021 133.895L99.6895 133.206L26.8911 190.597M68.7633 87.8996L13.966 135.406M68.7633 87.8996L67.8454 7.20926L2.31694 2.47075L13.966 135.406M13.966 135.406L26.8911 190.597M26.8911 190.597L90.0429 196.401M26.8911 190.597L71.0736 157.689M90.0429 196.401L73.5659 155.833M90.0429 196.401L71.0736 157.689M73.5659 155.833L71.0736 157.689" stroke="#80DC9F" stroke-width="3"/>
</svg>
