<svg width="78" height="97" viewBox="0 0 78 97" fill="none" xmlns="http://www.w3.org/2000/svg">
<path id="Vector 76" d="M39.0934 17.3135C38.0415 15.0757 36.4034 12.3695 34.299 9.91526M22.3633 60.1722C19.7247 57.9928 8.51197 50.6503 6.8249 47.1615M6.8249 47.1615C0.612691 34.3149 1.41225 14.9162 13.3548 6.0886C21.8705 -0.205984 29.366 4.16239 34.299 9.91526M6.8249 47.1615C9.62441 53.1992 13.5437 67.0092 6.8249 73.9482C-1.57363 82.622 31.8866 87.4691 35.49 87.4691C39.0934 87.4691 45.7854 97.6736 54.5365 92.5714C63.2877 87.4691 63.5451 75.9891 65.0894 69.8665C66.6337 63.7438 72.0388 42.0593 74.6127 35.6815C77.1865 29.3037 66.3763 10.9357 58.6547 9.91526C50.9331 8.89481 43.4034 5.57836 34.299 9.91526M21.3337 23.6913C27.511 31.8548 45.528 42.3144 47.5871 38.998C49.2344 36.3448 55.6519 35.6815 58.6547 35.6815C62.5155 34.6611 68.7957 31.5487 63.0303 27.2628" stroke="white" stroke-width="5"/>
</svg>
