<svg width="180" height="223" viewBox="0 0 180 223" fill="none" xmlns="http://www.w3.org/2000/svg">
<path d="M81.1593 134.277L57.5995 88.2705M81.1593 134.277L51.6968 149.365M81.1593 134.277L177.833 157.147L173.201 220.165L60.2667 187.887M81.1593 134.277L78.3017 133.166L5.0099 173.273M57.5995 88.2705L1.78603 122.287M57.5995 88.2705L68.8648 16.42L11.3362 2.39771L1.78603 122.287M1.78603 122.287L5.0099 173.273M5.0099 173.273L60.2667 187.887M5.0099 173.273L49.2038 150.642M60.2667 187.887L51.6968 149.365M60.2667 187.887L49.2038 150.642M51.6968 149.365L49.2038 150.642" stroke="#80DC9F" stroke-width="3"/>
</svg>
