<svg width="164" height="154" viewBox="0 0 164 154" fill="none" xmlns="http://www.w3.org/2000/svg">
<path id="Vector 74" d="M117.568 113.746C121.616 114.894 126.918 115.814 132.412 115.855M80.9471 44.5237C86.6802 43.5746 108.573 37.4012 114.936 39.1309M114.936 39.1309C138.368 45.5002 162.456 68.1568 160.573 93.2969C159.231 111.223 145.291 115.952 132.412 115.855M114.936 39.1309C104.057 35.9837 81.9285 25.6033 80.448 9.25969C78.5974 -11.1698 35.2375 26.2811 31.2401 30.8963C27.2426 35.5116 6.68054 32.7033 3.54156 49.6016C0.402576 66.4999 14.8976 79.6315 21.0673 88.4372C27.2371 97.2429 49.1597 128.347 54.5158 138.756C59.8718 149.165 95.5131 155.802 105.393 147.05C115.273 138.298 127.896 132.353 132.412 115.855M129.058 83.8868C111.695 82.6951 78.2411 94.1075 80.2268 100.443C81.8153 105.512 75.55 114.471 72.2188 118.317C69.2496 124.4 66.2898 135.914 78.2038 133.309" stroke="white" stroke-width="5"/>
</svg>
