<svg width="234" height="167" viewBox="0 0 234 167" fill="none" xmlns="http://www.w3.org/2000/svg">
<path d="M105.98 86.0276L58.6132 65.337M105.98 86.0276L92.7298 116.361M105.98 86.0276L195.285 42.5144L231.603 94.2224L123.755 140.75M105.98 86.0276L103.065 86.9769L71.7334 164.428M58.6132 65.337L36.954 127.007M58.6132 65.337L21.8365 2.59248L-31.5688 28.1667L36.954 127.007M36.954 127.007L71.7334 164.428M71.7334 164.428L123.755 140.75M71.7334 164.428L91.6086 118.928M123.755 140.75L92.7298 116.361M123.755 140.75L91.6086 118.928M92.7298 116.361L91.6086 118.928" stroke="#80DC9F" stroke-width="3"/>
</svg>
