<svg width="189" height="157" viewBox="0 0 189 157" fill="none" xmlns="http://www.w3.org/2000/svg">
<g id="Vector 18">
<path d="M128.745 91.182L98.9208 56.5936L11.1462 57.1201L1.97973 2.04594L105.679 6.20676L156.171 7.22965L169.572 50.3341L186.377 155.265L134.058 155.223L128.745 91.182Z" fill="#F0F7C7"/>
<path d="M98.9208 56.5936L128.745 91.182M98.9208 56.5936L121.071 37.4945M98.9208 56.5936L11.1462 57.1201L1.97974 2.04595L105.679 6.20676M98.9208 56.5936L101.606 56.9518L156.171 7.22965M128.745 91.182L169.572 50.3341M128.745 91.182L134.058 155.223L186.377 155.265L169.572 50.3341M169.572 50.3341L156.171 7.22965M156.171 7.22965L105.679 6.20676M156.171 7.22965L122.945 35.8784M105.679 6.20676L121.071 37.4945M105.679 6.20676L122.945 35.8784M121.071 37.4945L122.945 35.8784" stroke="#80DC9F" stroke-width="3"/>
</g>
</svg>
